<svg width="28" height="20" viewBox="0 0 28 20" fill="none" xmlns="http://www.w3.org/2000/svg">
<rect width="28" height="20" rx="2" fill="white"/>
<mask id="mask0" mask-type="alpha" maskUnits="userSpaceOnUse" x="0" y="0" width="28" height="20">
<rect width="28" height="20" rx="2" fill="white"/>
</mask>
<g mask="url(#mask0)">
<rect x="13.3334" width="14.6667" height="20" fill="#1AB11F"/>
<path fill-rule="evenodd" clip-rule="evenodd" d="M0 20H9.33333V0H0V20Z" fill="#262626"/>
<path fill-rule="evenodd" clip-rule="evenodd" d="M9.33337 20H18.6667V0H9.33337V20Z" fill="#DC0D18"/>
<path opacity="0.75" d="M12 9.33331C12 8.96512 11.7016 8.66665 11.3334 8.66665C10.9652 8.66665 10.6667 8.96512 10.6667 9.33331H12ZM12.3291 12.2181C12.6475 12.4029 13.0555 12.2945 13.2403 11.976C13.4251 11.6576 13.3167 11.2496 12.9982 11.0648L12.3291 12.2181ZM15.0757 11.0198C14.7655 11.2182 14.6749 11.6305 14.8733 11.9406C15.0716 12.2508 15.4839 12.3414 15.7941 12.1431L15.0757 11.0198ZM17.3334 9.33331C17.3334 8.96512 17.0349 8.66665 16.6667 8.66665C16.2985 8.66665 16 8.96512 16 9.33331H17.3334ZM10.6667 9.33331C10.6667 10.5664 11.3366 11.6422 12.3291 12.2181L12.9982 11.0648C12.4 10.7177 12 10.0718 12 9.33331H10.6667ZM15.7941 12.1431C16.7183 11.552 17.3334 10.5147 17.3334 9.33331H16C16 10.041 15.633 10.6634 15.0757 11.0198L15.7941 12.1431Z" fill="white"/>
<path fill-rule="evenodd" clip-rule="evenodd" d="M14 10.6667C14.7363 10.6667 15.3333 9.77126 15.3333 8.66669C15.3333 7.56212 14.7363 6.66669 14 6.66669C13.2636 6.66669 12.6666 7.56212 12.6666 8.66669C12.6666 9.77126 13.2636 10.6667 14 10.6667Z" fill="white" fill-opacity="0.5"/>
</g>
</svg>
