<svg width="28" height="20" viewBox="0 0 28 20" fill="none" xmlns="http://www.w3.org/2000/svg">
<rect width="28" height="20" rx="2" fill="white"/>
<mask id="mask0" mask-type="alpha" maskUnits="userSpaceOnUse" x="0" y="0" width="28" height="20">
<rect width="28" height="20" rx="2" fill="white"/>
</mask>
<g mask="url(#mask0)">
<rect width="28" height="20" fill="#05AB41"/>
<path fill-rule="evenodd" clip-rule="evenodd" d="M3.53164 10.5597C3.12564 10.297 3.12564 9.70301 3.53164 9.44031L13.6378 2.90103C13.8582 2.75843 14.1417 2.75843 14.3621 2.90103L24.4683 9.44031C24.8743 9.70301 24.8743 10.297 24.4683 10.5597L14.3621 17.099C14.1417 17.2416 13.8582 17.2416 13.6378 17.099L3.53164 10.5597Z" fill="#FDD216"/>
<path fill-rule="evenodd" clip-rule="evenodd" d="M14 14.6666C16.5774 14.6666 18.6667 12.5773 18.6667 9.99998C18.6667 7.42265 16.5774 5.33331 14 5.33331C11.4227 5.33331 9.33337 7.42265 9.33337 9.99998C9.33337 12.5773 11.4227 14.6666 14 14.6666Z" fill="#053087"/>
<mask id="mask1" mask-type="alpha" maskUnits="userSpaceOnUse" x="9" y="5" width="10" height="10">
<path fill-rule="evenodd" clip-rule="evenodd" d="M14 14.6666C16.5774 14.6666 18.6667 12.5773 18.6667 9.99998C18.6667 7.42265 16.5774 5.33331 14 5.33331C11.4227 5.33331 9.33337 7.42265 9.33337 9.99998C9.33337 12.5773 11.4227 14.6666 14 14.6666Z" fill="white"/>
</mask>
<g mask="url(#mask1)">
<path d="M8.77999 8.78021C9.51269 8.18688 11.877 8.74895 14.0841 9.33769C16.2912 9.92643 18.5931 11.1604 19.1792 11.8842" stroke="white" stroke-width="1.33333" stroke-linecap="square"/>
</g>
</g>
</svg>
