<svg width="28" height="20" viewBox="0 0 28 20" fill="none" xmlns="http://www.w3.org/2000/svg">
<rect x="0.25" y="0.25" width="27.5" height="19.5" rx="1.75" fill="white" stroke="#F5F5F5" stroke-width="0.5"/>
<mask id="mask0" mask-type="alpha" maskUnits="userSpaceOnUse" x="0" y="0" width="28" height="20">
<rect x="0.25" y="0.25" width="27.5" height="19.5" rx="1.75" fill="white" stroke="white" stroke-width="0.5"/>
</mask>
<g mask="url(#mask0)">
<rect x="20" width="8" height="20" fill="#FF3131"/>
<path fill-rule="evenodd" clip-rule="evenodd" d="M0 20H8V0H0V20Z" fill="#FF3131"/>
<path fill-rule="evenodd" clip-rule="evenodd" d="M16.1118 9.22151C15.8786 9.45471 15.4846 9.24383 15.5493 8.92043L16 6.66665L14.6667 7.33331L14 5.33331L13.3334 7.33331L12 6.66665L12.4508 8.92043C12.5155 9.24383 12.1214 9.45471 11.8882 9.22151L11.5691 8.90235C11.4389 8.77217 11.2278 8.77217 11.0977 8.90235L10.6667 9.33331L9.33337 8.66665L10 9.99998L9.56908 10.4309C9.4389 10.5611 9.4389 10.7722 9.56908 10.9023L11.3334 12.6666H13.3334L13.6667 14.6666H14.3334L14.6667 12.6666H16.6667L18.431 10.9023C18.5612 10.7722 18.5612 10.5611 18.431 10.4309L18 9.99998L18.6667 8.66665L17.3334 9.33331L16.9024 8.90235C16.7722 8.77217 16.5612 8.77217 16.431 8.90235L16.1118 9.22151Z" fill="#FF3131"/>
</g>
</svg>
