<svg width="28" height="20" viewBox="0 0 28 20" fill="none" xmlns="http://www.w3.org/2000/svg">
<rect width="28" height="20" rx="2" fill="white"/>
<mask id="mask0" mask-type="alpha" maskUnits="userSpaceOnUse" x="0" y="0" width="28" height="20">
<rect width="28" height="20" rx="2" fill="white"/>
</mask>
<g mask="url(#mask0)">
<rect width="28" height="20" fill="#19BFBF"/>
<path fill-rule="evenodd" clip-rule="evenodd" d="M17.0976 17.7643L16.0556 16.7223C16.019 16.6857 15.9914 16.6411 15.9751 16.592L15.4092 14.8944C15.3639 14.7584 15.2366 14.6667 15.0932 14.6667C14.8765 14.6667 14.7175 14.8703 14.7701 15.0805L15.2875 17.1502C15.3159 17.2638 15.2826 17.384 15.1998 17.4668L14.9023 17.7643C14.7722 17.8945 14.5611 17.8945 14.4309 17.7643L14.0976 17.431C14.0351 17.3684 14 17.2837 14 17.1953V16.0787C14 16.0269 13.9879 15.9759 13.9648 15.9296L13.4254 14.8509C13.369 14.738 13.2535 14.6667 13.1273 14.6667H11.412C11.3602 14.6667 11.3092 14.6787 11.2629 14.7018L10.1235 15.2716C10.0444 15.3111 9.98425 15.3804 9.9563 15.4643L9.37695 17.2023C9.349 17.2862 9.28887 17.3555 9.2098 17.3951L8.14903 17.9255C8.05519 17.9724 7.94473 17.9724 7.85089 17.9255L6.85089 17.4255C6.73796 17.369 6.66663 17.2536 6.66663 17.1273V15C6.66663 14.8159 6.81586 14.6667 6.99996 14.6667H8.33329C8.51739 14.6667 8.66663 14.5174 8.66663 14.3333V13.3874C8.66663 13.3516 8.6724 13.316 8.68373 13.282L9.25732 11.5612C9.30269 11.4251 9.43007 11.3333 9.57355 11.3333H10.5879C10.6397 11.3333 10.6907 11.3213 10.737 11.2981L11.9296 10.7018C11.9759 10.6787 12.0269 10.6667 12.0786 10.6667H13C13.1841 10.6667 13.3333 10.5174 13.3333 10.3333V10.1381C13.3333 10.0497 13.3684 9.96487 13.4309 9.90236L13.6729 9.66034C13.8338 9.49946 14.105 9.54347 14.2068 9.74697L14.5745 10.4824C14.631 10.5953 14.7464 10.6667 14.8726 10.6667H16.4264C16.5698 10.6667 16.6972 10.5748 16.7426 10.4387L17.2573 8.89458C17.3027 8.75847 17.4301 8.66666 17.5735 8.66666H18.3333C18.5174 8.66666 18.6666 8.51742 18.6666 8.33332C18.6666 8.14923 18.5174 7.99999 18.3333 7.99999H17.6666C17.4825 7.99999 17.3333 7.85075 17.3333 7.66666V6.74535C17.3333 6.6936 17.3453 6.64256 17.3685 6.59627L17.8925 5.54821C17.9567 5.41988 17.9315 5.26489 17.8301 5.16344L17.569 4.90236C17.4388 4.77218 17.2278 4.77218 17.0976 4.90236L16.0976 5.90236C16.0351 5.96487 16 6.04966 16 6.13806V7.27923C16 7.31506 15.9942 7.35065 15.9829 7.38464L15.4093 9.1054C15.3639 9.24151 15.2365 9.33332 15.093 9.33332H14.8047C14.7163 9.33332 14.6315 9.2982 14.569 9.23569L14.096 8.76274C14.0345 8.70122 14 8.61778 14 8.53078C14 8.28691 13.7433 8.12831 13.5252 8.23736L12.8815 8.55921C12.7532 8.62338 12.5982 8.59823 12.4967 8.49677L12.0976 8.09762C12.0351 8.03511 12 7.95032 12 7.86192V6.80473C12 6.71632 12.0351 6.63154 12.0976 6.56903L13.3333 5.33332L15.2777 3.38896C15.3142 3.35237 15.3589 3.3248 15.4079 3.30844L17.282 2.68376C17.316 2.67243 17.3516 2.66666 17.3874 2.66666H18.4606C18.5869 2.66666 18.7023 2.73799 18.7588 2.85092L19.2981 3.92961C19.3212 3.97589 19.3333 4.02693 19.3333 4.07868V5.86192C19.3333 5.95032 19.3684 6.03511 19.4309 6.09762L19.8543 6.52098C19.9436 6.61026 19.9747 6.74232 19.9348 6.8621L19.4138 8.42512C19.3663 8.56773 19.4201 8.7245 19.5451 8.80788L21.3333 9.99999L22.3289 10.4978C22.5082 10.5875 22.5684 10.814 22.4572 10.9808L21.3893 12.5827C21.3528 12.6374 21.3333 12.7018 21.3333 12.7676V14.4264C21.3333 14.5699 21.2415 14.6973 21.1054 14.7426L19.4643 15.2897C19.3804 15.3176 19.3111 15.3777 19.2715 15.4568L18.6908 16.6183C18.6748 16.6503 18.6537 16.6796 18.6284 16.7049L17.569 17.7643C17.4388 17.8945 17.2278 17.8945 17.0976 17.7643ZM11.3333 17.3333C11.7015 17.3333 12 17.0348 12 16.6667C12 16.2985 11.7015 16 11.3333 16C10.9651 16 10.6666 16.2985 10.6666 16.6667C10.6666 17.0348 10.9651 17.3333 11.3333 17.3333ZM9.33329 8.66666C9.33329 9.03485 9.03482 9.33332 8.66663 9.33332C8.29844 9.33332 7.99996 9.03485 7.99996 8.66666C7.99996 8.29847 8.29844 7.99999 8.66663 7.99999C9.03482 7.99999 9.33329 8.29847 9.33329 8.66666Z" fill="white"/>
<path fill-rule="evenodd" clip-rule="evenodd" d="M9.96485 8.73704C9.98799 8.69075 10 8.63972 10 8.58797V8.07868C10 8.02693 9.98799 7.97589 9.96485 7.92961L9.57458 7.14906C9.46376 6.92743 9.62492 6.66666 9.87272 6.66666H10.3334C10.5175 6.66666 10.6667 6.81589 10.6667 6.99999V8.58797C10.6667 8.63972 10.6788 8.69075 10.7019 8.73704L11.0922 9.51759C11.203 9.73922 11.0418 9.99999 10.794 9.99999H9.87272C9.62492 9.99999 9.46376 9.73922 9.57458 9.51759L9.96485 8.73704Z" fill="white"/>
</g>
</svg>
