<svg width="28" height="20" viewBox="0 0 28 20" fill="none" xmlns="http://www.w3.org/2000/svg">
<rect x="0.25" y="0.25" width="27.5" height="19.5" rx="1.75" fill="white" stroke="#F5F5F5" stroke-width="0.5"/>
<mask id="mask0" mask-type="alpha" maskUnits="userSpaceOnUse" x="0" y="0" width="28" height="20">
<rect x="0.25" y="0.25" width="27.5" height="19.5" rx="1.75" fill="white" stroke="white" stroke-width="0.5"/>
</mask>
<g mask="url(#mask0)">
<path fill-rule="evenodd" clip-rule="evenodd" d="M0 5.33333H28V0H0V5.33333Z" fill="#FFCB49"/>
<path fill-rule="evenodd" clip-rule="evenodd" d="M0 14.6666H28V9.33331H0V14.6666Z" fill="#DC1D34"/>
<path fill-rule="evenodd" clip-rule="evenodd" d="M0 20H28V14.6667H0V20Z" fill="#4985D4"/>
<path fill-rule="evenodd" clip-rule="evenodd" d="M0 20L13.3333 10L0 0V20Z" fill="#4BA343"/>
<path fill-rule="evenodd" clip-rule="evenodd" d="M5.33337 14C5.67867 14 6.01375 13.9562 6.33337 13.874C4.60815 13.4299 3.33337 11.8638 3.33337 10C3.33337 8.13616 4.60815 6.57006 6.33337 6.12602C6.01375 6.04375 5.67867 6 5.33337 6C3.12423 6 1.33337 7.79086 1.33337 10C1.33337 12.2091 3.12423 14 5.33337 14ZM8.00004 7.33333C8.00004 7.70152 7.70156 8 7.33337 8C6.96518 8 6.66671 7.70152 6.66671 7.33333C6.66671 6.96514 6.96518 6.66667 7.33337 6.66667C7.70156 6.66667 8.00004 6.96514 8.00004 7.33333ZM7.33337 10.6667C7.70156 10.6667 8.00004 10.3682 8.00004 10C8.00004 9.63181 7.70156 9.33333 7.33337 9.33333C6.96518 9.33333 6.66671 9.63181 6.66671 10C6.66671 10.3682 6.96518 10.6667 7.33337 10.6667ZM8.00004 12.6667C8.00004 13.0349 7.70156 13.3333 7.33337 13.3333C6.96518 13.3333 6.66671 13.0349 6.66671 12.6667C6.66671 12.2985 6.96518 12 7.33337 12C7.70156 12 8.00004 12.2985 8.00004 12.6667Z" fill="white"/>
</g>
</svg>
