<svg width="28" height="20" viewBox="0 0 28 20" fill="none" xmlns="http://www.w3.org/2000/svg">
<rect x="0.25" y="0.25" width="27.5" height="19.5" rx="1.75" fill="white" stroke="#F5F5F5" stroke-width="0.5"/>
<mask id="mask0" mask-type="alpha" maskUnits="userSpaceOnUse" x="0" y="0" width="28" height="20">
<rect x="0.25" y="0.25" width="27.5" height="19.5" rx="1.75" fill="white" stroke="white" stroke-width="0.5"/>
</mask>
<g mask="url(#mask0)">
<path fill-rule="evenodd" clip-rule="evenodd" d="M20 3.33335C20.3631 3.1518 20.7317 3.56925 20.5065 3.90703L20.0673 4.56582C20.0229 4.6324 19.9658 4.68954 19.8992 4.73393L18.055 5.9634C18.0184 5.98776 17.9844 6.01566 17.9534 6.0467L17.8048 6.19528C17.5444 6.45563 17.5444 6.87774 17.8048 7.13809L18.1953 7.52862C18.4557 7.78897 18.4557 8.21108 18.1953 8.47143L17.6731 8.99358C17.4702 9.19649 17.1603 9.24679 16.9036 9.11846L16.5963 8.96483C16.267 8.80017 15.8666 8.93365 15.7019 9.26297L15.4569 9.75303C15.3778 9.91118 15.2391 10.0314 15.0714 10.0873L13.436 10.6325C13.368 10.6551 13.2968 10.6667 13.2252 10.6667H12.4121C12.1595 10.6667 11.9287 10.8094 11.8158 11.0352L11.6315 11.4037C11.4669 11.7331 11.0664 11.8665 10.7371 11.7019L8.76347 10.7151C8.69938 10.683 8.64088 10.6409 8.59021 10.5902L7.52864 9.52862C7.40361 9.40359 7.33337 9.23402 7.33337 9.05721V8.47143C7.33337 8.21108 7.54443 8.00002 7.80478 8.00002C7.9298 8.00002 8.04971 7.95035 8.13811 7.86195L9.13811 6.86195C9.26314 6.73693 9.43271 6.66669 9.60952 6.66669H10.1862C10.4732 6.66669 10.7279 6.48307 10.8187 6.21084L11.1473 5.22501C11.2536 4.90605 11.5808 4.71617 11.9105 4.78211L14.5197 5.30395C14.6165 5.32331 14.7164 5.32094 14.8121 5.29699L17.2624 4.68444C17.3096 4.67264 17.3553 4.65571 17.3988 4.63396L18.6667 4.00002L20 3.33335Z" fill="#E7832C"/>
<path fill-rule="evenodd" clip-rule="evenodd" d="M14 16C14.3682 16 14.6667 15.7015 14.6667 15.3334C14.6667 14.9652 14.3682 14.6667 14 14.6667C13.6319 14.6667 13.3334 14.9652 13.3334 15.3334C13.3334 15.7015 13.6319 16 14 16Z" fill="#445128"/>
<path opacity="0.75" d="M16 14.6667C16 14.6667 18 14 18.6667 12.6667" stroke="#445128" stroke-width="1.33333" stroke-linecap="round"/>
<path opacity="0.75" d="M12 14.6667C12 14.6667 10 14 9.33333 12.6667" stroke="#445128" stroke-width="1.33333" stroke-linecap="round"/>
</g>
</svg>
