<svg width="28" height="20" viewBox="0 0 28 20" fill="none" xmlns="http://www.w3.org/2000/svg">
<rect width="28" height="20" rx="2" fill="white"/>
<mask id="mask0" mask-type="alpha" maskUnits="userSpaceOnUse" x="0" y="0" width="28" height="20">
<rect width="28" height="20" rx="2" fill="white"/>
</mask>
<g mask="url(#mask0)">
<path fill-rule="evenodd" clip-rule="evenodd" d="M28 0V10H0V0H28Z" fill="#29C53F"/>
<path fill-rule="evenodd" clip-rule="evenodd" d="M28 10V20.6667H0V10H28Z" fill="#579DED"/>
<path fill-rule="evenodd" clip-rule="evenodd" d="M0 20L28 10L0 0V20Z" fill="#F42D56"/>
<path d="M12.6667 9.99998C12.6667 12.2091 10.8758 14 8.66667 14C6.45753 14 4.66667 12.2091 4.66667 9.99998C4.66667 7.79084 6.45753 5.99998 8.66667 5.99998C10.8758 5.99998 12.6667 7.79084 12.6667 9.99998Z" stroke="#FFC63C" stroke-width="1.33333"/>
<path fill-rule="evenodd" clip-rule="evenodd" d="M8.00004 9.33333C8.36823 9.33333 8.66671 9.03486 8.66671 8.66667C8.66671 8.29848 8.36823 8 8.00004 8C7.63185 8 7.33337 8.29848 7.33337 8.66667C7.33337 9.03486 7.63185 9.33333 8.00004 9.33333Z" fill="#FFC63C"/>
<path fill-rule="evenodd" clip-rule="evenodd" d="M9.33329 10C9.70148 10 9.99996 9.70154 9.99996 9.33335C9.99996 8.96516 9.70148 8.66669 9.33329 8.66669C8.9651 8.66669 8.66663 8.96516 8.66663 9.33335C8.66663 9.70154 8.9651 10 9.33329 10Z" fill="#FFC63C"/>
<path fill-rule="evenodd" clip-rule="evenodd" d="M8.66667 8.66665C9.03486 8.66665 9.33333 8.36817 9.33333 7.99998C9.33333 7.63179 9.03486 7.33331 8.66667 7.33331C8.29848 7.33331 8 7.63179 8 7.99998C8 8.36817 8.29848 8.66665 8.66667 8.66665Z" fill="#FFC63C"/>
<path fill-rule="evenodd" clip-rule="evenodd" d="M8.00004 10.6666C8.36823 10.6666 8.66671 10.3682 8.66671 9.99998C8.66671 9.63179 8.36823 9.33331 8.00004 9.33331C7.63185 9.33331 7.33337 9.63179 7.33337 9.99998C7.33337 10.3682 7.63185 10.6666 8.00004 10.6666Z" fill="#FFC63C"/>
<path fill-rule="evenodd" clip-rule="evenodd" d="M9.33329 11.3333C9.70148 11.3333 9.99996 11.0349 9.99996 10.6667C9.99996 10.2985 9.70148 10 9.33329 10C8.9651 10 8.66663 10.2985 8.66663 10.6667C8.66663 11.0349 8.9651 11.3333 9.33329 11.3333Z" fill="#FFC63C"/>
<path fill-rule="evenodd" clip-rule="evenodd" d="M8.00004 12C8.36823 12 8.66671 11.7015 8.66671 11.3334C8.66671 10.9652 8.36823 10.6667 8.00004 10.6667C7.63185 10.6667 7.33337 10.9652 7.33337 11.3334C7.33337 11.7015 7.63185 12 8.00004 12Z" fill="#FFC63C"/>
<path fill-rule="evenodd" clip-rule="evenodd" d="M9.33329 12.6666C9.70148 12.6666 9.99996 12.3682 9.99996 12C9.99996 11.6318 9.70148 11.3333 9.33329 11.3333C8.9651 11.3333 8.66663 11.6318 8.66663 12C8.66663 12.3682 8.9651 12.6666 9.33329 12.6666Z" fill="#FFC63C"/>
</g>
</svg>
