<svg width="28" height="20" viewBox="0 0 28 20" fill="none" xmlns="http://www.w3.org/2000/svg">
<rect width="28" height="20" rx="2" fill="white"/>
<mask id="mask0" mask-type="alpha" maskUnits="userSpaceOnUse" x="0" y="0" width="28" height="20">
<rect width="28" height="20" rx="2" fill="white"/>
</mask>
<g mask="url(#mask0)">
<rect width="28" height="20" fill="#07319C"/>
<path fill-rule="evenodd" clip-rule="evenodd" d="M17.3334 9.99998C17.3334 8.90624 17.3334 7.61312 17.3334 6.6658C17.3334 5.92942 17.9303 5.33331 18.6667 5.33331H22.6667C23.4031 5.33331 24 5.92942 24 6.6658C24 7.61313 24 8.90624 24 9.99998C24 13.3333 20.6667 14.6666 20.6667 14.6666C20.6667 14.6666 17.3334 13.3333 17.3334 9.99998Z" fill="#0072C4"/>
<mask id="mask1" mask-type="alpha" maskUnits="userSpaceOnUse" x="17" y="5" width="7" height="10">
<path fill-rule="evenodd" clip-rule="evenodd" d="M17.3334 9.99998C17.3334 8.90624 17.3334 7.61312 17.3334 6.6658C17.3334 5.92942 17.9303 5.33331 18.6667 5.33331H22.6667C23.4031 5.33331 24 5.92942 24 6.6658C24 7.61313 24 8.90624 24 9.99998C24 13.3333 20.6667 14.6666 20.6667 14.6666C20.6667 14.6666 17.3334 13.3333 17.3334 9.99998Z" fill="white"/>
</mask>
<g mask="url(#mask1)">
<path fill-rule="evenodd" clip-rule="evenodd" d="M18.8692 9.26768C18.1861 9.95775 19.525 9.87023 19.525 9.87023L20.4786 9.5649C20.4786 9.5649 20.9073 9.61677 21.1967 9.70401C21.3884 9.7618 21.9219 9.99999 21.9219 9.99999C21.9219 9.99999 23.0486 9.77506 22.6524 9.26768C22.2563 8.76031 19.5524 8.57762 18.8692 9.26768Z" fill="#005121"/>
<path fill-rule="evenodd" clip-rule="evenodd" d="M21.7099 8.55082C21.7374 8.5446 21.8014 8.546 21.8252 8.57508C21.8627 8.62054 21.9394 8.60543 21.9769 8.64924C22.0142 8.69317 22.0577 8.73368 22.0577 8.79616C22.0577 8.85863 22.0504 9.01355 22.0517 9.04759C22.0537 9.10003 22.0627 9.10816 22.1166 9.10676C22.1817 9.10511 22.2714 9.10003 22.2742 8.98359C22.2762 8.90244 22.1954 8.85178 22.1719 8.56314C22.2073 8.53279 22.2388 8.50575 22.227 8.46536C22.2151 8.42486 22.2939 8.40454 22.2861 8.34371C22.2781 8.28302 22.3648 8.24581 22.3294 8.17838C22.2939 8.11082 22.3726 8.10752 22.3412 8.05343C22.3097 7.99946 22.3923 7.95209 22.3569 7.90498C22.3215 7.85762 22.4042 7.81381 22.3609 7.75641C22.3175 7.69901 22.3845 7.66524 22.3412 7.6213C22.3688 7.57749 22.3451 7.45254 22.2584 7.38168C22.1719 7.3107 22.0498 7.27362 21.9788 7.24657C21.8468 7.19628 21.6008 7.21952 21.4274 7.23984C21.2541 7.26003 20.9311 7.28035 20.8326 7.26689C20.7342 7.25343 20.5019 7.23984 20.3187 7.27019C20.256 7.2806 20.1848 7.26181 20.1474 7.22638C20.1175 7.19806 20.1002 7.20111 20.0726 7.20276C20.0451 7.20441 20.0292 7.1959 20.0154 7.16213C19.9911 7.1027 19.9368 7.14359 19.9111 7.0693C19.8939 7.01965 19.8046 7.06257 19.7772 7.02041C19.7495 6.97825 19.7162 6.97317 19.6412 6.97825C19.6374 6.95286 19.596 6.93432 19.5585 6.94105C19.5645 6.89889 19.5231 6.86511 19.4542 6.86676C19.4621 6.81444 19.3657 6.77394 19.3163 6.80606C19.2849 6.76721 19.2218 6.77559 19.2061 6.80606C19.1726 6.76721 19.0662 6.77901 19.0406 6.82117C18.9954 6.7959 18.9074 6.858 18.9147 6.95628C18.9166 6.98333 18.9184 7.0114 18.8732 7.02041C18.7886 7.0373 18.7394 7.13178 18.6664 7.14524C18.5937 7.15882 18.5208 7.18244 18.507 7.22295C18.4932 7.26346 18.5188 7.30575 18.4913 7.32594C18.4637 7.34625 18.5089 7.36479 18.5227 7.37482C18.5365 7.38498 18.5581 7.40187 18.5621 7.42549C18.5677 7.45901 18.623 7.46905 18.6803 7.43222C18.7039 7.41711 18.7452 7.4627 18.8122 7.43057C18.8791 7.39857 18.9742 7.41546 18.9579 7.46778C18.9501 7.49305 18.9677 7.52009 18.9895 7.54536C19.0111 7.57063 19.0436 7.64695 19.0249 7.69051C18.9974 7.75463 19.0525 7.79019 19.0387 7.84746C19.0249 7.90498 19.0465 7.9573 19.0171 8.03489C18.9874 8.11248 18.987 8.20962 19.0308 8.23743C19.0919 8.27628 19.055 8.35324 19.1076 8.386C19.1508 8.41292 19.1254 8.47882 19.2061 8.49901C19.2868 8.51933 19.2396 8.5733 19.3242 8.58511C19.4089 8.59692 19.4384 8.65775 19.527 8.64416C19.5923 8.63425 19.6267 8.65013 19.6648 8.66511C19.6726 8.71921 19.6551 8.91768 19.6511 8.96835C19.6476 9.01317 19.6236 9.08467 19.6236 9.12873C19.6236 9.15565 19.6787 9.16238 19.7418 9.16238C19.8046 9.16238 19.8323 9.13711 19.8165 9.06625C19.8008 8.99527 19.7969 8.82244 19.8009 8.71438C19.8556 8.74067 19.9076 8.77749 19.9052 8.81813C19.9012 8.8839 19.9022 9.002 19.8913 9.06282C19.8836 9.10676 19.8953 9.17597 19.8993 9.22155C19.9033 9.23832 20.0095 9.23667 20.0529 9.22155C20.0962 9.20632 20.0962 9.16581 20.0922 8.98181C20.0902 8.89076 19.9937 8.79768 20.1159 8.75222C20.175 8.73025 20.2577 8.67959 20.2892 8.63248C20.3206 8.58511 20.3897 8.60365 20.4388 8.6274C20.488 8.65101 20.5668 8.68708 20.6162 8.67121C20.6791 8.65101 20.7461 8.70155 20.8012 8.67121C20.8563 8.64086 20.9273 8.69317 20.9725 8.65609C21.0178 8.61889 21.0966 8.65432 21.1301 8.61889C21.1636 8.58346 21.3014 8.63921 21.3507 8.59197C21.3999 8.5446 21.4668 8.60543 21.5122 8.57C21.524 8.5606 21.5381 8.55857 21.5535 8.55971C21.5517 8.63959 21.5368 8.7667 21.5338 8.80632C21.5302 8.85127 21.5062 8.92263 21.5062 8.96657C21.5062 8.99362 21.5614 9.00035 21.6243 9.00035C21.6874 9.00035 21.715 8.97508 21.6993 8.90422C21.6834 8.83336 21.7061 8.65901 21.7099 8.55082Z" fill="#A3A3A3"/>
<path fill-rule="evenodd" clip-rule="evenodd" d="M18.5232 7.31999C18.5496 7.30082 18.5252 7.26095 18.5384 7.2226C18.5515 7.18437 18.6213 7.16203 18.6911 7.14933C18.7609 7.1365 18.808 7.04723 18.8892 7.03123C18.9324 7.02272 18.9307 6.99618 18.9287 6.97066C18.9219 6.87783 19.0061 6.81917 19.0495 6.84317C19.0739 6.80317 19.1758 6.79199 19.2078 6.82869C19.2229 6.79999 19.2832 6.79199 19.3135 6.82869C19.3606 6.79847 19.453 6.83669 19.4455 6.88609C19.5115 6.88457 19.5511 6.91644 19.5455 6.95631C19.5813 6.94996 19.6209 6.96749 19.6247 6.99136C19.6187 7.0306 19.7083 7.04063 19.6668 7.06603C19.6305 7.08825 19.596 7.07949 19.5547 7.04914C19.5133 7.01866 19.3754 7.04571 19.3557 7.06095C19.336 7.07618 19.3144 7.08291 19.2985 7.0711C19.2828 7.0593 19.2455 7.04063 19.2277 7.04241C19.2099 7.04406 19.1726 7.04406 19.1508 7.00863C19.1292 6.9732 19.0741 6.96812 19.0643 6.98158C19.0545 6.99504 19.0859 7.04406 19.1175 7.0626C19.1489 7.08126 19.1332 7.11669 19.1707 7.13688C19.1951 7.15022 19.1726 7.19593 19.1588 7.22298C19.145 7.25003 19.0918 7.24152 19.0878 7.22133C19.084 7.20114 19.0701 7.18755 19.0387 7.2179C19.0071 7.24837 18.9403 7.23987 18.9244 7.23149C18.9087 7.22298 18.8653 7.20787 18.8358 7.21625C18.8062 7.22476 18.8496 7.23822 18.8536 7.25003C18.8575 7.26183 18.8062 7.26691 18.7767 7.26691C18.7472 7.26691 18.7373 7.28368 18.7551 7.2871C18.7729 7.29053 18.8416 7.29396 18.8693 7.28037C18.8969 7.26691 18.9815 7.28037 18.9895 7.30577C18.9973 7.33104 18.9403 7.3412 18.9067 7.33777C18.8572 7.33282 18.7846 7.35974 18.7492 7.36812C18.7138 7.37663 18.6192 7.35466 18.5818 7.36482C18.5444 7.37485 18.5075 7.3351 18.5232 7.31999Z" fill="#A3A3A3"/>
<path fill-rule="evenodd" clip-rule="evenodd" d="M19.1568 7.52681C19.1214 7.54027 19.1332 7.58077 19.1648 7.59766C19.1964 7.61455 19.2672 7.62128 19.3125 7.6129C19.3577 7.60439 19.3676 7.61798 19.3381 7.63487C19.3085 7.65163 19.3833 7.65506 19.3774 7.68211C19.3716 7.70903 19.4049 7.70395 19.4365 7.7023C19.4681 7.70065 19.5094 7.68033 19.5448 7.66179C19.5802 7.64325 19.6058 7.65671 19.5724 7.68884C19.539 7.72084 19.4267 7.76147 19.3381 7.75639C19.2494 7.75131 19.2021 7.7715 19.2218 7.8002C19.2415 7.8289 19.3361 7.83398 19.3852 7.81874C19.4346 7.80363 19.4267 7.83068 19.3892 7.84909C19.3518 7.86776 19.2986 7.86941 19.2534 7.86776C19.2081 7.86611 19.1687 7.90496 19.2278 7.92681C19.2869 7.94877 19.3657 7.93531 19.3952 7.95385C19.4248 7.97239 19.5153 7.94369 19.5172 7.97582C19.5192 8.00782 19.4916 8.01963 19.4384 8.01633C19.3852 8.0129 19.4009 8.0369 19.4405 8.04998C19.4759 8.06192 19.539 8.06192 19.5724 8.05849C19.6058 8.05519 19.5961 8.08884 19.5626 8.10065C19.5291 8.11246 19.4208 8.12934 19.3676 8.12769C19.3144 8.12604 19.3399 8.15982 19.4089 8.15982C19.6196 8.15982 19.6906 8.06014 19.7438 7.99093C19.7698 7.95703 19.8205 7.93861 19.8324 7.95893C19.8442 7.97912 19.8461 7.9842 19.8226 8.00109C19.7989 8.01798 19.8047 8.02814 19.8481 8.02979C19.8913 8.03144 19.9544 8.01963 19.9919 8.0096C20.0292 7.99944 20.1395 8.06331 20.0489 8.06522C19.8894 8.06865 19.6925 8.12604 19.6276 8.14966C19.5626 8.17328 19.4541 8.21773 19.3873 8.21544C19.3381 8.21379 19.3183 8.23233 19.3381 8.2543C19.3577 8.27627 19.4208 8.27627 19.4562 8.26611C19.4916 8.25595 19.4995 8.26611 19.4759 8.2863C19.4524 8.30661 19.3932 8.315 19.3518 8.32185C19.3106 8.32858 19.2901 8.355 19.3223 8.36566C19.3833 8.38598 19.3282 8.40452 19.3716 8.41468C19.4149 8.42484 19.3676 8.45684 19.4149 8.467C19.4621 8.47715 19.4897 8.47207 19.5251 8.44846C19.5607 8.42484 19.5802 8.41125 19.6177 8.41468C19.6552 8.41811 19.6808 8.40109 19.7024 8.37582C19.7241 8.35055 19.7969 8.30496 19.8205 8.32693C19.8442 8.3489 19.8934 8.30827 19.9033 8.33023C19.9131 8.3522 19.9544 8.33874 19.9644 8.36909C19.9752 8.40287 20.0214 8.4096 20.0529 8.39779C20.0844 8.38598 20.11 8.35728 20.11 8.315C20.11 8.27284 20.1218 8.25595 20.1337 8.30154C20.1454 8.34712 20.1888 8.36058 20.2104 8.33874C20.2321 8.31677 20.2399 8.24084 20.2242 8.20541C20.2085 8.16985 20.2064 8.12427 20.2223 8.11588C20.238 8.1075 20.2755 8.18509 20.2912 8.21887C20.307 8.25265 20.3482 8.24249 20.3503 8.20871C20.3522 8.17493 20.3897 8.15804 20.4172 8.18344C20.4448 8.20871 20.4291 8.29315 20.4369 8.33366C20.4448 8.37417 20.5215 8.3235 20.5295 8.33696C20.5374 8.35055 20.5669 8.35385 20.5787 8.32515C20.5906 8.29646 20.6181 8.27119 20.6338 8.28807C20.6497 8.30496 20.6732 8.33366 20.683 8.36566C20.6929 8.39779 20.7284 8.41468 20.75 8.3809C20.7716 8.34712 20.7875 8.28134 20.7796 8.23563C20.7716 8.19017 20.7855 8.16147 20.8051 8.18509C20.8248 8.20871 20.8229 8.27284 20.8248 8.32515C20.8269 8.37747 20.8918 8.37252 20.8918 8.29481C20.8918 8.25938 20.9115 8.25265 20.9174 8.27284C20.9233 8.29315 20.9233 8.32693 20.9292 8.34204C20.9438 8.3795 20.9943 8.35893 21.0001 8.33366C21.006 8.30827 20.9962 8.21709 20.9844 8.17671C20.9725 8.13607 20.9962 8.1075 21.0159 8.12934C21.0356 8.15131 21.0395 8.20871 21.0435 8.27284C21.0473 8.33696 21.0887 8.34039 21.1104 8.32185C21.1321 8.30319 21.1321 8.24922 21.1223 8.21036C21.1124 8.17163 21.1439 8.17163 21.1577 8.19525C21.1715 8.21887 21.1952 8.20363 21.1912 8.18509C21.1873 8.16655 21.2069 8.14966 21.2266 8.17493C21.2463 8.20033 21.2404 8.25773 21.2306 8.30319C21.2207 8.3489 21.2798 8.34369 21.3073 8.30496C21.3349 8.26611 21.3211 8.15982 21.2975 8.12604C21.2738 8.09227 21.2759 8.04833 21.2895 8.0096C21.3035 7.97074 21.3291 7.96896 21.331 7.98598C21.3329 8.00274 21.3448 8.03144 21.3664 8.05341C21.3881 8.07538 21.3999 8.07881 21.4038 8.0449C21.4078 8.01125 21.4275 8.01963 21.4353 8.0449C21.4433 8.0703 21.4569 8.09049 21.4767 8.06865C21.4964 8.04668 21.522 8.06357 21.5063 8.09734C21.4904 8.13112 21.4904 8.16147 21.5023 8.19525C21.5141 8.22903 21.5555 8.22395 21.5595 8.18509C21.5676 8.10433 21.5792 8.15804 21.5889 8.19347C21.5987 8.22903 21.6284 8.22725 21.6343 8.20706C21.6402 8.18674 21.6461 8.18179 21.6461 8.20363C21.6461 8.2256 21.6559 8.24414 21.6815 8.24414C21.7072 8.24414 21.7012 8.20033 21.7129 8.17328C21.7248 8.14623 21.7464 8.18344 21.7761 8.24579C21.8055 8.30827 21.8272 8.24922 21.8962 8.39106C21.9244 8.44884 21.9651 8.39944 21.9632 8.37925C21.9611 8.35893 21.967 8.34547 22.0005 8.34547C22.034 8.34547 22.0615 8.33874 22.0498 8.31677C22.038 8.29481 22.0458 8.2543 22.0439 8.20871C22.042 8.16312 22.0478 8.13785 22.0537 8.16312C22.0596 8.18839 22.0793 8.22395 22.1107 8.24249C22.1423 8.26103 22.1639 8.21036 22.1383 8.17836C22.1128 8.14623 22.0774 8.0703 22.0793 8.00617C22.0808 7.95893 22.1029 7.97404 22.1029 8.00782C22.1029 8.0416 22.1226 8.10242 22.1522 8.11588C22.1817 8.12934 22.1935 8.06687 22.1798 8.03487C22.166 8.00274 22.1581 7.95893 22.1876 7.95042C22.2171 7.94204 22.1798 7.90661 22.1541 7.88122C22.1285 7.85595 22.1128 7.83068 22.1581 7.83233C22.2033 7.83398 22.166 7.80528 22.1442 7.78674C22.1226 7.7682 22.0852 7.731 22.1442 7.73607C22.2033 7.74115 22.1838 7.71081 22.1601 7.69392C22.1364 7.67703 22.1226 7.6449 22.1639 7.64668C22.2054 7.64833 22.2309 7.62801 22.227 7.6129C22.2119 7.55436 22.1128 7.4863 22.0518 7.43398C21.9907 7.38166 21.8922 7.32934 21.839 7.32084C21.7858 7.31233 21.7839 7.34623 21.7977 7.36642C21.8115 7.38661 21.839 7.4002 21.843 7.37988C21.8469 7.35969 21.8882 7.38166 21.9079 7.40858C21.9276 7.43563 21.9946 7.46941 22.0361 7.49976C22.0774 7.53011 21.9808 7.515 21.9335 7.47449C21.9066 7.45125 21.9098 7.47944 21.9454 7.51157C21.9808 7.54369 21.9355 7.55715 21.8981 7.53011C21.8607 7.50319 21.7642 7.42725 21.7032 7.37823C21.6421 7.32934 21.6322 7.34115 21.6303 7.37315C21.6284 7.40528 21.65 7.42725 21.6894 7.45417C21.7288 7.48122 21.778 7.52338 21.8155 7.55207C21.8528 7.58077 21.8214 7.59931 21.7977 7.579C21.774 7.55881 21.6934 7.50319 21.6461 7.46433C21.5987 7.42547 21.5555 7.40693 21.526 7.41201C21.4964 7.41709 21.4984 7.44579 21.5338 7.47614C21.5692 7.50649 21.6127 7.56388 21.6127 7.59766C21.6127 7.63144 21.5811 7.65506 21.5652 7.59436C21.5495 7.53354 21.4747 7.46268 21.4196 7.40858C21.3645 7.35461 21.3092 7.34446 21.2679 7.34788C21.2266 7.35119 21.2285 7.39169 21.2285 7.42382C21.2285 7.45582 21.2009 7.43728 21.199 7.41366C21.1971 7.39004 21.1655 7.36985 21.1478 7.3715C21.1301 7.37315 21.1361 7.42217 21.1301 7.44414C21.1242 7.46598 21.0967 7.4863 21.0967 7.43563C21.0967 7.38496 21.0316 7.35969 21.0041 7.35792C20.9765 7.35627 20.9509 7.36642 20.9647 7.38839C20.9784 7.41023 20.9725 7.46941 20.9627 7.50319C20.9528 7.53684 20.9233 7.47779 20.9174 7.41531C20.9115 7.35296 20.819 7.30903 20.754 7.32757C20.6889 7.34623 20.7383 7.38661 20.7264 7.42547C20.7146 7.46433 20.6968 7.4289 20.6909 7.38839C20.6851 7.34788 20.6535 7.32249 20.6103 7.33265C20.5669 7.34281 20.5374 7.363 20.5393 7.39004C20.5412 7.41709 20.5412 7.44071 20.5315 7.48452C20.5215 7.52846 20.5039 7.50649 20.5058 7.47779C20.5079 7.44909 20.498 7.40185 20.4881 7.37481C20.4783 7.34788 20.4624 7.37315 20.4664 7.40693C20.4704 7.44071 20.4605 7.5183 20.4448 7.56566C20.4291 7.6129 20.4054 7.61455 20.4172 7.55042C20.4291 7.4863 20.3995 7.39169 20.37 7.34788C20.3488 7.31652 20.3011 7.30573 20.3011 7.34954C20.3011 7.39347 20.3149 7.42547 20.3503 7.4576C20.3857 7.4896 20.3581 7.56896 20.3227 7.61125C20.2872 7.65341 20.2892 7.59258 20.3011 7.547C20.3128 7.50141 20.2479 7.4863 20.2223 7.47779C20.1967 7.46941 20.2498 7.42382 20.2617 7.363C20.2675 7.33303 20.2596 7.31411 20.2361 7.31233C20.2124 7.31068 20.1494 7.36807 20.1218 7.41023C20.1297 7.36642 20.1218 7.32757 20.0981 7.32757C20.0746 7.32757 20.0489 7.36985 20.0313 7.4002C20.0135 7.43055 19.9958 7.41366 20.0135 7.38166C20.0313 7.34954 20.0587 7.26344 20.0233 7.2449C19.9879 7.22636 19.9564 7.3023 19.919 7.28871C19.8978 7.28109 19.9269 7.23309 19.9387 7.21112C19.9504 7.18915 19.9269 7.17227 19.8737 7.21277C19.8205 7.25341 19.7969 7.31919 19.783 7.35969C19.7694 7.4002 19.6749 7.46598 19.6236 7.50141C19.5724 7.53684 19.5507 7.52338 19.5764 7.50814C19.602 7.49303 19.6531 7.44579 19.6787 7.42725C19.7044 7.40858 19.6925 7.39766 19.6433 7.42966C19.5941 7.46179 19.5045 7.52007 19.4128 7.54027C19.359 7.5522 19.3518 7.54204 19.4049 7.52681C19.4581 7.51157 19.5802 7.43893 19.6098 7.40528C19.6284 7.38407 19.5802 7.40185 19.5567 7.40693C19.5331 7.41201 19.5134 7.40528 19.5607 7.38839C19.6078 7.3715 19.7575 7.23817 19.7891 7.18915C19.8205 7.14027 19.7929 7.1216 19.7732 7.12338C19.7535 7.12503 19.726 7.13684 19.7319 7.11665C19.7378 7.09633 19.7241 7.06928 19.6984 7.07779C19.6728 7.08617 19.6749 7.13519 19.6649 7.16211C19.6552 7.18915 19.5999 7.22471 19.5645 7.22471C19.5291 7.22471 19.4799 7.23144 19.4424 7.25671C19.4049 7.28198 19.3873 7.25836 19.4049 7.23817C19.4227 7.21785 19.4621 7.21277 19.5015 7.21112C19.5409 7.20947 19.5842 7.20439 19.6177 7.17227C19.6512 7.14027 19.6531 7.11487 19.6276 7.11322C19.602 7.11157 19.5586 7.08287 19.5448 7.07106C19.4749 7.011 19.3467 7.09468 19.2967 7.14357C19.2691 7.17061 19.1746 7.24833 19.1451 7.26852C19.1155 7.28871 19.1273 7.31741 19.1765 7.27868C19.2258 7.23982 19.2415 7.26687 19.1964 7.29557C19.1509 7.32427 19.1175 7.36642 19.1332 7.38166C19.1489 7.39677 19.21 7.37823 19.2435 7.35969C19.2769 7.34115 19.2928 7.38661 19.21 7.40185C19.1544 7.41214 19.135 7.43169 19.1786 7.43398C19.2121 7.43563 19.2632 7.42217 19.3106 7.39855C19.3577 7.37481 19.3952 7.38839 19.3558 7.41201C19.3164 7.43563 19.2297 7.46776 19.1864 7.46776C19.1501 7.46776 19.1924 7.51334 19.1568 7.52681Z" fill="white"/>
<path fill-rule="evenodd" clip-rule="evenodd" d="M19.3853 7.14956C19.4327 7.10023 19.474 7.07863 19.5173 7.1141C19.5565 7.14623 19.5607 7.16023 19.5113 7.14956C19.4621 7.1389 19.4287 7.14956 19.3992 7.18143C19.3696 7.21343 19.3361 7.2009 19.3853 7.14956Z" fill="#A3A3A3"/>
<path fill-rule="evenodd" clip-rule="evenodd" d="M18.6056 7.27484C18.641 7.23937 18.698 7.23937 18.7236 7.20044C18.7493 7.16137 18.7768 7.17564 18.7453 7.21284C18.7139 7.25004 18.6528 7.25724 18.6272 7.28377C18.6016 7.31031 18.5878 7.29257 18.6056 7.27484Z" fill="#A3A3A3"/>
<path fill-rule="evenodd" clip-rule="evenodd" d="M18.8261 7.13932C18.8474 7.13639 18.889 7.11092 18.9146 7.08079C18.9403 7.05065 18.9954 7.03999 19.0287 7.07545C19.0622 7.11092 19.08 7.12332 19.0978 7.13052C19.1154 7.13759 19.1154 7.16065 19.0878 7.16759C19.0603 7.17479 19.0229 7.18012 19.0032 7.17119C18.9835 7.16239 18.9539 7.15532 18.9303 7.16065C18.9066 7.16585 18.8969 7.15532 18.9166 7.14639C18.9363 7.13759 18.9598 7.11092 18.9717 7.10025C18.9835 7.08972 19.0149 7.09852 18.9973 7.10919C18.9795 7.11985 18.9874 7.14279 19.0052 7.15172C19.0229 7.16065 19.0583 7.16065 19.0741 7.14465C19.0505 7.12159 19.0111 7.09145 18.9954 7.08265C18.9795 7.07372 18.9658 7.07012 18.9461 7.09145C18.9263 7.11279 18.8791 7.16412 18.8339 7.16239C18.7886 7.16065 18.8004 7.14279 18.8261 7.13932Z" fill="#A3A3A3"/>
<path fill-rule="evenodd" clip-rule="evenodd" d="M20.0706 7.45733C20.0531 7.48173 20.0371 7.51319 20.0352 7.53799C20.0332 7.56279 20.0559 7.57973 20.0587 7.54866C20.0617 7.51759 20.0646 7.49906 20.0892 7.47599C20.114 7.45293 20.0903 7.42986 20.0706 7.45733Z" fill="#A3A3A3"/>
<path fill-rule="evenodd" clip-rule="evenodd" d="M19.8293 7.45673C19.8497 7.44847 19.8844 7.42927 19.9012 7.41153C19.9179 7.39393 19.9287 7.4054 19.912 7.42487C19.8952 7.44433 19.8569 7.4674 19.8391 7.47273C19.8215 7.47807 19.8077 7.46567 19.8293 7.45673Z" fill="#A3A3A3"/>
<path fill-rule="evenodd" clip-rule="evenodd" d="M19.8599 7.55538C19.8316 7.58941 19.7201 7.6703 19.6866 7.68541C19.6531 7.70065 19.665 7.72262 19.7024 7.71081C19.6749 7.73265 19.6137 7.76821 19.5744 7.77824C19.535 7.7884 19.527 7.81875 19.5861 7.80021C19.6453 7.78167 19.7279 7.73265 19.7496 7.71081C19.7713 7.68884 19.7438 7.67868 19.7773 7.65506C19.8107 7.63144 19.8727 7.58827 19.8816 7.57062C19.8953 7.5437 19.8796 7.53176 19.8599 7.55538Z" fill="#A3A3A3"/>
<path fill-rule="evenodd" clip-rule="evenodd" d="M19.7379 7.8307C19.7801 7.81012 19.8589 7.73736 19.8816 7.69558C19.8953 7.67032 19.9229 7.67362 19.9013 7.71247C19.8796 7.75133 19.7989 7.82054 19.7713 7.83908C19.7438 7.85762 19.6925 7.85254 19.7379 7.8307Z" fill="#A3A3A3"/>
<path fill-rule="evenodd" clip-rule="evenodd" d="M20.6338 7.43057C20.6223 7.45432 20.62 7.50994 20.624 7.53686C20.6279 7.5639 20.6516 7.58422 20.6476 7.54371C20.6437 7.50321 20.6437 7.4627 20.6574 7.45089C20.6713 7.43895 20.6535 7.39006 20.6338 7.43057Z" fill="#A3A3A3"/>
<path fill-rule="evenodd" clip-rule="evenodd" d="M20.8741 7.53012C20.8941 7.54853 20.9035 7.63488 20.9016 7.66688C20.8997 7.69901 20.9332 7.69901 20.9311 7.65342C20.9292 7.60784 20.9252 7.55044 20.9075 7.52009C20.8898 7.48961 20.8465 7.50485 20.8741 7.53012Z" fill="#A3A3A3"/>
<path fill-rule="evenodd" clip-rule="evenodd" d="M21.0848 7.58588C21.0969 7.60798 21.1124 7.65001 21.1124 7.68036C21.1124 7.71083 21.138 7.69725 21.1399 7.66182C21.1418 7.62639 21.1361 7.59604 21.1223 7.57242C21.1085 7.5488 21.067 7.55376 21.0848 7.58588Z" fill="#A3A3A3"/>
<path fill-rule="evenodd" clip-rule="evenodd" d="M21.2148 7.55945C21.204 7.53225 21.1873 7.50799 21.1753 7.51159C21.1636 7.51519 21.1714 7.53999 21.1873 7.56652C21.2028 7.59319 21.2266 7.58959 21.2148 7.55945Z" fill="#A3A3A3"/>
<path fill-rule="evenodd" clip-rule="evenodd" d="M20.3916 7.74793C20.3857 7.81866 20.3482 7.88126 20.303 7.90323C20.2577 7.9252 20.2655 7.96062 20.3206 7.9252C20.3759 7.88977 20.4172 7.82894 20.4291 7.77497C20.4408 7.72088 20.3956 7.70069 20.3916 7.74793Z" fill="#A3A3A3"/>
<path fill-rule="evenodd" clip-rule="evenodd" d="M20.2931 7.71591C20.2695 7.73953 20.2557 7.7902 20.2557 7.82893C20.2557 7.86779 20.2714 7.83909 20.2754 7.81712C20.2794 7.79515 20.2871 7.7648 20.307 7.75464C20.3266 7.74448 20.3168 7.69229 20.2931 7.71591Z" fill="#A3A3A3"/>
<path fill-rule="evenodd" clip-rule="evenodd" d="M21.9985 7.76477C22.0193 7.79893 22.0498 7.85429 22.0596 7.88629C22.0695 7.91842 22.0458 7.9268 22.038 7.8981C22.03 7.8694 21.9926 7.80528 21.9788 7.78331C21.9651 7.76147 21.9748 7.72591 21.9985 7.76477Z" fill="#A3A3A3"/>
<path d="M16 9.33333C16 9.33333 18.2679 10.0071 18.6507 10.0071C18.7583 10.0071 20.2273 9.67023 20.6677 9.67023C20.8324 9.67023 22.353 9.90101 22.75 10.0071C23.1471 10.1132 25.3354 9.33333 25.3354 9.33333" stroke="white" stroke-width="0.666667" stroke-linecap="round" stroke-linejoin="round"/>
<path d="M16 10.6666C16 10.6666 18.2679 11.3404 18.6507 11.3404C18.7583 11.3404 20.2273 11.0035 20.6677 11.0035C20.8324 11.0035 22.353 11.2343 22.75 11.3404C23.1471 11.4466 25.3354 10.6666 25.3354 10.6666" stroke="white" stroke-width="0.666667" stroke-linecap="round" stroke-linejoin="round"/>
<path d="M16 13.3333C16 13.3333 18.2679 14.0071 18.6507 14.0071C18.7583 14.0071 19.634 13.4619 20.6677 13.4619C21.7014 13.4619 22.353 13.901 22.75 14.0071C23.1471 14.1132 25.3354 13.3333 25.3354 13.3333L32.5128 14.4813" stroke="white" stroke-width="1.33333" stroke-linecap="round" stroke-linejoin="round"/>
</g>
<path d="M17.6667 9.99998V9.94857V9.89687V9.84491V9.7927V9.74024V9.68756V9.63465V9.58155V9.52825V9.47477V9.42112V9.36732V9.31337V9.28635V9.27959V9.27283V9.2593V9.20511V9.15081V9.09642V9.04195V8.98742V8.93283V8.87819V8.82353V8.76885V8.7415V8.73467V8.72783V8.721V8.71416V8.70732V8.70049V8.69365V8.68682V8.67998V8.67315V8.66632V8.65948V8.65265V8.64581V8.63898V8.63215V8.62532V8.61848V8.61165V8.60482V8.59799V8.59116V8.58433V8.5775V8.57068V8.56385V8.55702V8.5502V8.54337V8.53655V8.52972V8.5229V8.51608V8.50925V8.50243V8.49561V8.48879V8.48198V8.47516V8.46834V8.46153V8.45471V8.4479V8.44109V8.43428V8.42747V8.42066V8.41385V8.40705V8.40024V8.39344V8.38663V8.37983V8.37303V8.36623V8.35944V8.35264V8.34585V8.33905V8.33226V8.32547V8.31868V8.3119V8.30511V8.29833V8.29154V8.28476V8.27798V8.27121V8.26443V8.25766V8.25089V8.24411V8.23735V8.23058V8.22381V8.21705V8.21029V8.20353V8.19677V8.19002V8.18326V8.17651V8.16976V8.16302V8.15627V8.14953V8.14279V8.13605V8.12931V8.12258V8.11584V8.10911V8.10239V8.09566V8.08894V8.08222V8.0755V8.06878V8.06207V8.05536V8.04865V8.04195V8.03524V8.02854V8.02184V8.01515V8.00845V8.00176V7.99508V7.98839V7.98171V7.97503V7.96835V7.96168V7.95501V7.94834V7.94167V7.93501V7.92835V7.92169V7.91504V7.90839V7.90174V7.8951V7.88846V7.87518V7.84867V7.79581V7.74316V7.69075V7.63859V7.58667V7.53503V7.48368V7.43261V7.38185V7.33141V7.28131V7.23155V7.18214V7.1331V7.08445V7.03619V6.9409V6.84734V6.75561V6.6658C17.6667 6.11379 18.1141 5.66665 18.6667 5.66665H22.6667C23.2193 5.66665 23.6667 6.11379 23.6667 6.6658V6.67135V6.67692V6.68249V6.68807V6.69365V6.69925V6.70485V6.71046V6.71607V6.7217V6.72733V6.73297V6.73862V6.74427V6.74994V6.75561V6.76129V6.76697V6.77266V6.77836V6.78407V6.78979V6.79551V6.80124V6.80698V6.81272V6.81847V6.82423V6.83V6.83577V6.84155V6.84734V6.85314V6.85894V6.86475V6.87057V6.87639V6.88222V6.88806V6.8939V6.89975V6.90561V6.91148V6.91735V6.92323V6.92911V6.935V6.9409V6.94681V6.95272V6.95864V6.96457V6.9705V6.97644V6.98239V6.98834V6.9943V7.00026V7.00623V7.01221V7.0182V7.02419V7.03019V7.03619V7.0422V7.04822V7.05424V7.06027V7.06631V7.07235V7.0784V7.08445V7.09051V7.09658V7.10265V7.10873V7.11481V7.12091V7.127V7.13311V7.13921V7.14533V7.15145V7.15758V7.16371V7.16985V7.17599V7.18214V7.1883V7.19446V7.20063V7.2068V7.21298V7.21916V7.22535V7.23155V7.23775V7.24395V7.25017V7.25638V7.26261V7.26884V7.27507V7.28131V7.28755V7.2938V7.30006V7.30632V7.31259V7.31886V7.32513V7.33142V7.3377V7.34399V7.35029V7.35659V7.3629V7.36921V7.37553V7.38185V7.38818V7.39451V7.40085V7.40719V7.41354V7.41989V7.42625V7.43261V7.43898V7.44535V7.45173V7.45811V7.46449V7.47088V7.47728V7.48368V7.49008V7.49649V7.5029V7.50932V7.51574V7.52217V7.5286V7.53503V7.54147V7.54792V7.55437V7.56082V7.56728V7.57374V7.58021V7.58668V7.59315V7.59963V7.60611V7.6126V7.61909V7.62558V7.63208V7.63859V7.64509V7.6516V7.65812V7.66464V7.67116V7.67769V7.68422V7.69075V7.69729V7.70383V7.71038V7.71693V7.72348V7.73004V7.7366V7.74317V7.74973V7.7563V7.76288V7.76946V7.77604V7.78263V7.78922V7.79581V7.80241V7.809V7.81561V7.82221V7.82882V7.83544V7.84205V7.84867V7.8553V7.86192V7.86855V7.87518V7.88182V7.88846V7.8951V7.90174V7.90839V7.91504V7.92169V7.92835V7.93501V7.94167V7.94834V7.95501V7.96168V7.96835V7.97503V7.98171V7.98839V7.99508V8.00176V8.00845V8.01515V8.02184V8.02854V8.03524V8.04195V8.04865V8.05536V8.06207V8.06878V8.0755V8.08222V8.08894V8.09566V8.10239V8.10912V8.11585V8.12258V8.12931V8.13605V8.14279V8.14953V8.15627V8.16302V8.16976V8.17651V8.18326V8.19002V8.19677V8.20353V8.21029V8.21705V8.22381V8.23058V8.23735V8.24412V8.25089V8.25766V8.26443V8.27121V8.27799V8.28476V8.29154V8.29833V8.30511V8.3119V8.31868V8.32547V8.33226V8.33905V8.34585V8.35264V8.35944V8.36624V8.37303V8.37983V8.38664V8.39344V8.40024V8.40705V8.41385V8.42066V8.42747V8.43428V8.44109V8.4479V8.45471V8.46153V8.46834V8.47516V8.48198V8.4888V8.49561V8.50243V8.50925V8.51608V8.5229V8.52972V8.53655V8.54337V8.5502V8.55702V8.56385V8.57068V8.5775V8.58433V8.59116V8.59799V8.60482V8.61165V8.61848V8.62532V8.63215V8.63898V8.64581V8.65265V8.65948V8.66632V8.67315V8.67998V8.68682V8.69365V8.70049V8.70733V8.71416V8.721V8.72783V8.73467V8.7415V8.74834V8.75518V8.76201V8.76885V8.77568V8.78252V8.78935V8.79619V8.80302V8.80986V8.81669V8.82353V8.83036V8.8372V8.84403V8.85086V8.8577V8.86453V8.87136V8.87819V8.88502V8.89185V8.89868V8.90551V8.91234V8.91917V8.926V8.93283V8.93965V8.94648V8.9533V8.96013V8.96695V8.97377V8.9806V8.98742V8.99424V9.00106V9.00788V9.01469V9.02151V9.02832V9.03514V9.04195V9.04877V9.05558V9.06239V9.0692V9.076V9.08281V9.08962V9.09642V9.10323V9.11003V9.11683V9.12363V9.13043V9.13722V9.14402V9.15081V9.1576V9.16439V9.17118V9.17797V9.18476V9.19154V9.19833V9.20511V9.21189V9.21867V9.22544V9.23222V9.23899V9.24576V9.25253V9.2593V9.26606V9.27283V9.27959V9.28635V9.29311V9.29987V9.30662V9.31337V9.32012V9.32687V9.33362V9.34036V9.3471V9.35384V9.36058V9.36732V9.37405V9.38078V9.38751V9.39424V9.40096V9.40768V9.4144V9.42112V9.42783V9.43455V9.44126V9.44796V9.45467V9.46137V9.46807V9.47477V9.48146V9.48815V9.49484V9.50153V9.50821V9.51489V9.52157V9.52825V9.53492V9.54159V9.54826V9.55492V9.56158V9.56824V9.57489V9.58155V9.5882V9.59484V9.60149V9.60813V9.61476V9.6214V9.62803V9.63465V9.64128V9.6479V9.65452V9.66113V9.66774V9.67435V9.68096V9.68756V9.69416V9.70075V9.70734V9.71393V9.72051V9.72709V9.73367V9.74024V9.74681V9.75338V9.75994V9.7665V9.77306V9.77961V9.78616V9.7927V9.79924V9.80578V9.81231V9.81884V9.82536V9.83188V9.8384V9.84491V9.85142V9.85793V9.86443V9.87093V9.87742V9.88391V9.89039V9.89687V9.90335V9.90982V9.91629V9.92275V9.92921V9.93567V9.94212V9.94857V9.95501V9.96145V9.96788V9.97431V9.98073V9.98715V9.99357V9.99998C23.6667 11.5427 22.8989 12.6259 22.1104 13.3355C21.7159 13.6906 21.3202 13.9479 21.0232 14.1162C20.875 14.2002 20.7523 14.2615 20.6678 14.3013C20.6674 14.3015 20.6671 14.3017 20.6667 14.3018C20.6663 14.3017 20.666 14.3015 20.6656 14.3013C20.5811 14.2615 20.4584 14.2002 20.3102 14.1162C20.0132 13.9479 19.6175 13.6906 19.223 13.3355C18.4345 12.6259 17.6667 11.5427 17.6667 9.99998Z" stroke="white" stroke-width="0.666667"/>
<mask id="mask2" mask-type="alpha" maskUnits="userSpaceOnUse" x="17" y="5" width="7" height="10">
<path d="M17.6667 9.99998V9.94857V9.89687V9.84491V9.7927V9.74024V9.68756V9.63465V9.58155V9.52825V9.47477V9.42112V9.36732V9.31337V9.28635V9.27959V9.27283V9.2593V9.20511V9.15081V9.09642V9.04195V8.98742V8.93283V8.87819V8.82353V8.76885V8.7415V8.73467V8.72783V8.721V8.71416V8.70732V8.70049V8.69365V8.68682V8.67998V8.67315V8.66632V8.65948V8.65265V8.64581V8.63898V8.63215V8.62532V8.61848V8.61165V8.60482V8.59799V8.59116V8.58433V8.5775V8.57068V8.56385V8.55702V8.5502V8.54337V8.53655V8.52972V8.5229V8.51608V8.50925V8.50243V8.49561V8.48879V8.48198V8.47516V8.46834V8.46153V8.45471V8.4479V8.44109V8.43428V8.42747V8.42066V8.41385V8.40705V8.40024V8.39344V8.38663V8.37983V8.37303V8.36623V8.35944V8.35264V8.34585V8.33905V8.33226V8.32547V8.31868V8.3119V8.30511V8.29833V8.29154V8.28476V8.27798V8.27121V8.26443V8.25766V8.25089V8.24411V8.23735V8.23058V8.22381V8.21705V8.21029V8.20353V8.19677V8.19002V8.18326V8.17651V8.16976V8.16302V8.15627V8.14953V8.14279V8.13605V8.12931V8.12258V8.11584V8.10911V8.10239V8.09566V8.08894V8.08222V8.0755V8.06878V8.06207V8.05536V8.04865V8.04195V8.03524V8.02854V8.02184V8.01515V8.00845V8.00176V7.99508V7.98839V7.98171V7.97503V7.96835V7.96168V7.95501V7.94834V7.94167V7.93501V7.92835V7.92169V7.91504V7.90839V7.90174V7.8951V7.88846V7.87518V7.84867V7.79581V7.74316V7.69075V7.63859V7.58667V7.53503V7.48368V7.43261V7.38185V7.33141V7.28131V7.23155V7.18214V7.1331V7.08445V7.03619V6.9409V6.84734V6.75561V6.6658C17.6667 6.11379 18.1141 5.66665 18.6667 5.66665H22.6667C23.2193 5.66665 23.6667 6.11379 23.6667 6.6658V6.67135V6.67692V6.68249V6.68807V6.69365V6.69925V6.70485V6.71046V6.71607V6.7217V6.72733V6.73297V6.73862V6.74427V6.74994V6.75561V6.76129V6.76697V6.77266V6.77836V6.78407V6.78979V6.79551V6.80124V6.80698V6.81272V6.81847V6.82423V6.83V6.83577V6.84155V6.84734V6.85314V6.85894V6.86475V6.87057V6.87639V6.88222V6.88806V6.8939V6.89975V6.90561V6.91148V6.91735V6.92323V6.92911V6.935V6.9409V6.94681V6.95272V6.95864V6.96457V6.9705V6.97644V6.98239V6.98834V6.9943V7.00026V7.00623V7.01221V7.0182V7.02419V7.03019V7.03619V7.0422V7.04822V7.05424V7.06027V7.06631V7.07235V7.0784V7.08445V7.09051V7.09658V7.10265V7.10873V7.11481V7.12091V7.127V7.13311V7.13921V7.14533V7.15145V7.15758V7.16371V7.16985V7.17599V7.18214V7.1883V7.19446V7.20063V7.2068V7.21298V7.21916V7.22535V7.23155V7.23775V7.24395V7.25017V7.25638V7.26261V7.26884V7.27507V7.28131V7.28755V7.2938V7.30006V7.30632V7.31259V7.31886V7.32513V7.33142V7.3377V7.34399V7.35029V7.35659V7.3629V7.36921V7.37553V7.38185V7.38818V7.39451V7.40085V7.40719V7.41354V7.41989V7.42625V7.43261V7.43898V7.44535V7.45173V7.45811V7.46449V7.47088V7.47728V7.48368V7.49008V7.49649V7.5029V7.50932V7.51574V7.52217V7.5286V7.53503V7.54147V7.54792V7.55437V7.56082V7.56728V7.57374V7.58021V7.58668V7.59315V7.59963V7.60611V7.6126V7.61909V7.62558V7.63208V7.63859V7.64509V7.6516V7.65812V7.66464V7.67116V7.67769V7.68422V7.69075V7.69729V7.70383V7.71038V7.71693V7.72348V7.73004V7.7366V7.74317V7.74973V7.7563V7.76288V7.76946V7.77604V7.78263V7.78922V7.79581V7.80241V7.809V7.81561V7.82221V7.82882V7.83544V7.84205V7.84867V7.8553V7.86192V7.86855V7.87518V7.88182V7.88846V7.8951V7.90174V7.90839V7.91504V7.92169V7.92835V7.93501V7.94167V7.94834V7.95501V7.96168V7.96835V7.97503V7.98171V7.98839V7.99508V8.00176V8.00845V8.01515V8.02184V8.02854V8.03524V8.04195V8.04865V8.05536V8.06207V8.06878V8.0755V8.08222V8.08894V8.09566V8.10239V8.10912V8.11585V8.12258V8.12931V8.13605V8.14279V8.14953V8.15627V8.16302V8.16976V8.17651V8.18326V8.19002V8.19677V8.20353V8.21029V8.21705V8.22381V8.23058V8.23735V8.24412V8.25089V8.25766V8.26443V8.27121V8.27799V8.28476V8.29154V8.29833V8.30511V8.3119V8.31868V8.32547V8.33226V8.33905V8.34585V8.35264V8.35944V8.36624V8.37303V8.37983V8.38664V8.39344V8.40024V8.40705V8.41385V8.42066V8.42747V8.43428V8.44109V8.4479V8.45471V8.46153V8.46834V8.47516V8.48198V8.4888V8.49561V8.50243V8.50925V8.51608V8.5229V8.52972V8.53655V8.54337V8.5502V8.55702V8.56385V8.57068V8.5775V8.58433V8.59116V8.59799V8.60482V8.61165V8.61848V8.62532V8.63215V8.63898V8.64581V8.65265V8.65948V8.66632V8.67315V8.67998V8.68682V8.69365V8.70049V8.70733V8.71416V8.721V8.72783V8.73467V8.7415V8.74834V8.75518V8.76201V8.76885V8.77568V8.78252V8.78935V8.79619V8.80302V8.80986V8.81669V8.82353V8.83036V8.8372V8.84403V8.85086V8.8577V8.86453V8.87136V8.87819V8.88502V8.89185V8.89868V8.90551V8.91234V8.91917V8.926V8.93283V8.93965V8.94648V8.9533V8.96013V8.96695V8.97377V8.9806V8.98742V8.99424V9.00106V9.00788V9.01469V9.02151V9.02832V9.03514V9.04195V9.04877V9.05558V9.06239V9.0692V9.076V9.08281V9.08962V9.09642V9.10323V9.11003V9.11683V9.12363V9.13043V9.13722V9.14402V9.15081V9.1576V9.16439V9.17118V9.17797V9.18476V9.19154V9.19833V9.20511V9.21189V9.21867V9.22544V9.23222V9.23899V9.24576V9.25253V9.2593V9.26606V9.27283V9.27959V9.28635V9.29311V9.29987V9.30662V9.31337V9.32012V9.32687V9.33362V9.34036V9.3471V9.35384V9.36058V9.36732V9.37405V9.38078V9.38751V9.39424V9.40096V9.40768V9.4144V9.42112V9.42783V9.43455V9.44126V9.44796V9.45467V9.46137V9.46807V9.47477V9.48146V9.48815V9.49484V9.50153V9.50821V9.51489V9.52157V9.52825V9.53492V9.54159V9.54826V9.55492V9.56158V9.56824V9.57489V9.58155V9.5882V9.59484V9.60149V9.60813V9.61476V9.6214V9.62803V9.63465V9.64128V9.6479V9.65452V9.66113V9.66774V9.67435V9.68096V9.68756V9.69416V9.70075V9.70734V9.71393V9.72051V9.72709V9.73367V9.74024V9.74681V9.75338V9.75994V9.7665V9.77306V9.77961V9.78616V9.7927V9.79924V9.80578V9.81231V9.81884V9.82536V9.83188V9.8384V9.84491V9.85142V9.85793V9.86443V9.87093V9.87742V9.88391V9.89039V9.89687V9.90335V9.90982V9.91629V9.92275V9.92921V9.93567V9.94212V9.94857V9.95501V9.96145V9.96788V9.97431V9.98073V9.98715V9.99357V9.99998C23.6667 11.5427 22.8989 12.6259 22.1104 13.3355C21.7159 13.6906 21.3202 13.9479 21.0232 14.1162C20.875 14.2002 20.7523 14.2615 20.6678 14.3013C20.6674 14.3015 20.6671 14.3017 20.6667 14.3018C20.6663 14.3017 20.666 14.3015 20.6656 14.3013C20.5811 14.2615 20.4584 14.2002 20.3102 14.1162C20.0132 13.9479 19.6175 13.6906 19.223 13.3355C18.4345 12.6259 17.6667 11.5427 17.6667 9.99998Z" fill="white" stroke="white" stroke-width="0.666667"/>
</mask>
<g mask="url(#mask2)">
</g>
<path d="M0 -0.333333H-0.901086L-0.21693 0.253086L4.33333 4.15331V5.16179L-0.193746 8.39542L-0.333333 8.49513V8.66667V9.33333V9.93475L0.176666 9.616L5.42893 6.33333H6.55984L11.0821 9.56351C11.176 9.6306 11.2886 9.66667 11.404 9.66667C11.9182 9.66667 12.1548 9.02698 11.7644 8.69237L7.66667 5.18002V4.17154L12.0542 1.03762C12.2294 0.912475 12.3333 0.710428 12.3333 0.495127V0V-0.601416L11.8233 -0.282666L6.57107 3H5.44016L0.860413 -0.271244L0.773488 -0.333333H0.666667H0Z" fill="#DB1E36" stroke="white" stroke-width="0.666667"/>
<path fill-rule="evenodd" clip-rule="evenodd" d="M0 3.33333V6H4.66667V9.33333C4.66667 9.70152 4.96514 10 5.33333 10H6.66667C7.03486 10 7.33333 9.70152 7.33333 9.33333V6H12C12.3682 6 12.6667 5.70152 12.6667 5.33333V4C12.6667 3.63181 12.3682 3.33333 12 3.33333H7.33333V0H4.66667V3.33333H0Z" fill="white"/>
<path fill-rule="evenodd" clip-rule="evenodd" d="M0 4H5.33333V3.33333V0H6.66667V3.33333V4H12V5.33333H6.66667V6V9.33333H5.33333V6V5.33333H0V4Z" fill="#DB1E36"/>
</g>
</svg>
