<svg width="28" height="20" viewBox="0 0 28 20" fill="none" xmlns="http://www.w3.org/2000/svg">
<rect x="0.25" y="0.25" width="27.5" height="19.5" rx="1.75" fill="white" stroke="#F5F5F5" stroke-width="0.5"/>
<mask id="mask0" mask-type="alpha" maskUnits="userSpaceOnUse" x="0" y="0" width="28" height="20">
<rect x="0.25" y="0.25" width="27.5" height="19.5" rx="1.75" fill="white" stroke="white" stroke-width="0.5"/>
</mask>
<g mask="url(#mask0)">
<path fill-rule="evenodd" clip-rule="evenodd" d="M0 5.33333H28V0H0V5.33333Z" fill="#D82332"/>
<path fill-rule="evenodd" clip-rule="evenodd" d="M0 20H28V14.6667H0V20Z" fill="#D82332"/>
<path fill-rule="evenodd" clip-rule="evenodd" d="M13.0675 10.7527L12.7831 11.018C13.0402 11.0901 13.3969 11.0061 13.539 10.7527H13.0675Z" fill="#064A89"/>
<path fill-rule="evenodd" clip-rule="evenodd" d="M10.7725 10.9334C10.9649 11.1259 11.2838 11.1034 11.4763 10.9816C11.6689 10.8596 11.8103 10.8519 11.9303 10.8647C11.943 10.9733 11.9714 11.1125 12.0201 11.2502H10.8782C10.8498 11.1796 10.7945 11.0152 10.7725 10.9334Z" fill="#064A89"/>
<path fill-rule="evenodd" clip-rule="evenodd" d="M10.9841 11.4478C11.2083 11.3419 11.4374 11.4259 11.5365 11.5022C11.7196 11.6434 12.022 11.6051 12.1704 11.525C12.227 11.6174 12.2958 11.7082 12.3787 11.7776H11.1569C11.1073 11.6975 11 11.5006 10.9841 11.4478Z" fill="#064A89"/>
<path fill-rule="evenodd" clip-rule="evenodd" d="M16.298 12.3249C16.3517 12.2704 16.4243 12.1806 16.4717 12.1165C16.3927 12.1068 16.301 12.0497 16.2034 12.001C16.0234 11.9111 15.8515 11.9111 15.6983 12.017C15.4711 12.1741 15.187 12.2126 14.9661 12.0555C14.7236 11.8831 14.499 11.9208 14.3096 12.03C14.1201 12.1389 14.0002 12.1453 13.8866 12.1453C13.7729 12.1453 13.653 12.1389 13.4636 12.03C13.2742 11.9208 13.0496 11.8831 12.8071 12.0555C12.5862 12.2126 12.302 12.1741 12.0748 12.017C11.9217 11.9111 11.7498 11.9111 11.5698 12.001C11.4721 12.0497 11.3805 12.1068 11.3015 12.1165C11.3489 12.1806 11.4215 12.2704 11.4752 12.3249H16.298Z" fill="#064A89"/>
<path fill-rule="evenodd" clip-rule="evenodd" d="M15.7067 12.8612C15.7571 12.8292 15.8961 12.7233 15.9655 12.6688C15.8897 12.6848 15.717 12.6286 15.6278 12.5822C15.3689 12.4474 15.1985 12.4603 15.006 12.5629C14.8134 12.6656 14.542 12.7201 14.3432 12.6111C14.1443 12.5021 14.0022 12.4731 13.8981 12.4731C13.794 12.4731 13.6519 12.5021 13.453 12.6111C13.2542 12.7201 12.9828 12.6656 12.7902 12.5629C12.5977 12.4603 12.4273 12.4474 12.1684 12.5822C12.0792 12.6286 11.9065 12.6848 11.8307 12.6688C11.9001 12.7233 12.039 12.8292 12.0895 12.8612H15.7067Z" fill="#064A89"/>
<path fill-rule="evenodd" clip-rule="evenodd" d="M14.5683 11.7951C14.5147 11.7662 14.4519 11.699 14.3947 11.6128C14.3031 11.4748 14.158 11.3979 13.9402 11.3979C13.7224 11.3979 13.5772 11.4748 13.4857 11.6128C13.4284 11.699 13.3657 11.7662 13.3121 11.7951H14.5683Z" fill="#064A89"/>
<path fill-rule="evenodd" clip-rule="evenodd" d="M14.2104 11.2999C14.1883 11.2614 14.141 11.1395 14.1252 11.0753C14.0746 11.0914 13.9768 11.0977 13.92 11.0977C13.8632 11.0977 13.7654 11.0914 13.7148 11.0753C13.6991 11.1395 13.6518 11.2614 13.6296 11.2999H14.2104Z" fill="#064A89"/>
<path fill-rule="evenodd" clip-rule="evenodd" d="M14.736 10.7527L15.0204 11.018C14.7633 11.0901 14.4065 11.0061 14.2645 10.7527H14.736Z" fill="#064A89"/>
<path fill-rule="evenodd" clip-rule="evenodd" d="M17.0994 10.9334C16.9069 11.1259 16.5881 11.1034 16.3956 10.9816C16.203 10.8596 16.0615 10.8519 15.9415 10.8647C15.9287 10.9733 15.9005 11.1125 15.8518 11.2502H16.9937C17.0221 11.1796 17.0773 11.0152 17.0994 10.9334Z" fill="#064A89"/>
<path fill-rule="evenodd" clip-rule="evenodd" d="M16.9289 11.4478C16.7048 11.3419 16.4757 11.4259 16.3765 11.5022C16.1935 11.6434 15.891 11.6051 15.7427 11.525C15.686 11.6174 15.6173 11.7082 15.5343 11.7776H16.7561C16.8057 11.6975 16.9131 11.5006 16.9289 11.4478Z" fill="#064A89"/>
<path fill-rule="evenodd" clip-rule="evenodd" d="M15.1588 13.0716C14.7761 13.2303 14.3572 13.3179 13.9183 13.3179C13.4789 13.3179 13.0603 13.2304 12.6772 13.0714C12.7593 13.0618 12.8679 13.0216 12.9556 12.972C13.0977 12.8918 13.3564 12.8758 13.4796 12.956C13.6026 13.0362 13.751 13.1163 13.9183 13.1163C14.0856 13.1163 14.234 13.0362 14.357 12.956C14.4801 12.8758 14.7389 12.8918 14.8811 12.972C14.9686 13.0216 15.0767 13.062 15.1588 13.0716Z" fill="#064A89"/>
<path fill-rule="evenodd" clip-rule="evenodd" d="M14.6251 6.72693C13.9339 6.58263 13.3121 6.66596 13.3121 7.32671C13.3121 7.97456 13.3121 8.93671 13.3121 9.13564C13.3121 9.33445 13.316 9.35962 13.5489 9.41467C14.0538 9.53413 14.1011 9.54617 14.6503 9.67435V7.81424C14.2211 7.76607 14.057 7.52134 14.057 7.23693C14.057 6.96112 14.2463 6.78144 14.6251 6.72693Z" fill="#514537"/>
<path fill-rule="evenodd" clip-rule="evenodd" d="M12.8538 11.8285C12.4687 11.8285 12.0647 11.4885 12.0647 10.8406C12.0647 10.1927 12.0647 9.37807 12.0647 9.23054C12.0647 9.08463 12.0809 9.06409 12.0473 9.03011C12.0276 9.01011 12.0694 8.98043 12.0978 8.95151C12.1404 8.90817 12.1697 8.87215 12.1121 8.81355C12.0544 8.75506 12.079 8.73979 12.1153 8.70301C12.1516 8.66602 12.1657 8.62925 12.131 8.59387C12.0963 8.5586 12.0884 8.54742 12.1263 8.50893C12.1642 8.47043 12.1484 8.45441 12.1168 8.42226C12.0852 8.39022 12.0703 8.36699 12.1105 8.32613C12.15 8.28602 12.153 8.27957 12.1989 8.27957C12.2447 8.27957 12.344 8.27957 12.3883 8.27957C12.4325 8.27957 12.4333 8.29323 12.3961 8.33097C12.348 8.37979 12.3338 8.39903 12.3883 8.45441C12.4427 8.50968 12.4403 8.52817 12.4056 8.56344C12.3535 8.61635 12.3306 8.65247 12.3835 8.70624C12.4364 8.75989 12.4411 8.78398 12.4009 8.82484C12.3607 8.8657 12.3566 8.90183 12.4009 8.94667C12.4348 8.98118 12.4372 9.00129 12.4372 9.06215C12.4372 9.42946 12.4372 10.4301 12.4372 10.7059C12.4372 10.9817 12.6328 11.1485 13.0053 11.1485C13.3778 11.1485 13.504 10.9945 13.6113 10.8919C13.5419 11.3858 13.3399 11.8285 12.8538 11.8285Z" fill="#514537"/>
<path fill-rule="evenodd" clip-rule="evenodd" d="M13.9406 10.2549C13.9926 10.2709 14.0431 10.3478 14.0431 10.4313H14.1458C14.1458 10.3608 14.1157 10.2517 14.0613 10.1843C14.0605 10.1667 14.0581 10.1515 14.0542 10.1362C14.0921 10.0881 14.1473 10.0111 14.1458 9.93731C14.1447 9.89075 14.0905 9.89247 14.0842 9.92935C14.079 9.95968 14.059 10.0063 14.0211 10.0224C14.0211 9.96301 13.9879 9.89247 13.9406 9.89247C13.8933 9.89247 13.86 9.96301 13.86 10.0224C13.8222 10.0063 13.8022 9.95968 13.797 9.92935C13.7906 9.89247 13.7363 9.89075 13.7354 9.93731C13.7338 10.0111 13.789 10.0881 13.8269 10.1362C13.823 10.1515 13.8207 10.1667 13.8198 10.1843C13.7654 10.2517 13.7354 10.3608 13.7354 10.4313H13.838C13.838 10.3478 13.8885 10.2709 13.9406 10.2549Z" fill="#514537"/>
<path fill-rule="evenodd" clip-rule="evenodd" d="M13.4115 10.2549C13.4636 10.2709 13.5142 10.3478 13.5142 10.4313H13.6167C13.6167 10.3608 13.5868 10.2517 13.5323 10.1843C13.5315 10.1667 13.5291 10.1515 13.5252 10.1362C13.5631 10.0881 13.6183 10.0111 13.6167 9.93731C13.6158 9.89075 13.5615 9.89247 13.5551 9.92935C13.5499 9.95968 13.5298 10.0063 13.492 10.0224C13.492 9.96301 13.4589 9.89247 13.4115 9.89247C13.3642 9.89247 13.3311 9.96301 13.3311 10.0224C13.2932 10.0063 13.2731 9.95968 13.2679 9.92935C13.2616 9.89247 13.2074 9.89075 13.2063 9.93731C13.2047 10.0111 13.26 10.0881 13.2979 10.1362C13.294 10.1515 13.2916 10.1667 13.2908 10.1843C13.2364 10.2517 13.2063 10.3608 13.2063 10.4313H13.309C13.309 10.3478 13.3595 10.2709 13.4115 10.2549Z" fill="#514537"/>
<path fill-rule="evenodd" clip-rule="evenodd" d="M12.8825 10.2549C12.9345 10.2709 12.985 10.3478 12.985 10.4313H13.0876C13.0876 10.3608 13.0576 10.2517 13.0032 10.1843C13.0024 10.1667 13 10.1515 12.9961 10.1362C13.034 10.0881 13.0892 10.0111 13.0876 9.93731C13.0866 9.89075 13.0324 9.89247 13.0261 9.92935C13.0209 9.95968 13.0008 10.0063 12.9629 10.0224C12.9629 9.96301 12.9298 9.89247 12.8825 9.89247C12.8351 9.89247 12.8019 9.96301 12.8019 10.0224C12.7641 10.0063 12.7441 9.95968 12.7389 9.92935C12.7325 9.89247 12.6782 9.89075 12.6773 9.93731C12.6757 10.0111 12.7309 10.0881 12.7688 10.1362C12.7649 10.1515 12.7625 10.1667 12.7617 10.1843C12.7072 10.2517 12.6773 10.3608 12.6773 10.4313H12.7798C12.7798 10.3478 12.8304 10.2709 12.8825 10.2549Z" fill="#514537"/>
<path fill-rule="evenodd" clip-rule="evenodd" d="M14.4697 10.2549C14.4177 10.2709 14.3672 10.3478 14.3672 10.4313H14.2646C14.2646 10.3608 14.2945 10.2517 14.349 10.1843C14.3497 10.1667 14.3522 10.1515 14.3562 10.1362C14.3182 10.0881 14.263 10.0111 14.2646 9.93731C14.2656 9.89075 14.3198 9.89247 14.3261 9.92935C14.3313 9.95968 14.3514 10.0063 14.3892 10.0224C14.3892 9.96301 14.4224 9.89247 14.4697 9.89247C14.5172 9.89247 14.5503 9.96301 14.5503 10.0224C14.5881 10.0063 14.6082 9.95968 14.6133 9.92935C14.6197 9.89247 14.6739 9.89075 14.6749 9.93731C14.6765 10.0111 14.6213 10.0881 14.5834 10.1362C14.5873 10.1515 14.5897 10.1667 14.5905 10.1843C14.645 10.2517 14.6749 10.3608 14.6749 10.4313H14.5723C14.5723 10.3478 14.5218 10.2709 14.4697 10.2549Z" fill="#514537"/>
<path fill-rule="evenodd" clip-rule="evenodd" d="M14.9988 10.2549C14.9467 10.2709 14.8963 10.3478 14.8963 10.4313H14.7936C14.7936 10.3608 14.8237 10.2517 14.8781 10.1843C14.8789 10.1667 14.8812 10.1515 14.8851 10.1362C14.8473 10.0881 14.792 10.0111 14.7936 9.93731C14.7946 9.89075 14.8489 9.89247 14.8552 9.92935C14.8604 9.95968 14.8804 10.0063 14.9183 10.0224C14.9183 9.96301 14.9515 9.89247 14.9988 9.89247C15.0462 9.89247 15.0793 9.96301 15.0793 10.0224C15.1172 10.0063 15.1372 9.95968 15.1424 9.92935C15.1487 9.89247 15.2029 9.89075 15.204 9.93731C15.2056 10.0111 15.1503 10.0881 15.1124 10.1362C15.1164 10.1515 15.1187 10.1667 15.1195 10.1843C15.174 10.2517 15.204 10.3608 15.204 10.4313H15.1014C15.1014 10.3478 15.0509 10.2709 14.9988 10.2549Z" fill="#514537"/>
<path fill-rule="evenodd" clip-rule="evenodd" d="M12.5714 10.5376H15.349V10.671H12.5714V10.5376Z" fill="#514537"/>
<path fill-rule="evenodd" clip-rule="evenodd" d="M15.0221 11.8285C15.4072 11.8285 15.8112 11.4885 15.8112 10.8406C15.8112 10.1927 15.8112 9.37807 15.8112 9.23054C15.8112 9.08463 15.795 9.06409 15.8285 9.03011C15.8482 9.01011 15.8064 8.98043 15.7781 8.95151C15.7354 8.90817 15.7062 8.87215 15.7638 8.81355C15.8215 8.75506 15.7969 8.73979 15.7607 8.70301C15.7243 8.66602 15.7101 8.62925 15.7448 8.59387C15.7796 8.5586 15.7875 8.54742 15.7496 8.50893C15.7117 8.47043 15.7275 8.45441 15.759 8.42226C15.7907 8.39022 15.8056 8.36699 15.7654 8.32613C15.7259 8.28602 15.7228 8.27957 15.677 8.27957C15.6312 8.27957 15.5318 8.27957 15.4876 8.27957C15.4435 8.27957 15.4426 8.29323 15.4798 8.33097C15.5279 8.37979 15.5421 8.39903 15.4876 8.45441C15.4332 8.50968 15.4355 8.52817 15.4702 8.56344C15.5224 8.61635 15.5452 8.65247 15.4924 8.70624C15.4394 8.75989 15.4347 8.78398 15.475 8.82484C15.5152 8.8657 15.5192 8.90183 15.475 8.94667C15.441 8.98118 15.4387 9.00129 15.4387 9.06215C15.4387 9.42946 15.4387 10.4301 15.4387 10.7059C15.4387 10.9817 15.2429 11.1485 14.8706 11.1485C14.4981 11.1485 14.3719 10.9945 14.2645 10.8919C14.3339 11.3858 14.536 11.8285 15.0221 11.8285Z" fill="#514537"/>
<path fill-rule="evenodd" clip-rule="evenodd" d="M12.5714 9.67431C12.5714 9.67431 12.5715 9.57968 12.5715 9.46237L13.1268 9.67441L12.5714 9.67431Z" fill="#EEA339"/>
<path fill-rule="evenodd" clip-rule="evenodd" d="M11.9091 9.77281L10.6666 9.60259C10.7027 9.33205 10.771 9.06829 10.8692 8.81721L11.9091 9.23668V9.77281Z" fill="#EEA339"/>
<path fill-rule="evenodd" clip-rule="evenodd" d="M14.4762 7.69592L14.697 6.7742C14.9555 6.83786 15.2067 6.93377 15.4448 7.06022L14.7325 8.4456L14.735 7.75001C14.6528 7.75044 14.5267 7.73764 14.4762 7.69592Z" fill="#EEA339"/>
<path fill-rule="evenodd" clip-rule="evenodd" d="M11.9384 9.86302L10.6728 9.78496C10.6565 10.0546 10.6727 10.3268 10.7213 10.5953C10.7213 10.5953 11.9384 10.603 11.9384 10.5953V9.86302Z" fill="#EEA339"/>
<path fill-rule="evenodd" clip-rule="evenodd" d="M11.9258 8.9956C11.8849 8.94108 11.9102 8.91205 11.9543 8.88313C11.9985 8.85431 11.9922 8.83184 11.9702 8.79022C11.948 8.7485 11.9259 8.70356 11.967 8.65872C12.008 8.61377 11.9922 8.59453 11.9606 8.56248C11.9291 8.53044 11.9259 8.49517 11.9543 8.46947C11.9828 8.44377 11.9764 8.42453 11.9576 8.39893C11.9385 8.37324 11.9014 8.32119 11.9346 8.28754L11.4183 7.84947C11.2477 8.05678 11.1017 8.2856 10.9841 8.53098L11.9258 8.9956Z" fill="#EEA339"/>
<path fill-rule="evenodd" clip-rule="evenodd" d="M13.1627 9.23441L12.5474 8.62806C12.6342 8.53989 12.6428 8.52548 12.5813 8.4629C12.5143 8.39473 12.5118 8.38763 12.6483 8.24882C12.6949 8.20161 12.6689 8.1686 12.6026 8.1686C12.5364 8.1686 12.2317 8.1686 12.197 8.1686C12.1623 8.1686 12.135 8.17043 12.1096 8.19624L11.619 7.71365C11.8062 7.51785 12.0153 7.34699 12.2411 7.2043L13.1627 8.71021V9.23441Z" fill="#EEA339"/>
<path fill-rule="evenodd" clip-rule="evenodd" d="M12.5227 9.32668C12.5227 9.17603 12.5228 9.02689 12.5228 9.00571C12.5228 8.96076 12.5197 8.94313 12.485 8.90786C12.4503 8.87259 12.4676 8.85571 12.4945 8.81721L13.0782 9.3113V9.60141L12.5227 9.32668Z" fill="#EEA339"/>
<path fill-rule="evenodd" clip-rule="evenodd" d="M13.0695 8.44635C13.0695 8.157 13.0695 7.88936 13.0695 7.73517C13.0695 7.27334 13.095 7.04237 13.1612 6.99592L13.1082 6.7742C12.8491 6.84506 12.5978 6.94097 12.3597 7.06743L13.0695 8.44635Z" fill="#EEA339"/>
<path fill-rule="evenodd" clip-rule="evenodd" d="M15.3489 9.67431C15.3489 9.67431 15.3488 9.57968 15.3488 9.46237L14.7936 9.67441L15.3489 9.67431Z" fill="#EEA339"/>
<path fill-rule="evenodd" clip-rule="evenodd" d="M15.9576 9.77281L17.2001 9.60259C17.164 9.33205 17.0957 9.06829 16.9975 8.81721L15.9576 9.23668V9.77281Z" fill="#EEA339"/>
<path fill-rule="evenodd" clip-rule="evenodd" d="M15.9576 9.86302L17.2231 9.78496C17.2394 10.0546 17.2234 10.3268 17.1746 10.5953C17.1746 10.5953 15.9576 10.603 15.9576 10.5953V9.86302Z" fill="#EEA339"/>
<path fill-rule="evenodd" clip-rule="evenodd" d="M15.9176 8.9956C15.9587 8.94108 15.9333 8.91205 15.8892 8.88313C15.8449 8.85431 15.8513 8.83184 15.8733 8.79022C15.8954 8.7485 15.9175 8.70356 15.8765 8.65872C15.8354 8.61377 15.8513 8.59453 15.8828 8.56248C15.9144 8.53044 15.9175 8.49517 15.8892 8.46947C15.8607 8.44377 15.8671 8.42453 15.8859 8.39893C15.9049 8.37324 15.942 8.32119 15.9089 8.28754L16.4252 7.84947C16.5957 8.05678 16.7417 8.2856 16.8592 8.53098L15.9176 8.9956Z" fill="#EEA339"/>
<path fill-rule="evenodd" clip-rule="evenodd" d="M14.7936 9.23441L15.4089 8.62806C15.322 8.53989 15.3134 8.52548 15.375 8.4629C15.442 8.39473 15.4445 8.38763 15.308 8.24882C15.2613 8.20161 15.2874 8.1686 15.3537 8.1686C15.4199 8.1686 15.7246 8.1686 15.7593 8.1686C15.794 8.1686 15.8213 8.17043 15.8467 8.19624L16.3373 7.71365C16.1501 7.51785 15.941 7.34699 15.7152 7.2043L14.7936 8.71021V9.23441Z" fill="#EEA339"/>
<path fill-rule="evenodd" clip-rule="evenodd" d="M15.349 9.32668C15.349 9.17603 15.3489 9.02689 15.3489 9.00571C15.3489 8.96076 15.3521 8.94313 15.3868 8.90786C15.4215 8.87259 15.4042 8.85571 15.3773 8.81721L14.7936 9.3113V9.60141L15.349 9.32668Z" fill="#EEA339"/>
<path fill-rule="evenodd" clip-rule="evenodd" d="M12.1481 9.03226C12.1702 9.05473 12.1797 9.0771 12.1797 9.13161C12.1797 9.18613 12.1797 10.3792 12.1797 10.8475C12.1797 11.4184 12.5206 11.7359 12.8709 11.7359C13.1928 11.7359 13.4044 11.4376 13.5148 11.0913C13.3728 11.2035 13.1645 11.2388 12.9655 11.2388C12.7352 11.2388 12.3628 11.0817 12.3628 10.7417C12.3628 10.4274 12.3628 9.26312 12.3628 9.0771C12.3628 9.03226 12.3185 9.03226 12.1481 9.03226Z" fill="#D82332"/>
<path fill-rule="evenodd" clip-rule="evenodd" d="M14.161 6.78405C13.7209 6.73878 13.3126 6.83179 13.3126 7.4419C13.3126 8.0834 13.3126 8.86587 13.3126 9.06286C13.3126 9.33351 13.2917 9.30136 13.5174 9.35824C13.9269 9.46147 13.9734 9.47458 14.4701 9.58985V7.94061C14.046 7.8934 13.8622 7.61114 13.8622 7.29856C13.8622 7.04985 13.9703 6.81577 14.161 6.78405Z" fill="#D82332"/>
<path fill-rule="evenodd" clip-rule="evenodd" d="M15.7371 9.03226C15.715 9.05473 15.7055 9.0771 15.7055 9.13161C15.7055 9.18613 15.7055 10.3792 15.7055 10.8475C15.7055 11.4184 15.3646 11.7359 15.0143 11.7359C14.6924 11.7359 14.4808 11.4376 14.3704 11.0913C14.5125 11.2035 14.7207 11.2388 14.9197 11.2388C15.15 11.2388 15.5224 11.0817 15.5224 10.7417C15.5224 10.4274 15.5224 9.26312 15.5224 9.0771C15.5224 9.03226 15.5667 9.03226 15.7371 9.03226Z" fill="#D82332"/>
<mask id="mask1" mask-type="alpha" maskUnits="userSpaceOnUse" x="10" y="6" width="8" height="8">
<path fill-rule="evenodd" clip-rule="evenodd" d="M14 13.3333C15.8409 13.3333 17.3333 11.841 17.3333 10C17.3333 8.15906 15.8409 6.66667 14 6.66667C12.159 6.66667 10.6666 8.15906 10.6666 10C10.6666 11.841 12.159 13.3333 14 13.3333Z" fill="white"/>
</mask>
<g mask="url(#mask1)">
<path fill-rule="evenodd" clip-rule="evenodd" d="M14 18.6667C15.8409 18.6667 17.3333 17.1743 17.3333 15.3333C17.3333 13.4924 15.8409 12 14 12C12.159 12 10.6666 13.4924 10.6666 15.3333C10.6666 17.1743 12.159 18.6667 14 18.6667Z" fill="#064A89"/>
</g>
</g>
</svg>
