<svg width="28" height="20" viewBox="0 0 28 20" fill="none" xmlns="http://www.w3.org/2000/svg">
<rect width="28" height="20" rx="2" fill="#D01129"/>
<mask id="mask0" mask-type="alpha" maskUnits="userSpaceOnUse" x="0" y="0" width="28" height="20">
<rect width="28" height="20" rx="2" fill="white"/>
</mask>
<g mask="url(#mask0)">
<path fill-rule="evenodd" clip-rule="evenodd" d="M13.8883 10.0409C14.5492 10.0409 15.085 9.47829 15.085 8.78447C15.085 8.09052 14.5492 7.52795 13.8883 7.52795C13.2273 7.52795 12.6917 8.09052 12.6917 8.78447C12.6917 9.47829 13.2273 10.0409 13.8883 10.0409Z" fill="#FFF101"/>
<path fill-rule="evenodd" clip-rule="evenodd" d="M12.7974 8.27925C13.1363 8.16573 13.576 8.29784 13.8653 8.58934C14.1724 8.53063 14.4803 8.12573 14.5757 7.76524C14.4709 6.56732 13.7246 5.6598 13.4976 5.03705C13.4258 4.84023 13.0931 4.53075 12.7471 4.67485C12.4626 4.79338 12.3187 4.70115 11.3631 5.20157C10.8464 5.47216 10.4115 5.75008 10.1823 5.79852C9.95306 5.84696 9.7112 5.89014 9.52782 5.73931C9.27559 5.53185 8.99271 5.47448 8.82611 5.31815C8.62199 5.12659 8.49104 4.982 8.35298 4.92341C8.21493 4.86469 7.98122 4.99509 8.0799 5.30543C8.30254 6.00634 8.82739 6.11986 9.05271 6.77503C9.15908 7.08475 9.3103 7.31754 9.64829 7.0828C9.98627 6.84806 10.4639 6.53625 11.2783 6.50347C11.8252 6.48133 12.3903 6.2702 12.65 5.92378C12.6475 6.22347 12.7481 6.4691 12.7216 6.85894C12.6951 7.24891 12.6993 7.73393 12.7974 8.27925Z" fill="white"/>
<path fill-rule="evenodd" clip-rule="evenodd" d="M13.4381 8.31217C13.3377 7.72244 13.5198 7.63743 13.3024 6.94617C13.1717 6.53051 13.0881 6.00954 13.086 5.76709L12.9987 5.79376C13.0008 6.0362 13.0844 6.5573 13.215 6.97296C13.4253 7.64134 13.2618 7.74287 13.3418 8.2822C13.3665 8.28746 13.4183 8.30483 13.4381 8.31217Z" fill="#FFF101"/>
<path fill-rule="evenodd" clip-rule="evenodd" d="M12.9236 8.24744C12.9243 8.17245 12.9198 8.09416 12.9087 8.02689C13.0624 7.98811 13.3256 8.13722 13.3182 8.0264C13.316 7.99129 13.3194 7.87777 13.3215 7.81759C13.3181 7.91166 12.9522 7.75288 12.8891 7.79386C12.8215 7.45074 12.9053 7.09771 12.8516 6.8823C12.9738 6.84719 13.1985 6.92377 13.171 6.82322C13.1554 6.77172 13.1255 6.64364 13.1058 6.56352C13.1251 6.64744 12.9467 6.57796 12.8863 6.62591C12.855 6.43985 12.8092 6.08683 12.8102 5.92548L12.6501 5.92377C12.6475 6.22346 12.7482 6.46909 12.7216 6.85894C12.6952 7.2489 12.6994 7.73392 12.7975 8.27924C12.8325 8.26848 12.8903 8.25465 12.9236 8.24744Z" fill="#FFF101"/>
<path fill-rule="evenodd" clip-rule="evenodd" d="M12.5193 5.50799C12.2807 5.86971 11.7108 6.11937 11.1838 6.17454C10.567 6.23912 10.153 6.45466 9.84809 6.66567C9.82188 6.61613 9.77458 6.58946 9.73275 6.5568C9.28665 6.20989 9.47003 5.7398 9.63897 5.80695C9.57524 5.78102 9.53819 5.74604 9.50335 5.71974C9.4444 5.67386 9.2743 5.84964 9.29563 6.12879C9.30471 6.24769 9.40164 6.4231 9.48052 6.51607C9.33652 6.48854 9.26755 6.44989 9.18296 6.34261C9.2305 6.31154 9.29201 6.29393 9.34164 6.28989C9.32475 6.24732 9.30122 6.2001 9.29563 6.12879C9.22514 6.12818 9.13916 6.15399 9.06541 6.20659C8.88844 6.02151 8.70623 5.87386 8.60056 5.65539C8.43151 5.30542 8.60347 5.08451 8.82611 5.31815C8.62199 5.12659 8.49104 4.982 8.35298 4.92341C8.21493 4.86469 7.98122 4.99509 8.0799 5.30542C8.30254 6.00634 8.82739 6.11986 9.05271 6.77503C9.15908 7.08475 9.3159 7.3261 9.64829 7.08279C9.69209 7.05075 9.70374 7.04316 9.74184 7.01478C9.84728 6.95081 10.0143 7.05821 9.99652 7.29172C10.0819 7.07729 10.0274 7.0116 9.95493 6.88304C9.90133 6.91301 9.90564 6.73747 9.87256 6.71435C10.0622 6.59056 10.2929 6.4664 10.5839 6.37796C10.5947 6.48279 10.6221 6.59411 10.7141 6.57796C10.7634 6.56646 10.8133 6.55607 10.8659 6.54689C10.774 6.56304 10.7481 6.4412 10.7375 6.33649C10.8754 6.30322 11.0262 6.27802 11.1914 6.26383C11.3818 6.24744 11.5785 6.20683 11.7633 6.14383C11.7908 6.24438 11.8477 6.4138 11.9424 6.38053C12.0264 6.35227 12.1081 6.32035 12.1847 6.28328C12.0529 6.34922 12.0011 6.16096 11.9694 6.06139C12.2102 5.95142 12.4154 5.80145 12.5381 5.62249L12.5193 5.50799Z" fill="#FFF101"/>
<path fill-rule="evenodd" clip-rule="evenodd" d="M13.5733 5.68759C13.6896 5.59291 13.7894 5.54814 13.6891 5.34765C13.5251 5.01982 13.627 5.0187 13.2678 4.81014C12.902 4.59803 12.9482 4.58139 12.4641 4.76059C12.3451 4.80463 12.3716 4.84965 12.3925 5.03093C12.4373 5.42163 12.5226 5.73627 12.6006 6.05773C12.9049 6.01602 13.373 5.85089 13.5733 5.68759Z" fill="#FFF101"/>
<path fill-rule="evenodd" clip-rule="evenodd" d="M12.4377 5.59878C12.3738 5.40697 12.3909 5.43303 12.6223 5.4915C12.6981 5.23866 12.8026 5.02525 12.8612 4.8206C12.9267 4.59149 12.9472 4.55027 13.0436 4.60641C13.1668 4.67809 13.3022 4.75381 13.3904 4.79932C13.5444 4.87858 13.5217 4.90635 13.4482 5.03235C13.3747 5.15834 13.1342 5.4137 12.9859 5.68012C13.1815 5.82471 13.2443 5.8378 13.1054 5.90006C12.9498 5.96967 12.6914 6.0559 12.5826 6.07633C12.5627 5.95046 12.4984 5.78067 12.4377 5.59878Z" fill="#FFF101"/>
<path fill-rule="evenodd" clip-rule="evenodd" d="M10.141 7.40245L10.1257 7.59975L9.98713 7.46764L9.83218 7.5781L9.84243 7.38116L9.66406 7.32453L9.81645 7.20979L9.74923 7.02679L9.92806 7.08159L10.0225 6.91217L10.0943 7.09309L10.2789 7.06385L10.1885 7.23645L10.3245 7.36979L10.141 7.40245Z" fill="#FFF101"/>
<path fill-rule="evenodd" clip-rule="evenodd" d="M14.0171 10.029C13.7539 9.7775 13.643 9.31169 13.7388 8.90288C13.5368 8.65309 13.0489 8.57542 12.7038 8.66887C11.7682 9.36331 11.3928 10.4957 10.9926 11.0135C10.8661 11.1771 10.7772 11.6343 11.0691 11.8769C11.3091 12.0763 11.3051 12.2532 12.1955 12.8719C12.677 13.2065 13.1237 13.463 13.2783 13.6472C13.433 13.8314 13.5895 14.0299 13.5568 14.2719C13.5118 14.605 13.6058 14.891 13.5602 15.1205C13.5042 15.4018 13.4505 15.5933 13.4711 15.7481C13.4919 15.903 13.7161 16.0503 13.9228 15.8054C14.3895 15.2525 14.2208 14.7185 14.6486 14.1861C14.8508 13.9344 14.9673 13.6805 14.6047 13.4905C14.242 13.3007 13.7461 13.0221 13.3117 12.2982C13.0201 11.812 12.5634 11.4036 12.1477 11.3407C12.3962 11.1933 12.5486 10.9788 12.8835 10.808C13.2183 10.6371 13.6163 10.391 14.0171 10.029Z" fill="white"/>
<path fill-rule="evenodd" clip-rule="evenodd" d="M13.7237 9.42996C13.2876 9.81614 13.1264 9.69296 12.6649 10.2363C12.3875 10.5631 11.9995 10.8996 11.8005 11.0226L11.8662 11.0887C12.0652 10.9656 12.4532 10.6291 12.7307 10.3024C13.1769 9.777 13.3424 9.87486 13.7473 9.53247C13.7393 9.50752 13.7275 9.45161 13.7237 9.42996Z" fill="#FFF101"/>
<path fill-rule="evenodd" clip-rule="evenodd" d="M13.9276 9.93014C13.8655 9.96696 13.8031 10.0103 13.7532 10.0539C13.6444 9.93357 13.6357 9.61968 13.5481 9.68195C13.5202 9.70127 13.4249 9.7551 13.3741 9.78323C13.4535 9.73932 13.5054 10.1514 13.5707 10.1882C13.3215 10.4214 12.9884 10.5216 12.8377 10.6782C12.7476 10.5845 12.6985 10.3421 12.6292 10.4174C12.5946 10.4572 12.5039 10.5484 12.4476 10.6063C12.5073 10.5469 12.5391 10.7438 12.6087 10.7747C12.471 10.8963 12.2027 11.1144 12.0691 11.1942L12.1477 11.3407C12.3962 11.1933 12.5486 10.9788 12.8835 10.8079C13.2183 10.6371 13.6163 10.3909 14.0171 10.029C13.9906 10.0024 13.9502 9.95681 13.9276 9.93014Z" fill="#FFF101"/>
<path fill-rule="evenodd" clip-rule="evenodd" d="M11.8702 11.6674C12.2879 11.7035 12.7787 12.0969 13.0877 12.5485C13.4493 13.077 13.8343 13.3457 14.1607 13.5174C14.133 13.5661 14.1346 13.6224 14.1287 13.6768C14.0655 14.2559 13.5861 14.3241 13.557 14.137C13.5675 14.2079 13.5571 14.2591 13.5529 14.304C13.5445 14.3805 13.7746 14.4472 13.9941 14.2883C14.0877 14.2205 14.1838 14.0447 14.2212 13.9266C14.2704 14.0712 14.2729 14.1533 14.2269 14.2838C14.1774 14.2561 14.1322 14.2089 14.104 14.166C14.0773 14.2025 14.0502 14.2476 13.9941 14.2883C14.0288 14.3528 14.0932 14.418 14.1734 14.4587C14.1092 14.7121 14.0786 14.9517 13.9511 15.1569C13.7471 15.4856 13.4788 15.4397 13.5603 15.1205C13.5042 15.4018 13.4505 15.5933 13.4711 15.7481C13.4919 15.903 13.7161 16.0503 13.9228 15.8054C14.3895 15.2525 14.2208 14.7185 14.6486 14.186C14.8508 13.9344 14.9716 13.6712 14.6047 13.4905C14.5563 13.4668 14.5443 13.46 14.5019 13.4395C14.3963 13.3756 14.4014 13.17 14.6029 13.0695C14.3834 13.0991 14.3565 13.1815 14.2867 13.3117C14.338 13.3453 14.1911 13.4292 14.1886 13.4709C13.9917 13.3603 13.774 13.2127 13.5555 12.9921C13.6367 12.9301 13.7147 12.8494 13.6553 12.7739C13.6212 12.7349 13.5876 12.6945 13.5537 12.6514C13.6132 12.727 13.5257 12.8112 13.4445 12.8734C13.3481 12.7646 13.252 12.6401 13.1576 12.497C13.0489 12.332 12.917 12.1734 12.7727 12.0369C12.8419 11.9616 12.9532 11.8253 12.8784 11.7557C12.8131 11.6934 12.7459 11.6351 12.677 11.5841C12.7973 11.6709 12.6678 11.8122 12.6017 11.8907C12.3904 11.7268 12.1642 11.6151 11.9553 11.5933L11.8702 11.6674Z" fill="#FFF101"/>
<path fill-rule="evenodd" clip-rule="evenodd" d="M11.3219 10.6977C11.1856 10.6394 11.2528 10.5605 11.1376 10.752C10.9492 11.065 10.9128 10.9929 10.9205 11.4238C10.9283 11.8624 11.0094 11.7924 11.3994 12.143C11.6991 11.907 12.0569 11.5503 12.283 11.3187C12.0965 11.0629 11.5566 10.7984 11.3219 10.6977Z" fill="#FFF101"/>
<path fill-rule="evenodd" clip-rule="evenodd" d="M11.986 11.6963C11.8597 11.8503 11.8726 11.8218 11.8051 11.582C11.5587 11.6395 11.3687 11.7059 11.1707 11.755C10.9489 11.8099 10.9047 11.8119 10.9028 11.6963C10.9003 11.5482 10.8952 11.3874 10.8885 11.2844C10.877 11.1048 10.9112 11.1114 11.0519 11.1153C11.1926 11.1191 11.485 11.1555 11.7789 11.1571C11.8004 10.9069 11.7797 10.8433 11.9007 10.9386C12.0357 11.0451 12.2361 11.2371 12.3074 11.3257C12.2135 11.4067 12.1057 11.5502 11.986 11.6963Z" fill="#FFF101"/>
<path fill-rule="evenodd" clip-rule="evenodd" d="M14.622 12.8829L14.7925 12.7981L14.7528 12.9901L14.9215 13.0758L14.7538 13.1649L14.7962 13.3554L14.6253 13.2742L14.508 13.4269L14.4638 13.2368L14.2768 13.2356L14.3903 13.08L14.2738 12.9268L14.4615 12.9227L14.5034 12.7323L14.622 12.8829Z" fill="#FFF101"/>
<path fill-rule="evenodd" clip-rule="evenodd" d="M14.8504 8.04514C14.7747 8.41003 14.4458 8.74385 14.0607 8.86116C13.9556 9.16967 14.1355 9.65199 14.3852 9.91927C15.4257 10.4228 16.5475 10.1979 17.1747 10.3029C17.373 10.336 17.7945 10.1883 17.8487 9.80159C17.8932 9.48367 18.041 9.39902 18.1061 8.27988C18.1413 7.67474 18.1295 7.14031 18.2042 6.90765C18.2789 6.67499 18.3643 6.4334 18.5803 6.34214C18.8775 6.21652 19.0664 5.98789 19.2786 5.91462C19.5386 5.82483 19.7233 5.77798 19.8407 5.68184C19.9581 5.58569 19.9674 5.30801 19.6622 5.24257C18.9727 5.09456 18.6167 5.51499 17.9635 5.39217C17.6549 5.33419 17.3872 5.35511 17.4119 5.77994C17.4366 6.20465 17.4549 6.79486 17.0748 7.55168C16.8196 8.06006 16.7111 8.67951 16.867 9.08893C16.6212 8.93664 16.3681 8.90532 16.0598 8.68636C15.7514 8.46728 15.3494 8.22863 14.8504 8.04514Z" fill="white"/>
<path fill-rule="evenodd" clip-rule="evenodd" d="M14.5029 8.61124C15.0396 8.81466 15.0186 9.02286 15.6975 9.17087C16.1057 9.2598 16.5772 9.44426 16.7783 9.56365L16.7998 9.47081C16.5989 9.35142 16.1272 9.16708 15.7191 9.07802C15.0626 8.9349 15.0606 8.73552 14.5757 8.53845C14.5592 8.55839 14.5189 8.59692 14.5029 8.61124Z" fill="#FFF101"/>
<path fill-rule="evenodd" clip-rule="evenodd" d="M14.8135 8.17578C14.875 8.21382 14.9419 8.24881 15.0028 8.27254C14.9581 8.43156 14.7034 8.59645 14.7986 8.64501C14.8285 8.66079 14.9205 8.72049 14.969 8.75254C14.8932 8.70226 15.2071 8.44905 15.2048 8.37113C15.5219 8.48122 15.7709 8.73407 15.9755 8.7929C15.9434 8.92159 15.7679 9.08746 15.8646 9.11278C15.9148 9.12428 16.0354 9.16122 16.1114 9.18336C16.0325 9.1589 16.1791 9.03144 16.1696 8.95278C16.3388 9.01712 16.6528 9.15205 16.7855 9.23364L16.8669 9.08893C16.6211 8.93663 16.368 8.90532 16.0598 8.68636C15.7514 8.46728 15.3493 8.22862 14.8503 8.04514C14.8417 8.08232 14.8242 8.14189 14.8135 8.17578Z" fill="#FFF101"/>
<path fill-rule="evenodd" clip-rule="evenodd" d="M17.2752 9.17786C17.0961 8.78006 17.1752 8.137 17.3933 7.63022C17.6485 7.03707 17.6776 6.55278 17.6559 6.17015C17.71 6.17113 17.7555 6.14141 17.8035 6.11963C18.3127 5.88759 18.6087 6.2893 18.4688 6.4093C18.5221 6.36428 18.5695 6.34826 18.6086 6.32967C18.6759 6.29884 18.6159 6.05639 18.3751 5.93627C18.2725 5.88502 18.0794 5.88551 17.9631 5.91058C18.058 5.79352 18.1243 5.75022 18.255 5.72685C18.257 5.78569 18.2407 5.8504 18.2192 5.89749C18.2628 5.90337 18.3135 5.90557 18.3751 5.93627C18.4109 5.87242 18.4325 5.78141 18.426 5.68795C18.6672 5.6197 18.88 5.52783 19.113 5.54104C19.4862 5.5622 19.5826 5.82911 19.2786 5.91462C19.5385 5.82483 19.7233 5.77798 19.8406 5.68184C19.9581 5.58569 19.9674 5.30801 19.6621 5.24257C18.9727 5.09456 18.6166 5.51499 17.9635 5.39217C17.6549 5.33419 17.3774 5.35597 17.4118 5.77994C17.4164 5.83584 17.4168 5.85015 17.4212 5.89896C17.4212 6.02691 17.2491 6.12502 17.0655 5.99205C17.1996 6.177 17.281 6.16025 17.4233 6.15866C17.4254 6.09493 17.568 6.18655 17.6036 6.16808C17.6109 6.40245 17.5979 6.67425 17.5253 6.98312C17.4335 6.94043 17.3281 6.90973 17.2953 7.00147C17.2802 7.05199 17.2638 7.10263 17.2451 7.15499C17.2777 7.06324 17.3911 7.1008 17.4828 7.14349C17.4413 7.28551 17.3867 7.43523 17.3158 7.59254C17.2341 7.77382 17.1693 7.97297 17.1288 8.1726C17.0321 8.14728 16.864 8.11425 16.844 8.21713C16.8254 8.30752 16.8108 8.3978 16.8031 8.486C16.8146 8.33321 16.9958 8.38019 17.0938 8.4011C17.0642 8.67511 17.0852 8.93664 17.1715 9.13774L17.2752 9.17786Z" fill="#FFF101"/>
<path fill-rule="evenodd" clip-rule="evenodd" d="M16.5587 10.0094C16.5787 10.1626 16.5657 10.2757 16.7812 10.2846C17.1336 10.2994 17.105 10.3451 17.4566 10.1227C17.8144 9.89627 17.8239 9.94098 17.9182 9.41119C17.9414 9.28092 17.8909 9.28251 17.731 9.21082C17.3864 9.05621 17.0853 9.06677 16.7812 8.97686C16.6634 9.27447 16.5242 9.74568 16.5587 10.0094Z" fill="#FFF101"/>
<path fill-rule="evenodd" clip-rule="evenodd" d="M17.2412 9.05833C17.4314 9.096 17.4014 9.09857 17.2375 9.27986C17.4081 9.47509 17.5388 9.61245 17.6784 9.76804C17.8346 9.94223 17.8582 9.98138 17.7639 10.0409C17.6431 10.1172 17.513 10.2023 17.4314 10.2599C17.2889 10.3602 17.2773 10.3257 17.2101 10.1958C17.1429 10.066 17.0456 9.78408 16.9001 9.51619C16.6829 9.62163 16.6407 9.67227 16.6589 9.51472C16.6793 9.33857 16.7374 9.06041 16.7749 8.95129C16.8886 8.99606 17.0608 9.02236 17.2412 9.05833Z" fill="#FFF101"/>
<path fill-rule="evenodd" clip-rule="evenodd" d="M16.9019 6.06811L16.7468 5.95545L16.9251 5.89551L16.9113 5.6993L17.0686 5.80719L17.2047 5.67337L17.2231 5.86933L17.4076 5.89967L17.273 6.03496L17.3655 6.20548L17.1803 6.18016L17.1122 6.36267L17.015 6.1941L16.837 6.25123L16.9019 6.06811Z" fill="#FFF101"/>
<path fill-rule="evenodd" clip-rule="evenodd" d="M13.8602 8.59487C13.5706 8.30301 13.1333 8.17476 12.7996 8.28654L12.7902 8.28068C12.7025 7.79335 12.6828 7.32267 12.7143 6.85841C12.7265 6.67882 12.7159 6.54737 12.6808 6.31298C12.6662 6.21577 12.6642 6.20216 12.659 6.16192C12.6487 6.0812 12.6432 6.01285 12.6427 5.94544C12.3864 6.2704 11.8443 6.48822 11.2785 6.51112C10.6093 6.53806 10.1913 6.71477 9.65225 7.08918C9.35276 7.2972 9.18173 7.1734 9.04582 6.77764C8.95582 6.51595 8.84607 6.36489 8.58284 6.08682L8.56259 6.06543C8.2869 5.77409 8.16706 5.60415 8.07294 5.30786C7.98505 5.03146 8.17493 4.83947 8.35566 4.91633C8.36797 4.92155 8.38032 4.92749 8.3928 4.93417C8.451 4.9653 8.51073 5.01132 8.58976 5.08345C8.61683 5.10815 8.69615 5.18392 8.75757 5.24259L8.75759 5.24261L8.7576 5.24261C8.79127 5.27478 8.81956 5.30181 8.83091 5.31246C8.83992 5.32091 8.84921 5.32907 8.85894 5.33706C8.84513 5.32796 8.83076 5.32201 8.81605 5.319L8.74758 5.25372C8.6862 5.19509 8.60713 5.11956 8.58021 5.09499C8.50199 5.02361 8.44312 4.97824 8.38619 4.94779C8.37408 4.94131 8.36211 4.93556 8.3502 4.93051C8.18109 4.85858 8.00277 5.03889 8.08676 5.30302C8.17999 5.59654 8.29869 5.76485 8.57292 6.05465L8.59317 6.07604C8.85779 6.35558 8.9686 6.50811 9.05951 6.77245C9.1927 7.16025 9.3547 7.27751 9.64422 7.07643C10.1853 6.70061 10.6056 6.52291 11.278 6.49584C11.8496 6.4727 12.3967 6.24932 12.6443 5.91906L12.6573 5.92386C12.6566 5.99762 12.6621 6.07115 12.6735 6.15988C12.6786 6.19996 12.6806 6.21353 12.6952 6.3106C12.7305 6.54605 12.7411 6.67848 12.7288 6.8595C12.6976 7.31982 12.7169 7.78644 12.803 8.2694L12.7952 8.27198L12.8045 8.27784L12.803 8.2694C13.141 8.16041 13.5792 8.29053 13.8639 8.58183C14.1515 8.52684 14.4675 8.14558 14.5684 7.76595C14.5186 7.1962 14.3346 6.681 14.0037 6.04813C13.9527 5.95048 13.8133 5.69423 13.7456 5.5699L13.7085 5.50156C13.603 5.3043 13.5365 5.16528 13.4908 5.03979C13.396 4.77997 13.0418 4.56033 12.7497 4.68196C12.71 4.69852 12.6713 4.7117 12.629 4.72355C12.6019 4.73114 12.5743 4.73796 12.5365 4.7466C12.1476 4.83563 11.9324 4.91199 11.3663 5.20843L11.3185 5.23358C11.2097 5.29119 10.9476 5.43588 10.7845 5.52593L10.7843 5.52603C10.7151 5.56422 10.6638 5.59257 10.6495 5.60025C10.4254 5.721 10.285 5.78461 10.1837 5.80602C9.84877 5.87679 9.67942 5.87376 9.52328 5.74534C9.47411 5.7049 9.42155 5.66832 9.36366 5.63347C9.34872 5.62448 9.33356 5.61567 9.31792 5.60689L9.32256 5.60116L9.32053 5.59102C9.33781 5.60067 9.35448 5.61032 9.37091 5.62021C9.42938 5.65541 9.48251 5.69238 9.53226 5.7333C9.68384 5.85797 9.84995 5.86094 10.1809 5.79103C10.2804 5.76999 10.4199 5.70675 10.6429 5.58664C10.657 5.579 10.7083 5.55072 10.7773 5.5126L10.7775 5.51252L10.7775 5.5125C10.9406 5.42247 11.203 5.27762 11.312 5.21993L11.3598 5.19474C11.927 4.89771 12.1434 4.82094 12.5334 4.73166C12.571 4.72307 12.5984 4.7163 12.6253 4.70878C12.6671 4.69708 12.7052 4.68407 12.7443 4.66775C13.0448 4.54264 13.407 4.76721 13.5044 5.03433C13.5498 5.15896 13.6161 5.29742 13.7212 5.49407L13.7582 5.56213C13.8258 5.68635 13.9654 5.94294 14.0165 6.04078C14.3482 6.67532 14.5329 7.19231 14.5827 7.7673C14.4801 8.15481 14.1604 8.5407 13.8602 8.59487ZM9.30493 5.5824L9.32053 5.59102L9.32019 5.58933C9.31511 5.58673 9.31002 5.58443 9.30493 5.5824ZM9.25224 5.57152C9.26972 5.57181 9.28732 5.57541 9.30493 5.5824C9.27825 5.56782 9.24991 5.55309 9.21866 5.53744C9.20349 5.52984 9.16984 5.51338 9.13852 5.49808L9.13815 5.49493C9.12576 5.48904 9.11366 5.48409 9.10181 5.48014L9.07363 5.46635C8.98205 5.42091 8.9195 5.38483 8.86898 5.34513L8.869 5.34434C8.86568 5.34172 8.86233 5.3393 8.85894 5.33706L8.86898 5.34513L8.86866 5.35682L8.86385 5.36018C8.85967 5.35695 8.85558 5.3537 8.85155 5.35041L8.85165 5.35034C8.85455 5.35226 8.85742 5.35433 8.86025 5.35656L8.86059 5.34409L8.85165 5.35034C8.85134 5.35013 8.85102 5.34992 8.8507 5.34971C8.84047 5.34133 8.83069 5.33275 8.82121 5.32386L8.81605 5.319C8.7225 5.29982 8.6155 5.39938 8.55471 5.55961L8.56552 5.5688L8.86385 5.36018C8.91029 5.39614 8.96654 5.42923 9.04485 5.46887C8.93093 5.46332 8.83524 5.56965 8.71299 5.84175L8.72408 5.85102L9.13387 5.51267C9.16474 5.52775 9.19752 5.54379 9.21239 5.55124C9.22621 5.55816 9.23946 5.5649 9.25224 5.57152ZM9.29917 5.59649C9.28413 5.58826 9.26856 5.57999 9.25224 5.57152C9.12235 5.56937 8.99876 5.74949 8.92466 6.07012L8.93728 6.07687L9.31792 5.60689L9.30474 5.59955L9.3052 5.59899L9.31383 5.60308L9.31147 5.59125L9.3052 5.59899L9.29917 5.59649ZM8.94642 6.04199C9.02948 5.70793 9.1662 5.54476 9.29917 5.59649L9.30474 5.59955L8.94642 6.04199ZM8.94642 6.04199L8.93881 6.07372L8.92618 6.06697L8.94642 6.04199ZM9.11906 5.50545L9.13387 5.51267L9.13965 5.5079L9.13852 5.49808L9.1191 5.4886L9.10181 5.48014C9.08221 5.4736 9.06329 5.46977 9.04485 5.46887L9.0674 5.48018L9.09673 5.49452C8.96907 5.45257 8.87162 5.53348 8.73963 5.81873L8.71508 5.839L8.72616 5.84827L8.73963 5.81873L9.11906 5.50545ZM9.12104 5.50381C9.11281 5.50025 9.10471 5.49715 9.09673 5.49452L9.11308 5.50253L9.11906 5.50545L9.12104 5.50381ZM9.12104 5.50381L9.13215 5.50886L9.13065 5.49588L9.12104 5.50381ZM8.57759 5.54199L8.85155 5.35041C8.85127 5.35018 8.85098 5.34995 8.8507 5.34971C8.76306 5.29294 8.64651 5.37944 8.57759 5.54199ZM8.57759 5.54199L8.55744 5.55608L8.56824 5.56527C8.57125 5.55735 8.57437 5.54959 8.57759 5.54199Z" fill="black"/>
<path fill-rule="evenodd" clip-rule="evenodd" d="M13.4174 7.76052C13.4071 7.98656 13.4107 8.10819 13.4452 8.31083L13.4356 8.31938C13.4246 8.31531 13.4104 8.31043 13.3956 8.30536C13.3735 8.29778 13.3502 8.28978 13.3345 8.28338C13.3081 8.10568 13.306 7.99504 13.3155 7.7864L13.3175 7.74306C13.329 7.47498 13.3087 7.29543 13.208 6.97537C13.0866 6.58909 12.9936 6.06184 12.9965 5.78642L13.0932 5.76703C13.0955 6.03356 13.1882 6.55912 13.3092 6.94378C13.4105 7.2658 13.431 7.44723 13.4194 7.71711L13.4174 7.76052ZM13.4404 8.30497L13.4308 8.31352C13.4301 8.30922 13.4294 8.30496 13.4287 8.30073C13.4329 8.3022 13.4368 8.30363 13.4404 8.30497ZM13.3431 8.27471C13.3617 8.27867 13.4005 8.29081 13.4287 8.30073C13.396 8.10433 13.3927 7.98209 13.4029 7.75979L13.4049 7.71642C13.4164 7.44831 13.3961 7.26873 13.2954 6.94858C13.174 6.5625 13.081 6.03539 13.088 5.77444L13.0058 5.7937C13.0081 6.06001 13.1009 6.58572 13.2218 6.97057C13.3231 7.2925 13.3437 7.47389 13.332 7.74375L13.3301 7.78713C13.3206 7.99483 13.3227 8.10456 13.3431 8.27471Z" fill="black"/>
<path fill-rule="evenodd" clip-rule="evenodd" d="M11.7187 5.01059C11.6371 5.04733 11.6378 5.17756 11.7037 5.38041C11.7565 5.54263 11.8499 5.74643 11.9622 5.9546L11.9756 5.94878L11.7286 5.01557L11.7187 5.01059ZM12.9158 8.02561C12.9265 8.0906 12.9316 8.1684 12.9309 8.24754L12.925 8.25495L12.9001 8.26047C12.8637 8.26864 12.8223 8.2779 12.7902 8.28069C12.7026 7.79336 12.6828 7.32268 12.7143 6.85842C12.7265 6.67882 12.716 6.54738 12.6808 6.31298C12.6662 6.21577 12.6642 6.20217 12.6591 6.16193C12.6476 6.07253 12.6421 5.99831 12.6501 5.91615L12.8174 5.92555C12.8166 6.06387 12.8531 6.38195 12.8916 6.61337C12.9123 6.60186 12.9414 6.59872 12.9871 6.5996L13.0058 6.60007C13.0485 6.6013 13.0649 6.60086 13.0799 6.5967C13.0971 6.59191 13.1028 6.58324 13.0987 6.56534L13.1128 6.56164C13.1179 6.58237 13.1403 6.67489 13.1389 6.66921L13.1409 6.67766C13.1585 6.74998 13.17 6.7949 13.1779 6.82113C13.1871 6.85483 13.1718 6.87448 13.1367 6.88161C13.1119 6.88665 13.0878 6.88641 13.0184 6.88263C12.9982 6.88153 12.9868 6.88098 12.9743 6.88054C12.9416 6.87939 12.9147 6.87984 12.8929 6.88021C12.8796 6.88043 12.8682 6.88062 12.8586 6.88039C12.8802 6.96703 12.8815 7.0458 12.8732 7.2677C12.8651 7.48326 12.8662 7.5934 12.8846 7.72354C12.8875 7.74362 12.8907 7.76336 12.8944 7.78277C12.9217 7.77241 12.9703 7.78094 13.0939 7.80999L13.1023 7.81194C13.1779 7.82967 13.2174 7.83742 13.2519 7.83972C13.2934 7.84249 13.3135 7.83503 13.3142 7.8174L13.3132 7.84604C13.3001 7.85425 13.279 7.85685 13.2509 7.85498C13.2154 7.85261 13.1755 7.84478 13.0991 7.82687L13.0907 7.82491C12.9602 7.79422 12.9134 7.78707 12.8929 7.80038L12.882 7.79544C12.8775 7.77266 12.8736 7.74946 12.8702 7.72578C12.8516 7.59442 12.8505 7.48358 12.8587 7.2671C12.8669 7.04697 12.8656 6.96882 12.8496 6.87495C12.8817 6.86575 12.9206 6.86336 12.9748 6.86526C12.9874 6.8657 12.9988 6.86626 13.0192 6.86736C13.087 6.87106 13.1108 6.8713 13.1339 6.8666C13.1614 6.86102 13.1705 6.84936 13.164 6.82556C13.156 6.79914 13.1445 6.75408 13.1268 6.68144L13.1248 6.67298C13.1257 6.67693 13.1149 6.63214 13.1067 6.59812C13.1141 6.58942 13.1164 6.57732 13.1129 6.56176L13.0987 6.56546L13.1067 6.59812C13.1014 6.60423 13.0937 6.60867 13.0836 6.61148C13.0667 6.61618 13.0498 6.61663 13.0054 6.61536L12.9869 6.61489C12.9368 6.61393 12.9083 6.61805 12.8907 6.63203L12.8791 6.62727C12.8399 6.39417 12.802 6.0672 12.81 5.93315L12.6573 5.92386C12.6567 5.99763 12.6621 6.07115 12.6735 6.15989C12.6786 6.19996 12.6806 6.21354 12.6952 6.3106C12.7305 6.54606 12.7411 6.67848 12.7288 6.8595C12.6974 7.32251 12.7171 7.79189 12.7954 8.27193C12.8249 8.26286 12.8756 8.2502 12.9163 8.24123L12.9163 8.24739L12.9221 8.23998L12.9163 8.24123C12.9168 8.16509 12.9119 8.09031 12.907 8.01948C12.9479 8.00916 12.9974 8.01085 13.0609 8.02194C13.0822 8.02566 13.1035 8.03007 13.1334 8.03678C13.2251 8.05734 13.2387 8.06 13.2656 8.06054C13.299 8.0612 13.3125 8.05163 13.3109 8.02693C13.3092 8.00058 13.3105 7.93054 13.3132 7.84604C13.3229 7.83992 13.3282 7.8307 13.3287 7.8179L13.3142 7.81734L13.3142 7.81733L13.3287 7.8179C13.3254 7.91419 13.3236 7.99742 13.3254 8.02589C13.3278 8.06136 13.3063 8.07663 13.2654 8.07582C13.237 8.07526 13.2235 8.07262 13.1303 8.05173C13.1006 8.04507 13.0795 8.0407 13.0585 8.03702C12.9967 8.02624 12.9489 8.02461 12.9158 8.02561ZM11.7169 5.02853L11.7146 5.01966L11.7245 5.02464C11.7218 5.02582 11.7193 5.02711 11.7169 5.02853ZM11.9453 5.89147C11.8466 5.70362 11.7652 5.5222 11.7175 5.37547C11.6563 5.18717 11.6535 5.06581 11.7169 5.02853L11.9453 5.89147ZM11.9453 5.89147C11.955 5.90995 11.9649 5.92848 11.9749 5.94706L11.9616 5.95287L11.9453 5.89147ZM11.7612 6.14841L11.761 6.14846L11.761 6.14846L11.7607 6.14862L11.7656 6.16511C11.8344 6.13816 11.9034 6.10651 11.9723 6.07046L11.9668 6.05426L11.9665 6.05441L11.9665 6.0544L11.9663 6.05447L11.7612 6.14841ZM11.7612 6.14841C11.8295 6.12166 11.8979 6.09025 11.9663 6.05447L11.9665 6.05441L11.972 6.0706L11.7659 6.16495L11.761 6.14846L11.7612 6.14841ZM10.5821 6.37657C10.582 6.37659 10.582 6.37662 10.5819 6.37664L10.5857 6.39352L10.7393 6.34607L10.7358 6.32906C10.7358 6.32908 10.7357 6.3291 10.7357 6.32911L10.7357 6.32911L10.7355 6.32914C10.6831 6.34355 10.6322 6.35931 10.5822 6.37654L10.5821 6.37657L10.5821 6.37657ZM10.5821 6.37657L10.5859 6.39345C10.6358 6.37624 10.6867 6.3605 10.7391 6.34611L10.7357 6.32911C10.7356 6.32912 10.7356 6.32913 10.7355 6.32914L10.5822 6.37654C10.5822 6.37655 10.5821 6.37656 10.5821 6.37657Z" fill="black"/>
<path fill-rule="evenodd" clip-rule="evenodd" d="M11.183 6.16694C11.7405 6.10858 12.2879 5.84538 12.5133 5.50365L12.5264 5.5067L12.5439 5.62696C12.4248 5.80073 12.2243 5.95331 11.9763 6.05897C11.9757 6.05714 11.9864 6.09104 11.9897 6.10127C11.9953 6.11863 12.0005 6.13353 12.0058 6.14771C12.0496 6.26395 12.1012 6.31362 12.177 6.27859C12.1584 6.28748 12.1394 6.29616 12.1199 6.30466C12.0668 6.29808 12.0264 6.24393 11.9923 6.15333C11.9868 6.13889 11.9816 6.12378 11.9759 6.1062C11.9726 6.09589 11.9619 6.06192 11.9665 6.05438C12.2163 5.9403 12.4147 5.78931 12.5308 5.62379L12.5151 5.52744C12.5185 5.52243 12.5219 5.5174 12.5253 5.51235L12.5121 5.5093L12.5151 5.52744C12.2809 5.86602 11.7376 6.12425 11.1845 6.18215C10.6497 6.23815 10.2398 6.40369 9.84168 6.66939C9.82508 6.63803 9.80516 6.61955 9.75506 6.58291L9.75487 6.58277C9.7416 6.57306 9.73563 6.56862 9.72837 6.56295C9.52675 6.40616 9.43449 6.20875 9.44791 6.02602C9.45729 5.89834 9.5206 5.80307 9.59352 5.79353C9.60709 5.80114 9.62115 5.80793 9.63629 5.81409L9.64149 5.79981C9.62535 5.79339 9.60922 5.79148 9.59352 5.79353C9.58035 5.78614 9.56764 5.77798 9.55485 5.76887C9.5428 5.76028 9.51087 5.73522 9.50154 5.7279C9.50002 5.72671 9.4991 5.72599 9.49897 5.72589C9.42854 5.67108 9.2849 5.89341 9.30283 6.12818C9.31096 6.23447 9.39692 6.4061 9.48591 6.51099L9.47917 6.5236C9.33191 6.49545 9.26212 6.45506 9.17907 6.33613C9.22184 6.30817 9.27862 6.28917 9.33096 6.28325L9.33487 6.29284L9.33511 6.29243L9.34103 6.28227C9.33776 6.28254 9.33447 6.28286 9.33116 6.28323C9.3311 6.28324 9.33103 6.28325 9.33096 6.28325L9.32023 6.25697C9.30983 6.23109 9.30215 6.20834 9.29808 6.18654C9.29492 6.16962 9.29393 6.15327 9.29552 6.13644C9.29334 6.13642 9.29115 6.13643 9.28896 6.13646C9.21797 6.13749 9.13657 6.16483 9.06022 6.21201C9.04934 6.20063 9.03808 6.18902 9.02622 6.17692C9.0058 6.15611 8.95283 6.10339 8.91574 6.06646C8.89745 6.04825 8.88302 6.03389 8.87825 6.02908C8.73552 5.88526 8.6546 5.78411 8.59401 5.65886C8.51395 5.49311 8.50445 5.34215 8.56057 5.26335C8.59798 5.21082 8.65716 5.19995 8.72409 5.23127C8.7321 5.23893 8.73997 5.24645 8.74758 5.25371C8.76108 5.26661 8.77373 5.27869 8.78478 5.28924C8.69649 5.21413 8.61648 5.21037 8.57223 5.2725C8.52005 5.34577 8.52918 5.49084 8.607 5.65194C8.66667 5.7753 8.74669 5.87532 8.88834 6.01805C8.89307 6.02282 8.90743 6.03712 8.92566 6.05527C8.96276 6.09219 9.01586 6.14506 9.03636 6.16595C9.04827 6.17809 9.05957 6.18975 9.06127 6.20027C9.12892 6.15202 9.20993 6.12394 9.28815 6.12719C9.27051 5.88273 9.4228 5.64759 9.50756 5.71354C9.50773 5.71367 9.50884 5.71454 9.51065 5.71596C9.52057 5.72374 9.55146 5.74797 9.56303 5.75622C9.58812 5.7741 9.61282 5.78814 9.64155 5.79983L9.63634 5.81411C9.55661 5.78242 9.47319 5.88074 9.46243 6.0272C9.44941 6.20451 9.53932 6.39691 9.73705 6.55067C9.74416 6.55623 9.75005 6.56061 9.7632 6.57022L9.76339 6.57036C9.81528 6.60832 9.83637 6.62788 9.84404 6.65929C10.2337 6.38963 10.6458 6.2232 11.183 6.16694ZM9.33753 6.29793C9.28594 6.30291 9.229 6.32121 9.18853 6.33774C9.26705 6.43733 9.33125 6.47712 9.46132 6.50446C9.41463 6.44576 9.3699 6.37086 9.33753 6.29793ZM8.79483 5.27816C8.77072 5.25759 8.74695 5.24197 8.72409 5.23127C8.66741 5.17715 8.6038 5.11651 8.58021 5.09498C8.50199 5.0236 8.44312 4.97824 8.38619 4.94778C8.37408 4.94131 8.36211 4.93555 8.3502 4.9305C8.18109 4.85858 8.00277 5.03888 8.08676 5.30301C8.17999 5.59653 8.29869 5.76484 8.57292 6.05464L8.59317 6.07604C8.85779 6.35557 8.9686 6.5081 9.05951 6.77244C9.12114 6.95189 9.18681 7.06942 9.26985 7.13003C9.36865 7.20213 9.49025 7.18913 9.64407 7.07653C9.66228 7.06321 9.67494 7.05408 9.69623 7.03882L9.69687 7.03836C9.71116 7.02807 9.7224 7.01986 9.73815 7.00817C9.85543 6.93701 9.9991 7.05574 10.0048 7.24862C10.0003 7.26144 9.99532 7.2748 9.98975 7.28878L10.0037 7.29234C10.0049 7.2774 10.0052 7.26281 10.0048 7.24862C10.0435 7.13731 10.0407 7.06689 10.005 6.98989C9.99821 6.97533 9.99027 6.96023 9.97932 6.94076C9.97912 6.94041 9.9789 6.94002 9.97865 6.93958C9.97293 6.92944 9.95424 6.89632 9.9583 6.88979C9.93979 6.90015 9.92482 6.89182 9.91429 6.86997C9.90706 6.85497 9.9023 6.83702 9.89468 6.80082L9.89283 6.79201C9.88318 6.74605 9.87699 6.72668 9.86847 6.72073L9.86866 6.70787C10.0936 6.56104 10.3209 6.44992 10.5911 6.37715C10.6051 6.51367 10.6403 6.58317 10.7124 6.57051C10.7469 6.56248 10.7805 6.55525 10.8141 6.5487C10.8292 6.55601 10.8467 6.558 10.867 6.55444C10.8167 6.56324 10.767 6.57343 10.7152 6.58551C10.6304 6.6004 10.5914 6.52337 10.5859 6.38531C10.3294 6.46326 10.1056 6.57212 9.88431 6.71568C9.89283 6.72726 9.89851 6.74806 9.90705 6.78872L9.9089 6.79753C9.91623 6.83236 9.92082 6.84965 9.92728 6.86306C9.93454 6.87813 9.94138 6.88193 9.96114 6.87915L9.99186 6.93299C10.003 6.95278 10.0111 6.9682 10.0181 6.98319C10.0599 7.07326 10.0586 7.15549 10.0032 7.29468L9.98921 7.29112C10.005 7.08413 9.85995 6.95193 9.746 7.02103C9.73075 7.03238 9.71946 7.04064 9.7051 7.05097L9.70446 7.05143C9.68317 7.0667 9.67056 7.07579 9.6524 7.08907C9.49398 7.20504 9.36588 7.21874 9.26154 7.14258C9.17535 7.07968 9.10839 6.95983 9.04582 6.77763C8.95582 6.51594 8.84607 6.36488 8.58284 6.08682L8.56259 6.06542C8.2869 5.77408 8.16706 5.60414 8.07294 5.30785C7.98505 5.03145 8.17493 4.83946 8.35566 4.91633C8.36797 4.92155 8.38032 4.92749 8.3928 4.93416C8.451 4.96529 8.51073 5.01131 8.58976 5.08344C8.61683 5.10815 8.69616 5.18393 8.75759 5.2426C8.77112 5.25553 8.78378 5.26762 8.79483 5.27816ZM10.8646 6.53936L10.867 6.55444L10.8646 6.53936C10.8646 6.53936 10.8646 6.53936 10.8646 6.53936ZM10.8646 6.53936C10.7932 6.5519 10.7591 6.47847 10.7447 6.33569C10.8817 6.30955 11.0323 6.28517 11.1919 6.27146C11.3849 6.25485 11.5821 6.21364 11.7655 6.15111C11.8035 6.31884 11.8607 6.41727 11.9446 6.38779C12.0319 6.35845 12.1108 6.32711 12.1826 6.29268C12.1843 6.29189 12.1861 6.29106 12.1878 6.29019L12.1816 6.27635C12.1801 6.2771 12.1785 6.27784 12.177 6.27859C12.1785 6.27789 12.18 6.27716 12.1815 6.27639L12.1877 6.29024C12.186 6.29105 12.1843 6.29187 12.1826 6.29268C12.1599 6.30321 12.1391 6.30703 12.1199 6.30466C12.0642 6.32889 12.0045 6.35161 11.9401 6.37326C11.869 6.39823 11.8149 6.30512 11.7703 6.14173C11.5787 6.19873 11.3826 6.2397 11.1907 6.25622C11.0305 6.26999 10.8791 6.29448 10.7358 6.32905C10.7432 6.45006 10.7665 6.5257 10.8141 6.5487C10.8309 6.54542 10.8477 6.54231 10.8646 6.53936ZM8.79483 5.27816C8.80689 5.28845 8.81904 5.29998 8.83121 5.31275L8.82121 5.32385C8.81435 5.31742 8.80137 5.30506 8.78478 5.28924C8.7967 5.29937 8.80876 5.31081 8.82091 5.32356L8.83091 5.31245C8.82412 5.30608 8.81127 5.29385 8.79483 5.27816Z" fill="black"/>
<path fill-rule="evenodd" clip-rule="evenodd" d="M13.7459 8.90469C13.6499 9.31396 13.7628 9.77564 14.0219 10.0233L14.0218 10.0348C13.6638 10.3581 13.2857 10.6111 12.8866 10.8148C12.7694 10.8747 12.6694 10.9418 12.5602 11.0294C12.5331 11.0511 12.5063 11.0734 12.4716 11.1027C12.4748 11.1 12.4057 11.1587 12.3866 11.1747C12.3013 11.2462 12.2377 11.2943 12.1693 11.3365C12.5655 11.407 13.0162 11.7911 13.3179 12.2941C13.6749 12.8891 14.03 13.1812 14.6079 13.4837C14.9292 13.652 14.9126 13.8693 14.6542 14.191C14.4821 14.4051 14.4137 14.5782 14.3139 14.9645C14.2052 15.3855 14.1294 15.5721 13.9282 15.8104C13.7442 16.0285 13.491 15.9519 13.4639 15.7492C13.4542 15.6766 13.4598 15.5946 13.4798 15.4804C13.4887 15.4291 13.5252 15.2535 13.5432 15.1668L13.5531 15.1189C13.5555 15.1068 13.5576 15.095 13.5593 15.0832C13.5589 15.0995 13.5612 15.1149 13.5659 15.1292L13.5573 15.1705C13.5393 15.2574 13.503 15.4322 13.4941 15.4831C13.4744 15.5959 13.4689 15.6765 13.4783 15.7471C13.5037 15.9368 13.7414 16.0087 13.9173 15.8003C14.1167 15.5642 14.1917 15.3794 14.2999 14.9605C14.4002 14.5721 14.4693 14.3974 14.643 14.1811C14.8962 13.8659 14.912 13.6601 14.6014 13.4973C14.0214 13.1937 13.6642 12.9001 13.3056 12.3023C13.0007 11.794 12.5429 11.4082 12.1467 11.3482L12.1441 11.334C12.2189 11.2897 12.2854 11.2399 12.3775 11.1627C12.3966 11.1468 12.4656 11.0882 12.4625 11.0908C12.4972 11.0614 12.5241 11.0391 12.5513 11.0173C12.6613 10.929 12.7621 10.8614 12.8803 10.8011C13.276 10.5991 13.651 10.3485 14.0061 10.0288L14.0121 10.0346L14.0123 10.0232L14.0061 10.0288C13.7471 9.77579 13.6353 9.31238 13.7333 8.90781C13.5441 8.67385 13.0716 8.57715 12.708 8.6751C12.3582 8.93468 12.067 9.2672 11.7907 9.69163C11.7146 9.80849 11.5608 10.0762 11.411 10.3368L11.411 10.3369C11.2554 10.6076 11.1042 10.8707 11.0493 10.9489C11.032 10.9734 11.015 10.9965 10.9982 11.0183C10.8312 11.2343 10.8272 11.6661 11.0736 11.8709C11.0852 11.8805 11.0963 11.8902 11.1072 11.9C11.1405 11.9302 11.1708 11.9614 11.2064 12.0014L11.2483 12.0497L11.2484 12.0497L11.2484 12.0498C11.2765 12.0821 11.3102 12.121 11.3256 12.1382C11.379 12.198 11.4323 12.2532 11.4961 12.3135C11.6607 12.469 11.8835 12.646 12.1995 12.8655C12.3603 12.9772 12.8659 13.3112 12.8634 13.3095C13.0869 13.4603 13.2136 13.5585 13.2837 13.6421C13.5094 13.9109 13.5918 14.0668 13.5639 14.273C13.5524 14.3583 13.549 14.4341 13.5523 14.529L13.5453 14.5276L13.538 14.5346C13.5343 14.4365 13.5377 14.3587 13.5495 14.2708C13.5766 14.0707 13.4958 13.9177 13.2728 13.6523C13.2038 13.5701 13.0779 13.4724 12.8555 13.3224C12.8582 13.3242 12.3524 12.9901 12.1915 12.8783C11.8749 12.6583 11.6516 12.4809 11.4863 12.3249C11.4222 12.2643 11.3687 12.2088 11.3149 12.1487C11.2994 12.1313 11.2655 12.0922 11.2374 12.0598L11.1957 12.0118C11.1604 11.9722 11.1306 11.9414 11.0977 11.9116C11.0869 11.9019 11.076 11.8924 11.0646 11.8829C10.8111 11.6722 10.8152 11.2307 10.9869 11.0086C11.0036 10.9871 11.0204 10.9642 11.0375 10.9398C11.092 10.8622 11.2425 10.6004 11.3977 10.3303L11.3977 10.3303L11.3977 10.3303L11.3977 10.3303L11.3977 10.3303L11.3978 10.3303L11.3978 10.3303C11.5478 10.0692 11.7022 9.80047 11.7787 9.683C12.0559 9.25718 12.3483 8.92337 12.702 8.66145C13.0729 8.56101 13.5511 8.65888 13.7459 8.90469ZM13.5387 14.5531L13.538 14.5346L13.5368 14.5357C13.5372 14.5416 13.5378 14.5475 13.5387 14.5531ZM13.5562 14.6066C13.5476 14.5905 13.5418 14.5727 13.5387 14.5531C13.5411 14.6061 13.5454 14.6652 13.5514 14.7348L13.5524 14.7465L13.55 14.7484C13.5513 14.7626 13.5532 14.776 13.5559 14.7888C13.5672 14.9282 13.5696 15.0005 13.5614 15.0678L13.5603 15.0684C13.5598 15.0734 13.5594 15.0783 13.5593 15.0832L13.5614 15.0678L13.5708 15.0625L13.5764 15.0654C13.5757 15.0707 13.5751 15.0761 13.5743 15.0814L13.574 15.0812C13.5741 15.0776 13.5744 15.074 13.5748 15.0703L13.5643 15.0762L13.574 15.0812C13.5739 15.0823 13.5739 15.0833 13.5739 15.0844C13.5721 15.0968 13.5699 15.1092 13.5674 15.122L13.5659 15.1292C13.5968 15.2239 13.7325 15.2714 13.895 15.2464L13.8971 15.232L13.5764 15.0654C13.5829 15.0083 13.5821 14.9472 13.5749 14.8458C13.6271 14.9524 13.7627 14.9864 14.0486 14.9615L14.0507 14.9468L13.5667 14.7434L13.5659 14.7335C13.5619 14.6868 13.5586 14.645 13.5562 14.6066ZM13.5532 14.5513C13.554 14.569 13.555 14.5873 13.5562 14.6066C13.6196 14.7255 13.8298 14.7477 14.1311 14.6549L14.1303 14.64L13.5523 14.529L13.5529 14.5446L13.5522 14.5445L13.5513 14.5346L13.5427 14.5427L13.5522 14.5445L13.5532 14.5513ZM14.097 14.6492C13.7801 14.7406 13.5772 14.6979 13.5532 14.5513L13.5529 14.5446L14.097 14.6492ZM14.097 14.6492L14.127 14.6402L14.1277 14.6551L14.097 14.6492ZM13.5682 14.7605L13.5667 14.7434L13.5599 14.7405L13.5524 14.7465L13.5559 14.7888C13.5602 14.8097 13.5665 14.8287 13.5749 14.8458C13.5736 14.8274 13.572 14.8076 13.5703 14.7862C13.5994 14.9232 13.715 14.9714 14.0163 14.9488L14.0453 14.961L14.0474 14.9462L14.0163 14.9488L13.5682 14.7605ZM13.5658 14.7595C13.567 14.7687 13.5685 14.7776 13.5703 14.7862L13.5682 14.7605L13.5658 14.7595ZM13.5658 14.7595L13.5644 14.7469L13.5545 14.7547L13.5658 14.7595ZM13.869 15.2345L13.5743 15.0814C13.5742 15.0824 13.574 15.0834 13.5739 15.0844C13.5725 15.1912 13.7016 15.2531 13.869 15.2345ZM13.869 15.2345L13.8907 15.2457L13.8928 15.2313C13.8848 15.2326 13.8769 15.2336 13.869 15.2345Z" fill="black"/>
<path fill-rule="evenodd" clip-rule="evenodd" d="M13.2617 9.73387C13.4754 9.6182 13.5642 9.5612 13.719 9.42413L13.7309 9.42858C13.733 9.44053 13.7362 9.45617 13.7395 9.47247C13.7443 9.4961 13.7493 9.52115 13.7519 9.53844C13.6137 9.65528 13.5333 9.70574 13.334 9.8136L13.293 9.83597C13.0839 9.9512 12.9426 10.0644 12.7362 10.3075C12.4783 10.6111 12.09 10.9592 11.8612 11.0942L11.7969 11.0161C12.0155 10.8808 12.4027 10.5337 12.6595 10.2312C12.8672 9.98666 13.0099 9.87233 13.2207 9.75623L13.2617 9.73387ZM13.7166 9.43138L13.7284 9.43582C13.7252 9.43864 13.7221 9.44142 13.7189 9.44417C13.7181 9.43961 13.7173 9.4353 13.7166 9.43138ZM13.7189 9.44417C13.5689 9.57617 13.4786 9.63368 13.2683 9.74746L13.2274 9.76977C13.0182 9.88504 12.8769 9.99825 12.6704 10.2414C12.4126 10.545 12.0243 10.8931 11.8056 11.0171L11.8626 11.0821C12.0812 10.9469 12.4684 10.5998 12.7253 10.2973C12.9329 10.0528 13.0756 9.93849 13.2862 9.82243L13.3273 9.80001C13.5258 9.69259 13.6056 9.64257 13.7405 9.53493C13.7344 9.51612 13.7248 9.47442 13.7189 9.44417Z" fill="black"/>
<path fill-rule="evenodd" clip-rule="evenodd" d="M12.597 11.8967L12.606 11.8846C12.6664 11.9314 12.7237 11.9803 12.7775 12.0313L12.7681 12.0429L12.597 11.8967ZM12.5973 11.8969C12.6573 11.9434 12.7143 11.992 12.7678 12.0426L12.7773 12.031L12.6062 11.8848L12.5973 11.8969ZM13.5607 13.0075C13.5608 13.0077 13.561 13.0078 13.5612 13.008L13.5724 12.9963L13.5722 12.9961C13.5723 12.9962 13.5725 12.9963 13.5726 12.9964L13.5613 13.0082L13.5607 13.0075ZM13.4397 12.8801L13.5607 13.0075C13.5211 12.9681 13.4811 12.926 13.4397 12.8801ZM13.4393 12.8796C13.4394 12.8798 13.4395 12.8799 13.4397 12.8801L13.4392 12.8796L13.4393 12.8796ZM13.4508 12.8682L13.4393 12.8796C13.4392 12.8796 13.4392 12.8795 13.4391 12.8795L13.4507 12.868L13.4508 12.8682ZM13.4512 12.8686L13.5722 12.9961C13.5327 12.9567 13.4927 12.9145 13.4512 12.8686ZM13.4512 12.8686L13.4508 12.8682L13.4508 12.8682C13.4509 12.8683 13.4511 12.8685 13.4512 12.8686Z" fill="black"/>
<path fill-rule="evenodd" clip-rule="evenodd" d="M11.8749 11.6733L11.8708 11.6598C11.8767 11.6603 11.8825 11.6609 11.8884 11.6615L11.8749 11.6733ZM12.7258 11.6312C12.7379 11.6606 12.7357 11.6943 12.7211 11.7315C12.7077 11.7654 12.6851 11.8005 12.6526 11.8413C12.6404 11.8565 12.6285 11.8707 12.5973 11.8969C12.378 11.7267 12.1543 11.6218 11.96 11.5991L11.8884 11.6615C12.2848 11.7051 12.7693 12.07 13.0936 12.544C13.4071 13.0022 13.7485 13.292 14.167 13.5213C14.1494 13.5523 14.1441 13.5797 14.139 13.6438L14.1388 13.6455C14.1376 13.6607 14.1369 13.6686 14.1359 13.6777C14.1074 13.9394 13.9907 14.122 13.8332 14.2011C13.7233 14.2564 13.6132 14.2465 13.5688 14.1852C13.5683 14.1692 13.5668 14.1534 13.5642 14.1358L13.5498 14.1382C13.5526 14.1562 13.5592 14.1719 13.5688 14.1852C13.5696 14.2116 13.5677 14.2382 13.5637 14.273C13.5618 14.2893 13.5609 14.2967 13.5602 14.3048C13.5501 14.3963 13.8054 14.4157 13.99 14.282C14.0736 14.2215 14.172 14.0577 14.2143 13.9242L14.2281 13.924C14.2783 14.0718 14.2799 14.1555 14.2235 14.2905C14.1791 14.2657 14.1351 14.2237 14.1038 14.1789C14.1067 14.175 14.1089 14.1719 14.1098 14.1706L14.1093 14.1706L14.098 14.1703C14.0999 14.1731 14.1018 14.1759 14.1037 14.1787C14.1037 14.1788 14.1038 14.1789 14.1038 14.1789C14.1031 14.18 14.1023 14.1811 14.1014 14.1823C14.0946 14.1919 14.0858 14.2043 14.082 14.2094C14.0702 14.2254 14.0593 14.2388 14.0472 14.2516C14.0405 14.2587 14.0335 14.2655 14.0264 14.2711C14.0179 14.2778 14.0092 14.2828 14.0005 14.2845C14.0015 14.2865 14.0026 14.2885 14.0038 14.2905C14.04 14.3545 14.1033 14.4148 14.1805 14.4607C14.1673 14.5127 14.1643 14.5257 14.1354 14.6531C14.0774 14.9089 14.0379 15.0312 13.9572 15.1611C13.8606 15.3168 13.7409 15.4009 13.6478 15.3893C13.5857 15.3815 13.5471 15.333 13.5396 15.2564C13.5462 15.2243 13.5524 15.1944 13.5573 15.1708C13.5389 15.2896 13.5758 15.3649 13.6495 15.3741C13.7361 15.3849 13.8511 15.3041 13.945 15.1528C14.0245 15.0248 14.0636 14.9037 14.1212 14.6495C14.1501 14.522 14.1532 14.509 14.1703 14.4656C14.0966 14.4282 14.0329 14.3686 13.9965 14.2959C13.8037 14.4341 13.5336 14.4132 13.5457 14.3032C13.5464 14.2951 13.5473 14.2875 13.5492 14.2711C13.5555 14.2166 13.5565 14.1831 13.5498 14.1382L13.5642 14.1358C13.5779 14.2241 13.7008 14.2508 13.827 14.1873C13.9797 14.1105 14.0935 13.9326 14.1215 13.6759C14.1224 13.6671 14.1231 13.6592 14.1243 13.6442L14.1245 13.6425C14.1298 13.5761 14.1354 13.5471 14.1575 13.5243C13.74 13.3046 13.3968 13.0133 13.0818 12.553C12.755 12.0752 12.2643 11.7091 11.8697 11.675L11.8656 11.6615L11.956 11.5857C12.1587 11.6069 12.3847 11.7129 12.5962 11.8857C12.6176 11.8606 12.6294 11.8465 12.6414 11.8315C12.6731 11.7917 12.695 11.7578 12.7076 11.7257C12.7291 11.6711 12.7212 11.6273 12.6765 11.5931C12.6929 11.6052 12.7093 11.6179 12.7258 11.6312ZM13.5812 12.6976C13.586 12.7523 13.5354 12.8113 13.4391 12.8786C13.3392 12.7658 13.2433 12.6404 13.1516 12.5013C13.0422 12.3352 12.9104 12.1775 12.7675 12.0316C12.88 11.9091 12.9296 11.8136 12.8735 11.7614C12.823 11.7132 12.774 11.6699 12.7258 11.6312C12.7181 11.6126 12.7047 11.5956 12.685 11.5806C12.7495 11.6287 12.8152 11.6851 12.8832 11.75C12.9495 11.8116 12.897 11.9126 12.7776 12.0313C12.921 12.1669 13.0535 12.3255 13.1636 12.4926C13.2549 12.6311 13.3503 12.7559 13.4402 12.8672C13.5509 12.7825 13.5943 12.715 13.5481 12.6562C13.5591 12.6702 13.5701 12.684 13.5812 12.6976ZM13.5594 12.6465L13.5481 12.6562C13.5481 12.6562 13.5481 12.6562 13.5481 12.6562L13.5594 12.6465ZM14.1836 13.4595C13.9547 13.33 13.7531 13.181 13.5605 12.9866C13.6716 12.9129 13.7158 12.8387 13.661 12.7691C13.626 12.7291 13.5926 12.6888 13.5594 12.6465L13.5594 12.6465C13.5725 12.6632 13.5797 12.6802 13.5812 12.6976C13.6037 12.7253 13.6266 12.7523 13.65 12.7791C13.6966 12.8384 13.6568 12.9053 13.5512 12.986C13.7464 13.1954 13.9516 13.3465 14.1851 13.4777L14.1958 13.4714C14.1965 13.46 14.2089 13.4458 14.248 13.4083L14.2546 13.4019C14.2774 13.3799 14.29 13.3659 14.2977 13.3523C14.3088 13.3331 14.3074 13.3162 14.2905 13.3052C14.2953 13.3098 14.3166 13.2706 14.3258 13.2537C14.3268 13.2519 14.3276 13.2504 14.3283 13.2492C14.383 13.1497 14.4363 13.1063 14.5633 13.0834C14.407 13.185 14.3808 13.3751 14.4982 13.4461C14.5153 13.4544 14.5271 13.4603 14.5435 13.4685L14.544 13.4688C14.5771 13.4854 14.5806 13.4871 14.6017 13.4974C14.7714 13.581 14.8429 13.6851 14.8328 13.811C14.8243 13.9168 14.7603 14.0353 14.6431 14.1811C14.4693 14.3974 14.4002 14.5722 14.2999 14.9605C14.1917 15.3794 14.1167 15.5642 13.9174 15.8003C13.7415 16.0087 13.5038 15.9368 13.4784 15.7471C13.469 15.6765 13.4745 15.5959 13.4941 15.4831C13.5006 15.446 13.5216 15.3431 13.5396 15.2564C13.5369 15.2299 13.538 15.2 13.5432 15.1672C13.5432 15.1671 13.5432 15.167 13.5432 15.1668C13.5485 15.1416 13.5522 15.1238 13.5531 15.1189L13.5673 15.1225C13.563 15.1393 13.5597 15.1554 13.5573 15.1708C13.5573 15.1707 13.5573 15.1706 13.5574 15.1705C13.5627 15.145 13.5664 15.1271 13.5674 15.122L13.5532 15.1185C13.5489 15.1353 13.5456 15.1516 13.5432 15.1672C13.5251 15.2541 13.4887 15.4292 13.4798 15.4804C13.4599 15.5946 13.4543 15.6767 13.4639 15.7492C13.4911 15.952 13.7442 16.0285 13.9283 15.8104C14.1295 15.5721 14.2052 15.3855 14.314 14.9646C14.4138 14.5782 14.4822 14.4051 14.6542 14.191C14.7732 14.0429 14.8385 13.9221 14.8473 13.8123C14.858 13.6793 14.7827 13.5697 14.6078 13.4836C14.5868 13.4733 14.5834 13.4716 14.5503 13.455L14.5497 13.4547C14.5334 13.4465 14.5215 13.4406 14.5049 13.4326C14.3909 13.3636 14.4274 13.1655 14.606 13.0764L14.6019 13.0619C14.4406 13.0836 14.3781 13.128 14.3157 13.2415C14.3104 13.2511 14.2954 13.2795 14.2866 13.296C14.2834 13.3021 14.2811 13.3066 14.2803 13.3079C14.292 13.3242 14.2926 13.3316 14.2853 13.3444C14.2784 13.3563 14.2665 13.3696 14.2448 13.3906L14.2381 13.397C14.2034 13.4304 14.1888 13.4458 14.1836 13.4595ZM14.5633 13.0834C14.5748 13.0759 14.5869 13.069 14.5997 13.0626L14.6038 13.0771C14.5895 13.079 14.576 13.0811 14.5633 13.0834ZM12.685 11.5806C12.6838 11.5797 12.6825 11.5788 12.6812 11.5778L12.6729 11.5904C12.6741 11.5913 12.6754 11.5922 12.6765 11.5931C12.6753 11.5922 12.6741 11.5912 12.6728 11.5903L12.6812 11.5778C12.6825 11.5787 12.6838 11.5797 12.685 11.5806ZM14.1126 14.1656C14.1428 14.2102 14.1863 14.2527 14.2201 14.2811C14.2628 14.1599 14.2635 14.0816 14.2212 13.9498C14.196 14.0217 14.1566 14.0997 14.1126 14.1656Z" fill="black"/>
<path fill-rule="evenodd" clip-rule="evenodd" d="M14.624 12.8735L14.509 12.7275L14.4963 12.7306L14.4544 12.921L14.2736 12.9192L14.2681 12.9316L14.3846 13.0848L14.271 13.2309L14.2767 13.2432L14.4637 13.2445L14.5009 13.4287L14.5136 13.4317L14.6309 13.279L14.7932 13.3624L14.8033 13.3537L14.7608 13.1631L14.9247 13.0827L14.9246 13.069L14.7559 12.9832L14.7996 12.7998L14.7893 12.7913L14.624 12.8735ZM14.7822 12.8117L14.6251 12.8898L14.6164 12.8878L14.5068 12.7487L14.5105 12.7341L14.4978 12.7372L14.5068 12.7487L14.4616 12.9303L14.2881 12.9342L14.2794 12.9221L14.2739 12.9345L14.2881 12.9342L14.396 13.0846L14.2912 13.2285L14.2768 13.2279L14.2826 13.2402L14.2912 13.2285L14.4708 13.235L14.5116 13.4106L14.5023 13.4221L14.515 13.4251L14.5116 13.4106L14.6283 13.2673L14.7862 13.3423L14.7891 13.3572L14.7992 13.3485L14.7862 13.3423L14.7505 13.1581L14.9055 13.0757L14.9182 13.0827L14.9181 13.069L14.9055 13.0757L14.7456 12.9885L14.7822 12.8117ZM14.7822 12.8117L14.7956 12.8051L14.7853 12.7965L14.7822 12.8117Z" fill="black"/>
<path fill-rule="evenodd" clip-rule="evenodd" d="M14.0586 8.85382C14.4441 8.73637 14.7686 8.40282 14.8432 8.04351L14.8527 8.03793C15.2986 8.20192 15.6967 8.41927 16.0638 8.68003C16.2161 8.7882 16.307 8.83164 16.5742 8.93989C16.7015 8.99145 16.7764 9.02581 16.8526 9.07143C16.7128 8.67582 16.8042 8.07399 17.0683 7.54812C17.3806 6.92611 17.4438 6.45744 17.4045 5.78041C17.3826 5.40403 17.5701 5.31052 17.9647 5.38465C18.2221 5.43305 18.4058 5.40911 18.7528 5.31286L18.7798 5.30538C19.1733 5.19602 19.3681 5.17168 19.6635 5.23508C19.9354 5.29337 19.9987 5.562 19.845 5.68787C19.7867 5.73561 19.7117 5.77285 19.5958 5.81506C19.5593 5.82835 19.4467 5.86611 19.3653 5.8934L19.3653 5.89341C19.3254 5.90678 19.2931 5.91764 19.2808 5.92189L19.2686 5.92627C19.2806 5.91861 19.2908 5.90963 19.2994 5.8995L19.3611 5.87876L19.3612 5.87875C19.4425 5.85146 19.5547 5.81383 19.591 5.80062C19.7055 5.75891 19.7793 5.72229 19.836 5.67581C19.9799 5.55804 19.9204 5.30576 19.6606 5.25006C19.368 5.18725 19.175 5.21136 18.7835 5.32017L18.7566 5.32765C18.4076 5.42441 18.2221 5.44859 17.9621 5.3997C17.5755 5.32706 17.3979 5.41564 17.419 5.77948C17.4585 6.45906 17.3949 6.93036 17.0811 7.55525C16.8143 8.08661 16.725 8.69577 16.8736 9.0861L16.8631 9.09552C16.7813 9.04479 16.7055 9.00947 16.5689 8.95415C16.3007 8.8455 16.2091 8.80172 16.0556 8.6927C15.6917 8.43414 15.2972 8.2184 14.8556 8.05521L14.8574 8.04677L14.8479 8.05236L14.8556 8.05521C14.7766 8.41702 14.4501 8.75043 14.0675 8.86374C13.969 9.15267 14.1255 9.63044 14.3881 9.91233C14.53 9.981 14.6775 10.038 14.831 10.0846C15.3041 10.228 15.6916 10.2593 16.4614 10.2612C16.8566 10.2621 17.0109 10.2677 17.1757 10.2953C17.4374 10.3391 17.7956 10.1269 17.8413 9.80048C17.8489 9.74629 17.8597 9.69662 17.8754 9.63976C17.8852 9.60459 17.928 9.46451 17.9239 9.47828C17.9457 9.40563 17.9627 9.3421 17.9793 9.26876C18.0334 9.03014 18.073 8.722 18.0987 8.27942C18.1086 8.10881 18.1113 8.04122 18.1242 7.67699C18.1404 7.22079 18.1554 7.03546 18.1972 6.90521C18.3063 6.56535 18.3935 6.41275 18.5774 6.33505C18.6511 6.30392 18.7194 6.26652 18.7944 6.21751L18.7968 6.22459L18.8061 6.22781C18.7289 6.27858 18.6588 6.31716 18.5829 6.34924C18.4043 6.42467 18.3188 6.57435 18.211 6.91009C18.1698 7.03829 18.1549 7.22333 18.1388 7.67756C18.1259 8.04194 18.1232 8.10957 18.1133 8.28035C18.0875 8.72375 18.0478 9.03275 17.9935 9.2723C17.9768 9.34603 17.9597 9.4099 17.9378 9.48286C17.9419 9.4693 17.8991 9.6091 17.8894 9.64403C17.8738 9.70026 17.8632 9.74925 17.8557 9.80271C17.8087 10.1384 17.4425 10.3554 17.1734 10.3104C17.0096 10.283 16.8558 10.2774 16.4614 10.2765C15.6902 10.2746 15.3018 10.2432 14.827 10.0993C14.6727 10.0525 14.5246 9.99521 14.3799 9.92462C14.1115 9.63734 13.9532 9.15379 14.0586 8.85382ZM18.8211 6.2179L18.8061 6.22781L18.8077 6.22835C18.8124 6.22501 18.8169 6.22153 18.8211 6.2179ZM18.8563 6.17548C18.8474 6.19121 18.8356 6.2054 18.8211 6.2179C18.8453 6.20168 18.8703 6.18426 18.8964 6.16546C18.9111 6.1549 18.9435 6.13112 18.9738 6.10881L18.9766 6.11007C18.9876 6.10174 18.9978 6.09319 19.007 6.08437L19.0375 6.06198C19.0903 6.02372 19.1309 5.99643 19.1703 5.97366C19.1935 5.96027 19.2157 5.94877 19.2374 5.93907L19.2402 5.94061C19.2505 5.93655 19.26 5.93175 19.2686 5.92627C19.2583 5.93013 19.2479 5.93439 19.2374 5.93907L19.2286 5.93407L19.2281 5.92666C19.2334 5.92423 19.2387 5.9219 19.244 5.91967L19.2442 5.92184C19.2407 5.92352 19.2371 5.92509 19.2334 5.92655L19.245 5.93309L19.2442 5.92184C19.2492 5.9194 19.254 5.91675 19.2584 5.91387C19.2644 5.91157 19.2703 5.9094 19.2762 5.90736L19.2994 5.8995C19.3643 5.82246 19.3304 5.67922 19.2168 5.54719L19.2019 5.55242L19.2281 5.92666C19.207 5.93621 19.1856 5.94739 19.1633 5.96026C19.1274 5.98103 19.0905 6.00543 19.0447 6.03821C19.1061 5.93742 19.0662 5.79714 18.903 5.55002L18.8899 5.55547L18.9641 6.09727C18.9342 6.11927 18.9026 6.14248 18.8882 6.15284L18.8563 6.17548ZM18.8123 6.20562C18.8267 6.19601 18.8413 6.18598 18.8563 6.17548C18.923 6.05844 18.8363 5.85599 18.6088 5.62836L18.597 5.63646L18.7944 6.21751L18.807 6.20918L18.8072 6.20989L18.7995 6.21569L18.8105 6.21945L18.8072 6.20989L18.8123 6.20562ZM18.6212 5.66221C18.8551 5.90464 18.9214 6.11052 18.8123 6.20562L18.807 6.20918L18.6212 5.66221ZM18.6212 5.66221L18.5988 5.63942L18.6107 5.63132L18.6212 5.66221ZM18.9774 6.08743L18.9641 6.09727L18.9651 6.10495L18.9738 6.10881L18.99 6.09684L18.99 6.09682L19.007 6.08437C19.0222 6.06983 19.0348 6.05454 19.0447 6.03821L19.0292 6.0494L18.9977 6.07256C19.0959 5.97752 19.0779 5.84831 18.9087 5.58577L18.9043 5.55329L18.8911 5.55873L18.9087 5.58577L18.9774 6.08743ZM18.9778 6.09007C18.9849 6.08435 18.9915 6.07852 18.9977 6.07256L18.9816 6.08438L18.9774 6.08743L18.9778 6.09007ZM18.9778 6.09007L18.9681 6.09765L18.9795 6.10277L18.9778 6.09007ZM19.2201 5.57679L19.244 5.91967C19.2489 5.91765 19.2537 5.91572 19.2584 5.91387C19.3475 5.85666 19.329 5.71426 19.2201 5.57679ZM19.2201 5.57679L19.2183 5.55144L19.2035 5.55667C19.2092 5.56336 19.2148 5.57007 19.2201 5.57679Z" fill="black"/>
<path fill-rule="evenodd" clip-rule="evenodd" d="M14.6098 8.66318C14.5751 8.64786 14.5388 8.63298 14.5004 8.61845L14.4982 8.60544C14.5075 8.59705 14.5194 8.58587 14.5316 8.57436C14.5483 8.55855 14.5657 8.54211 14.5783 8.53134C14.5974 8.53908 14.6159 8.54692 14.634 8.55488C14.775 8.61686 14.8366 8.65419 15.0232 8.77981C15.2468 8.93044 15.4015 9.00099 15.7206 9.07056C16.1001 9.15337 16.5814 9.33233 16.8069 9.47264L16.7747 9.57033C16.5537 9.43913 16.0738 9.26069 15.6959 9.17837C15.3749 9.10839 15.2187 9.03709 14.9936 8.88546C14.8088 8.76103 14.7483 8.72431 14.6098 8.66318ZM14.5076 8.61707L14.5054 8.60406C14.5093 8.60554 14.5131 8.60702 14.517 8.60851C14.5137 8.61157 14.5105 8.61445 14.5076 8.61707ZM14.5812 8.54349C14.5688 8.55848 14.5394 8.58776 14.517 8.60851C14.5513 8.62172 14.5841 8.63522 14.6154 8.64908C14.7549 8.71066 14.816 8.7477 15.0014 8.87259C15.2251 9.02326 15.3798 9.09382 15.6989 9.1634C16.0782 9.24602 16.5594 9.42499 16.7712 9.56186L16.7962 9.47748C16.5757 9.34648 16.0957 9.16803 15.7176 9.08553C15.3966 9.01556 15.2404 8.94426 15.0153 8.79268C14.8294 8.66752 14.7683 8.63052 14.6284 8.56898C14.6274 8.56855 14.6264 8.56812 14.6254 8.56768C14.6084 8.56022 14.5914 8.55275 14.5812 8.54349Z" fill="black"/>
<path fill-rule="evenodd" clip-rule="evenodd" d="M17.4917 7.14571C17.5105 7.08941 17.5266 7.03627 17.5404 6.98493L17.5243 6.98105L17.5243 6.98127L17.5243 6.98127C17.5242 6.9813 17.5242 6.98134 17.5242 6.98138L17.4758 7.14107C17.4757 7.14112 17.4757 7.14117 17.4757 7.14123L17.4757 7.14123L17.4757 7.14142L17.4917 7.14571ZM17.4757 7.14123L17.4917 7.14552L17.5404 6.98515L17.5243 6.98127L17.5242 6.98138C17.5105 7.03235 17.4944 7.08514 17.4758 7.14107L17.4757 7.14123ZM15.0002 8.27969C14.9412 8.25672 14.8745 8.22238 14.8097 8.18235L14.8065 8.17335L14.8146 8.14747L14.8146 8.14747C14.8259 8.1106 14.839 8.06838 14.8527 8.0379C15.2986 8.20189 15.6967 8.41924 16.0638 8.68001C16.2161 8.78818 16.307 8.83162 16.5741 8.93986C16.7114 8.99546 16.7878 9.03105 16.8731 9.0928L16.7817 9.24022C16.6677 9.1701 16.3861 9.04387 16.1772 8.96383C16.1764 8.98545 16.1669 9.01024 16.1493 9.04252C16.1453 9.04986 16.141 9.05728 16.1351 9.06737C16.1077 9.11436 16.1023 9.12443 16.0975 9.14083C16.0918 9.16041 16.0959 9.17059 16.1134 9.17601L16.1093 9.19071L16.1092 9.19068L16.1132 9.17598L16.0823 9.16686C16.0797 9.15836 16.0802 9.1481 16.0836 9.13635C16.089 9.1181 16.0944 9.108 16.1227 9.05938C16.1285 9.04941 16.1327 9.04211 16.1366 9.03492C16.1561 8.99924 16.1647 8.97388 16.1623 8.95372L16.172 8.94557C16.3826 9.02565 16.6722 9.15518 16.7791 9.22973L16.8631 9.09549C16.7812 9.04476 16.7054 9.00944 16.5689 8.95413C16.3007 8.84547 16.2091 8.8017 16.0556 8.69267C15.6895 8.43261 15.2926 8.21586 14.8573 8.04693C14.85 8.07841 14.835 8.13128 14.8222 8.17229L14.8171 8.16917L14.8203 8.17817L14.8222 8.17229C14.8846 8.21055 14.9488 8.24356 15.0097 8.27468C15.0075 8.28248 15.0048 8.29039 15.0016 8.29842C14.9832 8.34449 14.9514 8.39019 14.8988 8.45253L14.8734 8.48218L14.8431 8.51767C14.8235 8.54094 14.8103 8.55822 14.8008 8.57333C14.7792 8.6076 14.7791 8.62659 14.8018 8.63816C14.8244 8.65006 14.8845 8.68813 14.9497 8.73082C14.9499 8.74272 14.9548 8.75216 14.9651 8.75898L14.9728 8.74604L14.9729 8.74605L14.9651 8.75899C14.892 8.71075 14.8199 8.6648 14.7953 8.65187C14.7627 8.63522 14.7629 8.60581 14.7886 8.56491C14.7986 8.54907 14.8122 8.53132 14.8322 8.50756L14.8627 8.47182L14.8879 8.44239C14.9396 8.38123 14.9706 8.3366 14.9882 8.29251L14.9887 8.29134C14.9915 8.28424 14.9941 8.27771 15.0002 8.27969ZM14.9728 8.74604L14.9497 8.73082C14.9494 8.71514 14.9574 8.6952 14.9724 8.67135C14.9915 8.64067 15.0182 8.60772 15.0691 8.54958L15.0756 8.54212C15.1696 8.43481 15.1982 8.39696 15.1975 8.37134L15.2071 8.36385C15.3246 8.40467 15.4344 8.46367 15.5769 8.55591L15.582 8.55928L15.582 8.55928L15.582 8.55929L15.582 8.55929L15.582 8.5593L15.5821 8.55932C15.6108 8.57828 15.7508 8.67069 15.7907 8.6952C15.8657 8.74131 15.9242 8.77022 15.9825 8.79483C15.9761 8.82032 15.9642 8.84819 15.9466 8.88069C15.9376 8.89722 15.9277 8.91412 15.9142 8.93616L15.9135 8.93731C15.8695 9.00908 15.8608 9.02337 15.8544 9.03863C15.8528 9.04242 15.8513 9.04627 15.8495 9.05108L15.8493 9.0517C15.8374 9.08321 15.8418 9.09894 15.8661 9.10529C15.8928 9.11142 15.9372 9.12395 16.0114 9.14587L16.0171 9.14755L16.0676 9.16252L16.0823 9.16686C16.0857 9.178 16.0945 9.18612 16.1092 9.19068L16.0636 9.17724L16.0131 9.16227L16.0075 9.16059C15.9336 9.13877 15.8893 9.12627 15.8628 9.12018C15.8283 9.11115 15.821 9.0852 15.8357 9.04608L15.8361 9.04508L15.8361 9.04508L15.8361 9.04506L15.8361 9.04505C15.8381 9.03993 15.8396 9.03584 15.8413 9.03182C15.8479 9.01614 15.8569 9.00146 15.9009 8.9296L15.902 8.92789C15.9153 8.90606 15.9251 8.88938 15.9339 8.87313C15.94 8.86188 15.9454 8.85123 15.9503 8.84152L15.9503 8.84151C15.9591 8.82409 15.9664 8.80968 15.9735 8.80026C15.9189 8.78455 15.8594 8.75513 15.7833 8.7084C15.743 8.68362 15.6016 8.59027 15.574 8.57202L15.5739 8.572L15.5739 8.57199L15.5693 8.56893C15.4312 8.47959 15.3243 8.42173 15.2113 8.38148C15.2063 8.4116 15.1753 8.45085 15.0863 8.55247L15.0798 8.55992C15.0295 8.61742 15.0031 8.65 14.9845 8.67974C14.9623 8.71529 14.9588 8.73672 14.9728 8.74604ZM18.0857 8.69862C18.0962 8.60607 17.9885 8.54155 17.7882 8.50011C17.628 8.46697 17.4132 8.45004 17.1854 8.44811L17.1835 8.46316L18.0767 8.70512L18.0857 8.69862ZM18.0718 8.68801L18.0803 8.69031L18.0712 8.69681C18.0716 8.69385 18.0718 8.69092 18.0718 8.68801ZM17.2459 8.46428C17.4502 8.46847 17.6405 8.48513 17.7854 8.51511C17.9713 8.55358 18.0728 8.6117 18.0718 8.68801L17.2459 8.46428ZM17.2459 8.46428C17.2259 8.46387 17.2056 8.46358 17.1853 8.4634L17.1872 8.44836L17.2459 8.46428ZM17.103 8.40194C17.1126 8.32388 17.1259 8.24789 17.143 8.17417L17.1266 8.17136L17.0865 8.39986L17.103 8.40194ZM17.1029 8.4023L17.0864 8.40022C17.0961 8.32168 17.1095 8.2452 17.1267 8.17099L17.1431 8.1738L17.1029 8.4023Z" fill="black"/>
<path fill-rule="evenodd" clip-rule="evenodd" d="M17.3999 7.63337C17.1692 8.16946 17.1125 8.79877 17.2817 9.1746L17.2726 9.18504L17.1648 9.14088C17.081 8.94578 17.0555 8.68732 17.0923 8.4086L17.0554 8.40067C17.0252 8.3943 17.0014 8.39016 16.9782 8.38764C16.8768 8.37663 16.8189 8.40194 16.8107 8.48179C16.8126 8.46059 16.8149 8.43905 16.8177 8.41712C16.8466 8.37637 16.9023 8.36403 16.9797 8.37244C17.0034 8.37501 17.0276 8.37922 17.0583 8.38567C17.0667 8.38744 17.093 8.39315 17.1009 8.40197C17.0702 8.68652 17.0955 8.94229 17.1739 9.13057L17.2612 9.16433C17.2636 9.16998 17.266 9.17558 17.2685 9.18113L17.2776 9.17069L17.2612 9.16433C17.0989 8.78217 17.1577 8.159 17.3866 7.62707C17.6078 7.11283 17.6762 6.65739 17.656 6.16251C17.6897 6.16312 17.7156 6.15415 17.7684 6.12807L17.771 6.12683C17.7855 6.11967 17.7922 6.1164 17.8006 6.11263C18.0307 6.00774 18.2396 6.02259 18.3836 6.12614C18.4836 6.19811 18.5306 6.30252 18.503 6.37356C18.4905 6.38162 18.4795 6.39041 18.4641 6.40334L18.4733 6.41522C18.487 6.40346 18.4968 6.38933 18.503 6.37356C18.5227 6.36078 18.5461 6.34984 18.5959 6.32716L18.6056 6.32266C18.686 6.28585 18.5745 6.04424 18.3719 5.94318C18.3719 5.94318 18.3719 5.94318 18.3719 5.94318C18.2802 5.8974 18.096 5.88973 17.9645 5.91808L17.9575 5.90563C18.0545 5.78594 18.1226 5.74275 18.2622 5.72659C18.264 5.77942 18.2513 5.84049 18.2299 5.89116L18.2201 5.88991L18.2203 5.89036L18.2257 5.90079C18.2271 5.8977 18.2285 5.89455 18.2299 5.89137C18.2299 5.8913 18.2299 5.89123 18.2299 5.89116L18.2352 5.89182C18.2766 5.89681 18.3039 5.90128 18.3273 5.90998C18.3418 5.91542 18.3548 5.9225 18.3688 5.9324C18.3699 5.93043 18.371 5.92843 18.372 5.92642C18.4067 5.8613 18.4248 5.77368 18.4241 5.68057C18.4625 5.66968 18.5002 5.65829 18.554 5.64147C18.7254 5.58796 18.7548 5.57922 18.8277 5.56236C18.9316 5.53833 19.023 5.52829 19.1134 5.53341C19.2901 5.54343 19.4194 5.61026 19.4564 5.70069C19.481 5.76094 19.4604 5.82016 19.4012 5.86533C19.3874 5.86996 19.3739 5.87448 19.3612 5.87874C19.3474 5.88336 19.3345 5.88769 19.323 5.89155C19.4291 5.84887 19.4721 5.77801 19.443 5.70672C19.4086 5.62263 19.2844 5.55842 19.1126 5.54868C19.0236 5.54364 18.9336 5.55354 18.8308 5.57729C18.7584 5.59403 18.7291 5.60275 18.5582 5.65613C18.5042 5.67298 18.4665 5.6844 18.4332 5.6874C18.4392 5.77313 18.4219 5.86077 18.3801 5.93032C18.5905 6.03647 18.7082 6.29235 18.6115 6.33663L18.6017 6.34119C18.5218 6.37758 18.5115 6.38303 18.4733 6.41526L18.4641 6.40338C18.5301 6.34675 18.4908 6.22177 18.3754 6.13876C18.2356 6.03827 18.032 6.0238 17.8064 6.12666C17.7982 6.13036 17.7915 6.13357 17.7772 6.14067L17.7746 6.14191C17.7198 6.16895 17.6924 6.17847 17.6631 6.1697C17.6908 6.65883 17.6221 7.11673 17.3999 7.63337ZM19.3272 5.90622C19.3562 5.89458 19.381 5.88078 19.4012 5.86533C19.4758 5.8403 19.5604 5.81177 19.5911 5.80062C19.7056 5.75891 19.7794 5.72229 19.8361 5.67581C19.9799 5.55804 19.9204 5.30576 19.6606 5.25006C19.368 5.18725 19.1751 5.21136 18.7835 5.32017L18.7566 5.32765C18.4076 5.42441 18.2222 5.44859 17.9621 5.3997C17.7832 5.36609 17.6535 5.36706 17.562 5.41224C17.4531 5.46602 17.4031 5.58309 17.419 5.77929C17.4197 5.78739 17.4201 5.79259 17.4205 5.79779C17.4213 5.80718 17.4219 5.81658 17.4239 5.843L17.4241 5.84617C17.4255 5.86455 17.4266 5.87879 17.4284 5.89897C17.4284 6.04121 17.2587 6.11244 17.0969 6.02123C17.0885 6.01074 17.0799 5.99949 17.0712 5.98742L17.0613 5.99835C17.0731 6.00688 17.085 6.0145 17.0969 6.02123C17.1447 6.08089 17.1874 6.11569 17.232 6.13377C17.2739 6.15073 17.3057 6.15324 17.3941 6.1515C17.4083 6.15122 17.4147 6.15111 17.4159 6.1584C17.4166 6.13661 17.4307 6.12709 17.4536 6.12823C17.4694 6.12902 17.4869 6.13367 17.5195 6.14447L17.5238 6.1459C17.5725 6.16206 17.5907 6.16621 17.6003 6.16122L17.6108 6.16783C17.6195 6.44532 17.5974 6.7078 17.5223 6.99011C17.4027 6.9345 17.3279 6.93175 17.3022 7.00377C17.2917 7.03885 17.2808 7.07304 17.2694 7.10699C17.2558 7.11708 17.2454 7.13207 17.2382 7.15232L17.2519 7.15767C17.2519 7.15767 17.2519 7.15766 17.2519 7.15766C17.2579 7.14078 17.2637 7.12391 17.2694 7.10699C17.3121 7.07526 17.386 7.09189 17.4897 7.14573C17.4467 7.29303 17.3912 7.44296 17.3224 7.59582C17.24 7.77825 17.1759 7.97694 17.127 8.18002C16.97 8.1389 16.8661 8.14153 16.851 8.21875C16.8366 8.28857 16.8255 8.35442 16.8177 8.41712C16.8061 8.4334 16.7989 8.45421 16.7962 8.48005C16.7961 8.4818 16.7959 8.48355 16.7958 8.4853L16.8103 8.4866C16.8104 8.48498 16.8106 8.48337 16.8107 8.48179C16.8106 8.48343 16.8104 8.48506 16.8103 8.4867L16.7958 8.48539M17.5966 6.17825C17.5827 6.18034 17.5626 6.17482 17.5194 6.16047L17.5152 6.15905C17.4838 6.14867 17.467 6.14421 17.4529 6.14351C17.4373 6.14273 17.4309 6.14705 17.4233 6.1663L17.3943 6.16679C17.3041 6.16857 17.271 6.16596 17.2268 6.14803C17.1715 6.12562 17.1196 6.07947 17.0596 5.99668L17.0695 5.98576C17.2323 6.10364 17.4138 6.03789 17.4138 5.89967C17.4121 5.88012 17.411 5.8658 17.4096 5.84735L17.4094 5.84417C17.4074 5.81777 17.4067 5.8084 17.406 5.79903C17.4056 5.79384 17.4052 5.78866 17.4045 5.78059C17.3881 5.57853 17.4408 5.45521 17.5558 5.39841C17.6508 5.35151 17.7831 5.35052 17.9647 5.38465C18.2221 5.43305 18.4058 5.40911 18.7529 5.31286L18.7798 5.30538C19.1733 5.19602 19.3682 5.17168 19.6635 5.23508C19.9354 5.29337 19.9988 5.562 19.845 5.68787C19.7868 5.73561 19.7117 5.77285 19.5958 5.81506C19.5593 5.82835 19.4468 5.86611 19.3654 5.89341C19.3516 5.89804 19.3386 5.90237 19.3272 5.90622C19.3126 5.91205 19.297 5.91733 19.2804 5.92201L19.2763 5.90736C19.2844 5.90456 19.3012 5.8989 19.323 5.89155C19.3087 5.89732 19.2932 5.90257 19.2766 5.90724L19.2808 5.92189C19.2888 5.91911 19.3055 5.91351 19.3272 5.90622M17.9822 5.89901C18.0541 5.88597 18.1383 5.88277 18.2145 5.88981C18.2363 5.84027 18.2496 5.77942 18.2561 5.73439C18.1348 5.75608 18.0699 5.79451 17.9822 5.89901Z" fill="black"/>
</g>
</svg>
