<svg width="28" height="20" viewBox="0 0 28 20" fill="none" xmlns="http://www.w3.org/2000/svg">
<rect width="28" height="20" rx="2" fill="white"/>
<mask id="mask0" mask-type="alpha" maskUnits="userSpaceOnUse" x="0" y="0" width="28" height="20">
<rect width="28" height="20" rx="2" fill="white"/>
</mask>
<g mask="url(#mask0)">
<rect width="28" height="20" fill="#30C6E0"/>
<path fill-rule="evenodd" clip-rule="evenodd" d="M14 14C16.2091 14 18 12.2091 18 10C18 7.79086 16.2091 6 14 6C11.7909 6 10 7.79086 10 10C10 12.2091 11.7909 14 14 14Z" fill="#FFCD4B"/>
<path fill-rule="evenodd" clip-rule="evenodd" d="M12.3681 17.1495L14 14.7136L15.6318 17.1495L16.0451 14.2468L18.5722 15.7334L17.6852 12.9389L20.6071 13.1818L18.5954 11.0489L21.3333 10L18.5954 8.95112L20.6071 6.81818L17.6852 7.06111L18.5722 4.26657L16.0451 5.75318L15.6318 2.85052L14 5.28638L12.3681 2.85052L11.9548 5.75318L9.4277 4.26657L10.3147 7.06111L7.39285 6.81818L9.40453 8.95112L6.66663 10L9.40453 11.0489L7.39285 13.1818L10.3147 12.9389L9.4277 15.7334L11.9548 14.2468L12.3681 17.1495ZM18.6666 10C18.6666 12.5773 16.5773 14.6667 14 14.6667C11.4226 14.6667 9.33329 12.5773 9.33329 10C9.33329 7.42267 11.4226 5.33333 14 5.33333C16.5773 5.33333 18.6666 7.42267 18.6666 10Z" fill="#FFCD4B"/>
<path fill-rule="evenodd" clip-rule="evenodd" d="M1.33337 1.66668C1.33337 1.48258 1.48261 1.33334 1.66671 1.33334H2.33337C2.51747 1.33334 2.66671 1.48258 2.66671 1.66668V2.33334C2.66671 2.51744 2.51747 2.66668 2.33337 2.66668H1.66671C1.48261 2.66668 1.33337 2.51744 1.33337 2.33334V1.66668ZM1.33337 4.33334C1.33337 4.14925 1.48261 4.00001 1.66671 4.00001H2.33337C2.51747 4.00001 2.66671 4.14925 2.66671 4.33334V5.00001C2.66671 5.1841 2.51747 5.33334 2.33337 5.33334H1.66671C1.48261 5.33334 1.33337 5.18411 1.33337 5.00001V4.33334ZM1.66671 6.66668C1.48261 6.66668 1.33337 6.81592 1.33337 7.00001V7.66668C1.33337 7.85077 1.48261 8.00001 1.66671 8.00001H2.33337C2.51747 8.00001 2.66671 7.85077 2.66671 7.66668V7.00001C2.66671 6.81592 2.51747 6.66668 2.33337 6.66668H1.66671ZM1.33337 9.66668C1.33337 9.48258 1.48261 9.33334 1.66671 9.33334H2.33337C2.51747 9.33334 2.66671 9.48258 2.66671 9.66668V10.3333C2.66671 10.5174 2.51747 10.6667 2.33337 10.6667H1.66671C1.48261 10.6667 1.33337 10.5174 1.33337 10.3333V9.66668ZM1.66671 12C1.48261 12 1.33337 12.1492 1.33337 12.3333V13C1.33337 13.1841 1.48261 13.3333 1.66671 13.3333H2.33337C2.51747 13.3333 2.66671 13.1841 2.66671 13V12.3333C2.66671 12.1492 2.51747 12 2.33337 12H1.66671ZM1.33337 15C1.33337 14.8159 1.48261 14.6667 1.66671 14.6667H2.33337C2.51747 14.6667 2.66671 14.8159 2.66671 15V15.6667C2.66671 15.8508 2.51747 16 2.33337 16H1.66671C1.48261 16 1.33337 15.8508 1.33337 15.6667V15ZM1.66671 17.3333C1.48261 17.3333 1.33337 17.4826 1.33337 17.6667V18.3333C1.33337 18.5174 1.48261 18.6667 1.66671 18.6667H2.33337C2.51747 18.6667 2.66671 18.5174 2.66671 18.3333V17.6667C2.66671 17.4826 2.51747 17.3333 2.33337 17.3333H1.66671ZM2.66671 16.3333C2.66671 16.1492 2.81595 16 3.00004 16H3.66671C3.8508 16 4.00004 16.1492 4.00004 16.3333V17C4.00004 17.1841 3.8508 17.3333 3.66671 17.3333H3.00004C2.81595 17.3333 2.66671 17.1841 2.66671 17V16.3333ZM3.00004 13.3333C2.81595 13.3333 2.66671 13.4826 2.66671 13.6667V14.3333C2.66671 14.5174 2.81595 14.6667 3.00004 14.6667H3.66671C3.8508 14.6667 4.00004 14.5174 4.00004 14.3333V13.6667C4.00004 13.4826 3.8508 13.3333 3.66671 13.3333H3.00004ZM2.66671 11C2.66671 10.8159 2.81595 10.6667 3.00004 10.6667H3.66671C3.8508 10.6667 4.00004 10.8159 4.00004 11V11.6667C4.00004 11.8508 3.8508 12 3.66671 12H3.00004C2.81595 12 2.66671 11.8508 2.66671 11.6667V11ZM3.00004 8.00001C2.81595 8.00001 2.66671 8.14925 2.66671 8.33334V9.00001C2.66671 9.1841 2.81595 9.33334 3.00004 9.33334H3.66671C3.8508 9.33334 4.00004 9.1841 4.00004 9.00001V8.33334C4.00004 8.14925 3.8508 8.00001 3.66671 8.00001H3.00004ZM2.66671 5.66668C2.66671 5.48258 2.81595 5.33334 3.00004 5.33334H3.66671C3.8508 5.33334 4.00004 5.48258 4.00004 5.66668V6.33334C4.00004 6.51744 3.8508 6.66668 3.66671 6.66668H3.00004C2.81595 6.66668 2.66671 6.51744 2.66671 6.33334V5.66668ZM3.00004 2.66668C2.81595 2.66668 2.66671 2.81592 2.66671 3.00001V3.66668C2.66671 3.85077 2.81595 4.00001 3.00004 4.00001H3.66671C3.8508 4.00001 4.00004 3.85077 4.00004 3.66668V3.00001C4.00004 2.81592 3.8508 2.66668 3.66671 2.66668H3.00004Z" fill="#FFCD4B"/>
</g>
</svg>
