<svg width="28" height="20" viewBox="0 0 28 20" fill="none" xmlns="http://www.w3.org/2000/svg">
<rect width="28" height="20" rx="2" fill="white"/>
<mask id="mask0" mask-type="alpha" maskUnits="userSpaceOnUse" x="0" y="0" width="28" height="20">
<rect width="28" height="20" rx="2" fill="white"/>
</mask>
<g mask="url(#mask0)">
<path fill-rule="evenodd" clip-rule="evenodd" d="M0 5.33333H28V0H0V5.33333Z" fill="#262626"/>
<path fill-rule="evenodd" clip-rule="evenodd" d="M0 20H28V14.6667H0V20Z" fill="#018301"/>
<path fill-rule="evenodd" clip-rule="evenodd" d="M0 14.6667H28V5.33334H0V14.6667Z" fill="white"/>
<path fill-rule="evenodd" clip-rule="evenodd" d="M0 13.3333H28V6.66666H0V13.3333Z" fill="#DC0808"/>
<path fill-rule="evenodd" clip-rule="evenodd" d="M14 16.6667C15.3333 16.6667 17.3333 14.0501 17.3333 10C17.3333 5.94992 15.3333 3.33334 14 3.33334C12.6666 3.33334 10.6666 5.94992 10.6666 10C10.6666 14.0501 12.6666 16.6667 14 16.6667Z" fill="#BC0000"/>
<mask id="mask1" mask-type="alpha" maskUnits="userSpaceOnUse" x="10" y="3" width="8" height="14">
<path fill-rule="evenodd" clip-rule="evenodd" d="M14 16.6667C15.3333 16.6667 17.3333 14.0501 17.3333 10C17.3333 5.94992 15.3333 3.33334 14 3.33334C12.6666 3.33334 10.6666 5.94992 10.6666 10C10.6666 14.0501 12.6666 16.6667 14 16.6667Z" fill="white"/>
</mask>
<g mask="url(#mask1)">
<path fill-rule="evenodd" clip-rule="evenodd" d="M8.66659 17.3334C10.5075 17.3334 11.9999 14.0501 11.9999 10C11.9999 5.94993 10.5075 2.66669 8.66659 2.66669C6.82564 2.66669 5.33325 5.94993 5.33325 10C5.33325 14.0501 6.82564 17.3334 8.66659 17.3334Z" fill="#262626"/>
<path fill-rule="evenodd" clip-rule="evenodd" d="M19.3333 17.3334C21.1743 17.3334 22.6667 14.0501 22.6667 10C22.6667 5.94993 21.1743 2.66669 19.3333 2.66669C17.4924 2.66669 16 5.94993 16 10C16 14.0501 17.4924 17.3334 19.3333 17.3334Z" fill="#262626"/>
<g filter="url(#filter0_d)">
<path fill-rule="evenodd" clip-rule="evenodd" d="M13.9999 8.00002C14.3681 8.00002 14.6666 6.80611 14.6666 5.33335C14.6666 3.86059 14.3681 2.66669 13.9999 2.66669C13.6317 2.66669 13.3333 3.86059 13.3333 5.33335C13.3333 6.80611 13.6317 8.00002 13.9999 8.00002ZM13.9999 12C14.3681 12 14.6666 11.1046 14.6666 10C14.6666 8.89545 14.3681 8.00002 13.9999 8.00002C13.6317 8.00002 13.3333 8.89545 13.3333 10C13.3333 11.1046 13.6317 12 13.9999 12ZM13.9999 12C13.6317 12 13.3333 13.1939 13.3333 14.6667C13.3333 16.1394 13.6317 17.3334 13.9999 17.3334C14.3681 17.3334 14.6666 16.1394 14.6666 14.6667C14.6666 13.1939 14.3681 12 13.9999 12Z" fill="url(#paint0_linear)"/>
</g>
</g>
</g>
<defs>
<filter id="filter0_d" x="13.3333" y="2.66669" width="1.33333" height="15.6667" filterUnits="userSpaceOnUse" color-interpolation-filters="sRGB">
<feFlood flood-opacity="0" result="BackgroundImageFix"/>
<feColorMatrix in="SourceAlpha" type="matrix" values="0 0 0 0 0 0 0 0 0 0 0 0 0 0 0 0 0 0 127 0"/>
<feOffset dy="1"/>
<feColorMatrix type="matrix" values="0 0 0 0 0 0 0 0 0 0 0 0 0 0 0 0 0 0 0.06 0"/>
<feBlend mode="normal" in2="BackgroundImageFix" result="effect1_dropShadow"/>
<feBlend mode="normal" in="SourceGraphic" in2="effect1_dropShadow" result="shape"/>
</filter>
<linearGradient id="paint0_linear" x1="13.3333" y1="2.66669" x2="13.3333" y2="17.3334" gradientUnits="userSpaceOnUse">
<stop stop-color="white"/>
<stop offset="1" stop-color="#F0F0F0"/>
</linearGradient>
</defs>
</svg>
