<svg width="28" height="20" viewBox="0 0 28 20" fill="none" xmlns="http://www.w3.org/2000/svg">
<rect width="28" height="20" rx="2" fill="white"/>
<mask id="mask0" mask-type="alpha" maskUnits="userSpaceOnUse" x="0" y="0" width="28" height="20">
<rect width="28" height="20" rx="2" fill="white"/>
</mask>
<g mask="url(#mask0)">
<rect width="28" height="20" fill="#F22A46"/>
<path fill-rule="evenodd" clip-rule="evenodd" d="M14 13.3333C15.8409 13.3333 17.3333 11.8409 17.3333 9.99999C17.3333 8.15904 15.8409 6.66666 14 6.66666C12.159 6.66666 10.6666 8.15904 10.6666 9.99999C10.6666 11.8409 12.159 13.3333 14 13.3333Z" fill="#FFF04D"/>
<path fill-rule="evenodd" clip-rule="evenodd" d="M12.3681 17.1495L14 14.7136L15.6318 17.1495L16.0451 14.2468L18.5722 15.7334L17.6852 12.9389L20.6071 13.1818L18.5954 11.0489L21.3333 10L18.5954 8.95112L20.6071 6.81818L17.6852 7.06111L18.5722 4.26657L16.0451 5.75318L15.6318 2.85052L14 5.28638L12.3681 2.85052L11.9548 5.75318L9.4277 4.26657L10.3147 7.06111L7.39285 6.81818L9.40453 8.95112L6.66663 10L9.40453 11.0489L7.39285 13.1818L10.3147 12.9389L9.4277 15.7334L11.9548 14.2468L12.3681 17.1495ZM18.6666 10C18.6666 12.5773 16.5773 14.6667 14 14.6667C11.4226 14.6667 9.33329 12.5773 9.33329 10C9.33329 7.42267 11.4226 5.33333 14 5.33333C16.5773 5.33333 18.6666 7.42267 18.6666 10Z" fill="#FFF04D"/>
</g>
</svg>
