<svg width="28" height="20" viewBox="0 0 28 20" fill="none" xmlns="http://www.w3.org/2000/svg">
<rect width="28" height="20" rx="2" fill="white"/>
<mask id="mask0" mask-type="alpha" maskUnits="userSpaceOnUse" x="0" y="0" width="28" height="20">
<rect width="28" height="20" rx="2" fill="white"/>
</mask>
<g mask="url(#mask0)">
<path fill-rule="evenodd" clip-rule="evenodd" d="M0 20H28V0H0V20Z" fill="#079D7B"/>
<path fill-rule="evenodd" clip-rule="evenodd" d="M15.8851 8.66665C15.8851 8.95851 15.8639 9.2416 15.8241 9.51138C15.9263 9.47995 16.0305 9.44997 16.1364 9.4216C17.9146 8.94513 19.5017 9.10234 19.6814 9.77274C19.8437 10.3786 18.8009 11.1963 17.286 11.6998C17.0184 10.9061 15.6491 10.6666 14.0001 10.6666C12.3492 10.6666 10.9787 10.9067 10.7132 11.7024C9.2189 11.198 8.19476 10.3889 8.35574 9.78805C8.53538 9.11765 10.1225 8.96044 11.9008 9.43691C11.9941 9.46193 12.0862 9.4882 12.1767 9.51561C12.1365 9.24456 12.115 8.96003 12.115 8.66665C12.115 6.8257 12.959 5.33331 14.0001 5.33331C15.0411 5.33331 15.8851 6.8257 15.8851 8.66665ZM10.6667 12L11.8332 12C11.6485 11.9638 11.4599 11.9204 11.2692 11.8697C11.4837 11.8761 11.7483 11.8944 12.051 11.9154C12.5992 11.9533 13.2724 12 14.0001 12C14.7278 12 15.401 11.9533 15.9491 11.9154C16.2405 11.8952 16.4965 11.8775 16.7065 11.8705C16.5091 11.9214 16.3143 11.9645 16.1237 12L17.3334 12L19.3334 12C19.1753 12.4747 18.9624 12.922 18.7029 13.3333H9.29724C9.03772 12.922 8.82488 12.4747 8.66674 12L10.6667 12ZM14.0001 16C15.3468 16 16.5836 15.5005 17.5548 14.6666H10.4453C11.4166 15.5005 12.6533 16 14.0001 16Z" fill="white"/>
<path fill-rule="evenodd" clip-rule="evenodd" d="M14 3.99999C14.3682 3.99999 14.6667 3.70151 14.6667 3.33332C14.6667 2.96513 14.3682 2.66666 14 2.66666C13.6318 2.66666 13.3333 2.96513 13.3333 3.33332C13.3333 3.70151 13.6318 3.99999 14 3.99999ZM8.66667 7.33332C9.03486 7.33332 9.33333 7.03485 9.33333 6.66666C9.33333 6.29847 9.03486 5.99999 8.66667 5.99999C8.29848 5.99999 8 6.29847 8 6.66666C8 7.03485 8.29848 7.33332 8.66667 7.33332ZM20 6.66666C20 7.03485 19.7015 7.33332 19.3333 7.33332C18.9651 7.33332 18.6667 7.03485 18.6667 6.66666C18.6667 6.29847 18.9651 5.99999 19.3333 5.99999C19.7015 5.99999 20 6.29847 20 6.66666ZM17.3333 5.33332C17.7015 5.33332 18 5.03485 18 4.66666C18 4.29847 17.7015 3.99999 17.3333 3.99999C16.9651 3.99999 16.6667 4.29847 16.6667 4.66666C16.6667 5.03485 16.9651 5.33332 17.3333 5.33332ZM11.3333 4.66666C11.3333 5.03485 11.0349 5.33332 10.6667 5.33332C10.2985 5.33332 10 5.03485 10 4.66666C10 4.29847 10.2985 3.99999 10.6667 3.99999C11.0349 3.99999 11.3333 4.29847 11.3333 4.66666Z" fill="#FCD117"/>
</g>
</svg>
