<svg width="28" height="20" viewBox="0 0 28 20" fill="none" xmlns="http://www.w3.org/2000/svg">
<rect width="28" height="20" rx="2" fill="white"/>
<mask id="mask0" mask-type="alpha" maskUnits="userSpaceOnUse" x="0" y="0" width="28" height="20">
<rect width="28" height="20" rx="2" fill="white"/>
</mask>
<g mask="url(#mask0)">
<rect width="28" height="20" fill="#108B4D"/>
<path fill-rule="evenodd" clip-rule="evenodd" d="M19.8137 7.73332C19.8622 8.04076 19.8875 8.35596 19.8875 8.67704C19.8875 11.9908 17.2012 14.677 13.8875 14.677C10.5737 14.677 7.88745 11.9908 7.88745 8.67704C7.88745 8.35596 7.91267 8.04076 7.96124 7.73332C8.41393 10.5987 10.8948 12.7896 13.8875 12.7896C16.8801 12.7896 19.361 10.5987 19.8137 7.73332ZM14 8.56408L12.3519 9.73896L12.96 7.80847L11.3333 6.6041L13.3573 6.58588L14 4.66666L14.6428 6.58588L16.6667 6.6041L15.04 7.80847L15.6481 9.73896L14 8.56408Z" fill="#FFC941"/>
<rect width="28" height="3" fill="#B31C1C"/>
<rect y="17" width="28" height="3" fill="#B31C1C"/>
</g>
</svg>
