<svg width="28" height="20" viewBox="0 0 28 20" fill="none" xmlns="http://www.w3.org/2000/svg">
<rect width="28" height="20" rx="2" fill="white"/>
<mask id="mask0" mask-type="alpha" maskUnits="userSpaceOnUse" x="0" y="0" width="28" height="20">
<rect width="28" height="20" rx="2" fill="white"/>
</mask>
<g mask="url(#mask0)">
<rect width="28" height="20" fill="#07319C"/>
<path fill-rule="evenodd" clip-rule="evenodd" d="M17.3333 10C17.3333 8.90627 17.3333 7.61316 17.3333 6.66583C17.3333 5.92945 17.9302 5.33334 18.6666 5.33334H22.6666C23.403 5.33334 23.9999 5.92945 23.9999 6.66583C23.9999 7.61316 23.9999 8.90627 23.9999 10C23.9999 13.3333 20.6666 14.6667 20.6666 14.6667C20.6666 14.6667 17.3333 13.3333 17.3333 10Z" fill="#08B9D6"/>
<mask id="mask1" mask-type="alpha" maskUnits="userSpaceOnUse" x="17" y="5" width="7" height="10">
<path fill-rule="evenodd" clip-rule="evenodd" d="M17.3333 10C17.3333 8.90627 17.3333 7.61316 17.3333 6.66583C17.3333 5.92945 17.9302 5.33334 18.6666 5.33334H22.6666C23.403 5.33334 23.9999 5.92945 23.9999 6.66583C23.9999 7.61316 23.9999 8.90627 23.9999 10C23.9999 13.3333 20.6666 14.6667 20.6666 14.6667C20.6666 14.6667 17.3333 13.3333 17.3333 10Z" fill="white"/>
</mask>
<g mask="url(#mask1)">
<path fill-rule="evenodd" clip-rule="evenodd" d="M17.3333 12H23.9999V14.6667H21.3333H19.9999H17.3333L17.3333 12Z" fill="#A63D09"/>
<path fill-rule="evenodd" clip-rule="evenodd" d="M21.3332 6.66669H19.9998V8.00002H18.6665V9.33335H19.9998V12H21.3332V9.33335H22.6665V8.00002H21.3332V6.66669Z" fill="#262626"/>
</g>
<path d="M0 -0.333333H-0.901086L-0.21693 0.253086L4.33333 4.15331V5.16179L-0.193746 8.39542L-0.333333 8.49513V8.66667V9.33333V9.93475L0.176666 9.616L5.42893 6.33333H6.55984L11.0821 9.56351C11.176 9.6306 11.2886 9.66667 11.404 9.66667C11.9182 9.66667 12.1548 9.02698 11.7644 8.69237L7.66667 5.18002V4.17154L12.0542 1.03762C12.2294 0.912475 12.3333 0.710428 12.3333 0.495127V0V-0.601416L11.8233 -0.282666L6.57107 3H5.44016L0.860413 -0.271244L0.773488 -0.333333H0.666667H0Z" fill="#DB1E36" stroke="white" stroke-width="0.666667"/>
<path fill-rule="evenodd" clip-rule="evenodd" d="M0 3.33333V6H4.66667V9.33333C4.66667 9.70152 4.96514 10 5.33333 10H6.66667C7.03486 10 7.33333 9.70152 7.33333 9.33333V6H12C12.3682 6 12.6667 5.70152 12.6667 5.33333V4C12.6667 3.63181 12.3682 3.33333 12 3.33333H7.33333V0H4.66667V3.33333H0Z" fill="white"/>
<path fill-rule="evenodd" clip-rule="evenodd" d="M0 4H5.33333V3.33333V0H6.66667V3.33333V4H12V5.33333H6.66667V6V9.33333H5.33333V6V5.33333H0V4Z" fill="#DB1E36"/>
</g>
</svg>
