<svg width="28" height="20" viewBox="0 0 28 20" fill="none" xmlns="http://www.w3.org/2000/svg">
<rect width="28" height="20" rx="2" fill="white"/>
<mask id="mask0" mask-type="alpha" maskUnits="userSpaceOnUse" x="0" y="0" width="28" height="20">
<rect width="28" height="20" rx="2" fill="white"/>
</mask>
<g mask="url(#mask0)">
<rect width="28" height="20" fill="#E6BE53"/>
<path fill-rule="evenodd" clip-rule="evenodd" d="M1.33337 17.6667C1.33337 18.219 1.78109 18.6667 2.33337 18.6667H25.6667C26.219 18.6667 26.6667 18.219 26.6667 17.6667V2.33334C26.6667 1.78106 26.219 1.33334 25.6667 1.33334H2.33337C1.78109 1.33334 1.33337 1.78106 1.33337 2.33334V17.6667Z" fill="#E01826"/>
<path fill-rule="evenodd" clip-rule="evenodd" d="M13.0234 3.65888C12.5532 3.8156 12.4124 4.41231 12.7628 4.76274L13.1381 5.13806C13.2631 5.26309 13.4327 5.33332 13.6095 5.33332H14.3906C14.5674 5.33332 14.7369 5.26309 14.862 5.13806L15.2373 4.76274C15.5877 4.4123 15.4469 3.8156 14.9767 3.65888L14.2109 3.4036C14.074 3.35798 13.9261 3.35798 13.7892 3.4036L13.0234 3.65888ZM14.4714 6.86192C14.2111 7.12227 13.789 7.12227 13.5286 6.86192L13.3334 6.66666L12.3398 5.67309C12.1369 5.47019 11.8269 5.41988 11.5703 5.54821L11.494 5.58634C11.087 5.78984 10.999 6.33227 11.3207 6.65403L11.3334 6.66666L12.3269 7.66022C12.5298 7.86313 12.5801 8.17311 12.4518 8.42977L12.038 9.2574C12.013 9.30733 12 9.36238 12 9.4182C12 9.6855 11.7188 9.85934 11.4797 9.73981L11.1568 9.57835C10.9157 9.45781 10.8635 9.1365 11.0541 8.9459C11.2084 8.79168 11.2084 8.54164 11.0541 8.38741L10.7432 8.07649C10.6925 8.02582 10.6504 7.96732 10.6183 7.90323L10.0328 6.73211C10.011 6.68861 9.99409 6.64285 9.98229 6.59566L9.67308 5.35882C9.53693 4.81422 8.8298 4.67142 8.49299 5.12051L7.46671 6.48888C7.38016 6.60428 7.33337 6.74463 7.33337 6.88888V9.17594C7.33337 9.27944 7.35747 9.38152 7.40376 9.47409L7.95166 10.5699C7.9837 10.634 8.02587 10.6925 8.07654 10.7432L9.25688 11.9235C9.30754 11.9742 9.36605 12.0163 9.43014 12.0484L10.6038 12.6352C10.6452 12.6559 10.6908 12.6667 10.7371 12.6667C11.0517 12.6667 11.1518 13.0908 10.8704 13.2315L10.7159 13.3087C10.6833 13.325 10.6536 13.3465 10.6278 13.3722L10.3334 13.6667C10.1493 13.8508 9.8508 13.8508 9.66671 13.6667C9.48261 13.4826 9.18414 13.4826 9.00004 13.6667L8.94595 13.7207C8.77919 13.8875 8.73785 14.1423 8.84331 14.3532L9.14911 14.9648C9.26204 15.1907 9.49288 15.3333 9.7454 15.3333H10.5093C10.6128 15.3333 10.7149 15.3092 10.8075 15.2629L11.8013 14.766C11.9303 14.7015 12.0349 14.5969 12.0994 14.4679L12.4017 13.8634C12.5321 13.6026 12.8796 13.5462 13.0858 13.7524C13.2297 13.8964 13.2521 14.1219 13.1391 14.2914L12.3698 15.4453C12.1656 15.7516 12.2484 16.1656 12.5547 16.3698L13.6302 17.0868C13.8542 17.2361 14.1459 17.2361 14.3698 17.0868L15.4453 16.3698C15.7517 16.1656 15.8345 15.7516 15.6302 15.4453L14.8609 14.2914C14.748 14.1219 14.7703 13.8964 14.9143 13.7524C15.1205 13.5462 15.468 13.6026 15.5984 13.8634L15.9007 14.4679C15.9652 14.5969 16.0698 14.7015 16.1988 14.766L17.1926 15.2629C17.2852 15.3092 17.3873 15.3333 17.4908 15.3333H18.2547C18.5072 15.3333 18.738 15.1907 18.851 14.9648L19.1568 14.3532C19.2622 14.1423 19.2209 13.8875 19.0541 13.7207L19 13.6667C18.8159 13.4826 18.5175 13.4826 18.3334 13.6667C18.1493 13.8508 17.8508 13.8508 17.6667 13.6667L17.3723 13.3722C17.3465 13.3465 17.3168 13.325 17.2842 13.3087L17.1297 13.2315C16.8483 13.0908 16.9484 12.6667 17.263 12.6667C17.3093 12.6667 17.3549 12.6559 17.3963 12.6352L18.5699 12.0484C18.634 12.0163 18.6925 11.9742 18.7432 11.9235L19.9235 10.7432C19.9742 10.6925 20.0164 10.634 20.0484 10.5699L20.5963 9.47409C20.6426 9.38152 20.6667 9.27944 20.6667 9.17594V6.88888C20.6667 6.74463 20.6199 6.60428 20.5334 6.48888L19.5071 5.12051C19.1703 4.67142 18.4631 4.81422 18.327 5.35882L18.0178 6.59566C18.006 6.64285 17.9891 6.68861 17.9673 6.73211L17.3818 7.90323C17.3497 7.96732 17.3075 8.02582 17.2569 8.07649L16.9459 8.38742C16.7917 8.54164 16.7917 8.79168 16.9459 8.9459C17.1365 9.1365 17.0844 9.45781 16.8433 9.57835L16.5204 9.73981C16.2813 9.85934 16 9.6855 16 9.4182C16 9.36238 15.987 9.30733 15.9621 9.2574L15.5483 8.42977C15.4199 8.17311 15.4702 7.86313 15.6731 7.66022L16.6667 6.66666L16.6793 6.65403C17.0011 6.33227 16.9131 5.78984 16.5061 5.58634L16.4298 5.54821C16.1732 5.41988 15.8632 5.47019 15.6603 5.67309L14.6667 6.66666L14.4714 6.86192Z" fill="#E6BE53"/>
<path fill-rule="evenodd" clip-rule="evenodd" d="M12.6666 11.3333C12.6666 11.5788 13.08 11.6605 13.1996 11.4461C13.432 11.0295 13.716 10.6667 14 10.6667C14.2839 10.6667 14.5679 11.0295 14.8003 11.4461C14.9199 11.6605 15.3333 11.5788 15.3333 11.3333C15.3333 10.2288 14.7363 9.33334 14 9.33334C13.2636 9.33334 12.6666 10.2288 12.6666 11.3333Z" fill="#215F90"/>
</g>
</svg>
