<svg width="28" height="20" viewBox="0 0 28 20" fill="none" xmlns="http://www.w3.org/2000/svg">
<rect width="28" height="20" rx="2" fill="white"/>
<mask id="mask0" mask-type="alpha" maskUnits="userSpaceOnUse" x="0" y="0" width="28" height="20">
<rect width="28" height="20" rx="2" fill="white"/>
</mask>
<g mask="url(#mask0)">
<rect width="28" height="20" fill="#E31F37"/>
<path fill-rule="evenodd" clip-rule="evenodd" d="M-1.33337 10.6667H14.6666V-1.33334H-1.33337V10.6667Z" fill="#083B9A"/>
<path fill-rule="evenodd" clip-rule="evenodd" d="M6.66673 2.66667L5.72392 2.94281L6.00006 2L5.72392 1.05719L6.66673 1.33333L7.60954 1.05719L7.33339 2L7.60954 2.94281L6.66673 2.66667ZM6.66673 9.33333L5.72392 9.60948L6.00006 8.66667L5.72392 7.72386L6.66673 8L7.60954 7.72386L7.33339 8.66667L7.60954 9.60948L6.66673 9.33333ZM3.05725 6.27614L4.00006 6L4.94287 6.27614L4.66673 5.33333L4.94287 4.39052L4.00006 4.66667L3.05725 4.39052L3.33339 5.33333L3.05725 6.27614ZM10.0001 5.33333L9.05725 5.60947L9.33339 4.66667L9.05725 3.72386L10.0001 4L10.9429 3.72386L10.6667 4.66667L10.9429 5.60947L10.0001 5.33333ZM8.66673 7C8.66673 7.18409 8.51749 7.33333 8.33339 7.33333C8.1493 7.33333 8.00006 7.18409 8.00006 7C8.00006 6.8159 8.1493 6.66667 8.33339 6.66667C8.51749 6.66667 8.66673 6.8159 8.66673 7Z" fill="white"/>
</g>
</svg>
