<svg width="28" height="20" viewBox="0 0 28 20" fill="none" xmlns="http://www.w3.org/2000/svg">
<rect x="0.25" y="0.25" width="27.5" height="19.5" rx="1.75" fill="white" stroke="#F5F5F5" stroke-width="0.5"/>
<mask id="mask0" mask-type="alpha" maskUnits="userSpaceOnUse" x="0" y="0" width="28" height="20">
<rect x="0.25" y="0.25" width="27.5" height="19.5" rx="1.75" fill="white" stroke="white" stroke-width="0.5"/>
</mask>
<g mask="url(#mask0)">
<path fill-rule="evenodd" clip-rule="evenodd" d="M0 10.6667H28V0H0V10.6667Z" fill="#E12237"/>
<path fill-rule="evenodd" clip-rule="evenodd" d="M6.66663 9.33333C7.61174 9.33333 8.48029 9.00556 9.16481 8.45748C8.8022 8.59273 8.40971 8.66667 7.99996 8.66667C6.15901 8.66667 4.66663 7.17428 4.66663 5.33333C4.66663 3.49238 6.15901 2 7.99996 2C8.40971 2 8.8022 2.07393 9.16481 2.20919C8.48029 1.66111 7.61173 1.33333 6.66663 1.33333C4.45749 1.33333 2.66663 3.12419 2.66663 5.33333C2.66663 7.54247 4.45749 9.33333 6.66663 9.33333ZM7.99996 4.66667C7.99996 5.03486 7.70148 5.33333 7.33329 5.33333C6.9651 5.33333 6.66663 5.03486 6.66663 4.66667C6.66663 4.29848 6.9651 4 7.33329 4C7.70148 4 7.99996 4.29848 7.99996 4.66667ZM8.66663 8C9.03482 8 9.33329 7.70152 9.33329 7.33333C9.33329 6.96514 9.03482 6.66667 8.66663 6.66667C8.29844 6.66667 7.99996 6.96514 7.99996 7.33333C7.99996 7.70152 8.29844 8 8.66663 8ZM12 7.33333C12 7.70152 11.7015 8 11.3333 8C10.9651 8 10.6666 7.70152 10.6666 7.33333C10.6666 6.96514 10.9651 6.66667 11.3333 6.66667C11.7015 6.66667 12 6.96514 12 7.33333ZM12.6666 5.33333C13.0348 5.33333 13.3333 5.03486 13.3333 4.66667C13.3333 4.29848 13.0348 4 12.6666 4C12.2984 4 12 4.29848 12 4.66667C12 5.03486 12.2984 5.33333 12.6666 5.33333ZM10.6666 2.66667C10.6666 3.03486 10.3681 3.33333 9.99996 3.33333C9.63177 3.33333 9.33329 3.03486 9.33329 2.66667C9.33329 2.29848 9.63177 2 9.99996 2C10.3681 2 10.6666 2.29848 10.6666 2.66667Z" fill="white"/>
</g>
</svg>
