<svg width="28" height="20" viewBox="0 0 28 20" fill="none" xmlns="http://www.w3.org/2000/svg">
<rect width="28" height="20" rx="2" fill="white"/>
<mask id="mask0" mask-type="alpha" maskUnits="userSpaceOnUse" x="0" y="0" width="28" height="20">
<rect width="28" height="20" rx="2" fill="white"/>
</mask>
<g mask="url(#mask0)">
<path fill-rule="evenodd" clip-rule="evenodd" d="M0 5.33333H28V0H0V5.33333Z" fill="#DD172C"/>
<path fill-rule="evenodd" clip-rule="evenodd" d="M0 20H28V14.6667H0V20Z" fill="#DD172C"/>
<path fill-rule="evenodd" clip-rule="evenodd" d="M0 14.6666H28V5.33331H0V14.6666Z" fill="#FFD133"/>
<path fill-rule="evenodd" clip-rule="evenodd" d="M7.33337 9.33333H8.66671V10H7.33337V9.33333Z" fill="#FFEDB1"/>
<path d="M6.05898 9.36104C6.04278 9.1667 6.19615 9.00002 6.39116 9.00002H8.27543C8.47044 9.00002 8.6238 9.1667 8.60761 9.36104L8.43633 11.4164C8.39314 11.9347 7.95987 12.3334 7.43978 12.3334H7.2268C6.70671 12.3334 6.27345 11.9347 6.23026 11.4164L6.05898 9.36104Z" stroke="#A41517" stroke-width="0.666667"/>
<path fill-rule="evenodd" clip-rule="evenodd" d="M6 10H8.66667V10.6667H8L7.33333 12L6.66667 10.6667H6V10Z" fill="#A41517"/>
<rect x="4" y="8" width="1.33333" height="4.66667" rx="0.666667" fill="#A41517"/>
<rect x="9.33337" y="8" width="1.33333" height="4.66667" rx="0.666667" fill="#A41517"/>
<path d="M6 7.73335C6 7.14425 6.47756 6.66669 7.06667 6.66669H7.6C8.1891 6.66669 8.66667 7.14425 8.66667 7.73335C8.66667 7.88063 8.54728 8.00002 8.4 8.00002H6.26667C6.11939 8.00002 6 7.88063 6 7.73335Z" fill="#A41517"/>
</g>
</svg>
