<svg width="28" height="20" viewBox="0 0 28 20" fill="none" xmlns="http://www.w3.org/2000/svg">
<rect width="28" height="20" rx="2" fill="white"/>
<mask id="mask0" mask-type="alpha" maskUnits="userSpaceOnUse" x="0" y="0" width="28" height="20">
<rect width="28" height="20" rx="2" fill="white"/>
</mask>
<g mask="url(#mask0)">
<rect width="28" height="20" fill="#FFBF19"/>
<path fill-rule="evenodd" clip-rule="evenodd" d="M10.6666 1.33334H25.3333C26.0697 1.33334 26.6666 1.9303 26.6666 2.66668V17.3333C26.6666 18.0697 26.0697 18.6667 25.3333 18.6667H10.6666V1.33334Z" fill="#A52531"/>
<path d="M1.33337 2.66668C1.33337 1.9303 1.93033 1.33334 2.66671 1.33334H5.33337V18.6667H2.66671C1.93033 18.6667 1.33337 18.0697 1.33337 17.3333V2.66668Z" fill="#03664F"/>
<rect x="5.33337" y="1.33334" width="4" height="17.3333" rx="0.666667" fill="#FF6816"/>
<path fill-rule="evenodd" clip-rule="evenodd" d="M13.3333 3.33332C13.3333 3.70151 13.0349 3.99999 12.6667 3.99999C12.2985 3.99999 12 3.70151 12 3.33332V2.66666H12.6667C13.0349 2.66666 13.3333 2.96513 13.3333 3.33332ZM24 3.33332C24 3.70151 24.2985 3.99999 24.6667 3.99999C25.0349 3.99999 25.3333 3.70151 25.3333 3.33332V2.66666H24.6667C24.2985 2.66666 24 2.96513 24 3.33332ZM24.6667 16C24.2985 16 24 16.2985 24 16.6667C24 17.0348 24.2985 17.3333 24.6667 17.3333H25.3333V16.6667C25.3333 16.2985 25.0349 16 24.6667 16ZM13.3333 16.6667C13.3333 16.2985 13.0349 16 12.6667 16C12.2985 16 12 16.2985 12 16.6667V17.3333H12.6667C13.0349 17.3333 13.3333 17.0348 13.3333 16.6667Z" fill="#FFBF18"/>
<path fill-rule="evenodd" clip-rule="evenodd" d="M16 12.5736C16 12.2568 15.7432 12 15.4264 12C15.3647 12 15.3037 11.9902 15.2456 11.9694C14.8599 11.8315 13.3333 11.2491 13.3333 10.6667C13.3333 10.3018 13.533 9.93697 13.7138 9.68139C13.8712 9.45887 13.9298 9.16969 13.8332 8.91481C13.6066 8.31684 13.2397 7.22833 13.3333 6.66665C13.3832 6.36751 13.5824 6.10557 13.8122 5.89487C14.1678 5.56878 14.6667 5.87696 14.6667 6.35948V8.9213C14.6667 9.17381 14.8093 9.40466 15.0352 9.51758L15.7117 9.85584C15.8839 9.94192 16.0918 9.90818 16.2279 9.77206C16.4438 9.55622 16.3847 9.19235 16.1117 9.05584L15.3333 8.66665V7.99999C15.6655 7.99999 15.7712 7.55224 15.4741 7.4037L15.3333 7.33332V6.66665H16.3905C16.5673 6.66665 16.7369 6.59642 16.8619 6.47139L17.1381 6.19525C17.2631 6.07023 17.4327 5.99999 17.6095 5.99999H18.2546C18.5071 5.99999 18.738 6.14266 18.8509 6.36851L19.2098 7.08633C19.2889 7.24448 19.3019 7.42756 19.246 7.59529L18.9591 8.45584C18.8153 8.88752 19.1366 9.33332 19.5916 9.33332H21.7832C21.922 9.33332 22.0551 9.27819 22.1533 9.18005C22.4058 8.92748 22.3367 8.50169 22.0173 8.34196L21.4741 8.07037C21.3815 8.02408 21.2794 7.99999 21.1759 7.99999H20.6667C20.2985 7.99999 20 7.70151 20 7.33332V6.9428C20 6.76599 20.0702 6.59642 20.1952 6.47139L20.6667 5.99999V6.66665C20.6667 7.03484 20.9651 7.33332 21.3333 7.33332H22.2546C22.5071 7.33332 22.738 7.47599 22.8509 7.70185L23.2799 8.55972C23.3152 8.63045 23.3377 8.70656 23.3449 8.7853C23.3756 9.12086 23.4487 10.0897 23.3333 10.6667C23.2398 11.1342 22.978 11.5669 22.8117 11.8061C22.7223 11.9347 22.6667 12.0858 22.6667 12.2424V14.1574C22.6667 14.4386 22.4386 14.6667 22.1574 14.6667C21.7788 14.6667 21.5325 14.2682 21.7018 13.9296L21.9296 13.4741C21.9739 13.3855 21.9739 13.2812 21.9296 13.1926L21.8981 13.1296C21.7574 12.8482 21.3333 12.9483 21.3333 13.2629C21.3333 13.3092 21.3225 13.3549 21.3018 13.3963L20.8315 14.337C20.7305 14.539 20.524 14.6667 20.2981 14.6667C19.8549 14.6667 19.5666 14.2002 19.7648 13.8037L19.9296 13.4741C19.9759 13.3815 20 13.2794 20 13.1759V12.6667C20 12.2985 19.7015 12 19.3333 12H18C17.6318 12 17.3333 12.2985 17.3333 12.6667V13.1759C17.3333 13.2794 17.3092 13.3815 17.2629 13.4741L16.8315 14.337C16.7305 14.539 16.524 14.6667 16.2981 14.6667C15.8549 14.6667 15.5666 14.2002 15.7648 13.8037L15.9296 13.4741C15.9759 13.3815 16 13.2794 16 13.1759V12.5736Z" fill="#FFBF18"/>
</g>
</svg>
