<svg width="28" height="20" viewBox="0 0 28 20" fill="none" xmlns="http://www.w3.org/2000/svg">
<rect width="28" height="20" rx="2" fill="white"/>
<mask id="mask0" mask-type="alpha" maskUnits="userSpaceOnUse" x="0" y="0" width="28" height="20">
<rect width="28" height="20" rx="2" fill="white"/>
</mask>
<g mask="url(#mask0)">
<rect width="28" height="20" fill="#07319C"/>
<path d="M17.6667 10V9.94859V9.89689V9.84494V9.79272V9.74026V9.68758V9.63468V9.58157V9.52827V9.47479V9.42114V9.36734V9.31339V9.28637V9.27961V9.27285V9.25932V9.20513V9.15083V9.09644V9.04197V8.98744V8.93285V8.87821V8.82355V8.76887V8.74152V8.73469V8.72785V8.72102V8.71418V8.70735V8.70051V8.69368V8.68684V8.68001V8.67317V8.66634V8.6595V8.65267V8.64584V8.639V8.63217V8.62534V8.61851V8.61167V8.60484V8.59801V8.59118V8.58435V8.57753V8.5707V8.56387V8.55704V8.55022V8.54339V8.53657V8.52974V8.52292V8.5161V8.50928V8.50245V8.49563V8.48882V8.482V8.47518V8.46836V8.46155V8.45474V8.44792V8.44111V8.4343V8.42749V8.42068V8.41387V8.40707V8.40026V8.39346V8.38666V8.37985V8.37305V8.36626V8.35946V8.35266V8.34587V8.33907V8.33228V8.32549V8.3187V8.31192V8.30513V8.29835V8.29157V8.28478V8.27801V8.27123V8.26445V8.25768V8.25091V8.24414V8.23737V8.2306V8.22383V8.21707V8.21031V8.20355V8.19679V8.19004V8.18328V8.17653V8.16978V8.16304V8.15629V8.14955V8.14281V8.13607V8.12933V8.1226V8.11587V8.10914V8.10241V8.09568V8.08896V8.08224V8.07552V8.06881V8.06209V8.05538V8.04867V8.04197V8.03526V8.02856V8.02186V8.01517V8.00848V8.00178V7.9951V7.98841V7.98173V7.97505V7.96837V7.9617V7.95503V7.94836V7.94169V7.93503V7.92837V7.92172V7.91506V7.90841V7.90176V7.89512V7.88848V7.8752V7.84869V7.79583V7.74319V7.69077V7.63861V7.5867V7.53505V7.4837V7.43263V7.38187V7.33144V7.28133V7.23157V7.18216V7.13313V7.08447V7.03621V6.94092V6.84736V6.75563V6.66582C17.6667 6.11381 18.1141 5.66667 18.6667 5.66667H22.6667C23.2193 5.66667 23.6667 6.11381 23.6667 6.66582V6.67138V6.67694V6.68251V6.68809V6.69367V6.69927V6.70487V6.71048V6.71609V6.72172V6.72735V6.73299V6.73864V6.7443V6.74996V6.75563V6.76131V6.76699V6.77269V6.77839V6.78409V6.78981V6.79553V6.80126V6.807V6.81274V6.8185V6.82425V6.83002V6.83579V6.84158V6.84736V6.85316V6.85896V6.86477V6.87059V6.87641V6.88224V6.88808V6.89392V6.89977V6.90563V6.9115V6.91737V6.92325V6.92913V6.93502V6.94092V6.94683V6.95274V6.95866V6.96459V6.97052V6.97646V6.98241V6.98836V6.99432V7.00028V7.00626V7.01223V7.01822V7.02421V7.03021V7.03621V7.04222V7.04824V7.05426V7.06029V7.06633V7.07237V7.07842V7.08447V7.09053V7.0966V7.10267V7.10875V7.11484V7.12093V7.12702V7.13313V7.13924V7.14535V7.15147V7.1576V7.16373V7.16987V7.17601V7.18216V7.18832V7.19448V7.20065V7.20682V7.213V7.21918V7.22537V7.23157V7.23777V7.24398V7.25019V7.2564V7.26263V7.26886V7.27509V7.28133V7.28757V7.29382V7.30008V7.30634V7.31261V7.31888V7.32515V7.33144V7.33772V7.34402V7.35031V7.35661V7.36292V7.36923V7.37555V7.38187V7.3882V7.39453V7.40087V7.40721V7.41356V7.41991V7.42627V7.43263V7.439V7.44537V7.45175V7.45813V7.46451V7.4709V7.4773V7.4837V7.4901V7.49651V7.50292V7.50934V7.51576V7.52219V7.52862V7.53506V7.5415V7.54794V7.55439V7.56084V7.5673V7.57376V7.58023V7.5867V7.59317V7.59965V7.60613V7.61262V7.61911V7.6256V7.6321V7.63861V7.64511V7.65163V7.65814V7.66466V7.67118V7.67771V7.68424V7.69077V7.69731V7.70385V7.7104V7.71695V7.7235V7.73006V7.73662V7.74319V7.74975V7.75633V7.7629V7.76948V7.77606V7.78265V7.78924V7.79583V7.80243V7.80903V7.81563V7.82223V7.82884V7.83546V7.84207V7.84869V7.85532V7.86194V7.86857V7.8752V7.88184V7.88848V7.89512V7.90176V7.90841V7.91506V7.92172V7.92837V7.93503V7.94169V7.94836V7.95503V7.9617V7.96837V7.97505V7.98173V7.98841V7.9951V8.00179V8.00848V8.01517V8.02186V8.02856V8.03526V8.04197V8.04867V8.05538V8.06209V8.06881V8.07552V8.08224V8.08896V8.09568V8.10241V8.10914V8.11587V8.1226V8.12933V8.13607V8.14281V8.14955V8.15629V8.16304V8.16978V8.17653V8.18329V8.19004V8.19679V8.20355V8.21031V8.21707V8.22384V8.2306V8.23737V8.24414V8.25091V8.25768V8.26445V8.27123V8.27801V8.28479V8.29157V8.29835V8.30513V8.31192V8.3187V8.32549V8.33228V8.33908V8.34587V8.35266V8.35946V8.36626V8.37305V8.37985V8.38666V8.39346V8.40026V8.40707V8.41387V8.42068V8.42749V8.4343V8.44111V8.44792V8.45474V8.46155V8.46836V8.47518V8.482V8.48882V8.49564V8.50245V8.50928V8.5161V8.52292V8.52974V8.53657V8.54339V8.55022V8.55704V8.56387V8.5707V8.57753V8.58435V8.59118V8.59801V8.60484V8.61167V8.61851V8.62534V8.63217V8.639V8.64584V8.65267V8.6595V8.66634V8.67317V8.68001V8.68684V8.69368V8.70051V8.70735V8.71418V8.72102V8.72785V8.73469V8.74152V8.74836V8.7552V8.76203V8.76887V8.7757V8.78254V8.78937V8.79621V8.80305V8.80988V8.81671V8.82355V8.83038V8.83722V8.84405V8.85088V8.85772V8.86455V8.87138V8.87821V8.88504V8.89187V8.8987V8.90553V8.91236V8.91919V8.92602V8.93285V8.93967V8.9465V8.95332V8.96015V8.96697V8.97379V8.98062V8.98744V8.99426V9.00108V9.0079V9.01471V9.02153V9.02835V9.03516V9.04197V9.04879V9.0556V9.06241V9.06922V9.07603V9.08283V9.08964V9.09644V9.10325V9.11005V9.11685V9.12365V9.13045V9.13724V9.14404V9.15083V9.15762V9.16442V9.1712V9.17799V9.18478V9.19156V9.19835V9.20513V9.21191V9.21869V9.22546V9.23224V9.23901V9.24578V9.25255V9.25932V9.26609V9.27285V9.27961V9.28637V9.29313V9.29989V9.30664V9.31339V9.32014V9.32689V9.33364V9.34038V9.34713V9.35387V9.3606V9.36734V9.37407V9.3808V9.38753V9.39426V9.40098V9.4077V9.41442V9.42114V9.42786V9.43457V9.44128V9.44798V9.45469V9.46139V9.46809V9.47479V9.48148V9.48817V9.49486V9.50155V9.50823V9.51491V9.52159V9.52827V9.53494V9.54161V9.54828V9.55494V9.5616V9.56826V9.57492V9.58157V9.58822V9.59486V9.60151V9.60815V9.61478V9.62142V9.62805V9.63468V9.6413V9.64792V9.65454V9.66115V9.66776V9.67437V9.68098V9.68758V9.69418V9.70077V9.70736V9.71395V9.72053V9.72711V9.73369V9.74026V9.74683V9.7534V9.75996V9.76652V9.77308V9.77963V9.78618V9.79272V9.79926V9.8058V9.81233V9.81886V9.82538V9.83191V9.83842V9.84494V9.85144V9.85795V9.86445V9.87095V9.87744V9.88393V9.89041V9.89689V9.90337V9.90984V9.91631V9.92278V9.92923V9.93569V9.94214V9.94859V9.95503V9.96147V9.9679V9.97433V9.98075V9.98717V9.99359V10C23.6667 11.5427 22.8989 12.6259 22.1104 13.3356C21.7159 13.6906 21.3202 13.9479 21.0232 14.1162C20.875 14.2002 20.7523 14.2615 20.6678 14.3014C20.6674 14.3015 20.6671 14.3017 20.6667 14.3019C20.6663 14.3017 20.666 14.3015 20.6656 14.3014C20.5811 14.2615 20.4584 14.2002 20.3102 14.1162C20.0132 13.9479 19.6175 13.6906 19.223 13.3356C18.4345 12.6259 17.6667 11.5427 17.6667 10Z" fill="#FFD033" stroke="white" stroke-width="0.666667"/>
<mask id="mask1" mask-type="alpha" maskUnits="userSpaceOnUse" x="17" y="5" width="7" height="10">
<path d="M17.6667 10V9.94859V9.89689V9.84494V9.79272V9.74026V9.68758V9.63468V9.58157V9.52827V9.47479V9.42114V9.36734V9.31339V9.28637V9.27961V9.27285V9.25932V9.20513V9.15083V9.09644V9.04197V8.98744V8.93285V8.87821V8.82355V8.76887V8.74152V8.73469V8.72785V8.72102V8.71418V8.70735V8.70051V8.69368V8.68684V8.68001V8.67317V8.66634V8.6595V8.65267V8.64584V8.639V8.63217V8.62534V8.61851V8.61167V8.60484V8.59801V8.59118V8.58435V8.57753V8.5707V8.56387V8.55704V8.55022V8.54339V8.53657V8.52974V8.52292V8.5161V8.50928V8.50245V8.49563V8.48882V8.482V8.47518V8.46836V8.46155V8.45474V8.44792V8.44111V8.4343V8.42749V8.42068V8.41387V8.40707V8.40026V8.39346V8.38666V8.37985V8.37305V8.36626V8.35946V8.35266V8.34587V8.33907V8.33228V8.32549V8.3187V8.31192V8.30513V8.29835V8.29157V8.28478V8.27801V8.27123V8.26445V8.25768V8.25091V8.24414V8.23737V8.2306V8.22383V8.21707V8.21031V8.20355V8.19679V8.19004V8.18328V8.17653V8.16978V8.16304V8.15629V8.14955V8.14281V8.13607V8.12933V8.1226V8.11587V8.10914V8.10241V8.09568V8.08896V8.08224V8.07552V8.06881V8.06209V8.05538V8.04867V8.04197V8.03526V8.02856V8.02186V8.01517V8.00848V8.00178V7.9951V7.98841V7.98173V7.97505V7.96837V7.9617V7.95503V7.94836V7.94169V7.93503V7.92837V7.92172V7.91506V7.90841V7.90176V7.89512V7.88848V7.8752V7.84869V7.79583V7.74319V7.69077V7.63861V7.5867V7.53505V7.4837V7.43263V7.38187V7.33144V7.28133V7.23157V7.18216V7.13313V7.08447V7.03621V6.94092V6.84736V6.75563V6.66582C17.6667 6.11381 18.1141 5.66667 18.6667 5.66667H22.6667C23.2193 5.66667 23.6667 6.11381 23.6667 6.66582V6.67138V6.67694V6.68251V6.68809V6.69367V6.69927V6.70487V6.71048V6.71609V6.72172V6.72735V6.73299V6.73864V6.7443V6.74996V6.75563V6.76131V6.76699V6.77269V6.77839V6.78409V6.78981V6.79553V6.80126V6.807V6.81274V6.8185V6.82425V6.83002V6.83579V6.84158V6.84736V6.85316V6.85896V6.86477V6.87059V6.87641V6.88224V6.88808V6.89392V6.89977V6.90563V6.9115V6.91737V6.92325V6.92913V6.93502V6.94092V6.94683V6.95274V6.95866V6.96459V6.97052V6.97646V6.98241V6.98836V6.99432V7.00028V7.00626V7.01223V7.01822V7.02421V7.03021V7.03621V7.04222V7.04824V7.05426V7.06029V7.06633V7.07237V7.07842V7.08447V7.09053V7.0966V7.10267V7.10875V7.11484V7.12093V7.12702V7.13313V7.13924V7.14535V7.15147V7.1576V7.16373V7.16987V7.17601V7.18216V7.18832V7.19448V7.20065V7.20682V7.213V7.21918V7.22537V7.23157V7.23777V7.24398V7.25019V7.2564V7.26263V7.26886V7.27509V7.28133V7.28757V7.29382V7.30008V7.30634V7.31261V7.31888V7.32515V7.33144V7.33772V7.34402V7.35031V7.35661V7.36292V7.36923V7.37555V7.38187V7.3882V7.39453V7.40087V7.40721V7.41356V7.41991V7.42627V7.43263V7.439V7.44537V7.45175V7.45813V7.46451V7.4709V7.4773V7.4837V7.4901V7.49651V7.50292V7.50934V7.51576V7.52219V7.52862V7.53506V7.5415V7.54794V7.55439V7.56084V7.5673V7.57376V7.58023V7.5867V7.59317V7.59965V7.60613V7.61262V7.61911V7.6256V7.6321V7.63861V7.64511V7.65163V7.65814V7.66466V7.67118V7.67771V7.68424V7.69077V7.69731V7.70385V7.7104V7.71695V7.7235V7.73006V7.73662V7.74319V7.74975V7.75633V7.7629V7.76948V7.77606V7.78265V7.78924V7.79583V7.80243V7.80903V7.81563V7.82223V7.82884V7.83546V7.84207V7.84869V7.85532V7.86194V7.86857V7.8752V7.88184V7.88848V7.89512V7.90176V7.90841V7.91506V7.92172V7.92837V7.93503V7.94169V7.94836V7.95503V7.9617V7.96837V7.97505V7.98173V7.98841V7.9951V8.00179V8.00848V8.01517V8.02186V8.02856V8.03526V8.04197V8.04867V8.05538V8.06209V8.06881V8.07552V8.08224V8.08896V8.09568V8.10241V8.10914V8.11587V8.1226V8.12933V8.13607V8.14281V8.14955V8.15629V8.16304V8.16978V8.17653V8.18329V8.19004V8.19679V8.20355V8.21031V8.21707V8.22384V8.2306V8.23737V8.24414V8.25091V8.25768V8.26445V8.27123V8.27801V8.28479V8.29157V8.29835V8.30513V8.31192V8.3187V8.32549V8.33228V8.33908V8.34587V8.35266V8.35946V8.36626V8.37305V8.37985V8.38666V8.39346V8.40026V8.40707V8.41387V8.42068V8.42749V8.4343V8.44111V8.44792V8.45474V8.46155V8.46836V8.47518V8.482V8.48882V8.49564V8.50245V8.50928V8.5161V8.52292V8.52974V8.53657V8.54339V8.55022V8.55704V8.56387V8.5707V8.57753V8.58435V8.59118V8.59801V8.60484V8.61167V8.61851V8.62534V8.63217V8.639V8.64584V8.65267V8.6595V8.66634V8.67317V8.68001V8.68684V8.69368V8.70051V8.70735V8.71418V8.72102V8.72785V8.73469V8.74152V8.74836V8.7552V8.76203V8.76887V8.7757V8.78254V8.78937V8.79621V8.80305V8.80988V8.81671V8.82355V8.83038V8.83722V8.84405V8.85088V8.85772V8.86455V8.87138V8.87821V8.88504V8.89187V8.8987V8.90553V8.91236V8.91919V8.92602V8.93285V8.93967V8.9465V8.95332V8.96015V8.96697V8.97379V8.98062V8.98744V8.99426V9.00108V9.0079V9.01471V9.02153V9.02835V9.03516V9.04197V9.04879V9.0556V9.06241V9.06922V9.07603V9.08283V9.08964V9.09644V9.10325V9.11005V9.11685V9.12365V9.13045V9.13724V9.14404V9.15083V9.15762V9.16442V9.1712V9.17799V9.18478V9.19156V9.19835V9.20513V9.21191V9.21869V9.22546V9.23224V9.23901V9.24578V9.25255V9.25932V9.26609V9.27285V9.27961V9.28637V9.29313V9.29989V9.30664V9.31339V9.32014V9.32689V9.33364V9.34038V9.34713V9.35387V9.3606V9.36734V9.37407V9.3808V9.38753V9.39426V9.40098V9.4077V9.41442V9.42114V9.42786V9.43457V9.44128V9.44798V9.45469V9.46139V9.46809V9.47479V9.48148V9.48817V9.49486V9.50155V9.50823V9.51491V9.52159V9.52827V9.53494V9.54161V9.54828V9.55494V9.5616V9.56826V9.57492V9.58157V9.58822V9.59486V9.60151V9.60815V9.61478V9.62142V9.62805V9.63468V9.6413V9.64792V9.65454V9.66115V9.66776V9.67437V9.68098V9.68758V9.69418V9.70077V9.70736V9.71395V9.72053V9.72711V9.73369V9.74026V9.74683V9.7534V9.75996V9.76652V9.77308V9.77963V9.78618V9.79272V9.79926V9.8058V9.81233V9.81886V9.82538V9.83191V9.83842V9.84494V9.85144V9.85795V9.86445V9.87095V9.87744V9.88393V9.89041V9.89689V9.90337V9.90984V9.91631V9.92278V9.92923V9.93569V9.94214V9.94859V9.95503V9.96147V9.9679V9.97433V9.98075V9.98717V9.99359V10C23.6667 11.5427 22.8989 12.6259 22.1104 13.3356C21.7159 13.6906 21.3202 13.9479 21.0232 14.1162C20.875 14.2002 20.7523 14.2615 20.6678 14.3014C20.6674 14.3015 20.6671 14.3017 20.6667 14.3019C20.6663 14.3017 20.666 14.3015 20.6656 14.3014C20.5811 14.2615 20.4584 14.2002 20.3102 14.1162C20.0132 13.9479 19.6175 13.6906 19.223 13.3356C18.4345 12.6259 17.6667 11.5427 17.6667 10Z" fill="white" stroke="white" stroke-width="0.666667"/>
</mask>
<g mask="url(#mask1)">
<path fill-rule="evenodd" clip-rule="evenodd" d="M22 9.33333C22.3682 9.33333 22.6667 8.73638 22.6667 8C22.6667 7.26362 22.3682 6.66667 22 6.66667C21.6319 6.66667 21.3334 7.26362 21.3334 8C21.3334 8.73638 21.6319 9.33333 22 9.33333Z" fill="#BA5B1F"/>
<path fill-rule="evenodd" clip-rule="evenodd" d="M19.5385 9.29313C19.8845 9.1672 19.9608 8.50416 19.709 7.81219C19.4571 7.12022 18.9724 6.66135 18.6265 6.78728C18.2805 6.91321 18.2042 7.57625 18.456 8.26822C18.7079 8.96019 19.1925 9.41906 19.5385 9.29313Z" fill="#FF9F3E"/>
<path fill-rule="evenodd" clip-rule="evenodd" d="M19.0517 9.27087C19.3854 9.42648 19.9082 9.01159 20.2194 8.34421C20.5306 7.67682 20.5124 7.00965 20.1787 6.85405C19.845 6.69845 19.3222 7.11333 19.011 7.78072C18.6998 8.4481 18.718 9.11527 19.0517 9.27087Z" fill="#FF937F"/>
<path fill-rule="evenodd" clip-rule="evenodd" d="M20 10.6667L20.6667 9.33333L21.3333 10.6667V12H20V10.6667Z" fill="#01A827"/>
</g>
<path d="M0 -0.333333H-0.901086L-0.21693 0.253086L4.33333 4.15331V5.16179L-0.193746 8.39542L-0.333333 8.49513V8.66667V9.33333V9.93475L0.176666 9.616L5.42893 6.33333H6.55984L11.0821 9.56351C11.176 9.6306 11.2886 9.66667 11.404 9.66667C11.9182 9.66667 12.1548 9.02698 11.7644 8.69237L7.66667 5.18002V4.17154L12.0542 1.03762C12.2294 0.912475 12.3333 0.710428 12.3333 0.495127V0V-0.601416L11.8233 -0.282666L6.57107 3H5.44016L0.860413 -0.271244L0.773488 -0.333333H0.666667H0Z" fill="#DB1E36" stroke="white" stroke-width="0.666667"/>
<path fill-rule="evenodd" clip-rule="evenodd" d="M0 3.33333V6H4.66667V9.33333C4.66667 9.70152 4.96514 10 5.33333 10H6.66667C7.03486 10 7.33333 9.70152 7.33333 9.33333V6H12C12.3682 6 12.6667 5.70152 12.6667 5.33333V4C12.6667 3.63181 12.3682 3.33333 12 3.33333H7.33333V0H4.66667V3.33333H0Z" fill="white"/>
<path fill-rule="evenodd" clip-rule="evenodd" d="M0 4H5.33333V3.33333V0H6.66667V3.33333V4H12V5.33333H6.66667V6V9.33333H5.33333V6V5.33333H0V4Z" fill="#DB1E36"/>
</g>
</svg>
