<svg width="28" height="20" viewBox="0 0 28 20" fill="none" xmlns="http://www.w3.org/2000/svg">
<rect width="28" height="20" rx="2" fill="white"/>
<mask id="mask0" mask-type="alpha" maskUnits="userSpaceOnUse" x="0" y="0" width="28" height="20">
<rect width="28" height="20" rx="2" fill="white"/>
</mask>
<g mask="url(#mask0)">
<path fill-rule="evenodd" clip-rule="evenodd" d="M28 0H0V1.33333H28V0ZM28 2.66667H0V4H28V2.66667ZM0 5.33333H28V6.66667H0V5.33333ZM28 8H0V9.33333H28V8ZM0 10.6667H28V12H0V10.6667ZM28 13.3333H0V14.6667H28V13.3333ZM0 16H28V17.3333H0V16ZM28 18.6667H0V20H28V18.6667Z" fill="#D02F44"/>
<rect width="12" height="9.33333" fill="#46467F"/>
<g filter="url(#filter0_d)">
<path fill-rule="evenodd" clip-rule="evenodd" d="M2.66671 2C2.66671 2.36819 2.36823 2.66667 2.00004 2.66667C1.63185 2.66667 1.33337 2.36819 1.33337 2C1.33337 1.63181 1.63185 1.33334 2.00004 1.33334C2.36823 1.33334 2.66671 1.63181 2.66671 2ZM5.33337 2C5.33337 2.36819 5.0349 2.66667 4.66671 2.66667C4.29852 2.66667 4.00004 2.36819 4.00004 2C4.00004 1.63181 4.29852 1.33334 4.66671 1.33334C5.0349 1.33334 5.33337 1.63181 5.33337 2ZM7.33337 2.66667C7.70156 2.66667 8.00004 2.36819 8.00004 2C8.00004 1.63181 7.70156 1.33334 7.33337 1.33334C6.96518 1.33334 6.66671 1.63181 6.66671 2C6.66671 2.36819 6.96518 2.66667 7.33337 2.66667ZM10.6667 2C10.6667 2.36819 10.3682 2.66667 10 2.66667C9.63185 2.66667 9.33337 2.36819 9.33337 2C9.33337 1.63181 9.63185 1.33334 10 1.33334C10.3682 1.33334 10.6667 1.63181 10.6667 2ZM3.33337 4C3.70156 4 4.00004 3.70153 4.00004 3.33334C4.00004 2.96515 3.70156 2.66667 3.33337 2.66667C2.96518 2.66667 2.66671 2.96515 2.66671 3.33334C2.66671 3.70153 2.96518 4 3.33337 4ZM6.66671 3.33334C6.66671 3.70153 6.36823 4 6.00004 4C5.63185 4 5.33337 3.70153 5.33337 3.33334C5.33337 2.96515 5.63185 2.66667 6.00004 2.66667C6.36823 2.66667 6.66671 2.96515 6.66671 3.33334ZM8.66671 4C9.0349 4 9.33337 3.70153 9.33337 3.33334C9.33337 2.96515 9.0349 2.66667 8.66671 2.66667C8.29852 2.66667 8.00004 2.96515 8.00004 3.33334C8.00004 3.70153 8.29852 4 8.66671 4ZM10.6667 4.66667C10.6667 5.03486 10.3682 5.33334 10 5.33334C9.63185 5.33334 9.33337 5.03486 9.33337 4.66667C9.33337 4.29848 9.63185 4 10 4C10.3682 4 10.6667 4.29848 10.6667 4.66667ZM7.33337 5.33334C7.70156 5.33334 8.00004 5.03486 8.00004 4.66667C8.00004 4.29848 7.70156 4 7.33337 4C6.96518 4 6.66671 4.29848 6.66671 4.66667C6.66671 5.03486 6.96518 5.33334 7.33337 5.33334ZM5.33337 4.66667C5.33337 5.03486 5.0349 5.33334 4.66671 5.33334C4.29852 5.33334 4.00004 5.03486 4.00004 4.66667C4.00004 4.29848 4.29852 4 4.66671 4C5.0349 4 5.33337 4.29848 5.33337 4.66667ZM2.00004 5.33334C2.36823 5.33334 2.66671 5.03486 2.66671 4.66667C2.66671 4.29848 2.36823 4 2.00004 4C1.63185 4 1.33337 4.29848 1.33337 4.66667C1.33337 5.03486 1.63185 5.33334 2.00004 5.33334ZM4.00004 6C4.00004 6.36819 3.70156 6.66667 3.33337 6.66667C2.96518 6.66667 2.66671 6.36819 2.66671 6C2.66671 5.63181 2.96518 5.33334 3.33337 5.33334C3.70156 5.33334 4.00004 5.63181 4.00004 6ZM6.00004 6.66667C6.36823 6.66667 6.66671 6.36819 6.66671 6C6.66671 5.63181 6.36823 5.33334 6.00004 5.33334C5.63185 5.33334 5.33337 5.63181 5.33337 6C5.33337 6.36819 5.63185 6.66667 6.00004 6.66667ZM9.33337 6C9.33337 6.36819 9.0349 6.66667 8.66671 6.66667C8.29852 6.66667 8.00004 6.36819 8.00004 6C8.00004 5.63181 8.29852 5.33334 8.66671 5.33334C9.0349 5.33334 9.33337 5.63181 9.33337 6ZM10 8C10.3682 8 10.6667 7.70153 10.6667 7.33334C10.6667 6.96515 10.3682 6.66667 10 6.66667C9.63185 6.66667 9.33337 6.96515 9.33337 7.33334C9.33337 7.70153 9.63185 8 10 8ZM8.00004 7.33334C8.00004 7.70153 7.70156 8 7.33337 8C6.96518 8 6.66671 7.70153 6.66671 7.33334C6.66671 6.96515 6.96518 6.66667 7.33337 6.66667C7.70156 6.66667 8.00004 6.96515 8.00004 7.33334ZM4.66671 8C5.0349 8 5.33337 7.70153 5.33337 7.33334C5.33337 6.96515 5.0349 6.66667 4.66671 6.66667C4.29852 6.66667 4.00004 6.96515 4.00004 7.33334C4.00004 7.70153 4.29852 8 4.66671 8ZM2.66671 7.33334C2.66671 7.70153 2.36823 8 2.00004 8C1.63185 8 1.33337 7.70153 1.33337 7.33334C1.33337 6.96515 1.63185 6.66667 2.00004 6.66667C2.36823 6.66667 2.66671 6.96515 2.66671 7.33334Z" fill="url(#paint0_linear)"/>
</g>
</g>
<defs>
<filter id="filter0_d" x="1.33337" y="1.33334" width="9.33333" height="7.66667" filterUnits="userSpaceOnUse" color-interpolation-filters="sRGB">
<feFlood flood-opacity="0" result="BackgroundImageFix"/>
<feColorMatrix in="SourceAlpha" type="matrix" values="0 0 0 0 0 0 0 0 0 0 0 0 0 0 0 0 0 0 127 0"/>
<feOffset dy="1"/>
<feColorMatrix type="matrix" values="0 0 0 0 0 0 0 0 0 0 0 0 0 0 0 0 0 0 0.06 0"/>
<feBlend mode="normal" in2="BackgroundImageFix" result="effect1_dropShadow"/>
<feBlend mode="normal" in="SourceGraphic" in2="effect1_dropShadow" result="shape"/>
</filter>
<linearGradient id="paint0_linear" x1="1.33337" y1="1.33334" x2="1.33337" y2="8" gradientUnits="userSpaceOnUse">
<stop stop-color="white"/>
<stop offset="1" stop-color="#F0F0F0"/>
</linearGradient>
</defs>
</svg>
