<svg width="28" height="20" viewBox="0 0 28 20" fill="none" xmlns="http://www.w3.org/2000/svg">
<rect x="0.25" y="0.25" width="27.5" height="19.5" rx="1.75" fill="white" stroke="#F5F5F5" stroke-width="0.5"/>
<mask id="mask0" mask-type="alpha" maskUnits="userSpaceOnUse" x="0" y="0" width="28" height="20">
<rect x="0.25" y="0.25" width="27.5" height="19.5" rx="1.75" fill="white" stroke="white" stroke-width="0.5"/>
</mask>
<g mask="url(#mask0)">
<path fill-rule="evenodd" clip-rule="evenodd" d="M28 2.66666H13.3333V5.33333H28V2.66666ZM13.3333 8V10.6667H28V8H13.3333ZM13.3333 13.3333L0 13.3333V16H28V13.3333H13.3333ZM0 20V18.6667H28V20H0Z" fill="#0E4DC5"/>
<path fill-rule="evenodd" clip-rule="evenodd" d="M6.66663 9.3213L5.77654 10.6499L5.55108 9.06668L4.17267 9.87756L4.65649 8.35327L3.06275 8.48577L4.16003 7.32235L2.66663 6.75024L4.16003 6.17812L3.06275 5.0147L4.65649 5.14721L4.17267 3.62291L5.55108 4.43379L5.77654 2.85052L6.66663 4.17917L7.55671 2.85052L7.78217 4.43379L9.16059 3.62291L8.67676 5.14721L10.2705 5.0147L9.17323 6.17812L10.6666 6.75024L9.17323 7.32235L10.2705 8.48577L8.67676 8.35327L9.16059 9.87756L7.78217 9.06668L7.55671 10.6499L6.66663 9.3213ZM6.66663 9.29569C8.07244 9.29569 9.21208 8.15605 9.21208 6.75024C9.21208 5.34442 8.07244 4.20478 6.66663 4.20478C5.26081 4.20478 4.12117 5.34442 4.12117 6.75024C4.12117 8.15605 5.26081 9.29569 6.66663 9.29569ZM8.66663 6.66666C8.66663 7.77123 7.7712 8.66666 6.66663 8.66666C5.56206 8.66666 4.66663 7.77123 4.66663 6.66666C4.66663 5.56209 5.56206 4.66666 6.66663 4.66666C7.7712 4.66666 8.66663 5.56209 8.66663 6.66666Z" fill="#FED443"/>
</g>
</svg>
