<svg width="28" height="20" viewBox="0 0 28 20" fill="none" xmlns="http://www.w3.org/2000/svg">
<rect x="0.25" y="0.25" width="27.5" height="19.5" rx="1.75" fill="white" stroke="#F5F5F5" stroke-width="0.5"/>
<mask id="mask0" mask-type="alpha" maskUnits="userSpaceOnUse" x="0" y="0" width="28" height="20">
<rect x="0.25" y="0.25" width="27.5" height="19.5" rx="1.75" fill="white" stroke="white" stroke-width="0.5"/>
</mask>
<g mask="url(#mask0)">
<path fill-rule="evenodd" clip-rule="evenodd" d="M0 6.66667H28V0H0V6.66667Z" fill="#04AAC8"/>
<path fill-rule="evenodd" clip-rule="evenodd" d="M0 20H28V13.3333H0V20Z" fill="#23C840"/>
<path fill-rule="evenodd" clip-rule="evenodd" d="M4.66663 5.33334C5.07791 5.33334 5.46019 5.20919 5.77805 4.99634C5.74122 4.99877 5.70407 5 5.66663 5C4.74615 5 3.99996 4.25381 3.99996 3.33334C3.99996 2.41286 4.74615 1.66667 5.66663 1.66667C5.70407 1.66667 5.74122 1.6679 5.77805 1.67033C5.46019 1.45748 5.07791 1.33334 4.66663 1.33334C3.56206 1.33334 2.66663 2.22877 2.66663 3.33334C2.66663 4.43791 3.56206 5.33334 4.66663 5.33334ZM7.99996 4.66667C7.99996 5.03486 7.70148 5.33334 7.33329 5.33334C6.9651 5.33334 6.66663 5.03486 6.66663 4.66667C6.66663 4.29848 6.9651 4 7.33329 4C7.70148 4 7.99996 4.29848 7.99996 4.66667ZM9.99996 2.66667C10.3681 2.66667 10.6666 2.36819 10.6666 2C10.6666 1.63181 10.3681 1.33334 9.99996 1.33334C9.63177 1.33334 9.33329 1.63181 9.33329 2C9.33329 2.36819 9.63177 2.66667 9.99996 2.66667ZM13.3333 2C13.3333 2.36819 13.0348 2.66667 12.6666 2.66667C12.2984 2.66667 12 2.36819 12 2C12 1.63181 12.2984 1.33334 12.6666 1.33334C13.0348 1.33334 13.3333 1.63181 13.3333 2ZM12.6666 5.33334C13.0348 5.33334 13.3333 5.03486 13.3333 4.66667C13.3333 4.29848 13.0348 4 12.6666 4C12.2984 4 12 4.29848 12 4.66667C12 5.03486 12.2984 5.33334 12.6666 5.33334ZM10.6666 4.66667C10.6666 5.03486 10.3681 5.33334 9.99996 5.33334C9.63177 5.33334 9.33329 5.03486 9.33329 4.66667C9.33329 4.29848 9.63177 4 9.99996 4C10.3681 4 10.6666 4.29848 10.6666 4.66667Z" fill="white"/>
</g>
</svg>
