<svg width="28" height="20" viewBox="0 0 28 20" fill="none" xmlns="http://www.w3.org/2000/svg">
<rect width="28" height="20" rx="2" fill="white"/>
<mask id="mask0" mask-type="alpha" maskUnits="userSpaceOnUse" x="0" y="0" width="28" height="20">
<rect width="28" height="20" rx="2" fill="white"/>
</mask>
<g mask="url(#mask0)">
<rect width="28" height="20" fill="#19BFBF"/>
<path fill-rule="evenodd" clip-rule="evenodd" d="M14 17.3333C18.05 17.3333 21.3333 14.0501 21.3333 9.99999C21.3333 5.9499 18.05 2.66666 14 2.66666C9.94987 2.66666 6.66663 5.9499 6.66663 9.99999C6.66663 14.0501 9.94987 17.3333 14 17.3333ZM19.9633 10.6667C19.7158 12.9058 18.2361 14.7736 16.2173 15.577C16.8673 14.2529 17.2471 12.528 17.3203 10.6667H19.9633ZM15.9856 10.6667C15.8883 12.9157 15.301 14.9034 14.3855 15.9878C14.258 15.9959 14.1295 16 14 16C13.8705 16 13.7419 15.9959 13.6145 15.9878C12.6989 14.9034 12.1117 12.9157 12.0143 10.6667H15.9856ZM10.6797 10.6667C10.7528 12.528 11.1326 14.2529 11.7826 15.577C9.76382 14.7736 8.28411 12.9058 8.03658 10.6667H10.6797ZM12.0143 9.33332H15.9856C15.8883 7.08428 15.301 5.09656 14.3855 4.01218C14.258 4.00409 14.1295 3.99999 14 3.99999C13.8705 3.99999 13.7419 4.00409 13.6145 4.01218C12.6989 5.09656 12.1117 7.08428 12.0143 9.33332ZM11.7826 4.42301C11.1326 5.74704 10.7528 7.47196 10.6797 9.33332H8.03658C8.28411 7.09416 9.76382 5.22636 11.7826 4.42301ZM19.9633 9.33332H17.3203C17.2471 7.47196 16.8673 5.74704 16.2173 4.42301C18.2361 5.22636 19.7158 7.09416 19.9633 9.33332Z" fill="white"/>
</g>
</svg>
