<svg width="28" height="20" viewBox="0 0 28 20" fill="none" xmlns="http://www.w3.org/2000/svg">
<rect width="28" height="20" rx="2" fill="#009F60"/>
<mask id="mask0" mask-type="alpha" maskUnits="userSpaceOnUse" x="0" y="0" width="28" height="20">
<rect width="28" height="20" rx="2" fill="white"/>
</mask>
<g mask="url(#mask0)">
<rect x="24" y="10.6667" width="4" height="9.33333" fill="#EA8B42"/>
<path fill-rule="evenodd" clip-rule="evenodd" d="M20 20H24V10.6667H20V20Z" fill="#1A1919"/>
<path fill-rule="evenodd" clip-rule="evenodd" d="M16 20H20V10.6667H16V20Z" fill="#DB3C36"/>
<path fill-rule="evenodd" clip-rule="evenodd" d="M21.0143 3.48405C20.9224 3.48663 20.8549 3.4548 20.8307 3.4013C20.9805 3.31338 21.0818 3.333 21.2075 3.445C21.2317 3.35743 21.2075 3.25988 21.1543 3.20138C21.1012 3.14289 21.0577 3.14289 20.9853 3.1379C20.9128 3.13308 20.8403 3.11364 20.7919 3.11364C20.7211 2.9576 20.5437 3.02366 20.3733 3.08766C20.0963 3.19158 19.8474 3.38031 19.7356 3.5687C19.6845 3.65489 19.6783 3.68878 19.647 3.73764C19.6729 3.73437 19.6711 3.73437 19.6873 3.72457C19.6679 3.9391 19.6422 4.1373 19.6807 4.26409C19.6326 4.44938 19.6711 4.56637 19.7291 4.62487C19.7872 4.68336 19.8112 4.70779 19.821 4.77609C19.8306 4.84422 19.8595 4.90753 19.9079 4.94659C19.9562 4.98564 19.9852 5.04414 19.99 5.07837C19.9948 5.11244 20.1443 5.25936 20.2074 5.29773C20.2315 5.31218 20.2363 5.3416 20.2655 5.38048C20.2026 5.75106 20.4539 6.12164 20.3958 6.48723C20.4393 6.49205 20.4973 6.48723 20.5554 6.47261C20.6035 6.78452 20.6325 6.93575 20.362 7.02831C20.0915 7.12104 19.9435 7.21222 20.019 7.31596C20.0721 7.38908 20.1822 7.32543 20.2509 7.26229C20.3041 7.2136 20.3668 7.16973 20.4151 7.1551C20.4635 7.14048 20.4733 7.1551 20.4489 7.21842C20.4247 7.2819 20.2945 7.41833 20.2895 7.48663C20.2847 7.55493 20.3426 7.60362 20.4345 7.54994C20.5262 7.49626 20.607 7.35588 20.6277 7.27209C20.6421 7.2136 20.6665 7.17454 20.6615 7.27209C20.6567 7.36964 20.5987 7.54513 20.7292 7.57437C20.8597 7.60362 20.8984 7.44758 20.8549 7.30616C20.8113 7.16491 20.7969 7.0868 20.8161 7.03811C20.8355 6.98925 20.8549 6.96018 20.903 6.97463C20.9514 6.98925 21.0481 6.96981 21.0433 6.89188C21.0383 6.81394 20.9707 6.75046 20.8934 6.79433C20.8161 6.8382 20.7582 6.83166 20.7919 6.73584C20.8161 6.66753 20.8597 6.58461 20.8645 6.5311C20.9176 6.60904 21.2171 6.61885 21.3379 6.54573C21.3669 6.69196 21.4442 6.82358 21.2752 6.96018C21.106 7.09661 20.9707 7.22822 20.9755 7.32577C20.9805 7.42332 21.0191 7.48164 21.106 7.43295C21.1929 7.38426 21.2461 7.31596 21.2654 7.25265C21.2848 7.18917 21.3235 7.18917 21.3042 7.26728C21.2848 7.34521 21.251 7.45738 21.2654 7.52568C21.28 7.59381 21.3863 7.5988 21.4297 7.53532C21.4732 7.47201 21.4634 7.38908 21.4538 7.30616C21.4442 7.22323 21.4588 7.13566 21.478 7.10143C21.4974 7.06736 21.5359 7.0185 21.5747 7.11123C21.6134 7.20379 21.6326 7.27691 21.7099 7.30134C21.7873 7.32577 21.8452 7.29153 21.8308 7.19897C21.8162 7.10642 21.7147 7.00388 21.6134 6.92594C21.5119 6.84801 21.5457 6.80895 21.5505 6.73584C21.5553 6.66272 21.5409 6.5311 21.5359 6.47261C21.6278 6.54091 21.7293 6.5311 21.7775 6.5311C21.8258 6.5311 21.9052 6.51614 21.8258 6.44336C21.6664 6.29713 21.7195 6.20921 21.6085 6.10203C21.4974 5.99485 21.3959 5.829 21.3621 5.68775C21.3282 5.54633 21.2538 5.28792 21.106 5.15631C21.0239 5.08319 20.9997 4.88328 21.0191 4.65411C21.0383 4.42495 21.0433 4.17153 20.8355 4.05454C20.6277 3.93756 20.6325 3.84001 20.7002 3.73764C20.7678 3.63528 20.8547 3.53515 20.9659 3.52792C20.991 3.52637 21.0487 3.52156 21.0722 3.50435C21.0618 3.49627 21.0448 3.48336 21.0143 3.48405Z" fill="#EA8B42"/>
<path fill-rule="evenodd" clip-rule="evenodd" d="M19.663 4.01068C19.6579 4.10977 19.6603 4.197 19.6807 4.2641C19.6325 4.44939 19.6711 4.56638 19.729 4.62487C19.7871 4.68337 19.8111 4.7078 19.8209 4.7761C19.8305 4.84423 19.8595 4.90754 19.9078 4.94659C19.9562 4.98564 19.9851 5.04414 19.9899 5.07838C19.9947 5.11244 20.1442 5.25937 20.2073 5.29773C20.2315 5.31218 20.2363 5.3416 20.2654 5.38048C20.2392 5.53446 20.2668 5.68844 20.3045 5.84207C19.963 6.12801 19.626 5.99313 19.7678 5.70066C19.4842 5.9281 18.9948 5.92173 19.1043 5.70066C18.6598 5.8567 18.5246 5.72663 18.5825 5.58367C18.209 5.73317 18.0156 5.5902 18.0672 5.48612C17.7579 5.57059 17.5582 5.51863 17.526 5.46668C17.4939 5.41472 17.5711 5.29773 17.6421 5.23924C17.5003 5.29119 17.365 5.29119 17.2361 5.27175C17.1074 5.25214 17.1396 5.21309 17.1653 5.15459C17.1912 5.0961 17.225 5.00354 17.328 4.91253C17.0817 4.96121 16.7724 4.99545 16.555 4.92216C16.5141 4.9084 16.4439 4.89291 16.4873 4.84921C16.5309 4.80534 16.6613 4.69799 16.8207 4.62969C16.4583 4.68337 15.7723 4.72242 15.5791 4.50306C15.7675 4.54195 16.009 4.46401 16.1637 4.4007C15.5549 4.3324 14.724 3.91313 14.7142 3.50367C14.8882 3.78633 15.1879 3.88388 15.4874 3.97162C15.0814 3.73266 14.9124 3.445 14.898 3.25489C15.1298 3.47924 15.4824 3.73266 15.8304 3.79132C15.5839 3.65971 15.265 3.27451 15.1781 3.00629C15.3569 3.16715 15.8158 3.42556 16.1299 3.50848C15.9125 3.33782 15.5599 2.93317 15.5791 2.709C15.6612 2.79192 15.8642 2.9478 16.2795 3.19158C16.6951 3.43537 16.9205 3.41747 17.2635 3.49059C17.2008 3.40612 17.1444 3.29395 17.1396 3.2647C17.2411 3.27932 17.3376 3.31838 17.6275 3.49868C17.9174 3.67915 18.5508 3.73438 18.9127 3.89369C19.1782 4.01068 19.5567 3.93756 19.663 4.01068Z" fill="#EA8B42"/>
<path fill-rule="evenodd" clip-rule="evenodd" d="M21.8496 6.51442C21.8656 6.50169 21.8656 6.47967 21.8258 6.44337C21.6664 6.29713 21.7195 6.20922 21.6084 6.10203C21.4973 5.99485 21.3959 5.829 21.3621 5.68775C21.3281 5.54633 21.2537 5.28793 21.106 5.15631C21.0239 5.08319 20.9997 4.88328 21.0191 4.65412C21.0355 4.45799 21.0415 4.24414 20.9126 4.11322C21.1541 4.04491 21.3767 4.03012 21.4538 4.10805C21.8548 4.00569 22.2028 3.97472 22.5441 3.95218C22.937 3.92603 23.6777 3.75709 24.2061 3.39958C24.1739 3.52965 23.9935 3.72457 23.8324 3.82212C24.3671 3.69205 25.0113 3.45154 25.5588 3.04208C25.5523 3.32818 25.3205 3.54255 25.1851 3.65971C25.5588 3.45154 26.1062 3.19158 26.2931 2.86659C26.3752 3.19967 25.8165 3.63528 25.5136 3.8758C25.8228 3.72629 26.2223 3.58814 26.3769 3.36707C26.3736 3.63683 26.0225 3.97162 25.6876 4.16655C26.0291 4.03666 26.4091 3.90005 26.628 3.69859C26.6537 3.97008 25.607 4.59408 25.0884 4.76457C25.5395 4.65412 26.1256 4.50461 26.3832 4.34857C26.3704 4.4038 26.2653 4.48122 26.1888 4.53765C25.8737 4.77059 25.3905 4.89567 25.0949 4.95313C25.1337 5.11571 25.0821 5.20672 24.9017 5.21962C24.7214 5.2327 24.2849 5.16285 24.066 5.05223C24.0338 5.07167 23.9951 5.07838 23.9515 5.08319C24.1641 5.24405 24.2366 5.36104 24.1931 5.42935C24.1497 5.49765 23.9975 5.48526 23.8816 5.461C23.9733 5.71941 23.6664 5.70238 23.4105 5.55597C23.512 5.68775 23.5265 5.79975 23.3863 5.829C23.2463 5.85825 23.135 5.84861 22.9997 5.7607C22.9901 5.85825 22.8967 5.92328 22.7728 5.89076C23.1979 6.14917 23.1737 6.24345 23.1012 6.34083C23.0289 6.43838 22.7752 6.41894 22.6399 6.33119C22.582 6.53111 22.3509 6.5318 22.1784 6.37266C22.1769 6.45231 22.0123 6.61042 21.8496 6.51442Z" fill="#EA8B42"/>
<path fill-rule="evenodd" clip-rule="evenodd" d="M19.8773 7.49473C19.8844 7.43314 19.8902 7.36157 19.9416 7.31597C19.9932 7.27038 20.0254 7.2315 20.0705 7.27692C20.1156 7.32251 20.0866 7.36483 20.0254 7.38428C19.9642 7.40372 19.9224 7.45894 19.9126 7.49473C19.903 7.53051 19.8708 7.54995 19.8773 7.49473Z" fill="black"/>
<path fill-rule="evenodd" clip-rule="evenodd" d="M20.2283 7.79373C20.1964 7.69154 20.2123 7.55975 20.2476 7.5207C20.2831 7.48165 20.3282 7.45567 20.37 7.49472C20.4119 7.53378 20.428 7.589 20.3507 7.62152C20.2823 7.65025 20.2766 7.72216 20.2735 7.77429C20.2703 7.82625 20.2476 7.8555 20.2283 7.79373Z" fill="black"/>
<path fill-rule="evenodd" clip-rule="evenodd" d="M20.6792 7.53051C20.6543 7.57232 20.6855 7.74178 20.7694 7.78393C20.8287 7.81386 20.8563 7.80681 20.8208 7.75141C20.7855 7.69619 20.7983 7.64423 20.8177 7.61498C20.8369 7.58574 20.8338 7.53378 20.7918 7.5078C20.75 7.48165 20.6984 7.49799 20.6792 7.53051Z" fill="black"/>
<path fill-rule="evenodd" clip-rule="evenodd" d="M21.0432 7.37773C20.9901 7.33747 20.9402 7.38582 20.9208 7.41988C20.8821 7.48818 20.9112 7.58573 20.9724 7.64096C21.0336 7.69618 21.0239 7.62151 21.0045 7.589C20.9853 7.55648 20.982 7.49145 21.0239 7.48491C21.0657 7.47855 21.0948 7.41661 21.0432 7.37773Z" fill="black"/>
<path fill-rule="evenodd" clip-rule="evenodd" d="M21.346 7.48819C21.2942 7.47288 21.243 7.52724 21.2493 7.59227C21.2541 7.64079 21.2591 7.70273 21.3073 7.73524C21.3397 7.75692 21.3621 7.77103 21.346 7.71253C21.3299 7.65404 21.3558 7.60518 21.3846 7.58901C21.4135 7.57283 21.4007 7.50453 21.346 7.48819Z" fill="black"/>
<path fill-rule="evenodd" clip-rule="evenodd" d="M21.7743 7.21188C21.7368 7.23837 21.7389 7.29979 21.7743 7.3225C21.8097 7.34521 21.8613 7.37773 21.8517 7.43295C21.8419 7.48818 21.8709 7.50779 21.8967 7.44603C21.9225 7.38427 21.9257 7.29326 21.8967 7.25093C21.8676 7.20861 21.8064 7.18917 21.7743 7.21188Z" fill="black"/>
<path fill-rule="evenodd" clip-rule="evenodd" d="M20.8404 3.39686C20.8628 3.44646 20.927 3.47575 21.014 3.4733L21.014 3.4733C21.0417 3.47268 21.0584 3.48009 21.0785 3.51304C21.0573 3.5286 21.0173 3.53552 20.9666 3.53865C20.8743 3.54465 20.7936 3.61552 20.7091 3.74359C20.633 3.85862 20.6597 3.94324 20.8407 4.04517C21.0206 4.14647 21.0576 4.32292 21.0297 4.65503C21.0093 4.89634 21.0387 5.08205 21.1131 5.14827C21.2361 5.25787 21.3154 5.44724 21.3725 5.68524C21.4051 5.82157 21.5038 5.98613 21.6159 6.09428C21.6422 6.1197 21.661 6.14532 21.6761 6.17457C21.6848 6.19139 21.6911 6.20658 21.7013 6.23383C21.7367 6.32789 21.7605 6.36891 21.833 6.43543C21.8732 6.47229 21.881 6.50295 21.8562 6.52292C21.8399 6.53608 21.8103 6.54186 21.7775 6.54186L21.7596 6.5421C21.6817 6.54354 21.6314 6.53714 21.5737 6.50837C21.5651 6.50412 21.5568 6.49944 21.5486 6.49432L21.5535 6.54856C21.5557 6.5727 21.5574 6.59414 21.5587 6.61452C21.5621 6.66568 21.5632 6.70653 21.5612 6.73654C21.5604 6.74792 21.5592 6.75782 21.5567 6.77342C21.5522 6.80224 21.5514 6.81013 21.5522 6.82267C21.5543 6.85341 21.5725 6.881 21.6199 6.91741C21.7441 7.01292 21.8279 7.11161 21.8414 7.19732C21.8563 7.29363 21.7959 7.33979 21.7067 7.3116C21.6521 7.29434 21.6239 7.2586 21.5916 7.18111C21.5898 7.17684 21.5851 7.1653 21.58 7.15285C21.5741 7.13813 21.5676 7.12215 21.5648 7.11539C21.549 7.0776 21.5347 7.06547 21.522 7.06912C21.5112 7.07225 21.499 7.08606 21.4873 7.1067C21.4674 7.14217 21.4558 7.23004 21.4644 7.30492L21.4645 7.30572C21.4792 7.43237 21.4767 7.48585 21.4385 7.5414C21.39 7.61234 21.2716 7.60594 21.2549 7.52791C21.2473 7.49177 21.2516 7.44402 21.2652 7.38065C21.2689 7.36321 21.2732 7.34514 21.2789 7.32293L21.2937 7.26468C21.3012 7.23463 21.2992 7.21778 21.2973 7.21744C21.2943 7.21687 21.2832 7.231 21.2756 7.25581C21.254 7.32668 21.1954 7.39518 21.1112 7.44235C21.0224 7.4921 20.9707 7.44148 20.9648 7.3263C20.9603 7.23454 21.062 7.11829 21.2685 6.95181C21.3085 6.91941 21.3355 6.8865 21.3515 6.85204C21.3804 6.78965 21.3762 6.74173 21.3444 6.61932C21.3379 6.59413 21.3338 6.5777 21.3304 6.5622C21.2083 6.62472 20.9529 6.61936 20.8717 6.55418C20.8662 6.57984 20.8543 6.61116 20.8303 6.66846L20.8302 6.66874C20.8151 6.70472 20.8086 6.72077 20.802 6.73942C20.7877 6.78016 20.7907 6.80166 20.805 6.80751C20.8206 6.81385 20.8511 6.806 20.8881 6.78497C20.968 6.73967 21.048 6.79899 21.0539 6.89122C21.0586 6.96757 20.9695 7.00599 20.8999 6.98494C20.8638 6.97409 20.8473 6.98843 20.8261 7.04207C20.809 7.08536 20.8199 7.15644 20.8651 7.30299C20.9154 7.46654 20.8582 7.61431 20.7268 7.58487C20.6465 7.56685 20.6254 7.50311 20.6367 7.39159C20.6381 7.37778 20.6397 7.36457 20.6425 7.34396C20.6487 7.29888 20.6499 7.28861 20.6508 7.27155C20.6516 7.25584 20.6516 7.24346 20.651 7.2345C20.6469 7.24413 20.6421 7.25857 20.6381 7.27469C20.6133 7.37486 20.5252 7.50928 20.4399 7.55924C20.3482 7.6128 20.2728 7.57119 20.2788 7.48585C20.2811 7.45447 20.3034 7.41443 20.3496 7.34965L20.3623 7.33184C20.4208 7.25104 20.4304 7.23681 20.4389 7.21455C20.4601 7.15929 20.457 7.15367 20.4182 7.1654C20.3746 7.17859 20.3144 7.21867 20.2581 7.27022C20.1626 7.35793 20.0614 7.39265 20.0103 7.32231C19.9698 7.26662 19.9865 7.21169 20.0542 7.15949C20.1137 7.11354 20.214 7.06767 20.3585 7.01813C20.5875 6.93979 20.605 6.86441 20.558 6.48304C20.4998 6.49768 20.4404 6.50299 20.3852 6.48554C20.4089 6.33642 20.3903 6.21656 20.3195 5.94269C20.2472 5.66255 20.2281 5.53634 20.2569 5.38695C20.2494 5.37692 20.2431 5.36709 20.2365 5.35568L20.2226 5.33073C20.2154 5.31837 20.2097 5.31163 20.2018 5.30693C20.1331 5.26517 19.9846 5.11684 19.9794 5.07987C19.9741 5.04256 19.9425 4.98838 19.9011 4.95497C19.8525 4.91567 19.8208 4.85165 19.8103 4.77762C19.8021 4.71982 19.7898 4.70126 19.7215 4.63245C19.65 4.5603 19.6264 4.43052 19.6705 4.26724C19.6407 4.16934 19.6435 4.07506 19.6712 3.78092L19.6747 3.74356C19.6716 3.74467 19.6682 3.74547 19.6636 3.74621L19.6483 3.74831L19.6379 3.73182C19.6443 3.72188 19.6499 3.71217 19.6554 3.70154C19.6577 3.69701 19.6589 3.69472 19.66 3.69242C19.6612 3.69008 19.6623 3.68773 19.6646 3.683C19.6627 3.68702 19.6818 3.64611 19.6884 3.63285C19.6995 3.6105 19.7115 3.58837 19.7264 3.5632C19.8399 3.37189 20.0913 3.18196 20.3695 3.0776C20.6332 2.97856 20.7392 2.97144 20.7919 3.10289C20.8152 3.10289 20.827 3.10452 20.8955 3.11569C20.9347 3.12209 20.9598 3.12544 20.986 3.12718L21.0025 3.12829C21.0643 3.13246 21.0902 3.13798 21.1215 3.15848C21.1353 3.16749 21.1486 3.17916 21.1622 3.19414C21.2193 3.25692 21.2424 3.35883 21.2178 3.44787L21.2003 3.45304C21.074 3.3404 20.9775 3.32762 20.8404 3.39686ZM21.0657 3.51287C21.0488 3.49984 21.0363 3.49431 21.0145 3.4948L21.0146 3.4948C20.9198 3.49746 20.8474 3.46443 20.8253 3.39202C20.9698 3.30718 21.0742 3.31748 21.2011 3.42527C21.2 3.43093 21.1987 3.43656 21.1971 3.44213L21.2146 3.43696C21.2101 3.43294 21.2056 3.42904 21.2011 3.42527C21.2167 3.3475 21.1949 3.26199 21.1464 3.20863C21.134 3.19494 21.122 3.18445 21.1098 3.1765C21.0825 3.1586 21.0594 3.15368 21.0011 3.14975L20.9846 3.14863C20.9576 3.14684 20.9319 3.14341 20.8921 3.13692C20.8797 3.1349 20.8691 3.13319 20.86 3.13171C20.8202 3.12525 20.8077 3.12323 20.7822 3.1181C20.7269 2.99629 20.6297 3.00283 20.377 3.09774C20.1031 3.20051 19.8556 3.38747 19.7448 3.5742C19.7301 3.59889 19.7184 3.62054 19.7076 3.64242C19.7012 3.65543 19.6821 3.69612 19.6839 3.69228C19.6816 3.6971 19.6804 3.69951 19.6793 3.70191C19.6781 3.70431 19.6769 3.7067 19.6744 3.71148C19.6724 3.71544 19.6703 3.71928 19.6682 3.72306C19.6662 3.72382 19.6639 3.72437 19.6602 3.72499L19.6456 3.72698L19.656 3.74347C19.6603 3.73667 19.6643 3.72997 19.6682 3.72306C19.6686 3.7229 19.669 3.72274 19.6693 3.72257C19.6716 3.72158 19.6735 3.72042 19.6817 3.71537L19.6979 3.72554L19.6926 3.78295C19.6651 4.07339 19.6624 4.16703 19.6911 4.26681C19.6489 4.42913 19.6711 4.55108 19.7366 4.61728C19.808 4.68909 19.8225 4.71102 19.8316 4.77459C19.8413 4.84359 19.8705 4.90264 19.9146 4.93821C19.9601 4.97499 19.9946 5.03405 20.0006 5.07687C20.0046 5.10533 20.1494 5.24993 20.2128 5.28849C20.2243 5.29536 20.2322 5.30464 20.2411 5.31984C20.2425 5.32228 20.2462 5.32897 20.2495 5.33494C20.252 5.33932 20.2542 5.34331 20.2551 5.34497C20.2567 5.34779 20.2583 5.3505 20.26 5.35328C20.2645 5.36105 20.2694 5.36939 20.276 5.38229C20.2499 5.53592 20.2687 5.6601 20.3403 5.9373C20.4118 6.21407 20.4307 6.33584 20.3969 6.47655C20.4366 6.48094 20.488 6.47697 20.5498 6.47221C20.5551 6.4718 20.5605 6.47138 20.5659 6.47097C20.6276 6.87038 20.6078 6.95556 20.3654 7.03849C20.223 7.08731 20.1245 7.13239 20.0673 7.17653C20.0079 7.22235 19.995 7.26475 20.0276 7.30963C20.0677 7.36479 20.1567 7.33427 20.2437 7.25435C20.3021 7.20081 20.3648 7.15911 20.412 7.14481C20.4713 7.12688 20.4857 7.15262 20.4589 7.22226C20.4494 7.24722 20.4402 7.2608 20.3797 7.34447L20.367 7.36215C20.3235 7.42328 20.302 7.46166 20.3001 7.48739C20.2954 7.55477 20.3517 7.58585 20.4291 7.54066C20.509 7.4939 20.5938 7.36442 20.6173 7.26952C20.6254 7.23652 20.6356 7.21155 20.6459 7.20465C20.6585 7.19617 20.6678 7.20558 20.6708 7.22062C20.6729 7.23132 20.6734 7.24851 20.6722 7.27263C20.6713 7.29058 20.67 7.301 20.6638 7.34687C20.661 7.36726 20.6594 7.38026 20.658 7.39376C20.6477 7.4957 20.6653 7.54904 20.7315 7.56388C20.8411 7.58845 20.8909 7.45986 20.8446 7.30934C20.7979 7.15783 20.7865 7.08385 20.8061 7.03414C20.831 6.97144 20.8563 6.9494 20.9061 6.96434C20.9635 6.9817 21.0361 6.95038 21.0325 6.89257C21.0276 6.81478 20.9632 6.76709 20.8987 6.80369C20.8564 6.82769 20.8203 6.83697 20.797 6.82743C20.7689 6.81597 20.7641 6.78242 20.7818 6.73224C20.7886 6.71305 20.7952 6.69677 20.8104 6.66041L20.8105 6.66013C20.8406 6.58816 20.8512 6.55827 20.8538 6.53014L20.8733 6.52503C20.9228 6.5976 21.2161 6.60687 21.3324 6.53652L21.3484 6.54363C21.3524 6.56364 21.3567 6.58129 21.3651 6.61389C21.3982 6.74112 21.4027 6.79254 21.3709 6.86112C21.3535 6.89874 21.3244 6.93419 21.2819 6.96856C21.0816 7.13002 20.9822 7.2437 20.9862 7.32522C20.9914 7.4268 21.0291 7.46371 21.1008 7.42357C21.1803 7.37901 21.2352 7.31483 21.2552 7.24951C21.2657 7.21512 21.2831 7.19288 21.3013 7.1963C21.3214 7.20009 21.3248 7.22853 21.3145 7.26988L21.2996 7.32822C21.2941 7.3502 21.2898 7.36804 21.2861 7.38518C21.2731 7.44579 21.2691 7.49109 21.2759 7.52343C21.2882 7.58093 21.382 7.586 21.4208 7.52921C21.4549 7.47961 21.4573 7.4295 21.4433 7.3082L21.4432 7.3074C21.434 7.22837 21.4462 7.13609 21.4687 7.0961C21.4831 7.07075 21.4981 7.05365 21.5161 7.04845C21.542 7.04097 21.5651 7.06048 21.5845 7.10707C21.5874 7.11398 21.594 7.13021 21.6 7.14501C21.605 7.15732 21.6096 7.16864 21.6113 7.1728C21.6415 7.24499 21.6661 7.27622 21.7131 7.29109C21.7878 7.31469 21.8326 7.28047 21.8202 7.20066C21.8078 7.1221 21.727 7.02684 21.6069 6.93448C21.555 6.89464 21.5335 6.86188 21.5308 6.82416C21.5298 6.80936 21.5308 6.80071 21.5356 6.77009C21.5379 6.75507 21.5391 6.74571 21.5398 6.73513C21.5417 6.70629 21.5407 6.66624 21.5373 6.61596C21.536 6.59574 21.5343 6.57445 21.5322 6.55044L21.5252 6.47353L21.5423 6.46397C21.5554 6.4737 21.569 6.48204 21.5832 6.4891C21.6371 6.51594 21.6844 6.52198 21.7592 6.5206L21.7775 6.52035C21.8057 6.52035 21.8314 6.51535 21.8428 6.50614C21.8546 6.49669 21.8504 6.48053 21.8186 6.4513C21.7431 6.38209 21.7177 6.33836 21.6813 6.24142C21.6713 6.2149 21.6652 6.20033 21.6571 6.18445C21.6431 6.15726 21.6256 6.13354 21.601 6.10978C21.4861 5.99888 21.3853 5.83075 21.3517 5.69027C21.2955 5.45638 21.2176 5.27009 21.0989 5.16435C21.0177 5.09207 20.9874 4.90095 21.0084 4.65322C21.0355 4.32904 21.0001 4.15955 20.8302 4.06393C20.6389 3.95618 20.6079 3.85776 20.6913 3.73171C20.7792 3.5985 20.8642 3.52375 20.9653 3.51719C20.9798 3.51629 20.9935 3.51502 21.0061 3.51386C21.0332 3.51134 21.0545 3.50936 21.0657 3.51287Z" fill="black"/>
<path fill-rule="evenodd" clip-rule="evenodd" d="M19.402 3.95984C19.5672 3.96567 19.6273 3.97308 19.6691 4.0018L19.6737 4.01123C19.668 4.12153 19.6727 4.20091 19.691 4.26681C19.6488 4.42913 19.671 4.55107 19.7366 4.61727C19.8079 4.68908 19.8224 4.71102 19.8315 4.77459C19.8412 4.84358 19.8705 4.90264 19.9145 4.93821C19.96 4.97499 19.9945 5.03404 20.0005 5.07687C20.0045 5.10533 20.1494 5.24993 20.2128 5.28849C20.2243 5.29535 20.2322 5.30463 20.2411 5.31983C20.2425 5.32228 20.2462 5.32896 20.2495 5.33494C20.2519 5.33932 20.2541 5.34331 20.2551 5.34497C20.2567 5.34778 20.2583 5.35049 20.2599 5.35326C20.2645 5.36103 20.2694 5.36938 20.276 5.38229C20.2534 5.51489 20.2677 5.64737 20.3114 5.85033C20.1497 5.98566 19.9751 6.03754 19.8517 5.99852C19.7398 5.96315 19.6958 5.86079 19.7423 5.73326C19.6107 5.82619 19.436 5.88041 19.2886 5.8796C19.1368 5.87876 19.0511 5.81809 19.0852 5.71859C18.7184 5.84173 18.5144 5.77199 18.5647 5.60207C18.2611 5.71527 18.0097 5.63675 18.0494 5.50194C17.7888 5.56879 17.5621 5.54519 17.5169 5.47233C17.4887 5.42672 17.5325 5.33457 17.599 5.26474C17.4838 5.29855 17.3665 5.30228 17.2345 5.28238C17.1723 5.27291 17.1415 5.2583 17.1333 5.2334C17.1269 5.21441 17.1289 5.20866 17.1525 5.15685L17.1555 5.15022C17.1554 5.1504 17.171 5.11451 17.1763 5.10279C17.1857 5.08226 17.1949 5.06401 17.2053 5.04583C17.229 5.0044 17.2575 4.96625 17.2936 4.93008C16.9922 4.98648 16.7351 4.99423 16.5516 4.93235L16.5241 4.92349C16.4985 4.91499 16.4827 4.90757 16.4727 4.89709C16.4576 4.88132 16.4599 4.86158 16.4797 4.84162C16.5383 4.78257 16.6419 4.70667 16.7522 4.65014C16.2291 4.71907 15.7285 4.689 15.571 4.51018L15.5812 4.49253C15.728 4.52282 15.9168 4.48532 16.1207 4.40625C15.4528 4.31707 14.7125 3.88211 14.7035 3.50392L14.7233 3.49801C14.8588 3.71809 15.0396 3.82282 15.4121 3.93778C15.0896 3.72924 14.9035 3.47016 14.8873 3.2557L14.9054 3.24715C15.1688 3.5021 15.4826 3.70117 15.7707 3.76834C15.532 3.6131 15.2496 3.26169 15.1679 3.00961L15.1852 2.99828C15.3673 3.16205 15.7895 3.39337 16.0823 3.48364C15.8158 3.25978 15.5521 2.89805 15.5684 2.70807L15.5867 2.70142C15.6885 2.80424 15.9222 2.96939 16.2849 3.18229C16.5097 3.31415 16.6809 3.3747 16.9065 3.41637C16.9384 3.42227 16.9693 3.42753 17.0179 3.43549C17.1378 3.45514 17.182 3.46269 17.2387 3.4744C17.1862 3.39837 17.1344 3.2991 17.129 3.26644L17.1411 3.25405C17.2538 3.27029 17.3615 3.32063 17.6331 3.48954C17.764 3.571 17.9239 3.61887 18.312 3.70917L18.3299 3.71334C18.6432 3.78624 18.7824 3.82461 18.917 3.88384C18.9872 3.91476 19.0692 3.9341 19.167 3.94536C19.2331 3.95298 19.2809 3.95557 19.402 3.95984ZM19.652 4.01633C19.6521 4.01427 19.6522 4.0122 19.6523 4.01011L19.6569 4.01954C19.6553 4.01844 19.6537 4.01737 19.652 4.01633ZM15.6109 4.51936C15.7668 4.54046 15.9606 4.49544 16.1677 4.41065L16.1648 4.39001C15.5217 4.31785 14.7924 3.90842 14.7293 3.54668C14.8754 3.76154 15.0764 3.86243 15.4843 3.98194L15.4928 3.96234C15.1485 3.75969 14.9437 3.49933 14.9119 3.28308C15.1927 3.54898 15.5269 3.75106 15.8286 3.80192L15.8354 3.78183C15.6034 3.65796 15.304 3.30438 15.2018 3.04084C15.4118 3.21434 15.846 3.44464 16.1271 3.51888L16.1365 3.50001C15.8732 3.29333 15.5968 2.93074 15.5892 2.73391C15.7005 2.83896 15.9294 2.99856 16.2741 3.20086C16.5011 3.33404 16.6747 3.39542 16.9026 3.43752C16.9347 3.44345 16.9657 3.44873 17.0144 3.45672C17.1521 3.47928 17.1897 3.48584 17.2613 3.50111L17.2721 3.48416C17.2232 3.41827 17.1701 3.32194 17.1544 3.27796C17.258 3.29627 17.3661 3.34875 17.6218 3.50781C17.7555 3.59105 17.9164 3.63919 18.3072 3.73012L18.3251 3.73429C18.637 3.80686 18.7755 3.84504 18.9084 3.90353C18.9808 3.93543 19.0648 3.95524 19.1645 3.96673C19.2314 3.97444 19.2796 3.97704 19.4013 3.98134C19.5538 3.98672 19.6148 3.99366 19.652 4.01633C19.6466 4.12572 19.6516 4.2054 19.6704 4.26723C19.6263 4.43052 19.6499 4.56029 19.7214 4.63245C19.7898 4.70126 19.802 4.71982 19.8103 4.77762C19.8207 4.85165 19.8524 4.91567 19.9011 4.95496C19.9424 4.98838 19.9741 5.04256 19.9793 5.07987C19.9845 5.11684 20.1331 5.26517 20.2017 5.30692C20.2096 5.31163 20.2153 5.31837 20.2226 5.33072L20.2365 5.35567C20.243 5.36708 20.2493 5.37692 20.2568 5.38694C20.2316 5.51484 20.2463 5.64989 20.2941 5.84464C20.1411 5.96484 19.9737 6.01457 19.8581 5.97801C19.7488 5.94344 19.7127 5.83877 19.7774 5.70536L19.7611 5.69225C19.6308 5.79675 19.4436 5.85895 19.2887 5.85809C19.1389 5.85727 19.0673 5.79955 19.1139 5.70544L19.1008 5.6905C18.7177 5.82497 18.5255 5.75272 18.5924 5.58771L18.5785 5.57367C18.2644 5.69938 18.0153 5.61484 18.0768 5.4909L18.0644 5.47574C17.8035 5.547 17.5747 5.52495 17.5351 5.46099C17.51 5.42036 17.5709 5.31175 17.6488 5.24754L17.6384 5.22913C17.5117 5.27555 17.3842 5.28321 17.2377 5.26111C17.183 5.25278 17.1584 5.24113 17.1536 5.22661C17.15 5.21569 17.152 5.20966 17.172 5.1658L17.1751 5.15893C17.2298 5.0354 17.25 4.99996 17.3222 4.93226L17.3351 4.92059L17.3259 4.90197C17.0122 4.96397 16.7448 4.97481 16.5584 4.91196L16.5308 4.90307C16.5085 4.89567 16.4949 4.88926 16.4882 4.88219C16.4819 4.87566 16.4827 4.8691 16.4949 4.8568C16.563 4.78821 16.6947 4.69534 16.8249 4.63957L16.8192 4.61905C16.3039 4.69536 15.7932 4.6767 15.6109 4.51936ZM15.6109 4.51936C15.6022 4.51187 15.5942 4.50406 15.5871 4.49594L15.5769 4.51359C15.588 4.51588 15.5993 4.51781 15.6109 4.51936ZM17.1544 3.27796C17.1522 3.27188 17.1508 3.26681 17.1501 3.26295L17.1381 3.27534C17.1435 3.27612 17.1489 3.27699 17.1544 3.27796ZM15.5892 2.73391C15.5889 2.72561 15.5891 2.7176 15.5897 2.70992L15.5715 2.71658C15.577 2.72218 15.5829 2.72796 15.5892 2.73391ZM15.2018 3.04084C15.1968 3.02799 15.1923 3.01535 15.1883 3.00296L15.1709 3.01429C15.1806 3.02297 15.1909 3.03183 15.2018 3.04084ZM14.9119 3.28308C14.9105 3.27332 14.9094 3.26365 14.9087 3.25407L14.8905 3.26263C14.8976 3.26949 14.9047 3.2763 14.9119 3.28308ZM14.7293 3.54668C14.7267 3.53217 14.7253 3.51774 14.7249 3.5034L14.7051 3.50931C14.713 3.52215 14.721 3.53459 14.7293 3.54668Z" fill="black"/>
<path fill-rule="evenodd" clip-rule="evenodd" d="M21.8441 6.52368L21.8429 6.50599C21.8546 6.49666 21.8504 6.48043 21.8185 6.45129C21.743 6.38208 21.7176 6.33835 21.6812 6.24141C21.6712 6.21489 21.6651 6.20032 21.657 6.18444C21.643 6.15725 21.6255 6.13353 21.6009 6.10977C21.486 5.99887 21.3852 5.83074 21.3516 5.69026C21.2954 5.45637 21.2175 5.27008 21.0988 5.16434C21.0176 5.09206 20.9873 4.90093 21.0083 4.6532C21.0108 4.62275 21.0129 4.5938 21.0143 4.56624L21.0212 4.56995L21.021 4.57076L21.0222 4.57052L21.0352 4.57719C21.0338 4.60203 21.0319 4.62795 21.0296 4.65502C21.0092 4.89633 21.0386 5.08204 21.113 5.14826C21.236 5.25785 21.3153 5.44723 21.3724 5.68523C21.405 5.82156 21.5037 5.98612 21.6158 6.09427C21.6421 6.11969 21.6609 6.14531 21.676 6.17456C21.6847 6.19138 21.691 6.20657 21.7012 6.23382C21.7366 6.32788 21.7604 6.3689 21.8329 6.4354C21.8661 6.46568 21.8773 6.49191 21.8663 6.51132C21.8625 6.50941 21.8587 6.50735 21.855 6.50514L21.8562 6.52282C21.8606 6.51932 21.864 6.51547 21.8663 6.51132C21.9963 6.57634 22.1657 6.47057 22.1676 6.37244L22.1856 6.36473C22.3597 6.52542 22.5762 6.51224 22.6295 6.32818L22.6456 6.32215C22.7842 6.41207 23.0276 6.42196 23.0926 6.33438C23.182 6.21426 23.1294 6.12014 22.7671 5.89995L22.7754 5.88035C22.8886 5.91004 22.9796 5.85459 22.989 5.75963L23.0055 5.75166C23.1304 5.83284 23.236 5.84938 23.384 5.81846C23.5054 5.79314 23.5078 5.69997 23.4019 5.56253L23.4157 5.54661C23.5428 5.61935 23.6812 5.659 23.7752 5.64958C23.8745 5.63964 23.9118 5.57858 23.8714 5.4646L23.8837 5.45046C24.0323 5.48157 24.1502 5.47667 24.1839 5.42354C24.2246 5.35971 24.1462 5.24405 23.945 5.09177L23.9502 5.07249C24.0028 5.06668 24.0338 5.05906 24.0708 5.04261C24.2698 5.14319 24.7001 5.22344 24.9009 5.20889C25.0688 5.19687 25.1231 5.1177 25.0928 4.94256C25.5236 4.85879 25.92 4.72294 26.1824 4.52897C26.2108 4.50798 26.2236 4.49849 26.2398 4.48604C26.2628 4.46831 26.2824 4.45242 26.2996 4.43735C26.326 4.41407 26.3458 4.39333 26.3583 4.37544C26.3688 4.36957 26.3789 4.36368 26.3887 4.35776L26.3727 4.34611C26.3707 4.3548 26.3658 4.36459 26.3583 4.37544C26.1374 4.49888 25.7514 4.61326 25.0909 4.775L25.085 4.75434C25.6715 4.5615 26.5795 3.9743 26.6165 3.72327C26.6228 3.71773 26.6291 3.71214 26.6352 3.70651L26.6173 3.6996C26.618 3.70711 26.6177 3.715 26.6165 3.72327C26.4644 3.85621 26.25 3.962 25.8921 4.10014C25.8621 4.11172 25.8313 4.12348 25.7911 4.13872L25.6913 4.17659L25.6821 4.15724C26.0429 3.94729 26.3337 3.63913 26.3636 3.40253C26.3713 3.39295 26.3786 3.38319 26.3856 3.37323L26.3661 3.36692C26.3659 3.37859 26.3651 3.39047 26.3636 3.40253C26.2637 3.52671 26.0985 3.62234 25.7807 3.76549L25.7708 3.76991C25.7421 3.78279 25.6596 3.81981 25.633 3.83189C25.589 3.85189 25.5522 3.86899 25.5181 3.88547L25.5068 3.86735C25.6656 3.74127 25.7209 3.69641 25.8073 3.6211C25.97 3.47931 26.094 3.35059 26.1775 3.22906C26.2627 3.10502 26.3014 2.99361 26.2877 2.89604C26.2928 2.88804 26.2976 2.88001 26.3022 2.87195L26.2826 2.86916C26.2847 2.878 26.2865 2.88696 26.2877 2.89604C26.1723 3.07915 25.949 3.247 25.5915 3.44916C25.5348 3.48122 25.3927 3.55864 25.2928 3.61305C25.2423 3.64056 25.2026 3.66219 25.1902 3.6691L25.178 3.65155C25.4059 3.45445 25.5342 3.28183 25.5471 3.06408L25.5651 3.05069L25.548 3.04182C25.5479 3.04929 25.5475 3.05671 25.5471 3.06408C25.0596 3.42406 24.4614 3.68014 23.8348 3.83256L23.829 3.81841L23.8267 3.8129C23.9794 3.72051 24.1394 3.54792 24.1865 3.42547L24.212 3.40848L24.1956 3.39697C24.1933 3.4061 24.1903 3.41562 24.1865 3.42547C23.7274 3.72669 23.0445 3.92964 22.5447 3.9629C22.0925 3.99276 21.7998 4.03079 21.4461 4.11562C21.3787 4.04752 21.1799 4.05115 20.9325 4.1188C20.9285 4.11435 20.9244 4.10997 20.9201 4.10565L20.9154 4.12355L20.9325 4.1188C21.0185 4.21463 21.0447 4.34145 21.0368 4.54207L21.0169 4.54601L21.0145 4.56152C21.0252 4.34534 20.9984 4.21569 20.9049 4.12076L20.9096 4.10285C21.1723 4.02856 21.3846 4.02301 21.4511 4.09762C21.796 4.00956 22.0899 3.97138 22.5433 3.94144C23.0489 3.90779 23.7444 3.69891 24.2 3.39065L24.2164 3.40216C24.1877 3.51784 24.0424 3.68853 23.8906 3.7965C24.5001 3.64119 25.0798 3.38682 25.5523 3.03344L25.5694 3.04231C25.5646 3.25485 25.4573 3.42314 25.2613 3.60576L25.2829 3.59397L25.283 3.59392L25.2833 3.59378C25.3831 3.53939 25.5245 3.46233 25.5809 3.43043C25.9508 3.22127 26.1755 3.04937 26.2837 2.86121L26.3034 2.864C26.3307 2.97494 26.2914 3.10111 26.1951 3.24126C26.1105 3.36457 25.9853 3.49447 25.8214 3.63734C25.7492 3.70024 25.6987 3.74194 25.5922 3.8269L25.6241 3.8123C25.6507 3.80022 25.733 3.76334 25.7618 3.75038L25.7719 3.74587C26.1105 3.59337 26.2739 3.49545 26.368 3.36088L26.3875 3.36718C26.3847 3.5963 26.1279 3.89557 25.7891 4.11647L25.8844 4.08007C26.2548 3.93712 26.4702 3.82918 26.6207 3.69066L26.6386 3.69756C26.6602 3.9252 25.8762 4.45988 25.2705 4.70828C25.846 4.56341 26.1849 4.45607 26.3776 4.33935L26.3936 4.35101C26.3869 4.37982 26.3594 4.41327 26.3137 4.45352C26.2962 4.46895 26.2762 4.48512 26.2528 4.50311C26.2364 4.51568 26.2236 4.52522 26.1951 4.54629C25.9295 4.74261 25.5306 4.87935 25.1053 4.95062C25.1469 5.12531 25.0839 5.21735 24.9024 5.23034C24.6979 5.24516 24.2637 5.16419 24.0715 5.06143C24.0465 5.07647 24.0191 5.0847 23.9787 5.09057C24.1733 5.24175 24.25 5.35981 24.202 5.43511C24.1628 5.4969 24.0465 5.50405 23.8974 5.47516C23.9321 5.59141 23.8852 5.66018 23.7774 5.67098C23.6886 5.67987 23.5649 5.648 23.4462 5.58749C23.5313 5.71648 23.5176 5.81257 23.3884 5.83952C23.2406 5.87038 23.1318 5.8553 23.0078 5.77861C22.9915 5.8617 22.9178 5.91408 22.8237 5.90957C23.1546 6.11644 23.205 6.2193 23.1097 6.34724C23.0385 6.4433 22.7943 6.43599 22.6459 6.34759C22.5827 6.53153 22.3642 6.54615 22.1865 6.39427C22.1629 6.50376 21.9809 6.6044 21.8441 6.52368ZM21.5108 4.50628C21.516 4.49227 21.5199 4.47712 21.5224 4.4608L21.5098 4.44863L21.0368 4.54207L21.0361 4.55675L21.0241 4.55011L21.0212 4.56995L21.0222 4.57052L21.0356 4.56778L21.0352 4.57719C21.219 4.66943 21.4221 4.6641 21.4963 4.53704C21.6573 4.62451 21.9117 4.58165 21.9937 4.45906C22.2246 4.54263 22.4403 4.49245 22.4788 4.28064L22.4648 4.26853L22.0116 4.42396C22.018 4.40589 22.021 4.3865 22.02 4.36591L21.5108 4.50628ZM21.5061 4.5179C21.5078 4.51411 21.5094 4.51024 21.5108 4.50628L21.4894 4.5122L21.487 4.53177L21.4963 4.53704L21.4994 4.53163L21.5205 4.52525C21.6721 4.59779 21.9002 4.5566 21.982 4.45468L21.9937 4.45906C21.9955 4.45643 21.9972 4.45377 21.9988 4.45107L22.0176 4.44461C22.2241 4.51373 22.4106 4.4699 22.4538 4.29502L22.4717 4.28888L22.4577 4.27678C22.4565 4.28301 22.4552 4.28909 22.4538 4.29502L22.0176 4.44461C22.0133 4.44317 22.009 4.44169 22.0047 4.44015C22.0073 4.43488 22.0096 4.42948 22.0116 4.42396L21.9991 4.42824C22.0072 4.41219 22.0118 4.39497 22.0124 4.37675L21.5205 4.52525C21.5156 4.52292 21.5108 4.52047 21.5061 4.5179ZM21.9946 4.43647C21.998 4.43772 22.0013 4.43895 22.0047 4.44015C22.0029 4.44385 22.0009 4.44749 21.9988 4.45107L21.9886 4.45456L21.9888 4.44558C21.9908 4.44259 21.9928 4.43955 21.9946 4.43647ZM21.9946 4.43647C21.9927 4.43577 21.9908 4.43506 21.9889 4.43434L21.9888 4.44558C21.9866 4.44867 21.9844 4.4517 21.982 4.45468L21.9813 4.45444L21.9817 4.43421L21.9991 4.42824C21.9977 4.43102 21.9962 4.43376 21.9946 4.43647ZM21.5061 4.5179C21.504 4.52262 21.5018 4.52719 21.4994 4.53163L21.4955 4.53279L21.4979 4.51322L21.5061 4.5179ZM21.0512 4.5646L21.0356 4.56778L21.0361 4.55675L21.0512 4.5646ZM21.4984 4.47331C21.4615 4.64191 21.2477 4.66368 21.0512 4.5646L21.4984 4.47331ZM21.4984 4.47331C21.4995 4.4682 21.5004 4.46295 21.5012 4.45757L21.5139 4.47014L21.4984 4.47331ZM23.8287 3.81851L22.8628 4.13032L22.8679 4.15116C22.9702 4.13401 23.1311 4.08661 23.345 4.01369C23.3746 4.00362 23.4051 3.99308 23.4367 3.98204C23.5431 3.94481 23.8464 3.83504 23.8359 3.83878L23.829 3.81841L23.8289 3.81843L23.8287 3.81851ZM23.8287 3.81851C23.8189 3.82212 23.5324 3.9258 23.4296 3.96173C23.3981 3.97276 23.3676 3.98327 23.3381 3.99333C23.1253 4.06588 22.9651 4.11305 22.8643 4.12995L22.8694 4.15079L23.8356 3.83888L23.8287 3.81851ZM21.0145 4.56152L21.0143 4.56624L21.0138 4.566L21.0145 4.56152ZM17.2499 3.49341C17.3181 3.59297 17.4973 3.73894 17.6101 3.77444C17.6183 3.85347 17.6517 3.93003 17.7078 3.99175L17.1975 3.82804L17.1839 3.84106C17.1958 3.88566 17.2159 3.92494 17.242 3.95847L16.8905 3.81595C16.9196 3.8165 16.9515 3.81453 16.9863 3.80988L16.9921 3.79125L16.9103 3.71704L17.2499 3.49341ZM16.8793 3.56865L17.2499 3.49341L17.2652 3.47877L17.6082 3.74228L17.6085 3.75124C17.5901 3.74478 17.5701 3.73543 17.549 3.7239L17.3334 3.55822C17.3065 3.53125 17.2837 3.5048 17.2675 3.48121L17.2522 3.49585L17.3334 3.55822C17.3949 3.62004 17.4774 3.68463 17.549 3.7239L17.6098 3.77054L17.6101 3.77444L17.6199 3.77728L17.6291 3.75834L17.6082 3.74228C17.6081 3.73401 17.6082 3.72574 17.6087 3.71747L17.6241 3.70835L18.3971 4.08576C18.3977 4.09067 18.3986 4.09553 18.3998 4.10035L18.3853 4.10395L17.6296 3.73498C17.6296 3.72951 17.6298 3.72404 17.6301 3.71857L17.6147 3.72769L17.6296 3.73498C17.629 3.88561 17.7262 4.03492 17.9027 4.08811C18.0592 4.13526 18.2127 4.14111 18.3424 4.11588C18.3093 4.12581 18.2763 4.13736 18.244 4.15017C18.1358 4.15735 18.017 4.145 17.8966 4.10871C17.8367 4.09067 17.7854 4.06208 17.7435 4.02629L17.7485 4.0223L17.745 4.00369L17.7078 3.99175C17.714 3.99858 17.7205 4.00522 17.7273 4.01166L17.7188 4.01785L17.2104 3.85475C17.2083 3.84845 17.2063 3.84204 17.2046 3.8355L17.191 3.84852L17.2104 3.85475C17.2324 3.92014 17.274 3.97222 17.3261 4.00925L17.277 3.99681L17.2765 3.9964L17.2812 3.99497L17.2821 3.97472L17.242 3.95847C17.2475 3.9656 17.2534 3.97246 17.2594 3.97906L17.2454 3.98306L16.8263 3.8131L16.8276 3.8101C16.8468 3.81355 16.8678 3.81552 16.8905 3.81595L16.8247 3.78926L16.811 3.79466L16.8062 3.80551C16.799 3.80368 16.792 3.8016 16.7854 3.7993L16.8086 3.78401C16.8487 3.79474 16.8991 3.79757 16.9602 3.79132L16.9777 3.8072L16.9835 3.78857C16.9756 3.78963 16.9678 3.79054 16.9602 3.79132L16.8918 3.72923L16.9103 3.71704L16.7709 3.59065L16.8272 3.57922C16.8428 3.58168 16.8584 3.58385 16.8741 3.58573L16.8793 3.56865ZM16.8751 3.56951L16.8793 3.56865L16.8803 3.56549L15.9043 3.06175L15.8921 3.07912C16.1255 3.30093 16.3966 3.47039 16.682 3.54802C16.6734 3.56747 16.6678 3.58942 16.6658 3.612L16.5353 3.63849L16.1286 3.49352L16.1182 3.51196C16.1949 3.57534 16.2994 3.62211 16.4327 3.65933L15.8334 3.78101L15.8333 3.78098L15.8273 3.8023L15.8274 3.80233L16.2246 3.92557C16.2207 3.96295 16.2422 4.00503 16.2923 4.04363C16.31 4.05721 16.3311 4.0702 16.3551 4.08261C16.3043 4.10698 16.2852 4.14681 16.2959 4.18946L15.4902 3.96126L15.4816 3.98069C15.6892 4.11283 15.9489 4.18337 16.3062 4.21574C16.3159 4.23407 16.3308 4.25245 16.351 4.2699C16.3268 4.29812 16.3174 4.32985 16.321 4.36217C16.273 4.36064 16.2044 4.37286 16.1596 4.39167L16.1652 4.41295L16.3263 4.3869C16.336 4.41789 16.3572 4.44872 16.3884 4.47682C16.6479 4.71161 17.2884 4.70709 17.8943 4.49617C17.908 4.52678 17.9433 4.54783 17.9998 4.56365C18.0227 4.57009 18.0459 4.57558 18.0695 4.58014L17.3237 4.90264L17.3295 4.92315C17.556 4.88987 17.874 4.74213 18.109 4.58689C18.1713 4.59614 18.2352 4.59906 18.2996 4.59605C18.2721 4.64738 18.2673 4.71314 18.2872 4.76889L17.4984 5.04861L17.505 5.06907C17.7647 4.99252 18.1042 4.87379 18.2958 4.78928C18.3194 4.83692 18.3633 4.87395 18.4291 4.8825L17.6377 5.22937L17.6447 5.24964C17.8296 5.20168 18.1962 5.04144 18.4769 4.88679C18.5573 4.89117 18.6461 4.88248 18.7377 4.86359C18.7206 4.89911 18.7105 4.93414 18.7071 4.96743L17.9513 5.32204L17.9585 5.3422C18.1875 5.28348 18.3943 5.18 18.7058 4.99356C18.706 5.04375 18.7223 5.08893 18.7537 5.12445L18.0623 5.47323L18.0693 5.49336C18.1445 5.47759 18.2341 5.44358 18.3359 5.39418C18.3916 5.36711 18.4502 5.33584 18.5112 5.3009C18.5983 5.25101 18.6669 5.20824 18.7704 5.14116C18.8054 5.17224 18.8543 5.1936 18.9161 5.20104C18.9232 5.20189 18.9304 5.20253 18.9378 5.20295L18.3719 5.46828L18.3786 5.48854C18.5043 5.46184 18.6243 5.41263 18.7536 5.34144C18.7828 5.32537 18.8423 5.28993 18.8953 5.25833L18.8954 5.25832C18.9366 5.23375 18.974 5.21151 18.9901 5.2025C19.0547 5.19799 19.1266 5.17944 19.2026 5.14823C19.1687 5.20147 19.1505 5.24407 19.1477 5.28154L18.5696 5.57076L18.5779 5.59054C18.6795 5.55503 18.9732 5.40507 19.1481 5.3064C19.1511 5.33136 19.1615 5.3544 19.1795 5.37746C19.1974 5.40047 19.2187 5.41296 19.2467 5.41517L18.8502 5.59988L18.8587 5.61961C18.9949 5.56458 19.1807 5.47841 19.3377 5.39769C19.38 5.38224 19.4321 5.35681 19.4973 5.32164C19.5487 5.29404 19.6091 5.25487 19.6784 5.20518C19.6966 5.19213 19.7153 5.17841 19.7347 5.16397C19.7199 5.21763 19.7192 5.26389 19.7309 5.30247L19.0955 5.68818L19.1049 5.70742C19.2751 5.642 19.5903 5.44463 19.7393 5.32466C19.7556 5.35975 19.7836 5.38728 19.8217 5.40695L19.3802 5.6883L19.3901 5.70728C19.5582 5.63598 19.7528 5.51022 19.8467 5.41819L19.8509 5.41981C19.949 5.45643 20.0478 5.45753 20.1403 5.40879L19.7613 5.69376L19.7732 5.71162C19.958 5.60184 20.1774 5.43957 20.2494 5.35332L20.2348 5.3378L20.2339 5.33846L20.2309 5.32193L19.7841 5.12666C19.8087 5.10778 19.8343 5.08785 19.8624 5.0658L19.953 4.99408L19.9444 4.97506L19.6516 5.02932L19.8563 4.87237L19.8439 4.8549C19.7784 4.89895 19.6793 4.97096 19.5867 5.04136L19.3223 5.09037C19.4792 5.00358 19.6454 4.86996 19.7951 4.70029L19.7856 4.68252L19.3992 4.73767L19.4508 4.70352L19.5678 4.62504C19.6123 4.5954 19.6478 4.57224 19.6815 4.55105L19.6704 4.53267L19.6701 4.53282L19.3 4.75185L18.9582 4.80063C19.1686 4.72463 19.3693 4.60729 19.4923 4.48249C19.5445 4.47525 19.5985 4.4651 19.6534 4.45181L19.6561 4.45235L19.6561 4.45114L19.6607 4.45001L19.6602 4.42901L19.0188 4.30575C19.0597 4.3027 19.1017 4.29779 19.1445 4.29087L19.1459 4.26994L18.4099 4.05402L18.3962 4.06382C18.3958 4.07123 18.3961 4.07854 18.3971 4.08576L18.4212 4.09754L18.4219 4.09994L18.4189 4.09845L18.4151 4.09797L18.4151 4.09776L18.4146 4.09791L18.4117 4.09756L18.3998 4.10035L18.4003 4.10214L18.3883 4.1054L18.3853 4.10395C18.3711 4.1076 18.3567 4.11159 18.3424 4.11588C18.3581 4.11284 18.3734 4.10934 18.3883 4.1054L18.4036 4.11288L18.4068 4.12079C18.3872 4.12547 18.3675 4.13081 18.3477 4.13675C18.3145 4.14326 18.2799 4.14779 18.244 4.15017C18.1995 4.16785 18.1564 4.18793 18.1167 4.20944L17.6238 4.08465C17.6667 4.07356 17.7075 4.05428 17.7435 4.02629L17.738 4.02154L17.735 4.00557L17.7273 4.01166L17.738 4.02154L17.7385 4.02418L17.7188 4.01785C17.6756 4.0482 17.6258 4.06597 17.5744 4.07212L17.3261 4.00925C17.351 4.027 17.3783 4.04129 17.407 4.05192L17.3168 4.02909C17.3028 4.01934 17.2895 4.00857 17.277 3.99681L17.276 3.99656L17.2765 3.9964L17.2741 3.99406L17.2749 3.97441L17.2594 3.97906C17.2641 3.98423 17.269 3.98923 17.2741 3.99406L17.274 3.99466L17.2454 3.98306L17.2345 3.98606L16.8136 3.87951C16.8126 3.85872 16.8168 3.83637 16.8263 3.8131L16.8167 3.80919L16.8187 3.80839L16.8276 3.8101L16.8304 3.80379L16.8187 3.80839L16.8062 3.80551C16.7963 3.82976 16.7916 3.85309 16.7917 3.87498C16.7584 3.86866 16.7268 3.86289 16.6967 3.8577L16.7854 3.7993C16.7401 3.7837 16.7075 3.75753 16.6873 3.72221L16.6829 3.71387L16.6836 3.71399L16.689 3.69326L16.6726 3.68743C16.6655 3.66324 16.6635 3.63723 16.6658 3.612L16.6878 3.60752C16.6834 3.64317 16.6886 3.68117 16.7059 3.71151C16.7257 3.74603 16.7595 3.77091 16.8086 3.78401L16.8918 3.72923L16.7448 3.59596L16.7709 3.59065L16.7398 3.56243C16.7688 3.56901 16.798 3.57462 16.8272 3.57922L16.8508 3.57444L16.8705 3.58462L16.8751 3.56951ZM16.8134 3.55516C16.8344 3.55876 16.8555 3.56184 16.8766 3.56438L16.8751 3.56951L16.8508 3.57444L16.8134 3.55516ZM16.7065 3.53226C16.742 3.54137 16.7776 3.54903 16.8134 3.55516L15.9657 3.11759C15.9458 3.09994 15.9262 3.0819 15.9068 3.0635L15.8945 3.08087L15.9657 3.11759C16.1874 3.31453 16.4399 3.46317 16.7038 3.53156L16.6889 3.53404C16.6864 3.53853 16.6841 3.5432 16.682 3.54802L16.6961 3.55177L16.7016 3.55675C16.6948 3.57223 16.6901 3.58958 16.6878 3.60752L16.7448 3.59596L16.7016 3.55675L16.703 3.55357C16.7153 3.55669 16.7275 3.55965 16.7398 3.56243L16.7065 3.53226ZM16.703 3.55357C16.7045 3.55046 16.706 3.54743 16.7076 3.54449L16.6911 3.54725L16.6961 3.55177L16.703 3.55357ZM16.7065 3.53226L16.7055 3.53129L16.7038 3.53156L16.7065 3.53226ZM16.6735 3.69041L16.6726 3.68743L16.5353 3.63849L16.4945 3.64677L16.1956 3.54023C16.1724 3.52626 16.1512 3.51134 16.1318 3.49535L16.1214 3.51379L16.1956 3.54023C16.2704 3.58527 16.3651 3.62047 16.4802 3.64968L16.4327 3.65933C16.507 3.68007 16.5904 3.69785 16.6829 3.71387L16.6822 3.71232L16.6872 3.6928L16.6735 3.69041ZM16.547 3.66547L16.4945 3.64677L16.4802 3.64968C16.5018 3.65514 16.524 3.6604 16.547 3.66547ZM16.547 3.66547C16.587 3.6743 16.6292 3.68257 16.6735 3.69041C16.6759 3.69793 16.6788 3.70526 16.6822 3.71232L16.6818 3.71353L16.547 3.66547ZM16.6703 3.87507L16.6967 3.8577C16.4914 3.82228 16.3588 3.8136 16.2993 3.83979C16.264 3.85547 16.2405 3.8777 16.2302 3.90333C16.1843 3.88546 16.141 3.8705 16.0933 3.85581C16.0744 3.84999 16.0547 3.84416 16.032 3.83765C16.0453 3.84148 15.8869 3.79694 15.8334 3.78102L15.8334 3.78101L15.8274 3.80233C15.8809 3.81827 16.0398 3.86294 16.0263 3.85907C16.0488 3.86554 16.0684 3.87133 16.0872 3.87711C16.1034 3.88211 16.1191 3.88714 16.1346 3.8923L16.2246 3.92557L16.2484 3.95412C16.2551 3.9774 16.2737 4.00217 16.3054 4.02656L16.3137 4.03272L16.3551 4.08261C16.3627 4.08653 16.3706 4.0904 16.3788 4.0942L16.3784 4.09422L16.3794 4.09449L16.3809 4.09517C16.2966 4.12533 16.293 4.19702 16.37 4.25873L16.3679 4.25843L16.3588 4.26149C16.3561 4.26426 16.3535 4.26706 16.351 4.2699C16.3563 4.27444 16.3619 4.27892 16.3678 4.28332C16.3224 4.33576 16.3382 4.4027 16.4027 4.46083C16.6499 4.68448 17.2635 4.68454 17.8521 4.48785L17.8932 4.49361L17.8943 4.49617L17.9016 4.49359L17.8996 4.47279L17.8993 4.47275L17.9007 4.45357L17.8887 4.45055C17.8914 4.42921 17.9005 4.40456 17.9159 4.37595C17.9397 4.33207 17.9929 4.28494 18.062 4.24139C18.0816 4.2381 18.1002 4.23454 18.1177 4.23072L18.1181 4.20979L18.1167 4.20944L18.1132 4.21137L18.1132 4.20971C18.0983 4.21294 18.0827 4.21599 18.0663 4.21884L17.5729 4.09392C17.5901 4.09206 17.6071 4.08898 17.6238 4.08465L17.5744 4.07212C17.5439 4.07577 17.5128 4.07532 17.4823 4.07097L17.407 4.05192C17.4313 4.06094 17.4566 4.06733 17.4823 4.07097L17.5729 4.09392C17.4838 4.10357 17.3908 4.08052 17.3168 4.02909L17.2345 4.00825C17.2481 4.00472 17.2619 4.00083 17.276 3.99656L17.2345 3.98606C17.2192 3.99014 17.2044 3.99377 17.1899 3.99695L16.8171 3.90255C16.8152 3.89512 16.814 3.88742 16.8136 3.87951L16.8087 3.87826L16.8081 3.87813L16.7917 3.87498C16.7917 3.88257 16.7923 3.89 16.7935 3.89722C16.7498 3.88887 16.7087 3.88147 16.6703 3.87507ZM16.3757 4.06907C16.3522 4.05748 16.3314 4.04536 16.3137 4.03272L16.2484 3.95412C16.2373 3.91564 16.2589 3.88124 16.308 3.85947C16.36 3.83655 16.483 3.84386 16.6703 3.87507L16.3757 4.06907ZM16.3858 4.07391L16.3836 4.07335L16.3776 4.07359C16.3695 4.07629 16.362 4.07931 16.3551 4.08261L16.3757 4.06907L16.3858 4.07391ZM16.3858 4.07391C16.507 4.13094 16.6952 4.17474 16.907 4.20454L16.3858 4.07391ZM17.0737 4.24631L16.907 4.20454C17.306 4.26067 17.789 4.26715 18.0663 4.21884L18.0895 4.22473C18.0801 4.23021 18.0709 4.23577 18.062 4.24139C17.82 4.28211 17.4312 4.28281 17.0737 4.24631ZM16.9024 4.22554C16.9581 4.23344 17.0155 4.24037 17.0737 4.24631L17.8887 4.45055L17.8883 4.45413C17.8702 4.45577 17.8512 4.45718 17.8314 4.45836L16.9024 4.22554ZM16.3814 4.09499L16.3844 4.09398L16.3788 4.0942L16.3794 4.09449L16.3814 4.09499ZM16.3814 4.09499L16.9024 4.22554C16.692 4.19573 16.5044 4.15205 16.3809 4.09517L16.3814 4.09499ZM17.8755 4.46942L17.8314 4.45836L17.8061 4.45971L16.37 4.25873C16.3818 4.26817 16.3955 4.27738 16.411 4.28618L16.3703 4.28048L16.374 4.27666L16.3649 4.27972L16.3703 4.28048L16.3678 4.28332C16.3924 4.30149 16.4229 4.31831 16.4592 4.33259C16.7092 4.43098 17.4014 4.50029 17.8051 4.48128L17.8521 4.48785L17.8874 4.47579L17.8885 4.4757C17.8893 4.482 17.8909 4.48796 17.8932 4.49361L17.8966 4.49409L17.8947 4.47511L17.8991 4.4747L17.8993 4.47275L17.8957 4.47224L17.8971 4.4533L17.8883 4.45413C17.8877 4.46006 17.8876 4.46574 17.888 4.47117L17.8755 4.46942ZM17.8881 4.47258L17.8755 4.46942L17.8061 4.45971C17.7648 4.46169 17.7204 4.46273 17.6737 4.4629L16.411 4.28618C16.4276 4.29552 16.4462 4.30439 16.467 4.31257C16.6888 4.39984 17.2677 4.46437 17.6737 4.4629L17.8051 4.48128C17.8341 4.47992 17.8616 4.47809 17.8874 4.47579L17.8885 4.47543L17.8885 4.4757L17.8947 4.47511L17.8947 4.47422L17.8955 4.47443L17.8957 4.47224L17.888 4.47117L17.8881 4.47258ZM17.8931 4.47382L17.8947 4.47422L17.8946 4.47329L17.8931 4.47382ZM17.8931 4.47382L17.8881 4.47258L17.8885 4.47543L17.8931 4.47382ZM16.8038 3.89919L16.8171 3.90255C16.8399 3.99289 16.9716 4.04494 17.1899 3.99695L17.2345 4.00825C16.9738 4.07618 16.8124 4.01087 16.7935 3.89722L16.8038 3.89919ZM16.8038 3.89919L16.8041 3.89925L16.8035 3.89911L16.8038 3.89919ZM18.0895 4.22473C18.0972 4.22023 18.1051 4.21577 18.1132 4.21137L18.1129 4.23064L18.0895 4.22473ZM16.2247 3.92493C16.1942 3.913 16.1649 3.90239 16.1346 3.8923L15.8334 3.78102L16.2299 3.90401C16.2273 3.91077 16.2255 3.91776 16.2247 3.92493ZM16.2247 3.92493L16.2323 3.9279L16.2392 3.90688L16.2299 3.90401L16.2302 3.90333L16.2399 3.90714L16.233 3.92817L16.2246 3.92557L16.2247 3.92493ZM18.4075 4.12244L18.4068 4.12079L18.4127 4.11939L18.4146 4.12036L18.4075 4.12244ZM18.6765 4.2847C18.5378 4.25328 18.4397 4.19456 18.4075 4.12244C18.3882 4.12794 18.3682 4.13273 18.3477 4.13675C18.1645 4.19194 17.9824 4.29814 17.9348 4.3862C17.8853 4.47786 17.9064 4.51518 18.0056 4.54294C18.294 4.62407 18.6375 4.55037 18.8998 4.36646L18.9105 4.3719C18.9122 4.37505 18.9141 4.37816 18.9162 4.38121C18.8092 4.45687 18.6889 4.51449 18.564 4.5511L18.3172 4.5751L18.3094 4.57976C18.3059 4.585 18.3026 4.59043 18.2996 4.59605L18.3223 4.59474L18.3193 4.59651L18.3244 4.59601C18.2665 4.68761 18.2973 4.8441 18.4324 4.86124C18.4445 4.86278 18.4569 4.86396 18.4695 4.8648L18.4291 4.8825L18.4297 4.88258L18.438 4.88356C18.3446 4.93409 18.243 4.98479 18.1426 5.03153L17.9109 5.1331C17.8039 5.17682 17.7086 5.21085 17.6393 5.22881L17.6463 5.24908L17.9109 5.1331C17.9842 5.10311 18.0631 5.06857 18.1426 5.03153L18.4733 4.88659L18.4769 4.88679L18.4927 4.87805L18.4866 4.86574C18.568 4.8692 18.6581 4.85922 18.7507 4.83885C18.746 4.84712 18.7417 4.85537 18.7377 4.86359L18.7648 4.85773C18.6805 5.01365 18.74 5.15818 18.9187 5.17969C18.9392 5.18216 18.961 5.18271 18.9838 5.18139L18.9378 5.20295L18.9459 5.20333L18.8832 5.24053C18.8511 5.25967 18.8168 5.28009 18.7885 5.29668L18.4945 5.43452C18.4546 5.4479 18.4147 5.4589 18.3742 5.4675L18.3809 5.48776L18.4945 5.43452C18.5761 5.40714 18.6576 5.36978 18.7433 5.32259C18.7545 5.31643 18.7703 5.30735 18.7885 5.29668L18.9892 5.20256L18.9901 5.2025L18.9949 5.19989L18.9857 5.18127C19.057 5.17683 19.1382 5.15424 19.2244 5.11553C19.2165 5.12687 19.2092 5.13776 19.2026 5.14823C19.2145 5.14332 19.2266 5.13811 19.2387 5.13258C19.1611 5.24527 19.1501 5.30479 19.1964 5.36421C19.2212 5.39608 19.2573 5.4019 19.3208 5.38063L19.2467 5.41517L19.2548 5.41552C19.1162 5.48441 18.9657 5.55322 18.8507 5.59966L18.8592 5.61939L19.327 5.40147L19.3377 5.39769L19.3619 5.3852L19.3536 5.36828C19.39 5.35328 19.4338 5.33146 19.4872 5.30269C19.5376 5.27559 19.5973 5.23688 19.6659 5.18769C19.6899 5.1705 19.7148 5.15213 19.7409 5.13249L19.7461 5.12854C19.7417 5.14069 19.7379 5.1525 19.7347 5.16397L19.7538 5.14968L19.7641 5.14181C19.7164 5.27722 19.7566 5.36191 19.8584 5.39964C19.979 5.44466 20.0993 5.43311 20.2074 5.33511L20.2223 5.34164L20.2192 5.32406L20.2074 5.33511L19.7645 5.14155L19.7841 5.12666L19.7624 5.11719L19.7594 5.11845C19.7876 5.09701 19.8168 5.07436 19.8491 5.04888L19.9057 5.0041L19.9483 4.99621L19.9397 4.97718L19.9057 5.0041L19.614 5.05817L19.6516 5.02932L19.6339 5.03261C19.7157 4.97113 19.7988 4.91114 19.8558 4.87276L19.8433 4.85528L19.6051 5.03795L19.5867 5.04136L19.5489 5.07023L19.2559 5.12454C19.2778 5.11411 19.3 5.10272 19.3223 5.09037L19.2495 5.10386C19.4147 5.02459 19.596 4.88805 19.7594 4.70797L19.7886 4.70381L19.7791 4.68603L19.7594 4.70797L19.3565 4.7655L19.3992 4.73767L19.3556 4.74391L19.6813 4.5512L19.6701 4.53282C19.6362 4.55414 19.6006 4.57739 19.556 4.60713L19.4389 4.68562C19.4071 4.70683 19.3772 4.72653 19.3488 4.74487L19.3 4.75185L19.2516 4.78048L18.8354 4.83989C18.8764 4.82851 18.9175 4.81535 18.9582 4.80063L18.8311 4.81878C19.0683 4.75267 19.3104 4.62549 19.457 4.48696C19.4687 4.48561 19.4804 4.48413 19.4923 4.48249L19.4951 4.4796L19.4876 4.46383C19.5262 4.45844 19.5658 4.45141 19.6062 4.44261L19.6534 4.45181L19.6561 4.45114L19.6556 4.43104C19.639 4.43519 19.6226 4.43905 19.6062 4.44261L18.9241 4.3096C18.9549 4.30942 18.9865 4.30817 19.0188 4.30575L18.9269 4.2881C18.9797 4.28766 19.0351 4.284 19.0925 4.27668L19.1398 4.29058L19.1411 4.26964C19.1248 4.27228 19.1085 4.27462 19.0925 4.27668L18.4179 4.07876C18.4175 4.07416 18.4174 4.06953 18.4176 4.06486L18.4039 4.07466L18.4179 4.07876C18.4184 4.08509 18.4195 4.09136 18.4212 4.09754L18.4229 4.09837L18.4228 4.10038L18.4219 4.09994L18.4226 4.10227L18.4214 4.11832L18.4146 4.12036L18.4365 4.13143C18.4759 4.19336 18.5742 4.24402 18.7092 4.26976L18.7707 4.30097C18.7531 4.29879 18.7359 4.29622 18.7192 4.29328L18.7112 4.27328L18.6765 4.2847ZM18.6857 4.28672L18.6765 4.2847L18.241 4.42794L18.2455 4.44956C18.4425 4.42459 18.5549 4.38256 18.7194 4.29372L18.7192 4.29328L18.7171 4.2929L18.7095 4.27399L18.6857 4.28672ZM18.5679 4.34371L18.7177 4.29444L18.7171 4.2929C18.7064 4.29099 18.6959 4.28893 18.6857 4.28672C18.6441 4.30867 18.6056 4.32748 18.5679 4.34371ZM18.3916 4.40169C18.4547 4.38705 18.5105 4.36837 18.5679 4.34371L18.3916 4.40169ZM18.3916 4.40169C18.3468 4.4121 18.2983 4.42046 18.2429 4.42748L18.2475 4.4491L18.3916 4.40169ZM18.8294 4.30662C18.8093 4.30521 18.7897 4.30332 18.7707 4.30097L18.8998 4.36646L18.9059 4.36212C18.9073 4.36543 18.9088 4.36869 18.9105 4.3719L18.9157 4.3745L18.9142 4.35619L18.9059 4.36212C18.9033 4.35578 18.9014 4.34927 18.9002 4.34257L18.9253 4.35531L18.9268 4.37362L18.9162 4.38121C18.9428 4.42079 18.9987 4.45176 19.0753 4.47157L18.9916 4.50951L18.564 4.5511C18.4855 4.57412 18.4052 4.58884 18.3254 4.59452L18.3271 4.59185L18.3223 4.59474L18.3254 4.59452L18.3244 4.59601L18.9309 4.53702L18.5652 4.7028L18.5728 4.72286C18.7195 4.67657 18.8811 4.60466 19.0237 4.52799L19.3682 4.49448C19.3971 4.49294 19.4267 4.49045 19.457 4.48696L19.4583 4.48572L19.4885 4.48279L19.4799 4.46487L19.4876 4.46383L19.4864 4.46138L19.3229 4.47729C19.0742 4.48247 18.9023 4.41245 18.922 4.30961L18.9241 4.3096L18.922 4.3092C18.9227 4.30609 18.9234 4.30295 18.9244 4.29978L18.9121 4.30727L18.922 4.3092L18.922 4.30961L18.9001 4.30952C18.901 4.30424 18.9022 4.29887 18.9039 4.29342L18.9127 4.28815L18.9269 4.2881L18.9162 4.28604L18.9127 4.28815C18.8651 4.28802 18.8198 4.28527 18.7773 4.28023L18.4228 4.10038L18.4226 4.10227C18.4258 4.11222 18.4304 4.12196 18.4365 4.13143L18.7092 4.26976C18.731 4.27392 18.7537 4.27743 18.7773 4.28023L18.8294 4.30662ZM18.8294 4.30662C18.8523 4.30824 18.876 4.30922 18.9001 4.30952C18.8983 4.32096 18.8984 4.33198 18.9002 4.34257L18.8294 4.30662ZM19.4794 4.46494L19.4798 4.46457L19.4799 4.46487L19.4794 4.46494ZM19.4794 4.46494C19.4248 4.47225 19.3723 4.47626 19.3229 4.47729L19.1847 4.49073C19.1585 4.48797 19.1336 4.48423 19.1103 4.47956L19.1128 4.47811L19.103 4.45902L19.0753 4.47157L19.0793 4.47261C19.0592 4.48413 19.0385 4.49562 19.0174 4.507L18.9916 4.50951L18.9309 4.53702L18.9671 4.5335C18.8376 4.60023 18.696 4.66145 18.5664 4.70234L18.574 4.7224L18.9972 4.53058L19.0237 4.52799C19.0399 4.51929 19.0559 4.51053 19.0715 4.50174L19.1847 4.49073C19.2404 4.49658 19.3022 4.49802 19.3682 4.49448L19.4583 4.48572C19.4656 4.47882 19.4726 4.47189 19.4794 4.46494ZM19.0578 4.50307L19.0715 4.50174C19.0847 4.49436 19.0976 4.48696 19.1103 4.47956L19.1099 4.47948L19.1118 4.47862L19.102 4.45953L19.0793 4.47261C19.0892 4.47508 19.0994 4.47738 19.1099 4.47948L19.0578 4.50307ZM19.0578 4.50307L19.0174 4.507C19.0009 4.51591 18.9841 4.52475 18.9671 4.5335L18.9972 4.53058L19.0578 4.50307ZM18.7694 4.84931L18.7648 4.85773C18.7882 4.85241 18.8118 4.84645 18.8354 4.83989L18.7694 4.84931ZM18.7694 4.84931L18.772 4.84487L18.7643 4.85004L18.7694 4.84931ZM19.305 4.77284L19.2516 4.78048L18.9699 4.94712L18.9791 4.96646C19.0954 4.92279 19.2043 4.86365 19.3565 4.7655L19.3072 4.77254L19.3556 4.74391L19.3488 4.74487L19.305 4.77284ZM19.2753 4.7914L19.305 4.77284L19.3072 4.77254L19.2753 4.7914ZM19.2753 4.7914C19.2416 4.8122 19.21 4.83093 19.1798 4.84792L19.2753 4.7914ZM19.1798 4.84792C19.1057 4.88952 19.0399 4.92067 18.9716 4.94632L18.9808 4.96565L19.1798 4.84792ZM19.2425 5.12702L19.2387 5.13258L19.2559 5.12454L19.2425 5.12702ZM19.2425 5.12702L19.245 5.12344L19.2382 5.12782L19.2425 5.12702ZM19.5675 5.06679L19.5489 5.07023C19.4639 5.13569 19.3895 5.19609 19.3591 5.22665L19.3732 5.24278L19.614 5.05817L19.5956 5.06158L19.6339 5.03261L19.6051 5.03795L19.5675 5.06679ZM19.5675 5.06679L19.3602 5.22569L19.3743 5.24182C19.4079 5.20801 19.4977 5.13602 19.5956 5.06158L19.5675 5.06679ZM19.7642 5.14146L19.7641 5.14181L19.7645 5.14155L19.7642 5.14146ZM19.7642 5.14146L19.7681 5.13088L19.7538 5.13691L19.7642 5.14146ZM19.7594 5.11845L19.7461 5.12854L19.7481 5.12322L19.7594 5.11845ZM19.3532 5.36846L19.3536 5.36828L19.3525 5.3659L19.3208 5.38063L19.3304 5.37729C19.3058 5.38994 19.2805 5.40273 19.2548 5.41552C19.2751 5.41572 19.2988 5.411 19.327 5.40147L19.3615 5.38541L19.3532 5.36846ZM19.3532 5.36846L19.352 5.36611L19.3304 5.37729C19.3377 5.37467 19.3452 5.37173 19.3532 5.36846ZM19.2495 5.10386C19.2411 5.1079 19.2327 5.11179 19.2244 5.11553L19.2275 5.11105L19.2343 5.10667L19.2495 5.10386ZM18.9852 5.18131L18.9945 5.20011L18.9892 5.20256C18.9744 5.20357 18.9599 5.20383 18.9459 5.20333C18.9634 5.19297 18.9771 5.18506 18.9839 5.18138L18.9852 5.18131ZM18.9852 5.18131L18.9857 5.18127L18.9854 5.18062L18.9838 5.18139L18.9839 5.18138L18.985 5.18084L18.9852 5.18131ZM18.8311 4.81878C18.8042 4.82628 18.7773 4.833 18.7507 4.83885L18.7536 4.83393L18.7613 4.82875L18.8311 4.81878ZM18.4854 4.86568L18.4918 4.8785L18.4733 4.88659C18.4613 4.88588 18.4495 4.88487 18.438 4.88356L18.472 4.86494L18.4854 4.86568ZM18.4854 4.86568L18.4866 4.86574L18.4832 4.85879L18.4695 4.8648L18.472 4.86494L18.4823 4.85924L18.4854 4.86568ZM18.4127 4.11939L18.4093 4.11764L18.4165 4.11853L18.4127 4.11939ZM18.4036 4.11288C18.4024 4.10933 18.4012 4.10575 18.4003 4.10214L18.4146 4.09791L18.4151 4.09797L18.4135 4.11771L18.4036 4.11288ZM20.2335 5.34006L20.2341 5.3395L20.2339 5.33846L20.1403 5.40879C20.1703 5.39302 20.1996 5.37204 20.228 5.34535C20.153 5.43071 19.941 5.58696 19.7622 5.69311L19.7741 5.71097L20.2476 5.35501L20.2335 5.34006ZM20.2335 5.34006L20.228 5.34535L20.233 5.3395L20.2335 5.34006ZM19.845 5.41754L19.8467 5.41819L19.8524 5.41248L19.8391 5.39583L19.8217 5.40695L19.8254 5.40887C19.7883 5.44422 19.7365 5.4844 19.6775 5.52431L19.5911 5.57933C19.5228 5.62043 19.45 5.65853 19.3818 5.68747L19.3917 5.70645L19.5911 5.57933C19.621 5.56139 19.65 5.54288 19.6775 5.52431L19.845 5.41754ZM19.845 5.41754L19.8506 5.41398L19.8372 5.39732L19.8254 5.40887C19.8317 5.41197 19.8382 5.41486 19.845 5.41754ZM19.7385 5.32296L19.7393 5.32466L19.7503 5.31566L19.738 5.29815L19.7309 5.30247L19.7312 5.30358C19.6712 5.35247 19.5814 5.41543 19.4846 5.47708L19.3347 5.56811C19.2459 5.61923 19.161 5.6628 19.0972 5.68733L19.1066 5.70658L19.3347 5.56811C19.3844 5.53946 19.4354 5.50844 19.4846 5.47708L19.7385 5.32296ZM19.7385 5.32296C19.7357 5.31674 19.7333 5.31027 19.7312 5.30358L19.7367 5.29905L19.7491 5.31655L19.7385 5.32296ZM19.148 5.3054L19.1481 5.3064L19.1643 5.29726L19.1542 5.27829L19.1477 5.28154L19.1477 5.28198C18.9752 5.37985 18.6728 5.5346 18.5709 5.57023L18.5792 5.59001L19.148 5.3054ZM19.148 5.3054C19.1472 5.29779 19.1471 5.29001 19.1477 5.28198L19.1537 5.27856L19.1637 5.29754L19.148 5.3054ZM18.7696 5.14048L18.7704 5.14116L18.7782 5.13608L18.7676 5.11745L18.7537 5.12445L18.7548 5.12567C18.6843 5.17131 18.6301 5.20562 18.5747 5.23884L18.1786 5.43866C18.1375 5.45373 18.0996 5.46505 18.0649 5.47231L18.0719 5.49245L18.1786 5.43866C18.2242 5.42189 18.2737 5.40047 18.3265 5.37482C18.3818 5.34798 18.4399 5.31694 18.5006 5.28222C18.5264 5.26741 18.5507 5.25323 18.5747 5.23884L18.7696 5.14048ZM18.7696 5.14048C18.7644 5.13576 18.7594 5.13082 18.7548 5.12567L18.7666 5.11802L18.7772 5.13666L18.7696 5.14048ZM18.7058 4.99178L18.7058 4.99356L18.7199 4.98505L18.7099 4.96609L18.7071 4.96743L18.707 4.96776C18.6319 5.01282 18.563 5.05309 18.4984 5.0891L18.0961 5.27785C18.0486 5.29463 18.0014 5.30901 17.9532 5.32137L17.9604 5.34153L18.0961 5.27785C18.2211 5.23371 18.3478 5.173 18.4984 5.0891L18.7058 4.99178ZM18.7058 4.99178L18.719 4.98557L18.7089 4.9666L18.707 4.96776C18.7062 4.97587 18.7058 4.98389 18.7058 4.99178ZM18.2956 4.78873L18.2958 4.78928L18.3034 4.78591L18.2955 4.76595L18.2872 4.76889L18.2874 4.7695C18.0968 4.85359 17.758 4.9721 17.4989 5.04843L17.5055 5.06889L18.2956 4.78873ZM18.2956 4.78873C18.2925 4.78249 18.2898 4.77607 18.2874 4.7695L18.2947 4.76626L18.3026 4.78622L18.2956 4.78873ZM18.1082 4.58678L18.109 4.58689L18.1116 4.58514L18.1015 4.5663L18.0695 4.58014L18.0777 4.58169C18.0451 4.60273 18.0111 4.62358 17.976 4.64397L17.4281 4.88091C17.3926 4.89005 17.3585 4.89715 17.3264 4.90188L17.3322 4.92239L17.4281 4.88091C17.5979 4.83715 17.7998 4.74645 17.976 4.64397L18.1082 4.58678ZM18.1082 4.58678C18.098 4.58526 18.0878 4.58356 18.0777 4.58169L18.0998 4.5672L18.1099 4.58605L18.1082 4.58678ZM16.3256 4.38457L16.3263 4.3869L16.3367 4.38522L16.3361 4.36319C16.3314 4.36268 16.3263 4.36234 16.321 4.36217L16.3214 4.36516L16.1619 4.39096L16.1676 4.41224C16.2115 4.39385 16.2808 4.38196 16.3256 4.38457ZM16.3256 4.38457C16.3237 4.3781 16.3223 4.37162 16.3214 4.36516L16.3334 4.36322L16.3339 4.38525L16.3256 4.38457ZM16.3055 4.21453L16.3062 4.21574L16.3125 4.2163L16.3163 4.19524L16.2959 4.18946L16.2969 4.19329C16.2602 4.18986 16.2244 4.18601 16.1897 4.18172L15.5655 4.00492C15.5406 3.99156 15.5165 3.97744 15.493 3.96253L15.4844 3.98196L15.5655 4.00492C15.7325 4.09463 15.9337 4.15011 16.1897 4.18172L16.3055 4.21453ZM16.3055 4.21453C16.3019 4.20742 16.299 4.20032 16.2969 4.19329L16.3144 4.19488L16.3105 4.21594L16.3055 4.21453ZM17.6098 3.77054L17.6161 3.77542L17.6254 3.75649C17.6199 3.75504 17.6143 3.75329 17.6085 3.75124C17.6087 3.75768 17.6092 3.76412 17.6098 3.77054ZM20.2422 5.50083C20.198 5.56022 20.0867 5.69183 20.0158 5.76815L20.0318 5.78245L20.259 5.51423L20.2422 5.50083ZM20.2426 5.5003L20.2594 5.5137C20.2147 5.57377 20.1028 5.70596 20.0315 5.78281L20.0155 5.76852L20.2426 5.5003Z" fill="black"/>
<path fill-rule="evenodd" clip-rule="evenodd" d="M20.1588 3.51913C20.1161 3.62689 20.0923 3.85491 20.105 3.94391C20.1074 3.96096 20.1071 3.96527 20.0996 4.03686C20.0859 4.16742 20.0913 4.26644 20.1344 4.39434L20.1547 4.38745C20.1127 4.26295 20.1075 4.16685 20.1209 4.03911C20.1287 3.96428 20.129 3.96066 20.1262 3.94088C20.114 3.85548 20.1374 3.63125 20.1787 3.52708L20.1588 3.51913ZM19.8296 4.09422C19.8237 4.01327 19.832 3.90788 19.854 3.83219L19.8746 3.8382C19.8534 3.91123 19.8452 4.0141 19.851 4.09265L19.8296 4.09422ZM19.8443 4.22757C19.8267 4.30261 19.8397 4.47723 19.8637 4.5738L19.8845 4.56859C19.8612 4.47505 19.8485 4.30361 19.8651 4.23249L19.8443 4.22757ZM19.9201 4.80512C19.9101 4.78929 19.9026 4.77437 19.8977 4.76036L19.9179 4.75285C19.9221 4.76507 19.9289 4.7785 19.938 4.793C19.9494 4.81115 19.9641 4.83047 19.9819 4.85113C19.9965 4.86821 20.0085 4.88105 20.0313 4.90486L20.0161 4.92053C19.993 4.89644 19.9809 4.88338 19.9659 4.86591C19.9475 4.84448 19.9321 4.82432 19.9201 4.80512ZM20.0034 4.35598C19.9936 4.48073 20.0621 4.7175 20.1317 4.79778C20.1469 4.93058 20.239 5.12064 20.3689 5.25164L20.3841 5.23647C20.2575 5.10885 20.1676 4.92315 20.1504 4.78935C20.0822 4.70797 20.0154 4.47692 20.0248 4.35768L20.0034 4.35598ZM19.9745 4.21691C19.9635 4.13807 19.9608 4.05901 19.9698 4.00878L19.9909 4.01258C19.9824 4.0601 19.985 4.13714 19.9958 4.21391L19.9745 4.21691ZM20.3083 4.34528C20.2626 4.19173 20.2609 3.82302 20.3082 3.62793L20.329 3.633C20.2826 3.82453 20.2843 4.18939 20.3288 4.33913L20.3083 4.34528ZM20.25 4.40314C20.2242 4.51768 20.2269 4.65028 20.2601 4.75008L20.2804 4.74328C20.2486 4.64743 20.2459 4.51878 20.2709 4.40789L20.25 4.40314ZM20.6391 4.22741C20.5106 4.08396 20.4328 3.87007 20.4381 3.70307L20.4596 3.70375C20.4544 3.86521 20.5302 4.07371 20.655 4.21304L20.6391 4.22741ZM20.4044 4.23898C20.3896 4.42428 20.4002 4.59447 20.4339 4.69172C20.4426 4.71681 20.4487 4.74731 20.4573 4.80318L20.4657 4.8576C20.469 4.87903 20.4721 4.89708 20.4754 4.91438C20.4916 4.99874 20.5129 5.06083 20.5466 5.10883L20.5641 5.09644C20.5325 5.05147 20.5121 4.99195 20.4965 4.91031C20.4932 4.89328 20.4902 4.87545 20.4868 4.85423L20.4785 4.7999C20.4697 4.74274 20.4634 4.7114 20.4542 4.68465C20.4216 4.59078 20.4112 4.42328 20.4258 4.2407L20.4044 4.23898ZM20.577 4.54111L20.569 4.51065L20.5897 4.50512L20.5977 4.53571C20.6089 4.57882 20.6154 4.61132 20.6185 4.64376C20.6229 4.6906 20.6187 4.73102 20.6037 4.76559L20.5841 4.75701C20.5974 4.72621 20.6012 4.68929 20.5972 4.64578C20.5942 4.61471 20.5879 4.5832 20.577 4.54111ZM20.6947 4.3696C20.7304 4.48672 20.7525 4.63001 20.7474 4.69229L20.7688 4.69406C20.7742 4.62865 20.7516 4.48282 20.7152 4.36332L20.6947 4.3696ZM20.8455 5.31751C20.8014 5.2399 20.7614 5.11593 20.7522 5.01587L20.7736 5.01391C20.7824 5.11085 20.8215 5.23187 20.8641 5.30685L20.8455 5.31751ZM20.5933 5.31076C20.6338 5.43273 20.7032 5.55865 20.7661 5.60829L20.7793 5.59139C20.7206 5.54498 20.6529 5.42229 20.6137 5.30397L20.5933 5.31076ZM21.1877 5.65208C21.1447 5.52213 21.1166 5.45899 21.0488 5.36242L21.0664 5.35003C21.1356 5.44867 21.1645 5.51353 21.208 5.64532L21.1877 5.65208Z" fill="black"/>
<path fill-rule="evenodd" clip-rule="evenodd" d="M20.2643 5.39117C20.2776 5.39259 20.286 5.39312 20.3089 5.39427C20.3623 5.39695 20.3811 5.40238 20.4051 5.42785C20.421 5.44464 20.4367 5.47002 20.4537 5.50696C20.513 5.63591 20.6751 5.83306 20.7698 5.89448L20.7697 5.89453C20.8951 6.1153 20.9509 6.40671 20.9119 6.56312C20.9008 6.49431 20.8618 6.44136 20.8017 6.39798C20.7783 6.38113 20.7634 6.37256 20.7228 6.35093C20.6692 6.39789 20.5909 6.45192 20.5514 6.46037L20.5558 6.4814C20.6004 6.47187 20.6822 6.41541 20.7257 6.36769C20.7455 6.38497 20.7585 6.394 20.7729 6.40402L20.7892 6.41545C20.8451 6.45583 20.8808 6.50428 20.8908 6.56688L20.9119 6.56347L20.9104 6.56889L20.9311 6.57451C20.9728 6.4202 20.9224 6.1365 20.8039 5.91231C20.95 5.97958 21.0433 6.0554 21.0616 6.16233L21.0819 6.16491L21.0924 6.14137C21.1411 6.03164 21.1596 5.95623 21.1411 5.87836L21.1429 5.88057L21.1601 5.90121C21.2138 5.96594 21.2533 6.01357 21.2826 6.04957L21.2806 6.04985C21.2835 6.07034 21.2862 6.10153 21.2894 6.14909C21.29 6.15758 21.2916 6.18217 21.2933 6.21011C21.2957 6.24808 21.2985 6.29226 21.2998 6.31065C21.3075 6.42363 21.3152 6.49889 21.3257 6.54798L21.3466 6.54346C21.3364 6.49573 21.3288 6.42111 21.3212 6.30919C21.3199 6.29087 21.3171 6.24683 21.3147 6.20889C21.313 6.18087 21.3114 6.15618 21.3108 6.14764C21.3089 6.11887 21.3071 6.09602 21.3054 6.07777C21.3511 6.13506 21.363 6.15512 21.3692 6.17681C21.371 6.18332 21.3724 6.18997 21.3739 6.19782L21.3739 6.19782L21.3739 6.19782L21.3757 6.2066C21.3936 6.2921 21.4623 6.40936 21.5312 6.48469L21.547 6.47015C21.4805 6.39743 21.4137 6.28342 21.3967 6.20218L21.3944 6.19091C21.3927 6.18241 21.3913 6.17524 21.3893 6.16824C21.3786 6.13084 21.3515 6.09814 21.1793 5.89073L21.1793 5.89073L21.1792 5.89073L21.1792 5.89073L21.1792 5.89072L21.1594 5.86681C21.1448 5.84918 21.1316 5.83303 21.1191 5.81744L21.101 5.82867C21.1436 5.92161 21.1316 5.99886 21.0752 6.12731C21.0434 6.02487 20.9458 5.95244 20.8012 5.88748C20.7177 5.85003 20.5355 5.63361 20.4731 5.49795C20.4553 5.45906 20.4384 5.43179 20.4207 5.41306C20.3918 5.38251 20.3684 5.37572 20.31 5.3728C20.2874 5.37167 20.2794 5.37115 20.2666 5.36978L20.2643 5.39117ZM21.3054 6.07777C21.3042 6.06552 21.3031 6.05534 21.3019 6.04684L21.2826 6.04957C21.291 6.05988 21.2986 6.06924 21.3054 6.07777ZM20.9119 6.56347L20.912 6.56345L20.9119 6.56312L20.9119 6.56347ZM20.8039 5.91231L20.7925 5.90711C20.7855 5.90397 20.7779 5.89972 20.7698 5.89448L20.7883 5.88388C20.7936 5.89324 20.7988 5.90272 20.8039 5.91231ZM20.4145 5.71711C20.4521 5.83058 20.4819 5.96682 20.4849 6.04566L20.5064 6.04483C20.5032 5.96364 20.473 5.82556 20.4348 5.71033L20.4145 5.71711ZM20.7393 6.27653C20.736 6.21288 20.6961 6.04621 20.6563 5.93516L20.6765 5.92789C20.7169 6.04074 20.7573 6.20933 20.7607 6.27539L20.7393 6.27653ZM21.1137 6.23776C21.1448 6.31297 21.1645 6.43169 21.1582 6.50244L21.1795 6.50435C21.1861 6.43005 21.1659 6.30785 21.1335 6.22951L21.1137 6.23776Z" fill="black"/>
</g>
</svg>
