<svg width="1270" height="350" viewBox="0 0 1270 350" fill="none" xmlns="http://www.w3.org/2000/svg">
<path fill-rule="evenodd" clip-rule="evenodd" d="M107.284 76.9476C111.739 79.6331 116.117 80.9306 118.172 80.4009C123.324 79.0728 123.798 60.2231 119.811 52.7919C115.824 45.3608 95.3287 42.1218 94.2956 56.8453C93.9371 61.9553 96.0827 66.5156 99.2529 70.2368L93.5684 96.7319H110.08L107.284 76.9476Z" fill="#B28B67"/>
<path fill-rule="evenodd" clip-rule="evenodd" d="M110.398 44.2284C108.222 43.8715 102.362 43.6261 101.282 43.6263C100.591 43.6263 99.8428 43.784 99.4338 43.15C99.0989 42.6307 99.2216 41.7526 99.1216 41.15C99.0056 40.45 98.8407 39.7591 98.674 39.0699C98.1994 37.1087 97.4818 35.2429 96.4778 33.4911C94.5939 30.2046 91.834 27.6303 88.3498 26.1323C84.5022 24.4783 80.1483 24.0996 76.0097 24.4351C71.5808 24.794 67.5717 26.256 63.3901 27.6319C59.4052 28.943 55.2316 29.4591 51.0639 28.8188C46.8647 28.1738 43.6919 25.8979 40.15 23.7378C36.5242 21.5263 32.3805 20.08 28.094 20.4125C24.0928 20.7229 20.405 22.375 17.0964 24.582C14.0008 26.647 11.4465 29.1313 10.0044 32.6279C8.45304 36.3891 8.45446 40.5177 11.0056 43.8417C14.7033 48.6599 21.568 49.9059 27.2792 49.7821C30.5826 49.7106 33.827 49.1076 36.9458 48.0107C41.1051 46.5477 44.6994 44.0681 48.5906 42.0562C50.4167 41.1121 52.3043 40.3368 54.2828 39.7782C56.2027 39.236 58.0938 38.9873 59.8321 40.1472C61.671 41.3741 63.3189 42.5794 65.4226 43.3475C67.4408 44.0844 69.5784 44.4965 71.7286 44.4799C75.9121 44.4476 80.036 43.1441 84.0992 42.271C87.4126 41.5591 90.9578 40.8497 94.3357 41.534C95.7453 41.8196 97.8042 42.4091 98.3133 43.874C89.7447 45.427 86.3793 56.024 88.795 63.8032C90.0987 68.002 97.9357 72.9102 100.983 70.7029C102.913 69.3045 101.741 67.4686 100.983 66.2567C99.5303 63.9358 99.0334 60.9545 101.721 59.3387C104.039 57.9451 106.477 61.2545 106.523 61.2509C107.16 61.2007 112.666 58.0869 116.46 53.5431C120.202 53.7649 120.77 51.2974 119.876 49.2794C118.982 47.2614 113.405 44.7218 110.398 44.2284Z" fill="#191847"/>
<path fill-rule="evenodd" clip-rule="evenodd" d="M80.2517 153.836C81.4922 170.767 161.41 220.615 161.876 222.014C162.187 222.946 137.001 280.963 137.001 280.963L143.987 283.677C143.987 283.677 182.618 222.234 180.634 215.687C177.793 206.313 118.627 154.016 118.627 154.016L80.2517 153.836Z" fill="#B28B67"/>
<path fill-rule="evenodd" clip-rule="evenodd" d="M138.839 272.228L150.245 276.38C174.296 249.243 183.723 226.853 182.004 215.445C180.285 204.038 120.211 153.877 120.211 153.877L79.4339 153.877C80.8252 193.088 154.899 222.163 155.889 223.834C156.88 225.505 147.13 241.87 138.839 272.228Z" fill="#2F3676"/>
<path fill-rule="evenodd" clip-rule="evenodd" d="M136.485 279.558C135.903 279.001 134.967 279.01 134.45 279.628C133.507 280.755 132.167 282.471 131.768 283.568C131.131 285.317 130.493 288.884 130.493 288.884C132.521 289.622 166.957 302.156 166.957 302.156C166.957 302.156 170.088 297.974 167.163 296.485C164.237 294.996 162.321 293.956 162.321 293.956L148.123 280.232C147.844 279.963 147.398 279.977 147.137 280.263L145.085 282.509C145.085 282.509 141.769 282.8 139.997 282.155C138.917 281.762 137.46 280.492 136.485 279.558Z" fill="#E4E4E4"/>
<path fill-rule="evenodd" clip-rule="evenodd" d="M89.4391 153.836L53.838 239.304L18.8477 311.56H27.103L117.422 153.836H89.4391Z" fill="#997659"/>
<path fill-rule="evenodd" clip-rule="evenodd" d="M20.2605 307.455C19.5232 307.13 18.647 307.459 18.3724 308.216C17.8714 309.597 17.1992 311.668 17.1992 312.836C17.1992 314.697 17.8193 318.267 17.8193 318.267C19.9781 318.267 56.6236 318.267 56.6236 318.267C56.6236 318.267 58.1362 313.267 54.8773 312.868C51.6184 312.469 49.4629 312.148 49.4629 312.148L31.427 304.108C31.073 303.95 30.6585 304.115 30.5108 304.474L29.3515 307.286C29.3515 307.286 26.3346 308.694 24.4484 308.694C23.3002 308.694 21.4962 307.999 20.2605 307.455Z" fill="#E4E4E4"/>
<path fill-rule="evenodd" clip-rule="evenodd" d="M22.0078 296.549L40.3513 299.989C54.5344 279.137 113.891 193.638 120.399 153.836H79.5626C57.8293 182.609 35.5273 275.352 22.0078 296.549Z" fill="#5C63AB"/>
<path fill-rule="evenodd" clip-rule="evenodd" d="M176.289 124.049L151.359 134.997L159.319 145.194L177.99 130.879C187.316 129.167 191.641 127.695 190.965 126.465C190.395 125.428 189.335 125.369 188.358 125.315C187.598 125.273 186.888 125.234 186.5 124.737C185.614 123.603 187.8 120.097 190.017 116.86C192.233 113.622 190.156 113.739 188.94 114.126C184.873 116.389 180.656 119.697 176.289 124.049ZM64.6715 140.81L50.5733 138.012C41.0119 163.213 35.3116 177.023 33.4725 179.442C32.1238 181.216 23.8063 185.785 18.1765 188.225C15.9168 189.204 16.402 191.114 17.0648 191.725C21.2453 195.578 25.1318 194.228 29.3624 192.757C30.5871 192.332 31.8407 191.896 33.1387 191.574C36.4982 190.739 37.5205 192.467 38.4866 194.1C39.342 195.545 40.1534 196.916 42.5038 196.369C42.3969 195.908 42.2656 195.391 42.1238 194.833C41.2075 191.228 39.8563 185.911 41.861 182.822C42.8898 181.236 50.4933 167.232 64.6715 140.81Z" fill="#B28B67"/>
<path fill-rule="evenodd" clip-rule="evenodd" d="M102.991 85.2648L108.94 84.2444C121.898 96.8142 127.186 127.013 135.822 131.01C143.986 134.789 155.56 131.132 169.317 126.194L173.531 135.607C161.031 149.131 134.401 160.556 123.607 154.033C106.35 143.605 102.366 106.36 102.991 85.2648Z" fill="#DB2721"/>
<path fill-rule="evenodd" clip-rule="evenodd" d="M77.0566 160.028C77.0566 160.028 112.838 160.028 129.696 160.028C132.102 160.028 131.648 156.555 131.301 154.803C127.288 134.575 111.623 112.771 111.623 83.9777L96.4388 81.5967C83.8798 101.795 79.5368 126.664 77.0566 160.028Z" fill="#DDE3E9"/>
<path fill-rule="evenodd" clip-rule="evenodd" d="M112.745 174.476H65.3606C66.1103 163.168 68.5138 151.21 71.8059 139.55C61.0752 158.906 52.0554 172.842 44.7466 181.356L33.7129 179.195C40.8203 135.117 61.4025 102.584 95.4593 81.5968H95.6323C95.6324 81.5967 95.6324 81.5966 95.6325 81.5964H101.471C101.471 81.5964 121.918 151.294 112.745 174.476Z" fill="#FF4133"/>
<path fill-rule="evenodd" clip-rule="evenodd" d="M417.141 75.5054C425.305 75.5054 428.274 65.7321 432.912 60.3687C436.23 56.5313 441.893 57.6756 443.57 52.3033C447.785 38.7943 436.503 29.2864 421.784 29.2864C407.066 29.2864 397.141 37.6251 394.999 50.1604C392.856 62.6958 402.423 75.5054 417.141 75.5054Z" fill="#191847"/>
<path fill-rule="evenodd" clip-rule="evenodd" d="M426.38 73.7466C431.006 76.5345 435.55 77.8815 437.684 77.3316C443.033 75.9528 443.525 56.3828 439.386 48.6678C435.247 40.9527 413.968 37.59 412.895 52.876C412.523 58.1813 414.751 62.9159 418.042 66.7793L412.141 94.2859H429.283L426.38 73.7466Z" fill="#B28B67"/>
<path fill-rule="evenodd" clip-rule="evenodd" d="M414.011 42.1439C400.88 55.001 414.061 68.6665 417.673 68.6665C417.906 66.8114 418.617 65.0068 419.659 63.2893C419.105 62.5724 418.777 61.6807 418.777 60.7144C418.777 58.3474 420.746 56.4286 423.175 56.4286C423.934 56.4286 424.648 56.616 425.271 56.9458C430.535 52.4565 437.137 49.3268 440.415 48.7114C446.117 47.641 427.142 29.2868 414.011 42.1439Z" fill="#191847"/>
<path fill-rule="evenodd" clip-rule="evenodd" d="M406.428 153.572L433.307 241.446L446.328 316.177H456.537L442.778 153.572H406.428Z" fill="#997659"/>
<path fill-rule="evenodd" clip-rule="evenodd" d="M396.811 153.572C398.637 201.819 396.489 226.706 396.08 231.09C395.671 235.473 390.076 263.896 376.83 317.649L387.709 313.913C408.643 264.614 415.777 238.992 418.178 232.519C420.579 226.045 426.955 199.729 437.308 153.572H396.811Z" fill="#B28B67"/>
<path fill-rule="evenodd" clip-rule="evenodd" d="M378.893 313.06C378.128 312.723 377.218 313.064 376.933 313.85C376.413 315.285 375.715 317.435 375.715 318.647C375.715 320.579 376.359 324.286 376.359 324.286C378.6 324.286 416.645 324.286 416.645 324.286C416.645 324.286 418.216 319.094 414.832 318.68C411.449 318.266 409.211 317.933 409.211 317.933L390.486 309.585C390.119 309.421 389.688 309.593 389.535 309.965L388.331 312.885C388.331 312.885 385.199 314.346 383.241 314.346C382.049 314.346 380.176 313.625 378.893 313.06Z" fill="#E4E4E4"/>
<path fill-rule="evenodd" clip-rule="evenodd" d="M446.036 313.06C445.27 312.723 444.361 313.064 444.075 313.85C443.555 315.285 442.857 317.435 442.857 318.647C442.857 320.579 443.501 324.286 443.501 324.286C445.743 324.286 483.788 324.286 483.788 324.286C483.788 324.286 485.358 319.094 481.975 318.68C478.592 318.266 476.354 317.933 476.354 317.933L457.629 309.585C457.261 309.421 456.831 309.593 456.678 309.965L455.474 312.885C455.474 312.885 452.342 314.346 450.384 314.346C449.191 314.346 447.319 313.625 446.036 313.06Z" fill="#E4E4E4"/>
<path fill-rule="evenodd" clip-rule="evenodd" d="M402.857 153.572L414.286 198.343H449.193L443.988 153.572H402.857Z" fill="#69A1AC"/>
<path fill-rule="evenodd" clip-rule="evenodd" d="M396.429 153.572C390.788 170.479 394.286 198.343 394.286 198.343H429.908L439.703 153.572H396.429Z" fill="#89C5CC"/>
<path fill-rule="evenodd" clip-rule="evenodd" d="M489.553 161.97L469.318 142.231L462.598 153.859L483.639 166.264C488.915 174.575 492.013 178.166 492.934 177.037C493.711 176.085 493.355 175.042 493.027 174.081C492.772 173.332 492.533 172.634 492.861 172.067C493.609 170.773 497.833 171.514 501.812 172.389C505.79 173.263 504.87 171.309 504.024 170.289C500.264 167.254 495.44 164.481 489.553 161.97ZM370.285 190.649C372.378 186.403 379.507 145.015 379.507 145.015L394.433 145.074C394.433 145.074 380.608 189.703 379.507 192.433C378.075 195.981 380.507 201.135 382.155 204.629C382.41 205.17 382.647 205.671 382.847 206.12C380.559 207.144 379.46 205.906 378.302 204.602C376.993 203.129 375.609 201.57 372.349 203.086C371.09 203.672 369.899 204.365 368.734 205.041C364.713 207.379 361.019 209.526 355.993 206.425C355.196 205.934 354.323 204.083 356.433 202.636C361.688 199.033 369.262 192.725 370.285 190.649Z" fill="#B28B67"/>
<path fill-rule="evenodd" clip-rule="evenodd" d="M421.926 82.3801L428.102 81.3207C438.736 107.885 457.302 132.022 483.799 153.732L463.776 178.058C437.282 147.146 420.951 115.253 421.926 82.3801Z" fill="#191847"/>
<path fill-rule="evenodd" clip-rule="evenodd" d="M395 160.001H450C450 160.001 430.887 113.528 430.887 81.0442L414.296 78.5723C401.257 99.5425 397.575 125.361 395 160.001Z" fill="#DDE3E9"/>
<path fill-rule="evenodd" clip-rule="evenodd" d="M413.944 78.5834L413.931 78.5717C413.931 78.5717 376.015 115.712 370 183.571H396.808C396.59 180.582 396.454 177.63 396.393 174.718H432.394C432.394 174.718 425.601 111.221 424.964 90.269L420.956 78.8125C420.956 78.8125 416.978 78.6382 415.034 78.5713H413.951C413.949 78.5753 413.947 78.5794 413.944 78.5834Z" fill="#2F3676"/>
<path fill-rule="evenodd" clip-rule="evenodd" d="M396.4 175.001C396.113 162.322 397.237 150.418 399.114 139.645C400.095 152.428 402.146 167.81 406.43 175.001H396.4Z" fill="black" fill-opacity="0.1"/>
<path fill-rule="evenodd" clip-rule="evenodd" d="M404.365 152.858L422.143 144.593V152.858H404.365Z" fill="white" fill-opacity="0.2"/>
<path fill-rule="evenodd" clip-rule="evenodd" d="M228.205 76.8796C233.03 79.7889 237.771 81.1945 239.997 80.6207C245.578 79.1818 246.091 58.7609 241.773 50.7103C237.454 42.6597 215.256 39.1507 214.137 55.1015C213.749 60.6375 216.073 65.578 219.506 69.6094L213.35 98.3127H231.233L228.205 76.8796Z" fill="#B28B67"/>
<path fill-rule="evenodd" clip-rule="evenodd" d="M240.605 47.5892C240.448 46.6164 240.758 46.139 236.848 43.3985C232.938 40.658 226.625 37.4258 220.266 38.8325C212.014 40.658 208.736 46.1026 205.554 48.7495C202.686 51.1358 199.807 51.4141 198.102 54.375C196.396 57.3359 195.488 65.8543 196.972 69.241C199.018 73.9127 203.052 75.1708 205.998 76.5167C211.049 78.825 218.189 76.3872 218.362 75.9833C219.7 72.8595 226.902 64.0473 231.234 60.345C234.419 57.6225 241.34 52.1548 240.605 47.5892Z" fill="#5C63AB"/>
<mask id="mask0" mask-type="alpha" maskUnits="userSpaceOnUse" x="196" y="38" width="45" height="40">
<path fill-rule="evenodd" clip-rule="evenodd" d="M240.605 47.5892C240.448 46.6164 240.758 46.139 236.848 43.3985C232.938 40.658 226.625 37.4258 220.266 38.8325C212.014 40.658 208.736 46.1026 205.554 48.7495C202.686 51.1358 199.807 51.4141 198.102 54.375C196.396 57.3359 195.488 65.8543 196.972 69.241C199.018 73.9127 203.052 75.1708 205.998 76.5167C211.049 78.825 218.189 76.3872 218.362 75.9833C219.7 72.8595 226.902 64.0473 231.234 60.345C234.419 57.6225 241.34 52.1548 240.605 47.5892Z" fill="white"/>
</mask>
<g mask="url(#mask0)">
<path fill-rule="evenodd" clip-rule="evenodd" d="M225.051 84.5159C212.621 69.1826 209.697 50.6902 209.697 50.6902L205.953 53.0589C205.953 53.0589 210.557 73.2673 225.051 84.5159ZM229.78 92.9411C209.665 75.2619 204.868 55.3943 204.868 55.3943L200.537 56.6714C200.537 56.6714 206.505 78.8882 229.78 92.9411Z" fill="black" fill-opacity="0.2"/>
</g>
<path fill-rule="evenodd" clip-rule="evenodd" d="M208.879 160.176L264.249 252.768L305.761 331.047H314.702L245.149 160.176L208.879 160.176Z" fill="#997659"/>
<path fill-rule="evenodd" clip-rule="evenodd" d="M302.244 326.551C301.508 326.223 300.631 326.551 300.355 327.307C299.808 328.802 299.041 331.132 299.041 332.43C299.041 334.446 299.713 338.314 299.713 338.314C302.051 338.314 341.741 338.314 341.741 338.314C341.741 338.314 343.379 332.897 339.85 332.465C336.32 332.033 333.985 331.685 333.985 331.685L314.397 322.95C314.043 322.793 313.629 322.958 313.481 323.317L312.203 326.418C312.203 326.418 308.935 327.943 306.893 327.943C305.614 327.943 303.583 327.146 302.244 326.551Z" fill="#E4E4E4"/>
<path fill-rule="evenodd" clip-rule="evenodd" d="M294.232 318.512L311.475 313.295C311.475 313.295 300.143 279.41 283.697 238.717C267.251 198.023 248.372 160.176 248.372 160.176H199.672C199.672 160.176 220.661 208.051 244.174 247.177C267.688 286.303 294.232 318.512 294.232 318.512Z" fill="#DB2721"/>
<path fill-rule="evenodd" clip-rule="evenodd" d="M205.239 160.176C200.013 192.714 189.934 234.284 188.982 235.567C188.348 236.422 165.519 244.074 120.494 258.522L122.426 266.409C176.117 258.66 204.408 252.648 207.298 248.374C211.634 241.961 233.281 191.304 241.665 160.176H205.239Z" fill="#B28B67"/>
<path fill-rule="evenodd" clip-rule="evenodd" d="M136.322 251.705L139.724 264.407C179.883 267.93 204.488 265.384 213.542 256.77C222.595 248.156 232.914 215.958 244.497 160.176H198.058C190.719 205.854 186.616 229.652 185.749 231.569C184.882 233.487 168.407 240.199 136.322 251.705Z" fill="#FF4133"/>
<path fill-rule="evenodd" clip-rule="evenodd" d="M123.907 257.006C124.102 256.225 123.627 255.418 122.834 255.277C121.268 254.999 118.841 254.647 117.562 254.873C115.577 255.223 111.886 256.556 111.886 256.556C112.292 258.859 119.184 297.956 119.184 297.956C119.184 297.956 124.802 298.629 124.614 295.077C124.427 291.526 124.364 289.165 124.364 289.165L129.563 268.353C129.656 267.977 129.421 267.598 129.043 267.514L125.768 266.794C125.768 266.794 123.699 263.84 123.344 261.828C123.122 260.567 123.554 258.429 123.907 257.006Z" fill="#E4E4E4"/>
<path fill-rule="evenodd" clip-rule="evenodd" d="M263.82 170.063C249.668 199.544 190.096 179.638 190.096 179.638C190.096 174.53 192.121 169.409 194.249 164.03C196.53 158.262 198.928 152.199 199.071 145.539C199.335 133.286 201.626 96.1621 211.185 83.6209C211.359 83.0543 211.536 82.4861 211.715 81.9162L212.376 82.2276C212.48 82.121 212.584 82.0171 212.689 81.916L233.546 85.1419C233.546 94.5782 239.583 103.526 245.018 111.581C246.34 113.541 247.627 115.448 248.783 117.296C250.296 119.717 252.004 122.181 253.754 124.707C262.617 137.496 272.564 151.848 263.82 170.063Z" fill="#C1DEE2"/>
<path fill-rule="evenodd" clip-rule="evenodd" d="M237.094 164.49C238.489 157.29 239.393 152.483 239.808 150.069C250.92 162.629 257.34 168.982 259.066 169.127C262.314 169.401 264.714 166.521 265.398 167.33C266.527 170.685 263.337 179.08 257.239 180.301C254.328 180.884 249.822 174.878 247.965 172.75C247.235 171.913 243.611 169.16 237.094 164.49ZM256.288 126.101C259.168 126.101 260.715 127.292 262.419 129.696C264.122 132.099 265.733 143.433 262.999 143.433C260.264 143.433 248.808 139.051 248.808 136.106C248.808 133.16 256.625 131.913 256.625 129.696C256.625 127.478 253.407 126.101 256.288 126.101Z" fill="#B28B67"/>
<path fill-rule="evenodd" clip-rule="evenodd" d="M219.336 115.778C209.808 141.518 214.141 163.271 251.44 183.022C250.958 184.115 250.666 184.774 250.666 184.774C206.845 165.428 206.499 142.014 219.336 115.778Z" fill="black" fill-opacity="0.2"/>
<path fill-rule="evenodd" clip-rule="evenodd" d="M909.743 32.7243C901.852 34.8387 897.169 42.9496 899.284 50.8406L903.951 68.2604C906.018 75.9752 913.817 80.6235 921.539 78.8514C921.541 78.86 921.544 78.8685 921.547 78.8771L942.425 73.2828C944.81 69.2684 936.502 50.3679 931.527 41.6264C929.197 34.0594 921.276 29.6341 913.564 31.7004L909.743 32.7243Z" fill="#191847"/>
<path fill-rule="evenodd" clip-rule="evenodd" d="M921.257 66.8011C926.671 68.3571 931.615 68.4851 933.617 67.3557C938.637 64.5235 933.856 44.7003 927.605 38.0556C921.353 31.4109 898.999 33.7742 902.039 49.444C903.094 54.8824 906.616 59.0445 910.975 62.0428L912.442 91.3134L929.721 86.6836L921.257 66.8011Z" fill="#B28B67"/>
<path fill-rule="evenodd" clip-rule="evenodd" d="M899.777 50.1463C900.146 49.5167 900.503 48.9075 900.87 48.3497L900.697 47.7975C900.697 47.7975 903.15 35.2619 911.487 33.028C919.816 30.7962 923.486 33.9559 926.606 36.6418L926.614 36.649C926.518 40.9746 923.423 43.5436 919.923 46.4489C918.416 47.6996 916.834 49.0126 915.384 50.5548C914.555 50.1849 913.598 50.0866 912.652 50.34C910.465 50.926 909.167 53.1707 909.752 55.3537C910.337 57.5368 912.584 58.8315 914.77 58.2455C914.831 58.2293 914.891 58.2119 914.95 58.1932C918.033 66.5164 920.326 76.3502 918.574 79.2999L897.695 84.8942C894.311 74.6597 896.21 70.9726 898.151 67.2049C899.977 63.6598 901.839 60.0433 899.372 50.8343C899.509 50.6033 899.644 50.3735 899.777 50.1463Z" fill="#191847"/>
<path fill-rule="evenodd" clip-rule="evenodd" d="M893.434 223.922C893.434 223.922 920.254 231.411 939.713 231.411C959.172 231.411 975.861 219.878 975.861 219.878C975.861 219.878 949.616 212.192 932.632 212.192C915.649 212.192 893.434 223.922 893.434 223.922Z" fill="#1F28CF"/>
<path fill-rule="evenodd" clip-rule="evenodd" d="M955.19 238.606C955.018 238.347 954.872 238.066 954.757 237.761C952.367 231.451 914.085 163.385 910.271 150.941H953.371C956.271 160.402 969.322 219.778 971.159 231.625C976.954 250.311 988.885 310.83 990.409 315.022C992.011 319.433 982.995 324.028 980.592 318.605C976.77 309.978 967.661 286.106 963.605 271.529C959.803 257.864 956.707 245.57 955.19 238.606Z" fill="#997659"/>
<path fill-rule="evenodd" clip-rule="evenodd" d="M919.929 246.916C902.427 251.332 838.409 259.315 834.016 260.567C829.497 261.855 825.535 252.556 831.121 250.542C840.009 247.337 864.5 239.931 879.349 236.909C891.292 234.479 902.191 232.495 909.508 231.334C908.888 210.816 906.055 161.576 907.912 150.941H946.047C944.266 161.139 929.21 235.55 926.412 242.999C925.524 245.658 922.874 246.833 919.929 246.916Z" fill="#B28B67"/>
<path fill-rule="evenodd" clip-rule="evenodd" d="M832.734 249.837C832.929 249.055 832.453 248.247 831.659 248.106C830.093 247.828 827.666 247.478 826.388 247.703C824.403 248.052 820.71 249.383 820.71 249.383C821.116 251.683 828.01 290.711 828.01 290.711C828.01 290.711 833.63 291.383 833.442 287.837C833.254 284.291 833.192 281.935 833.192 281.935L838.391 261.161C838.485 260.785 838.249 260.405 837.87 260.322L834.595 259.603C834.595 259.603 832.526 256.654 832.171 254.646C831.949 253.389 832.38 251.257 832.734 249.837Z" fill="#E4E4E4"/>
<path fill-rule="evenodd" clip-rule="evenodd" d="M979.809 317.021C979.074 316.694 978.198 317.021 977.921 317.777C977.375 319.268 976.607 321.594 976.607 322.891C976.607 324.903 977.279 328.764 977.279 328.764C979.618 328.764 1019.32 328.764 1019.32 328.764C1019.32 328.764 1020.96 323.357 1017.43 322.925C1013.89 322.494 1011.56 322.147 1011.56 322.147L991.966 313.427C991.613 313.27 991.199 313.435 991.051 313.793L989.772 316.889C989.772 316.889 986.504 318.411 984.461 318.411C983.181 318.411 981.149 317.615 979.809 317.021Z" fill="#E4E4E4"/>
<path fill-rule="evenodd" clip-rule="evenodd" d="M908.036 150.941C908.036 150.941 933.243 143.742 955.737 150.941C960.954 174.704 973.631 184.135 975.861 220.567C950.519 233.137 919.215 211.603 893.129 223.861C885.676 206.715 896.11 165.424 908.036 150.941Z" fill="#2B44FF"/>
<path fill-rule="evenodd" clip-rule="evenodd" d="M970.833 83.5198L947.812 101.942L958.997 110.363L974.526 90.1784C983.805 85.7759 987.919 83.0268 986.867 81.9312C985.981 81.0074 984.855 81.2434 983.818 81.4608C983.01 81.6302 982.256 81.7882 981.711 81.3779C980.466 80.4408 981.772 76.1667 983.185 72.1636C984.598 68.1604 982.456 68.8648 981.292 69.61C977.67 73.1138 974.184 77.7504 970.833 83.5198ZM999.895 98.5477L989.786 106.658L992.4 117.757C992.4 117.757 998.727 111.256 1004.66 108.421C1012.22 104.806 1015.14 102.549 1018.15 96.922C1019.76 93.9113 1020.59 88.2848 1018.31 86.9026C1017.43 86.3724 1014.88 88.4398 1012.27 90.5493C1010.29 92.157 1008.28 93.7891 1006.95 94.3143C1005.17 95.0214 1004.96 92.5873 1004.8 90.6423C1004.68 89.2465 1004.58 88.1026 1003.94 88.5517C1000.67 89.1854 999.895 98.5477 999.895 98.5477Z" fill="#997659"/>
<path fill-rule="evenodd" clip-rule="evenodd" d="M934.858 101.026C943.765 99.3582 955.333 95.3784 966.612 85.0939L973.556 95.3154C966.327 105.536 955.27 114.837 944.448 116.434C935.921 117.692 929.777 108.21 934.858 101.026Z" fill="#333567"/>
<path fill-rule="evenodd" clip-rule="evenodd" d="M924.2 181.322C915.522 181.714 907.548 182.074 903.088 183.796C894.942 167.906 897.38 156.568 899.631 146.1C900.988 139.792 902.277 133.799 901.139 127.318C897.826 108.445 907.883 76.7213 910.116 76.3275L930.482 72.7364C933.452 84.2536 939.568 96.2121 945.723 108.247C947.16 111.058 948.6 113.873 950.002 116.688C965.394 117.432 996.202 99.9618 996.202 99.9618C996.202 99.9618 1007.52 115.634 1008.18 123.041C990.81 136.39 975.198 143.728 961.741 146.404C963.581 154.329 963.948 162.114 961.898 169.649C959.15 179.744 940.442 180.589 924.2 181.322Z" fill="#4163A5"/>
<path fill-rule="evenodd" clip-rule="evenodd" d="M794.919 159.905C796.263 178.214 882.82 232.118 883.325 233.631C883.662 234.639 856.383 297.376 856.383 297.376L863.949 300.312C863.949 300.312 905.79 233.869 903.641 226.789C900.564 216.653 836.483 160.1 836.483 160.1L794.919 159.905Z" fill="#B28B67"/>
<path fill-rule="evenodd" clip-rule="evenodd" d="M858.373 287.93L870.726 292.42C896.775 263.076 906.986 238.864 905.124 226.528C903.262 214.191 838.197 159.95 838.197 159.95L794.032 159.95C795.539 202.351 875.767 233.792 876.84 235.599C877.913 237.406 867.352 255.102 858.373 287.93Z" fill="#2F3676"/>
<path fill-rule="evenodd" clip-rule="evenodd" d="M855.734 295.772C855.155 295.214 854.219 295.222 853.7 295.838C852.676 297.053 851.159 298.976 850.715 300.194C850.025 302.085 849.334 305.942 849.334 305.942C851.531 306.741 888.827 320.294 888.827 320.294C888.827 320.294 892.219 315.772 889.05 314.162C885.881 312.551 883.806 311.427 883.806 311.427L868.386 296.545C868.107 296.277 867.661 296.291 867.4 296.577L865.139 299.049C865.139 299.049 861.547 299.363 859.627 298.666C858.425 298.229 856.789 296.788 855.734 295.772Z" fill="#E4E4E4"/>
<path fill-rule="evenodd" clip-rule="evenodd" d="M804.871 159.905L766.312 252.327L728.414 330.462H737.355L835.179 159.905H804.871Z" fill="#997659"/>
<path fill-rule="evenodd" clip-rule="evenodd" d="M729.829 325.973C729.093 325.647 728.217 325.974 727.94 326.729C727.394 328.221 726.627 330.547 726.627 331.843C726.627 333.855 727.299 337.716 727.299 337.716C729.637 337.716 769.327 337.716 769.327 337.716C769.327 337.716 770.965 332.308 767.435 331.877C763.906 331.446 761.571 331.099 761.571 331.099L741.983 322.38C741.629 322.222 741.215 322.388 741.067 322.746L739.789 325.841C739.789 325.841 736.521 327.363 734.478 327.363C733.199 327.363 731.168 326.568 729.829 325.973Z" fill="#E4E4E4"/>
<path fill-rule="evenodd" clip-rule="evenodd" d="M731.836 314.231L751.703 317.95C767.065 295.402 831.354 202.946 838.402 159.905H794.173C770.634 191.019 746.479 291.309 731.836 314.231Z" fill="#5C63AB"/>
<path fill-rule="evenodd" clip-rule="evenodd" d="M825.275 79.6454C829.254 83.6305 833.515 86.1389 835.813 86.1216C841.576 86.0781 847.005 66.4243 844.759 57.5826C842.513 48.7408 821.822 39.9721 816.884 55.1499C815.171 60.4175 816.232 65.7645 818.59 70.4995L805.685 96.8094L823.038 101.136L825.275 79.6454Z" fill="#B28B67"/>
<path fill-rule="evenodd" clip-rule="evenodd" d="M845.524 61.4921C845.604 60.4386 845.464 59.2115 845.363 58.1708C845.234 56.8292 844.85 55.553 844.383 54.3241C843.504 52.0104 842.305 49.8199 840.858 47.8894C838.217 44.3632 834.385 41.7539 830.11 41.225C827.951 40.9579 825.718 41.2487 823.656 42.1452C821.793 42.9552 819.848 44.3465 817.791 43.9685C815.553 43.557 814.017 41.1115 812.549 39.4716C810.893 37.6227 809.019 36.109 806.786 35.1454C803.044 33.5313 799.051 33.9335 795.566 36.4589C791.857 39.1464 788.533 43.6151 789.289 48.5896C789.429 49.5143 789.702 50.3325 790.201 51.0786C790.659 51.7627 791.42 52.5589 791.446 53.4763C791.473 54.4513 790.419 55.4376 789.919 56.1865C789.203 57.2595 788.547 58.41 788.351 59.7216C788.029 61.8756 788.853 64.2138 789.906 65.9449C790.978 67.7065 792.528 68.9499 794.305 69.7881C795.492 70.3477 796.734 70.8029 798.027 71.0262C798.668 71.137 799.268 71.1009 799.913 71.1141C800.54 71.127 800.833 71.3671 801.256 71.8177C803.219 73.9113 805.589 75.1228 808.347 75.5719C810.674 75.9507 813.44 76.0543 815.688 74.9583C818.186 73.741 818.741 71.3419 818.891 68.6685C819.342 69.0517 820.728 69.5647 820.129 68.3367C819.893 67.8504 819.296 67.5278 818.922 67.1833C818.487 66.7822 818.064 66.2986 817.785 65.7517C816.658 63.5433 819.174 60.2485 821.311 60.1351C824.487 59.9666 824.109 64.2971 825.946 65.8997C827.003 66.8212 828.481 66.2902 829.604 65.6518C831.108 64.7964 832.319 63.4683 833.423 62.085C834.333 60.9459 835.206 59.7784 836.126 58.6485C836.555 58.1208 837.947 56.6735 837.628 55.8764C839.846 55.9825 841.981 57.4461 843.514 59.0496C844.148 59.7125 844.591 60.3795 844.783 61.3186C844.824 61.5198 844.878 62.101 845.107 62.1814C845.534 62.3313 845.504 61.7568 845.524 61.4921Z" fill="#191847"/>
<path fill-rule="evenodd" clip-rule="evenodd" d="M889.452 171.513L865.991 153.674L860.511 166.549L883.875 176.703C890.395 184.625 894.06 187.944 894.87 186.66C895.554 185.578 895.052 184.544 894.59 183.592C894.231 182.851 893.895 182.159 894.162 181.531C894.772 180.099 899.24 180.329 903.471 180.728C907.702 181.127 906.5 179.224 905.495 178.276C901.215 175.616 895.868 173.362 889.452 171.513ZM764.284 200.039C766.544 195.655 774.732 152.683 774.732 152.683L790.3 153.016C790.3 153.016 775.069 199.241 773.87 202.065C772.313 205.733 774.755 211.145 776.411 214.814C776.667 215.382 776.905 215.908 777.106 216.379C774.701 217.404 773.577 216.095 772.392 214.715C771.054 213.157 769.638 211.509 766.211 213.028C764.887 213.616 763.631 214.315 762.405 214.999C758.168 217.36 754.275 219.529 749.09 216.208C748.267 215.682 747.39 213.738 749.617 212.27C755.164 208.613 763.179 202.183 764.284 200.039Z" fill="#B28B67"/>
<path fill-rule="evenodd" clip-rule="evenodd" d="M820.117 88.2275L826.579 87.2367C850.123 108.27 859.249 148.049 888.183 169.541L880.979 178.146C830.258 170.975 818.503 122.444 820.117 88.2275Z" fill="#E87613"/>
<path fill-rule="evenodd" clip-rule="evenodd" d="M790.621 168.571C790.621 168.571 829.369 169.247 847.626 169.566C850.231 169.611 849.805 165.848 849.462 163.946C845.498 142 828.945 118.129 829.489 86.9982L813.091 84.1369C799.109 105.738 793.937 132.544 790.621 168.571Z" fill="#DDE3E9"/>
<path fill-rule="evenodd" clip-rule="evenodd" d="M783.938 184.081C781.269 190.18 778.663 195.496 776.224 199.572L763.999 199.359C763.424 156.875 780.096 124.485 793.914 105.02C790.926 104.754 788.248 103.457 786.594 100.352C780.773 89.4197 783.048 83.4965 789.505 81.6492C793.055 80.6333 796.364 81.4268 800.325 82.3765C803.566 83.1537 807.243 84.0355 811.847 84.1164C811.847 84.1161 811.847 84.116 811.847 84.116L811.848 84.1165C811.849 84.1165 811.851 84.1165 811.852 84.1165C812.295 84.1243 812.699 84.1608 813.065 84.2237L818.522 84.6303C818.522 84.6303 839.366 159.977 828.995 184.867L783.938 184.081Z" fill="#FF9B21"/>
<path fill-rule="evenodd" clip-rule="evenodd" d="M783.94 184.08C787.442 176.079 791.053 166.731 794.54 157.072C795.588 167.794 797.456 178.577 800.78 184.374L783.94 184.08Z" fill="black" fill-opacity="0.1"/>
<path fill-rule="evenodd" clip-rule="evenodd" d="M1178.89 90.5218C1182.43 94.9056 1186.41 97.8489 1188.7 98.0724C1194.45 98.6328 1201.91 79.6367 1200.59 70.5996C1199.28 61.5626 1179.59 50.6658 1173.09 65.2577C1170.83 70.3221 1171.33 75.7563 1173.18 80.7171L1157.58 105.556L1174.41 111.68L1178.89 90.5218Z" fill="#B28B67"/>
<path fill-rule="evenodd" clip-rule="evenodd" d="M1198.62 64.2351C1198.31 63.8652 1197.68 63.0874 1197.34 62.7632C1197.26 62.6858 1196.76 61.9574 1196.74 61.9569C1196.16 61.9429 1194.44 62.0398 1194.12 62.544C1194.08 62.5785 1194.05 62.6106 1194.02 62.6379C1193.67 62.9429 1193.33 63.2637 1193 63.5925C1192.28 64.3142 1191.61 65.0953 1190.94 65.8749C1189.66 67.3933 1188.44 68.9835 1187.27 70.5943C1186.07 72.2341 1184.95 73.9243 1183.78 75.5812C1182.1 77.9654 1180.23 80.2113 1178.55 82.5962C1177.48 84.119 1176.61 85.7356 1176.09 87.5179C1176.09 87.5393 1176.08 87.5601 1176.07 87.5821C1176.07 87.591 1176.07 87.6 1176.07 87.609C1175.99 87.8837 1175.92 88.1622 1175.86 88.4451C1175.81 88.6872 1175.76 88.9302 1175.72 89.174C1176.84 88.1103 1177.87 86.8576 1178.89 85.689C1178.99 85.5746 1179.09 85.4583 1179.19 85.3412C1179.46 85.1273 1179.73 84.9166 1180.01 84.7077C1181.75 83.39 1183.49 82.0802 1185.19 80.7148C1188.25 78.259 1191.32 75.73 1194.65 73.6613C1195.63 73.0504 1196.63 72.4583 1197.6 71.8373C1198.16 71.4839 1198.71 71.1188 1199.25 70.7405C1199.63 70.4699 1201.2 69.6065 1201.07 68.7007C1201.01 68.2373 1199.4 65.1947 1198.62 64.2351Z" fill="#2C2C2C"/>
<path fill-rule="evenodd" clip-rule="evenodd" d="M1197.44 62.8709C1197.77 63.133 1197.87 62.2882 1197.61 61.8821C1196.39 60.0008 1190.12 57.1998 1184.1 56.3223C1180.07 55.7345 1175.01 56.0806 1171.11 57.4759C1167.6 58.7337 1164.43 61.6493 1162.21 64.7712C1159.88 68.0493 1158.35 71.7923 1157.55 75.7318C1157.37 76.5972 1157.35 77.4753 1157.21 78.3321C1157.04 79.2969 1156.81 80.1987 1156.79 81.1862C1156.77 81.7908 1156.89 82.4308 1156.84 83.0288C1156.79 83.7112 1156.48 84.2441 1156.12 84.8263C1155.54 85.7751 1154.91 86.7036 1154.18 87.5483C1153.09 88.8168 1151.92 89.9491 1150.94 91.3212C1149.64 93.147 1144.9 98.8988 1145.95 101.323L1178.57 113.194C1178.56 110.66 1177.06 107.131 1177.43 104.556C1177.65 103.039 1178.63 99.9087 1178.64 99.7856C1179.74 94.4614 1179.19 91.5243 1178.61 90.3208C1178.03 89.1173 1176.93 88.412 1177.14 87.6294C1178.03 84.3926 1180.38 81.8361 1182.37 79.2363C1184.74 76.1376 1186.84 72.8458 1189.24 69.7713C1190.3 68.4099 1195.73 61.5097 1197.44 62.8709Z" fill="#8991DC"/>
<path fill-rule="evenodd" clip-rule="evenodd" d="M1186.07 84.3918C1188.5 76.5168 1189.99 73.6349 1193.84 68.6245L1192.74 68.2233C1190.17 69.8357 1186.22 76.1768 1185.2 84.0726L1186.07 84.3918ZM1164.6 76.1643L1164.6 76.1642L1164.6 76.1629C1164.58 75.6237 1164.56 75.0716 1164.54 74.5048L1163.71 74.5858C1162.99 83.4621 1163.41 90.6719 1170.74 99.2571L1171.64 99.0165C1165.14 89.708 1164.93 84.4523 1164.6 76.1643ZM1180.73 73.4219L1180.73 73.4219C1178.34 84.1308 1176.82 90.9218 1179.94 105.376L1179.01 105.326C1174.87 91.4673 1176.82 82.0976 1180.41 71.0549L1181.21 71.277C1181.05 72.0107 1180.89 72.7246 1180.73 73.4219ZM1161.16 101.514L1160.12 102.123C1163.44 104.182 1164.93 107.71 1166.63 111.754C1168.43 116.032 1170.47 120.889 1175.19 125.196L1176.45 124.948C1171.53 119.598 1169.85 115.448 1168.38 111.823C1166.86 108.071 1165.57 104.884 1161.16 101.514Z" fill="black" fill-opacity="0.2"/>
<path fill-rule="evenodd" clip-rule="evenodd" d="M1134.75 171.225L1190.19 263.732L1231.76 341.939H1240.71L1171.06 171.225L1134.75 171.225Z" fill="#997659"/>
<path fill-rule="evenodd" clip-rule="evenodd" d="M1228.23 337.446C1227.5 337.119 1226.62 337.446 1226.35 338.202C1225.8 339.694 1225.03 342.024 1225.03 343.321C1225.03 345.336 1225.7 349.2 1225.7 349.2C1228.05 349.2 1267.79 349.2 1267.79 349.2C1267.79 349.2 1269.43 343.788 1265.89 343.356C1262.36 342.924 1260.02 342.577 1260.02 342.577L1240.41 333.849C1240.05 333.692 1239.64 333.857 1239.49 334.215L1238.21 337.314C1238.21 337.314 1234.94 338.838 1232.89 338.838C1231.61 338.838 1229.58 338.041 1228.23 337.446Z" fill="#E4E4E4"/>
<path fill-rule="evenodd" clip-rule="evenodd" d="M1220.21 329.416L1237.48 324.203C1237.48 324.203 1226.13 290.349 1209.66 249.693C1193.2 209.037 1174.29 171.225 1174.29 171.225H1125.53C1125.53 171.225 1146.54 219.056 1170.09 258.146C1193.63 297.236 1220.21 329.416 1220.21 329.416Z" fill="#DB2721"/>
<path fill-rule="evenodd" clip-rule="evenodd" d="M1131.1 171.225C1125.87 203.732 1115.78 245.265 1114.82 246.547C1114.19 247.401 1091.33 255.046 1046.24 269.481L1048.18 277.36C1101.94 269.619 1130.27 263.612 1133.16 259.341C1137.5 252.935 1159.18 202.324 1167.58 171.225H1131.1Z" fill="#B28B67"/>
<path fill-rule="evenodd" clip-rule="evenodd" d="M1062.09 262.67L1065.5 275.36C1105.71 278.88 1130.35 276.337 1139.42 267.73C1148.48 259.124 1158.81 226.955 1170.41 171.225H1123.91C1116.56 216.861 1112.45 240.636 1111.59 242.552C1110.72 244.468 1094.22 251.174 1062.09 262.67Z" fill="#FF4133"/>
<path fill-rule="evenodd" clip-rule="evenodd" d="M1049.66 267.969C1049.85 267.187 1049.38 266.379 1048.59 266.238C1047.02 265.96 1044.59 265.609 1043.31 265.834C1041.32 266.184 1037.62 267.516 1037.62 267.516C1038.03 269.817 1044.93 308.878 1044.93 308.878C1044.93 308.878 1050.56 309.551 1050.37 306.002C1050.18 302.454 1050.12 300.096 1050.12 300.096L1055.32 279.304C1055.42 278.927 1055.18 278.548 1054.8 278.464L1051.52 277.745C1051.52 277.745 1049.45 274.793 1049.1 272.783C1048.87 271.525 1049.31 269.39 1049.66 267.969Z" fill="#E4E4E4"/>
<path fill-rule="evenodd" clip-rule="evenodd" d="M1072.03 177.993C1075.78 174.772 1102.55 137.026 1102.55 137.026L1114.82 142.297C1114.82 142.297 1082.35 181.295 1080.17 183.466C1077.35 186.286 1077.59 192.223 1077.75 196.249C1077.77 196.872 1077.8 197.449 1077.81 197.962C1075.19 198.011 1074.64 196.375 1074.05 194.651C1073.4 192.704 1072.7 190.643 1068.95 190.769C1067.5 190.817 1066.07 190.996 1064.67 191.17C1059.85 191.773 1055.43 192.327 1051.86 187.301C1051.29 186.504 1051.21 184.372 1053.82 183.845C1060.35 182.53 1070.2 179.567 1072.03 177.993ZM1215.76 195.627L1198.94 171.39L1189.74 181.95L1208.85 198.843C1212.6 208.4 1215.07 212.693 1216.24 211.722C1217.22 210.903 1217.06 209.764 1216.92 208.715C1216.81 207.898 1216.7 207.135 1217.15 206.621C1218.17 205.446 1222.36 207.047 1226.26 208.735C1230.17 210.424 1229.61 208.24 1228.95 207.028C1225.7 203.172 1221.3 199.372 1215.76 195.627Z" fill="#B28B67"/>
<path fill-rule="evenodd" clip-rule="evenodd" d="M1169.83 99.3862L1178.43 98.8951C1182 128.521 1191.06 158.691 1211.94 187.717L1202.28 197.33C1182.48 177.219 1163.12 160.528 1159.64 137.381C1158.48 129.612 1167.35 107.639 1169.83 99.3862Z" fill="#C5CFD6"/>
<path fill-rule="evenodd" clip-rule="evenodd" d="M1122.48 167.393C1122.48 167.393 1155.51 180.097 1175.99 181.73C1177.68 181.865 1178.66 179.24 1178.4 177.211C1174.39 145.625 1173.06 118.647 1178.36 98.8741C1174.72 99.6277 1167.01 96.3523 1167.01 96.3523C1147.2 112.883 1134.34 134.494 1122.48 167.393Z" fill="#323337"/>
<path fill-rule="evenodd" clip-rule="evenodd" d="M1163.35 93.5425C1163.79 93.3925 1164.02 93.3209 1164.02 93.3209L1163.9 93.6887L1169.88 95.2915C1169.71 97.1361 1168.4 103.793 1166.49 113.499C1159.53 148.77 1144.65 224.312 1147.67 255.559L1074.3 235.898C1084.5 204.028 1106.77 168.615 1127.91 139.143C1116.37 145.753 1101.65 158.075 1086.28 181.031L1073.48 173.827C1103.62 117.346 1152.99 97.278 1162.43 93.8679C1162.56 93.7096 1162.68 93.5522 1162.81 93.3957L1163.35 93.5425Z" fill="#DDE3E9"/>
</svg>
