<svg width="66" height="50" viewBox="0 0 66 50" fill="none" xmlns="http://www.w3.org/2000/svg">
<g filter="url(#filter0_d)">
<ellipse cx="25" cy="25" rx="20" ry="20" fill="#E44343"/>
</g>
<path d="M15.0667 21.0898L30.9609 35.1697L29.8942 36.3738L14.1605 22.4362L15.0667 21.0898Z" fill="white"/>
<path fill-rule="evenodd" clip-rule="evenodd" d="M21.4313 19.5647C22.8897 20.8567 24.8954 20.9762 25.9195 19.8351C25.9858 20.1492 26.5268 21.2551 27.2671 22.6816L26.1058 23.9925C25.9094 24.2142 25.9299 24.5531 26.1516 24.7494C26.3733 24.9458 26.7122 24.9253 26.9085 24.7036L27.7993 23.698C28.0572 24.1868 28.3288 24.6969 28.6053 25.2134L27.4015 26.5723C27.2052 26.794 27.2257 27.1329 27.4474 27.3292C27.669 27.5256 28.0079 27.5051 28.2043 27.2834L29.1461 26.2203C29.4208 26.7305 29.6949 27.2376 29.9602 27.7275L28.6265 29.233C28.4302 29.4547 28.4507 29.7935 28.6724 29.9899C28.894 30.1863 29.2329 30.1658 29.4293 29.9441L30.504 28.7309L30.5389 28.7953L30.5389 28.7953C31.4729 30.5182 32.192 31.8446 32.2513 32.0132C32.4348 32.5338 32.4537 32.8099 32.3308 33.2981C32.1818 33.8902 31.4201 34.5688 31.4201 34.5688L15.6062 20.56C15.6062 20.56 16.8407 19.0297 17.7395 18.1518C18.6632 17.2497 20.1538 15.9925 20.1538 15.9925L20.1554 15.9936C19.8204 17.1213 20.2892 18.553 21.4313 19.5647Z" fill="white"/>
<path fill-rule="evenodd" clip-rule="evenodd" d="M47.8575 35.7355C49.8303 32.6362 50.9732 28.9569 50.9732 25.0108C50.9732 21.0644 49.8302 17.3849 47.8572 14.2855L65.456 25.0106L47.8575 35.7355Z" fill="#E44343"/>
<defs>
<filter id="filter0_d" x="0.136019" y="0.136019" width="49.728" height="49.728" filterUnits="userSpaceOnUse" color-interpolation-filters="sRGB">
<feFlood flood-opacity="0" result="BackgroundImageFix"/>
<feColorMatrix in="SourceAlpha" type="matrix" values="0 0 0 0 0 0 0 0 0 0 0 0 0 0 0 0 0 0 127 0"/>
<feOffset/>
<feGaussianBlur stdDeviation="2.43199"/>
<feColorMatrix type="matrix" values="0 0 0 0 0 0 0 0 0 0 0 0 0 0 0 0 0 0 0.25 0"/>
<feBlend mode="normal" in2="BackgroundImageFix" result="effect1_dropShadow"/>
<feBlend mode="normal" in="SourceGraphic" in2="effect1_dropShadow" result="shape"/>
</filter>
</defs>
</svg>
