<svg width="40" height="48" viewBox="0 0 40 48" fill="none" xmlns="http://www.w3.org/2000/svg">
<ellipse cx="19.6721" cy="45.6393" rx="2.36065" ry="2.36066" fill="#E44343"/>
<path opacity="0.8" d="M25.8711 37.4308C33.4478 34.8516 38.8982 27.6753 38.8982 19.226C38.8982 8.60778 30.2904 0 19.6721 0C9.05389 0 0.446106 8.60778 0.446106 19.226C0.446106 28.0324 6.36692 35.4559 14.4449 37.7329L15.3883 38.121C17.3015 38.9078 19.6721 42.0984 19.6721 42.0984C19.6721 42.0984 22.4242 38.9576 24.3129 38.121L25.8711 37.4308Z" fill="#EA7B7B"/>
<path d="M10.0667 16.0898L25.9609 30.1697L24.8942 31.3738L9.16054 17.4362L10.0667 16.0898Z" fill="white"/>
<path fill-rule="evenodd" clip-rule="evenodd" d="M16.4313 14.5647C17.8897 15.8567 19.8954 15.9762 20.9195 14.8351C20.9858 15.1492 21.5268 16.2551 22.2671 17.6816L21.1058 18.9925C20.9094 19.2142 20.9299 19.5531 21.1516 19.7494C21.3733 19.9458 21.7122 19.9253 21.9085 19.7036L22.7993 18.698C23.0572 19.1868 23.3288 19.6969 23.6053 20.2134L22.4015 21.5723C22.2052 21.794 22.2257 22.1329 22.4474 22.3292C22.669 22.5256 23.0079 22.5051 23.2043 22.2834L24.1461 21.2203C24.4208 21.7305 24.6949 22.2376 24.9602 22.7275L23.6265 24.233C23.4302 24.4547 23.4507 24.7935 23.6724 24.9899C23.894 25.1863 24.2329 25.1658 24.4293 24.9441L25.504 23.7309L25.5389 23.7953L25.5389 23.7953C26.4729 25.5182 27.192 26.8446 27.2513 27.0132C27.4348 27.5338 27.4537 27.8099 27.3308 28.2981C27.1818 28.8902 26.4201 29.5688 26.4201 29.5688L10.6062 15.56C10.6062 15.56 11.8407 14.0297 12.7395 13.1518C13.6632 12.2497 15.1538 10.9925 15.1538 10.9925L15.1554 10.9936C14.8204 12.1213 15.2892 13.553 16.4313 14.5647Z" fill="white"/>
</svg>
