<svg width="50" height="61" viewBox="0 0 50 61" fill="none" xmlns="http://www.w3.org/2000/svg">
<circle cx="25" cy="58" r="3" fill="#E44343"/>
<path opacity="0.8" d="M32.8779 47.5683C42.5066 44.2905 49.4331 35.1707 49.4331 24.4331C49.4331 10.9391 38.494 0 25 0C11.506 0 0.566956 10.9391 0.566956 24.4331C0.566956 35.6245 8.09132 45.0585 18.3571 47.9523L19.5561 48.4454C21.9874 49.4454 25 53.5 25 53.5C25 53.5 28.4975 49.5086 30.8977 48.4455L32.8779 47.5683Z" fill="#EA7B7B"/>
<path d="M30.8976 29.4882L32.5827 30.3307V16.8504C32.5827 15.9236 31.8244 15.1653 30.8976 15.1653H22.464C21.5372 15.1653 20.7874 15.9236 20.7874 16.8504H29.2126C30.1393 16.8504 30.8976 17.6087 30.8976 18.5354V29.4882ZM27.5275 18.5354H19.1023C18.1756 18.5354 17.4173 19.2937 17.4173 20.2205V33.7008L23.3149 31.1732L29.2126 33.7008V20.2205C29.2126 19.2937 28.4543 18.5354 27.5275 18.5354Z" fill="white"/>
</svg>
